%TF.GenerationSoftware,KiCad,Pcbnew,(6.0.8)*%
%TF.CreationDate,2024-04-27T10:12:53+02:00*%
%TF.ProjectId,RTC8088,52544338-3038-4382-9e6b-696361645f70,3.0*%
%TF.SameCoordinates,Original*%
%TF.FileFunction,Legend,Top*%
%TF.FilePolarity,Positive*%
%FSLAX46Y46*%
G04 Gerber Fmt 4.6, Leading zero omitted, Abs format (unit mm)*
G04 Created by KiCad (PCBNEW (6.0.8)) date 2024-04-27 10:12:53*
%MOMM*%
%LPD*%
G01*
G04 APERTURE LIST*
%ADD10C,0.120000*%
%ADD11C,0.150000*%
G04 APERTURE END LIST*
D10*
X192405000Y-57785000D02*
X194310000Y-59690000D01*
X184467500Y-61595000D02*
X184467500Y-57785000D01*
X184467500Y-57785000D02*
X192405000Y-57785000D01*
X192405000Y-61595000D02*
X184467500Y-61595000D01*
X194310000Y-59690000D02*
X192405000Y-61595000D01*
D11*
X185856904Y-59242142D02*
X185809285Y-59289761D01*
X185666428Y-59337380D01*
X185571190Y-59337380D01*
X185428333Y-59289761D01*
X185333095Y-59194523D01*
X185285476Y-59099285D01*
X185237857Y-58908809D01*
X185237857Y-58765952D01*
X185285476Y-58575476D01*
X185333095Y-58480238D01*
X185428333Y-58385000D01*
X185571190Y-58337380D01*
X185666428Y-58337380D01*
X185809285Y-58385000D01*
X185856904Y-58432619D01*
X186428333Y-59337380D02*
X186333095Y-59289761D01*
X186285476Y-59242142D01*
X186237857Y-59146904D01*
X186237857Y-58861190D01*
X186285476Y-58765952D01*
X186333095Y-58718333D01*
X186428333Y-58670714D01*
X186571190Y-58670714D01*
X186666428Y-58718333D01*
X186714047Y-58765952D01*
X186761666Y-58861190D01*
X186761666Y-59146904D01*
X186714047Y-59242142D01*
X186666428Y-59289761D01*
X186571190Y-59337380D01*
X186428333Y-59337380D01*
X187190238Y-59337380D02*
X187190238Y-58670714D01*
X187190238Y-58765952D02*
X187237857Y-58718333D01*
X187333095Y-58670714D01*
X187475952Y-58670714D01*
X187571190Y-58718333D01*
X187618809Y-58813571D01*
X187618809Y-59337380D01*
X187618809Y-58813571D02*
X187666428Y-58718333D01*
X187761666Y-58670714D01*
X187904523Y-58670714D01*
X187999761Y-58718333D01*
X188047380Y-58813571D01*
X188047380Y-59337380D01*
X188523571Y-58670714D02*
X188523571Y-59670714D01*
X188523571Y-58718333D02*
X188618809Y-58670714D01*
X188809285Y-58670714D01*
X188904523Y-58718333D01*
X188952142Y-58765952D01*
X188999761Y-58861190D01*
X188999761Y-59146904D01*
X188952142Y-59242142D01*
X188904523Y-59289761D01*
X188809285Y-59337380D01*
X188618809Y-59337380D01*
X188523571Y-59289761D01*
X189856904Y-58670714D02*
X189856904Y-59337380D01*
X189428333Y-58670714D02*
X189428333Y-59194523D01*
X189475952Y-59289761D01*
X189571190Y-59337380D01*
X189714047Y-59337380D01*
X189809285Y-59289761D01*
X189856904Y-59242142D01*
X190190238Y-58670714D02*
X190571190Y-58670714D01*
X190333095Y-58337380D02*
X190333095Y-59194523D01*
X190380714Y-59289761D01*
X190475952Y-59337380D01*
X190571190Y-59337380D01*
X191285476Y-59289761D02*
X191190238Y-59337380D01*
X190999761Y-59337380D01*
X190904523Y-59289761D01*
X190856904Y-59194523D01*
X190856904Y-58813571D01*
X190904523Y-58718333D01*
X190999761Y-58670714D01*
X191190238Y-58670714D01*
X191285476Y-58718333D01*
X191333095Y-58813571D01*
X191333095Y-58908809D01*
X190856904Y-59004047D01*
X191761666Y-59337380D02*
X191761666Y-58670714D01*
X191761666Y-58861190D02*
X191809285Y-58765952D01*
X191856904Y-58718333D01*
X191952142Y-58670714D01*
X192047380Y-58670714D01*
X185737857Y-60947380D02*
X185404523Y-60471190D01*
X185166428Y-60947380D02*
X185166428Y-59947380D01*
X185547380Y-59947380D01*
X185642619Y-59995000D01*
X185690238Y-60042619D01*
X185737857Y-60137857D01*
X185737857Y-60280714D01*
X185690238Y-60375952D01*
X185642619Y-60423571D01*
X185547380Y-60471190D01*
X185166428Y-60471190D01*
X186547380Y-60899761D02*
X186452142Y-60947380D01*
X186261666Y-60947380D01*
X186166428Y-60899761D01*
X186118809Y-60804523D01*
X186118809Y-60423571D01*
X186166428Y-60328333D01*
X186261666Y-60280714D01*
X186452142Y-60280714D01*
X186547380Y-60328333D01*
X186595000Y-60423571D01*
X186595000Y-60518809D01*
X186118809Y-60614047D01*
X187452142Y-60947380D02*
X187452142Y-60423571D01*
X187404523Y-60328333D01*
X187309285Y-60280714D01*
X187118809Y-60280714D01*
X187023571Y-60328333D01*
X187452142Y-60899761D02*
X187356904Y-60947380D01*
X187118809Y-60947380D01*
X187023571Y-60899761D01*
X186975952Y-60804523D01*
X186975952Y-60709285D01*
X187023571Y-60614047D01*
X187118809Y-60566428D01*
X187356904Y-60566428D01*
X187452142Y-60518809D01*
X187928333Y-60947380D02*
X187928333Y-60280714D01*
X187928333Y-60471190D02*
X187975952Y-60375952D01*
X188023571Y-60328333D01*
X188118809Y-60280714D01*
X188214047Y-60280714D01*
X189261666Y-60899761D02*
X189404523Y-60947380D01*
X189642619Y-60947380D01*
X189737857Y-60899761D01*
X189785476Y-60852142D01*
X189833095Y-60756904D01*
X189833095Y-60661666D01*
X189785476Y-60566428D01*
X189737857Y-60518809D01*
X189642619Y-60471190D01*
X189452142Y-60423571D01*
X189356904Y-60375952D01*
X189309285Y-60328333D01*
X189261666Y-60233095D01*
X189261666Y-60137857D01*
X189309285Y-60042619D01*
X189356904Y-59995000D01*
X189452142Y-59947380D01*
X189690238Y-59947380D01*
X189833095Y-59995000D01*
X190261666Y-60947380D02*
X190261666Y-60280714D01*
X190261666Y-59947380D02*
X190214047Y-59995000D01*
X190261666Y-60042619D01*
X190309285Y-59995000D01*
X190261666Y-59947380D01*
X190261666Y-60042619D01*
X191166428Y-60947380D02*
X191166428Y-59947380D01*
X191166428Y-60899761D02*
X191071190Y-60947380D01*
X190880714Y-60947380D01*
X190785476Y-60899761D01*
X190737857Y-60852142D01*
X190690238Y-60756904D01*
X190690238Y-60471190D01*
X190737857Y-60375952D01*
X190785476Y-60328333D01*
X190880714Y-60280714D01*
X191071190Y-60280714D01*
X191166428Y-60328333D01*
X192023571Y-60899761D02*
X191928333Y-60947380D01*
X191737857Y-60947380D01*
X191642619Y-60899761D01*
X191595000Y-60804523D01*
X191595000Y-60423571D01*
X191642619Y-60328333D01*
X191737857Y-60280714D01*
X191928333Y-60280714D01*
X192023571Y-60328333D01*
X192071190Y-60423571D01*
X192071190Y-60518809D01*
X191595000Y-60614047D01*
X123439880Y-58349166D02*
X123820833Y-58349166D01*
X123363690Y-58634880D02*
X123630357Y-57634880D01*
X123897023Y-58634880D01*
X124506547Y-58634880D02*
X124506547Y-57634880D01*
X124506547Y-58587261D02*
X124430357Y-58634880D01*
X124277976Y-58634880D01*
X124201785Y-58587261D01*
X124163690Y-58539642D01*
X124125595Y-58444404D01*
X124125595Y-58158690D01*
X124163690Y-58063452D01*
X124201785Y-58015833D01*
X124277976Y-57968214D01*
X124430357Y-57968214D01*
X124506547Y-58015833D01*
X125230357Y-58634880D02*
X125230357Y-57634880D01*
X125230357Y-58587261D02*
X125154166Y-58634880D01*
X125001785Y-58634880D01*
X124925595Y-58587261D01*
X124887500Y-58539642D01*
X124849404Y-58444404D01*
X124849404Y-58158690D01*
X124887500Y-58063452D01*
X124925595Y-58015833D01*
X125001785Y-57968214D01*
X125154166Y-57968214D01*
X125230357Y-58015833D01*
X125611309Y-58634880D02*
X125611309Y-57968214D01*
X125611309Y-58158690D02*
X125649404Y-58063452D01*
X125687500Y-58015833D01*
X125763690Y-57968214D01*
X125839880Y-57968214D01*
X126411309Y-58587261D02*
X126335119Y-58634880D01*
X126182738Y-58634880D01*
X126106547Y-58587261D01*
X126068452Y-58492023D01*
X126068452Y-58111071D01*
X126106547Y-58015833D01*
X126182738Y-57968214D01*
X126335119Y-57968214D01*
X126411309Y-58015833D01*
X126449404Y-58111071D01*
X126449404Y-58206309D01*
X126068452Y-58301547D01*
X126754166Y-58587261D02*
X126830357Y-58634880D01*
X126982738Y-58634880D01*
X127058928Y-58587261D01*
X127097023Y-58492023D01*
X127097023Y-58444404D01*
X127058928Y-58349166D01*
X126982738Y-58301547D01*
X126868452Y-58301547D01*
X126792261Y-58253928D01*
X126754166Y-58158690D01*
X126754166Y-58111071D01*
X126792261Y-58015833D01*
X126868452Y-57968214D01*
X126982738Y-57968214D01*
X127058928Y-58015833D01*
X127401785Y-58587261D02*
X127477976Y-58634880D01*
X127630357Y-58634880D01*
X127706547Y-58587261D01*
X127744642Y-58492023D01*
X127744642Y-58444404D01*
X127706547Y-58349166D01*
X127630357Y-58301547D01*
X127516071Y-58301547D01*
X127439880Y-58253928D01*
X127401785Y-58158690D01*
X127401785Y-58111071D01*
X127439880Y-58015833D01*
X127516071Y-57968214D01*
X127630357Y-57968214D01*
X127706547Y-58015833D01*
X123630357Y-59244880D02*
X123706547Y-59244880D01*
X123782738Y-59292500D01*
X123820833Y-59340119D01*
X123858928Y-59435357D01*
X123897023Y-59625833D01*
X123897023Y-59863928D01*
X123858928Y-60054404D01*
X123820833Y-60149642D01*
X123782738Y-60197261D01*
X123706547Y-60244880D01*
X123630357Y-60244880D01*
X123554166Y-60197261D01*
X123516071Y-60149642D01*
X123477976Y-60054404D01*
X123439880Y-59863928D01*
X123439880Y-59625833D01*
X123477976Y-59435357D01*
X123516071Y-59340119D01*
X123554166Y-59292500D01*
X123630357Y-59244880D01*
X124163690Y-60244880D02*
X124582738Y-59578214D01*
X124163690Y-59578214D02*
X124582738Y-60244880D01*
X124811309Y-59244880D02*
X125344642Y-59244880D01*
X125001785Y-60244880D01*
X125801785Y-59244880D02*
X125877976Y-59244880D01*
X125954166Y-59292500D01*
X125992261Y-59340119D01*
X126030357Y-59435357D01*
X126068452Y-59625833D01*
X126068452Y-59863928D01*
X126030357Y-60054404D01*
X125992261Y-60149642D01*
X125954166Y-60197261D01*
X125877976Y-60244880D01*
X125801785Y-60244880D01*
X125725595Y-60197261D01*
X125687500Y-60149642D01*
X125649404Y-60054404D01*
X125611309Y-59863928D01*
X125611309Y-59625833D01*
X125649404Y-59435357D01*
X125687500Y-59340119D01*
X125725595Y-59292500D01*
X125801785Y-59244880D01*
X123630357Y-60854880D02*
X123706547Y-60854880D01*
X123782738Y-60902500D01*
X123820833Y-60950119D01*
X123858928Y-61045357D01*
X123897023Y-61235833D01*
X123897023Y-61473928D01*
X123858928Y-61664404D01*
X123820833Y-61759642D01*
X123782738Y-61807261D01*
X123706547Y-61854880D01*
X123630357Y-61854880D01*
X123554166Y-61807261D01*
X123516071Y-61759642D01*
X123477976Y-61664404D01*
X123439880Y-61473928D01*
X123439880Y-61235833D01*
X123477976Y-61045357D01*
X123516071Y-60950119D01*
X123554166Y-60902500D01*
X123630357Y-60854880D01*
X124163690Y-61854880D02*
X124582738Y-61188214D01*
X124163690Y-61188214D02*
X124582738Y-61854880D01*
X124849404Y-60950119D02*
X124887500Y-60902500D01*
X124963690Y-60854880D01*
X125154166Y-60854880D01*
X125230357Y-60902500D01*
X125268452Y-60950119D01*
X125306547Y-61045357D01*
X125306547Y-61140595D01*
X125268452Y-61283452D01*
X124811309Y-61854880D01*
X125306547Y-61854880D01*
X125992261Y-61188214D02*
X125992261Y-61854880D01*
X125801785Y-60807261D02*
X125611309Y-61521547D01*
X126106547Y-61521547D01*
X126563690Y-60854880D02*
X126639880Y-60854880D01*
X126716071Y-60902500D01*
X126754166Y-60950119D01*
X126792261Y-61045357D01*
X126830357Y-61235833D01*
X126830357Y-61473928D01*
X126792261Y-61664404D01*
X126754166Y-61759642D01*
X126716071Y-61807261D01*
X126639880Y-61854880D01*
X126563690Y-61854880D01*
X126487500Y-61807261D01*
X126449404Y-61759642D01*
X126411309Y-61664404D01*
X126373214Y-61473928D01*
X126373214Y-61235833D01*
X126411309Y-61045357D01*
X126449404Y-60950119D01*
X126487500Y-60902500D01*
X126563690Y-60854880D01*
X123630357Y-62464880D02*
X123706547Y-62464880D01*
X123782738Y-62512500D01*
X123820833Y-62560119D01*
X123858928Y-62655357D01*
X123897023Y-62845833D01*
X123897023Y-63083928D01*
X123858928Y-63274404D01*
X123820833Y-63369642D01*
X123782738Y-63417261D01*
X123706547Y-63464880D01*
X123630357Y-63464880D01*
X123554166Y-63417261D01*
X123516071Y-63369642D01*
X123477976Y-63274404D01*
X123439880Y-63083928D01*
X123439880Y-62845833D01*
X123477976Y-62655357D01*
X123516071Y-62560119D01*
X123554166Y-62512500D01*
X123630357Y-62464880D01*
X124163690Y-63464880D02*
X124582738Y-62798214D01*
X124163690Y-62798214D02*
X124582738Y-63464880D01*
X124849404Y-62560119D02*
X124887500Y-62512500D01*
X124963690Y-62464880D01*
X125154166Y-62464880D01*
X125230357Y-62512500D01*
X125268452Y-62560119D01*
X125306547Y-62655357D01*
X125306547Y-62750595D01*
X125268452Y-62893452D01*
X124811309Y-63464880D01*
X125306547Y-63464880D01*
X125611309Y-63179166D02*
X125992261Y-63179166D01*
X125535119Y-63464880D02*
X125801785Y-62464880D01*
X126068452Y-63464880D01*
X126487500Y-62464880D02*
X126563690Y-62464880D01*
X126639880Y-62512500D01*
X126677976Y-62560119D01*
X126716071Y-62655357D01*
X126754166Y-62845833D01*
X126754166Y-63083928D01*
X126716071Y-63274404D01*
X126677976Y-63369642D01*
X126639880Y-63417261D01*
X126563690Y-63464880D01*
X126487500Y-63464880D01*
X126411309Y-63417261D01*
X126373214Y-63369642D01*
X126335119Y-63274404D01*
X126297023Y-63083928D01*
X126297023Y-62845833D01*
X126335119Y-62655357D01*
X126373214Y-62560119D01*
X126411309Y-62512500D01*
X126487500Y-62464880D01*
X123630357Y-64074880D02*
X123706547Y-64074880D01*
X123782738Y-64122500D01*
X123820833Y-64170119D01*
X123858928Y-64265357D01*
X123897023Y-64455833D01*
X123897023Y-64693928D01*
X123858928Y-64884404D01*
X123820833Y-64979642D01*
X123782738Y-65027261D01*
X123706547Y-65074880D01*
X123630357Y-65074880D01*
X123554166Y-65027261D01*
X123516071Y-64979642D01*
X123477976Y-64884404D01*
X123439880Y-64693928D01*
X123439880Y-64455833D01*
X123477976Y-64265357D01*
X123516071Y-64170119D01*
X123554166Y-64122500D01*
X123630357Y-64074880D01*
X124163690Y-65074880D02*
X124582738Y-64408214D01*
X124163690Y-64408214D02*
X124582738Y-65074880D01*
X124849404Y-64170119D02*
X124887500Y-64122500D01*
X124963690Y-64074880D01*
X125154166Y-64074880D01*
X125230357Y-64122500D01*
X125268452Y-64170119D01*
X125306547Y-64265357D01*
X125306547Y-64360595D01*
X125268452Y-64503452D01*
X124811309Y-65074880D01*
X125306547Y-65074880D01*
X126106547Y-64979642D02*
X126068452Y-65027261D01*
X125954166Y-65074880D01*
X125877976Y-65074880D01*
X125763690Y-65027261D01*
X125687500Y-64932023D01*
X125649404Y-64836785D01*
X125611309Y-64646309D01*
X125611309Y-64503452D01*
X125649404Y-64312976D01*
X125687500Y-64217738D01*
X125763690Y-64122500D01*
X125877976Y-64074880D01*
X125954166Y-64074880D01*
X126068452Y-64122500D01*
X126106547Y-64170119D01*
X126601785Y-64074880D02*
X126677976Y-64074880D01*
X126754166Y-64122500D01*
X126792261Y-64170119D01*
X126830357Y-64265357D01*
X126868452Y-64455833D01*
X126868452Y-64693928D01*
X126830357Y-64884404D01*
X126792261Y-64979642D01*
X126754166Y-65027261D01*
X126677976Y-65074880D01*
X126601785Y-65074880D01*
X126525595Y-65027261D01*
X126487500Y-64979642D01*
X126449404Y-64884404D01*
X126411309Y-64693928D01*
X126411309Y-64455833D01*
X126449404Y-64265357D01*
X126487500Y-64170119D01*
X126525595Y-64122500D01*
X126601785Y-64074880D01*
X123630357Y-65684880D02*
X123706547Y-65684880D01*
X123782738Y-65732500D01*
X123820833Y-65780119D01*
X123858928Y-65875357D01*
X123897023Y-66065833D01*
X123897023Y-66303928D01*
X123858928Y-66494404D01*
X123820833Y-66589642D01*
X123782738Y-66637261D01*
X123706547Y-66684880D01*
X123630357Y-66684880D01*
X123554166Y-66637261D01*
X123516071Y-66589642D01*
X123477976Y-66494404D01*
X123439880Y-66303928D01*
X123439880Y-66065833D01*
X123477976Y-65875357D01*
X123516071Y-65780119D01*
X123554166Y-65732500D01*
X123630357Y-65684880D01*
X124163690Y-66684880D02*
X124582738Y-66018214D01*
X124163690Y-66018214D02*
X124582738Y-66684880D01*
X124811309Y-65684880D02*
X125306547Y-65684880D01*
X125039880Y-66065833D01*
X125154166Y-66065833D01*
X125230357Y-66113452D01*
X125268452Y-66161071D01*
X125306547Y-66256309D01*
X125306547Y-66494404D01*
X125268452Y-66589642D01*
X125230357Y-66637261D01*
X125154166Y-66684880D01*
X124925595Y-66684880D01*
X124849404Y-66637261D01*
X124811309Y-66589642D01*
X125992261Y-66018214D02*
X125992261Y-66684880D01*
X125801785Y-65637261D02*
X125611309Y-66351547D01*
X126106547Y-66351547D01*
X126563690Y-65684880D02*
X126639880Y-65684880D01*
X126716071Y-65732500D01*
X126754166Y-65780119D01*
X126792261Y-65875357D01*
X126830357Y-66065833D01*
X126830357Y-66303928D01*
X126792261Y-66494404D01*
X126754166Y-66589642D01*
X126716071Y-66637261D01*
X126639880Y-66684880D01*
X126563690Y-66684880D01*
X126487500Y-66637261D01*
X126449404Y-66589642D01*
X126411309Y-66494404D01*
X126373214Y-66303928D01*
X126373214Y-66065833D01*
X126411309Y-65875357D01*
X126449404Y-65780119D01*
X126487500Y-65732500D01*
X126563690Y-65684880D01*
X123630357Y-67294880D02*
X123706547Y-67294880D01*
X123782738Y-67342500D01*
X123820833Y-67390119D01*
X123858928Y-67485357D01*
X123897023Y-67675833D01*
X123897023Y-67913928D01*
X123858928Y-68104404D01*
X123820833Y-68199642D01*
X123782738Y-68247261D01*
X123706547Y-68294880D01*
X123630357Y-68294880D01*
X123554166Y-68247261D01*
X123516071Y-68199642D01*
X123477976Y-68104404D01*
X123439880Y-67913928D01*
X123439880Y-67675833D01*
X123477976Y-67485357D01*
X123516071Y-67390119D01*
X123554166Y-67342500D01*
X123630357Y-67294880D01*
X124163690Y-68294880D02*
X124582738Y-67628214D01*
X124163690Y-67628214D02*
X124582738Y-68294880D01*
X124811309Y-67294880D02*
X125306547Y-67294880D01*
X125039880Y-67675833D01*
X125154166Y-67675833D01*
X125230357Y-67723452D01*
X125268452Y-67771071D01*
X125306547Y-67866309D01*
X125306547Y-68104404D01*
X125268452Y-68199642D01*
X125230357Y-68247261D01*
X125154166Y-68294880D01*
X124925595Y-68294880D01*
X124849404Y-68247261D01*
X124811309Y-68199642D01*
X125611309Y-68009166D02*
X125992261Y-68009166D01*
X125535119Y-68294880D02*
X125801785Y-67294880D01*
X126068452Y-68294880D01*
X126487500Y-67294880D02*
X126563690Y-67294880D01*
X126639880Y-67342500D01*
X126677976Y-67390119D01*
X126716071Y-67485357D01*
X126754166Y-67675833D01*
X126754166Y-67913928D01*
X126716071Y-68104404D01*
X126677976Y-68199642D01*
X126639880Y-68247261D01*
X126563690Y-68294880D01*
X126487500Y-68294880D01*
X126411309Y-68247261D01*
X126373214Y-68199642D01*
X126335119Y-68104404D01*
X126297023Y-67913928D01*
X126297023Y-67675833D01*
X126335119Y-67485357D01*
X126373214Y-67390119D01*
X126411309Y-67342500D01*
X126487500Y-67294880D01*
X123630357Y-68904880D02*
X123706547Y-68904880D01*
X123782738Y-68952500D01*
X123820833Y-69000119D01*
X123858928Y-69095357D01*
X123897023Y-69285833D01*
X123897023Y-69523928D01*
X123858928Y-69714404D01*
X123820833Y-69809642D01*
X123782738Y-69857261D01*
X123706547Y-69904880D01*
X123630357Y-69904880D01*
X123554166Y-69857261D01*
X123516071Y-69809642D01*
X123477976Y-69714404D01*
X123439880Y-69523928D01*
X123439880Y-69285833D01*
X123477976Y-69095357D01*
X123516071Y-69000119D01*
X123554166Y-68952500D01*
X123630357Y-68904880D01*
X124163690Y-69904880D02*
X124582738Y-69238214D01*
X124163690Y-69238214D02*
X124582738Y-69904880D01*
X124811309Y-68904880D02*
X125306547Y-68904880D01*
X125039880Y-69285833D01*
X125154166Y-69285833D01*
X125230357Y-69333452D01*
X125268452Y-69381071D01*
X125306547Y-69476309D01*
X125306547Y-69714404D01*
X125268452Y-69809642D01*
X125230357Y-69857261D01*
X125154166Y-69904880D01*
X124925595Y-69904880D01*
X124849404Y-69857261D01*
X124811309Y-69809642D01*
X126106547Y-69809642D02*
X126068452Y-69857261D01*
X125954166Y-69904880D01*
X125877976Y-69904880D01*
X125763690Y-69857261D01*
X125687500Y-69762023D01*
X125649404Y-69666785D01*
X125611309Y-69476309D01*
X125611309Y-69333452D01*
X125649404Y-69142976D01*
X125687500Y-69047738D01*
X125763690Y-68952500D01*
X125877976Y-68904880D01*
X125954166Y-68904880D01*
X126068452Y-68952500D01*
X126106547Y-69000119D01*
X126601785Y-68904880D02*
X126677976Y-68904880D01*
X126754166Y-68952500D01*
X126792261Y-69000119D01*
X126830357Y-69095357D01*
X126868452Y-69285833D01*
X126868452Y-69523928D01*
X126830357Y-69714404D01*
X126792261Y-69809642D01*
X126754166Y-69857261D01*
X126677976Y-69904880D01*
X126601785Y-69904880D01*
X126525595Y-69857261D01*
X126487500Y-69809642D01*
X126449404Y-69714404D01*
X126411309Y-69523928D01*
X126411309Y-69285833D01*
X126449404Y-69095357D01*
X126487500Y-69000119D01*
X126525595Y-68952500D01*
X126601785Y-68904880D01*
X128519880Y-58587261D02*
X128634166Y-58634880D01*
X128824642Y-58634880D01*
X128900833Y-58587261D01*
X128938928Y-58539642D01*
X128977023Y-58444404D01*
X128977023Y-58349166D01*
X128938928Y-58253928D01*
X128900833Y-58206309D01*
X128824642Y-58158690D01*
X128672261Y-58111071D01*
X128596071Y-58063452D01*
X128557976Y-58015833D01*
X128519880Y-57920595D01*
X128519880Y-57825357D01*
X128557976Y-57730119D01*
X128596071Y-57682500D01*
X128672261Y-57634880D01*
X128862738Y-57634880D01*
X128977023Y-57682500D01*
X129243690Y-57634880D02*
X129434166Y-58634880D01*
X129586547Y-57920595D01*
X129738928Y-58634880D01*
X129929404Y-57634880D01*
X130653214Y-58634880D02*
X130196071Y-58634880D01*
X130424642Y-58634880D02*
X130424642Y-57634880D01*
X130348452Y-57777738D01*
X130272261Y-57872976D01*
X130196071Y-57920595D01*
X130996071Y-58539642D02*
X131034166Y-58587261D01*
X130996071Y-58634880D01*
X130957976Y-58587261D01*
X130996071Y-58539642D01*
X130996071Y-58634880D01*
X131796071Y-58634880D02*
X131338928Y-58634880D01*
X131567500Y-58634880D02*
X131567500Y-57634880D01*
X131491309Y-57777738D01*
X131415119Y-57872976D01*
X131338928Y-57920595D01*
X128710357Y-59244880D02*
X128862738Y-59244880D01*
X128938928Y-59292500D01*
X129015119Y-59387738D01*
X129053214Y-59578214D01*
X129053214Y-59911547D01*
X129015119Y-60102023D01*
X128938928Y-60197261D01*
X128862738Y-60244880D01*
X128710357Y-60244880D01*
X128634166Y-60197261D01*
X128557976Y-60102023D01*
X128519880Y-59911547D01*
X128519880Y-59578214D01*
X128557976Y-59387738D01*
X128634166Y-59292500D01*
X128710357Y-59244880D01*
X129662738Y-59721071D02*
X129396071Y-59721071D01*
X129396071Y-60244880D02*
X129396071Y-59244880D01*
X129777023Y-59244880D01*
X130348452Y-59721071D02*
X130081785Y-59721071D01*
X130081785Y-60244880D02*
X130081785Y-59244880D01*
X130462738Y-59244880D01*
X128710357Y-60854880D02*
X128862738Y-60854880D01*
X128938928Y-60902500D01*
X129015119Y-60997738D01*
X129053214Y-61188214D01*
X129053214Y-61521547D01*
X129015119Y-61712023D01*
X128938928Y-61807261D01*
X128862738Y-61854880D01*
X128710357Y-61854880D01*
X128634166Y-61807261D01*
X128557976Y-61712023D01*
X128519880Y-61521547D01*
X128519880Y-61188214D01*
X128557976Y-60997738D01*
X128634166Y-60902500D01*
X128710357Y-60854880D01*
X129396071Y-61854880D02*
X129396071Y-60854880D01*
X129853214Y-61854880D01*
X129853214Y-60854880D01*
X128710357Y-62464880D02*
X128862738Y-62464880D01*
X128938928Y-62512500D01*
X129015119Y-62607738D01*
X129053214Y-62798214D01*
X129053214Y-63131547D01*
X129015119Y-63322023D01*
X128938928Y-63417261D01*
X128862738Y-63464880D01*
X128710357Y-63464880D01*
X128634166Y-63417261D01*
X128557976Y-63322023D01*
X128519880Y-63131547D01*
X128519880Y-62798214D01*
X128557976Y-62607738D01*
X128634166Y-62512500D01*
X128710357Y-62464880D01*
X129662738Y-62941071D02*
X129396071Y-62941071D01*
X129396071Y-63464880D02*
X129396071Y-62464880D01*
X129777023Y-62464880D01*
X130348452Y-62941071D02*
X130081785Y-62941071D01*
X130081785Y-63464880D02*
X130081785Y-62464880D01*
X130462738Y-62464880D01*
X128710357Y-64074880D02*
X128862738Y-64074880D01*
X128938928Y-64122500D01*
X129015119Y-64217738D01*
X129053214Y-64408214D01*
X129053214Y-64741547D01*
X129015119Y-64932023D01*
X128938928Y-65027261D01*
X128862738Y-65074880D01*
X128710357Y-65074880D01*
X128634166Y-65027261D01*
X128557976Y-64932023D01*
X128519880Y-64741547D01*
X128519880Y-64408214D01*
X128557976Y-64217738D01*
X128634166Y-64122500D01*
X128710357Y-64074880D01*
X129396071Y-65074880D02*
X129396071Y-64074880D01*
X129853214Y-65074880D01*
X129853214Y-64074880D01*
X128710357Y-65684880D02*
X128862738Y-65684880D01*
X128938928Y-65732500D01*
X129015119Y-65827738D01*
X129053214Y-66018214D01*
X129053214Y-66351547D01*
X129015119Y-66542023D01*
X128938928Y-66637261D01*
X128862738Y-66684880D01*
X128710357Y-66684880D01*
X128634166Y-66637261D01*
X128557976Y-66542023D01*
X128519880Y-66351547D01*
X128519880Y-66018214D01*
X128557976Y-65827738D01*
X128634166Y-65732500D01*
X128710357Y-65684880D01*
X129662738Y-66161071D02*
X129396071Y-66161071D01*
X129396071Y-66684880D02*
X129396071Y-65684880D01*
X129777023Y-65684880D01*
X130348452Y-66161071D02*
X130081785Y-66161071D01*
X130081785Y-66684880D02*
X130081785Y-65684880D01*
X130462738Y-65684880D01*
X128710357Y-67294880D02*
X128862738Y-67294880D01*
X128938928Y-67342500D01*
X129015119Y-67437738D01*
X129053214Y-67628214D01*
X129053214Y-67961547D01*
X129015119Y-68152023D01*
X128938928Y-68247261D01*
X128862738Y-68294880D01*
X128710357Y-68294880D01*
X128634166Y-68247261D01*
X128557976Y-68152023D01*
X128519880Y-67961547D01*
X128519880Y-67628214D01*
X128557976Y-67437738D01*
X128634166Y-67342500D01*
X128710357Y-67294880D01*
X129396071Y-68294880D02*
X129396071Y-67294880D01*
X129853214Y-68294880D01*
X129853214Y-67294880D01*
X128710357Y-68904880D02*
X128862738Y-68904880D01*
X128938928Y-68952500D01*
X129015119Y-69047738D01*
X129053214Y-69238214D01*
X129053214Y-69571547D01*
X129015119Y-69762023D01*
X128938928Y-69857261D01*
X128862738Y-69904880D01*
X128710357Y-69904880D01*
X128634166Y-69857261D01*
X128557976Y-69762023D01*
X128519880Y-69571547D01*
X128519880Y-69238214D01*
X128557976Y-69047738D01*
X128634166Y-68952500D01*
X128710357Y-68904880D01*
X129662738Y-69381071D02*
X129396071Y-69381071D01*
X129396071Y-69904880D02*
X129396071Y-68904880D01*
X129777023Y-68904880D01*
X130348452Y-69381071D02*
X130081785Y-69381071D01*
X130081785Y-69904880D02*
X130081785Y-68904880D01*
X130462738Y-68904880D01*
X189873214Y-85812261D02*
X190016071Y-85859880D01*
X190254166Y-85859880D01*
X190349404Y-85812261D01*
X190397023Y-85764642D01*
X190444642Y-85669404D01*
X190444642Y-85574166D01*
X190397023Y-85478928D01*
X190349404Y-85431309D01*
X190254166Y-85383690D01*
X190063690Y-85336071D01*
X189968452Y-85288452D01*
X189920833Y-85240833D01*
X189873214Y-85145595D01*
X189873214Y-85050357D01*
X189920833Y-84955119D01*
X189968452Y-84907500D01*
X190063690Y-84859880D01*
X190301785Y-84859880D01*
X190444642Y-84907500D01*
X191444642Y-85764642D02*
X191397023Y-85812261D01*
X191254166Y-85859880D01*
X191158928Y-85859880D01*
X191016071Y-85812261D01*
X190920833Y-85717023D01*
X190873214Y-85621785D01*
X190825595Y-85431309D01*
X190825595Y-85288452D01*
X190873214Y-85097976D01*
X190920833Y-85002738D01*
X191016071Y-84907500D01*
X191158928Y-84859880D01*
X191254166Y-84859880D01*
X191397023Y-84907500D01*
X191444642Y-84955119D01*
X191825595Y-84955119D02*
X191873214Y-84907500D01*
X191968452Y-84859880D01*
X192206547Y-84859880D01*
X192301785Y-84907500D01*
X192349404Y-84955119D01*
X192397023Y-85050357D01*
X192397023Y-85145595D01*
X192349404Y-85288452D01*
X191777976Y-85859880D01*
X192397023Y-85859880D01*
X193016071Y-84859880D02*
X193111309Y-84859880D01*
X193206547Y-84907500D01*
X193254166Y-84955119D01*
X193301785Y-85050357D01*
X193349404Y-85240833D01*
X193349404Y-85478928D01*
X193301785Y-85669404D01*
X193254166Y-85764642D01*
X193206547Y-85812261D01*
X193111309Y-85859880D01*
X193016071Y-85859880D01*
X192920833Y-85812261D01*
X192873214Y-85764642D01*
X192825595Y-85669404D01*
X192777976Y-85478928D01*
X192777976Y-85240833D01*
X192825595Y-85050357D01*
X192873214Y-84955119D01*
X192920833Y-84907500D01*
X193016071Y-84859880D01*
X193968452Y-84859880D02*
X194063690Y-84859880D01*
X194158928Y-84907500D01*
X194206547Y-84955119D01*
X194254166Y-85050357D01*
X194301785Y-85240833D01*
X194301785Y-85478928D01*
X194254166Y-85669404D01*
X194206547Y-85764642D01*
X194158928Y-85812261D01*
X194063690Y-85859880D01*
X193968452Y-85859880D01*
X193873214Y-85812261D01*
X193825595Y-85764642D01*
X193777976Y-85669404D01*
X193730357Y-85478928D01*
X193730357Y-85240833D01*
X193777976Y-85050357D01*
X193825595Y-84955119D01*
X193873214Y-84907500D01*
X193968452Y-84859880D01*
X136774880Y-58587261D02*
X136889166Y-58634880D01*
X137079642Y-58634880D01*
X137155833Y-58587261D01*
X137193928Y-58539642D01*
X137232023Y-58444404D01*
X137232023Y-58349166D01*
X137193928Y-58253928D01*
X137155833Y-58206309D01*
X137079642Y-58158690D01*
X136927261Y-58111071D01*
X136851071Y-58063452D01*
X136812976Y-58015833D01*
X136774880Y-57920595D01*
X136774880Y-57825357D01*
X136812976Y-57730119D01*
X136851071Y-57682500D01*
X136927261Y-57634880D01*
X137117738Y-57634880D01*
X137232023Y-57682500D01*
X137498690Y-57634880D02*
X137689166Y-58634880D01*
X137841547Y-57920595D01*
X137993928Y-58634880D01*
X138184404Y-57634880D01*
X138908214Y-58634880D02*
X138451071Y-58634880D01*
X138679642Y-58634880D02*
X138679642Y-57634880D01*
X138603452Y-57777738D01*
X138527261Y-57872976D01*
X138451071Y-57920595D01*
X139251071Y-58539642D02*
X139289166Y-58587261D01*
X139251071Y-58634880D01*
X139212976Y-58587261D01*
X139251071Y-58539642D01*
X139251071Y-58634880D01*
X139555833Y-57634880D02*
X140051071Y-57634880D01*
X139784404Y-58015833D01*
X139898690Y-58015833D01*
X139974880Y-58063452D01*
X140012976Y-58111071D01*
X140051071Y-58206309D01*
X140051071Y-58444404D01*
X140012976Y-58539642D01*
X139974880Y-58587261D01*
X139898690Y-58634880D01*
X139670119Y-58634880D01*
X139593928Y-58587261D01*
X139555833Y-58539642D01*
X136965357Y-59244880D02*
X137117738Y-59244880D01*
X137193928Y-59292500D01*
X137270119Y-59387738D01*
X137308214Y-59578214D01*
X137308214Y-59911547D01*
X137270119Y-60102023D01*
X137193928Y-60197261D01*
X137117738Y-60244880D01*
X136965357Y-60244880D01*
X136889166Y-60197261D01*
X136812976Y-60102023D01*
X136774880Y-59911547D01*
X136774880Y-59578214D01*
X136812976Y-59387738D01*
X136889166Y-59292500D01*
X136965357Y-59244880D01*
X137917738Y-59721071D02*
X137651071Y-59721071D01*
X137651071Y-60244880D02*
X137651071Y-59244880D01*
X138032023Y-59244880D01*
X138603452Y-59721071D02*
X138336785Y-59721071D01*
X138336785Y-60244880D02*
X138336785Y-59244880D01*
X138717738Y-59244880D01*
X136965357Y-60854880D02*
X137117738Y-60854880D01*
X137193928Y-60902500D01*
X137270119Y-60997738D01*
X137308214Y-61188214D01*
X137308214Y-61521547D01*
X137270119Y-61712023D01*
X137193928Y-61807261D01*
X137117738Y-61854880D01*
X136965357Y-61854880D01*
X136889166Y-61807261D01*
X136812976Y-61712023D01*
X136774880Y-61521547D01*
X136774880Y-61188214D01*
X136812976Y-60997738D01*
X136889166Y-60902500D01*
X136965357Y-60854880D01*
X137917738Y-61331071D02*
X137651071Y-61331071D01*
X137651071Y-61854880D02*
X137651071Y-60854880D01*
X138032023Y-60854880D01*
X138603452Y-61331071D02*
X138336785Y-61331071D01*
X138336785Y-61854880D02*
X138336785Y-60854880D01*
X138717738Y-60854880D01*
X136965357Y-62464880D02*
X137117738Y-62464880D01*
X137193928Y-62512500D01*
X137270119Y-62607738D01*
X137308214Y-62798214D01*
X137308214Y-63131547D01*
X137270119Y-63322023D01*
X137193928Y-63417261D01*
X137117738Y-63464880D01*
X136965357Y-63464880D01*
X136889166Y-63417261D01*
X136812976Y-63322023D01*
X136774880Y-63131547D01*
X136774880Y-62798214D01*
X136812976Y-62607738D01*
X136889166Y-62512500D01*
X136965357Y-62464880D01*
X137917738Y-62941071D02*
X137651071Y-62941071D01*
X137651071Y-63464880D02*
X137651071Y-62464880D01*
X138032023Y-62464880D01*
X138603452Y-62941071D02*
X138336785Y-62941071D01*
X138336785Y-63464880D02*
X138336785Y-62464880D01*
X138717738Y-62464880D01*
X136965357Y-64074880D02*
X137117738Y-64074880D01*
X137193928Y-64122500D01*
X137270119Y-64217738D01*
X137308214Y-64408214D01*
X137308214Y-64741547D01*
X137270119Y-64932023D01*
X137193928Y-65027261D01*
X137117738Y-65074880D01*
X136965357Y-65074880D01*
X136889166Y-65027261D01*
X136812976Y-64932023D01*
X136774880Y-64741547D01*
X136774880Y-64408214D01*
X136812976Y-64217738D01*
X136889166Y-64122500D01*
X136965357Y-64074880D01*
X137917738Y-64551071D02*
X137651071Y-64551071D01*
X137651071Y-65074880D02*
X137651071Y-64074880D01*
X138032023Y-64074880D01*
X138603452Y-64551071D02*
X138336785Y-64551071D01*
X138336785Y-65074880D02*
X138336785Y-64074880D01*
X138717738Y-64074880D01*
X136965357Y-65684880D02*
X137117738Y-65684880D01*
X137193928Y-65732500D01*
X137270119Y-65827738D01*
X137308214Y-66018214D01*
X137308214Y-66351547D01*
X137270119Y-66542023D01*
X137193928Y-66637261D01*
X137117738Y-66684880D01*
X136965357Y-66684880D01*
X136889166Y-66637261D01*
X136812976Y-66542023D01*
X136774880Y-66351547D01*
X136774880Y-66018214D01*
X136812976Y-65827738D01*
X136889166Y-65732500D01*
X136965357Y-65684880D01*
X137651071Y-66684880D02*
X137651071Y-65684880D01*
X138108214Y-66684880D01*
X138108214Y-65684880D01*
X136965357Y-67294880D02*
X137117738Y-67294880D01*
X137193928Y-67342500D01*
X137270119Y-67437738D01*
X137308214Y-67628214D01*
X137308214Y-67961547D01*
X137270119Y-68152023D01*
X137193928Y-68247261D01*
X137117738Y-68294880D01*
X136965357Y-68294880D01*
X136889166Y-68247261D01*
X136812976Y-68152023D01*
X136774880Y-67961547D01*
X136774880Y-67628214D01*
X136812976Y-67437738D01*
X136889166Y-67342500D01*
X136965357Y-67294880D01*
X137651071Y-68294880D02*
X137651071Y-67294880D01*
X138108214Y-68294880D01*
X138108214Y-67294880D01*
X136965357Y-68904880D02*
X137117738Y-68904880D01*
X137193928Y-68952500D01*
X137270119Y-69047738D01*
X137308214Y-69238214D01*
X137308214Y-69571547D01*
X137270119Y-69762023D01*
X137193928Y-69857261D01*
X137117738Y-69904880D01*
X136965357Y-69904880D01*
X136889166Y-69857261D01*
X136812976Y-69762023D01*
X136774880Y-69571547D01*
X136774880Y-69238214D01*
X136812976Y-69047738D01*
X136889166Y-68952500D01*
X136965357Y-68904880D01*
X137651071Y-69904880D02*
X137651071Y-68904880D01*
X138108214Y-69904880D01*
X138108214Y-68904880D01*
X120127142Y-82662380D02*
X119793809Y-82186190D01*
X119555714Y-82662380D02*
X119555714Y-81662380D01*
X119936666Y-81662380D01*
X120031904Y-81710000D01*
X120079523Y-81757619D01*
X120127142Y-81852857D01*
X120127142Y-81995714D01*
X120079523Y-82090952D01*
X120031904Y-82138571D01*
X119936666Y-82186190D01*
X119555714Y-82186190D01*
X120412857Y-81662380D02*
X120984285Y-81662380D01*
X120698571Y-82662380D02*
X120698571Y-81662380D01*
X121889047Y-82567142D02*
X121841428Y-82614761D01*
X121698571Y-82662380D01*
X121603333Y-82662380D01*
X121460476Y-82614761D01*
X121365238Y-82519523D01*
X121317619Y-82424285D01*
X121270000Y-82233809D01*
X121270000Y-82090952D01*
X121317619Y-81900476D01*
X121365238Y-81805238D01*
X121460476Y-81710000D01*
X121603333Y-81662380D01*
X121698571Y-81662380D01*
X121841428Y-81710000D01*
X121889047Y-81757619D01*
X122460476Y-82090952D02*
X122365238Y-82043333D01*
X122317619Y-81995714D01*
X122270000Y-81900476D01*
X122270000Y-81852857D01*
X122317619Y-81757619D01*
X122365238Y-81710000D01*
X122460476Y-81662380D01*
X122650952Y-81662380D01*
X122746190Y-81710000D01*
X122793809Y-81757619D01*
X122841428Y-81852857D01*
X122841428Y-81900476D01*
X122793809Y-81995714D01*
X122746190Y-82043333D01*
X122650952Y-82090952D01*
X122460476Y-82090952D01*
X122365238Y-82138571D01*
X122317619Y-82186190D01*
X122270000Y-82281428D01*
X122270000Y-82471904D01*
X122317619Y-82567142D01*
X122365238Y-82614761D01*
X122460476Y-82662380D01*
X122650952Y-82662380D01*
X122746190Y-82614761D01*
X122793809Y-82567142D01*
X122841428Y-82471904D01*
X122841428Y-82281428D01*
X122793809Y-82186190D01*
X122746190Y-82138571D01*
X122650952Y-82090952D01*
X123460476Y-81662380D02*
X123555714Y-81662380D01*
X123650952Y-81710000D01*
X123698571Y-81757619D01*
X123746190Y-81852857D01*
X123793809Y-82043333D01*
X123793809Y-82281428D01*
X123746190Y-82471904D01*
X123698571Y-82567142D01*
X123650952Y-82614761D01*
X123555714Y-82662380D01*
X123460476Y-82662380D01*
X123365238Y-82614761D01*
X123317619Y-82567142D01*
X123270000Y-82471904D01*
X123222380Y-82281428D01*
X123222380Y-82043333D01*
X123270000Y-81852857D01*
X123317619Y-81757619D01*
X123365238Y-81710000D01*
X123460476Y-81662380D01*
X124365238Y-82090952D02*
X124270000Y-82043333D01*
X124222380Y-81995714D01*
X124174761Y-81900476D01*
X124174761Y-81852857D01*
X124222380Y-81757619D01*
X124270000Y-81710000D01*
X124365238Y-81662380D01*
X124555714Y-81662380D01*
X124650952Y-81710000D01*
X124698571Y-81757619D01*
X124746190Y-81852857D01*
X124746190Y-81900476D01*
X124698571Y-81995714D01*
X124650952Y-82043333D01*
X124555714Y-82090952D01*
X124365238Y-82090952D01*
X124270000Y-82138571D01*
X124222380Y-82186190D01*
X124174761Y-82281428D01*
X124174761Y-82471904D01*
X124222380Y-82567142D01*
X124270000Y-82614761D01*
X124365238Y-82662380D01*
X124555714Y-82662380D01*
X124650952Y-82614761D01*
X124698571Y-82567142D01*
X124746190Y-82471904D01*
X124746190Y-82281428D01*
X124698571Y-82186190D01*
X124650952Y-82138571D01*
X124555714Y-82090952D01*
X125317619Y-82090952D02*
X125222380Y-82043333D01*
X125174761Y-81995714D01*
X125127142Y-81900476D01*
X125127142Y-81852857D01*
X125174761Y-81757619D01*
X125222380Y-81710000D01*
X125317619Y-81662380D01*
X125508095Y-81662380D01*
X125603333Y-81710000D01*
X125650952Y-81757619D01*
X125698571Y-81852857D01*
X125698571Y-81900476D01*
X125650952Y-81995714D01*
X125603333Y-82043333D01*
X125508095Y-82090952D01*
X125317619Y-82090952D01*
X125222380Y-82138571D01*
X125174761Y-82186190D01*
X125127142Y-82281428D01*
X125127142Y-82471904D01*
X125174761Y-82567142D01*
X125222380Y-82614761D01*
X125317619Y-82662380D01*
X125508095Y-82662380D01*
X125603333Y-82614761D01*
X125650952Y-82567142D01*
X125698571Y-82471904D01*
X125698571Y-82281428D01*
X125650952Y-82186190D01*
X125603333Y-82138571D01*
X125508095Y-82090952D01*
X126889047Y-82281428D02*
X127650952Y-82281428D01*
X128746190Y-81662380D02*
X129079523Y-82662380D01*
X129412857Y-81662380D01*
X130127142Y-82614761D02*
X130031904Y-82662380D01*
X129841428Y-82662380D01*
X129746190Y-82614761D01*
X129698571Y-82519523D01*
X129698571Y-82138571D01*
X129746190Y-82043333D01*
X129841428Y-81995714D01*
X130031904Y-81995714D01*
X130127142Y-82043333D01*
X130174761Y-82138571D01*
X130174761Y-82233809D01*
X129698571Y-82329047D01*
X130603333Y-82662380D02*
X130603333Y-81995714D01*
X130603333Y-82186190D02*
X130650952Y-82090952D01*
X130698571Y-82043333D01*
X130793809Y-81995714D01*
X130889047Y-81995714D01*
X131174761Y-82614761D02*
X131270000Y-82662380D01*
X131460476Y-82662380D01*
X131555714Y-82614761D01*
X131603333Y-82519523D01*
X131603333Y-82471904D01*
X131555714Y-82376666D01*
X131460476Y-82329047D01*
X131317619Y-82329047D01*
X131222380Y-82281428D01*
X131174761Y-82186190D01*
X131174761Y-82138571D01*
X131222380Y-82043333D01*
X131317619Y-81995714D01*
X131460476Y-81995714D01*
X131555714Y-82043333D01*
X132031904Y-82662380D02*
X132031904Y-81995714D01*
X132031904Y-81662380D02*
X131984285Y-81710000D01*
X132031904Y-81757619D01*
X132079523Y-81710000D01*
X132031904Y-81662380D01*
X132031904Y-81757619D01*
X132650952Y-82662380D02*
X132555714Y-82614761D01*
X132508095Y-82567142D01*
X132460476Y-82471904D01*
X132460476Y-82186190D01*
X132508095Y-82090952D01*
X132555714Y-82043333D01*
X132650952Y-81995714D01*
X132793809Y-81995714D01*
X132889047Y-82043333D01*
X132936666Y-82090952D01*
X132984285Y-82186190D01*
X132984285Y-82471904D01*
X132936666Y-82567142D01*
X132889047Y-82614761D01*
X132793809Y-82662380D01*
X132650952Y-82662380D01*
X133412857Y-81995714D02*
X133412857Y-82662380D01*
X133412857Y-82090952D02*
X133460476Y-82043333D01*
X133555714Y-81995714D01*
X133698571Y-81995714D01*
X133793809Y-82043333D01*
X133841428Y-82138571D01*
X133841428Y-82662380D01*
X134984285Y-81662380D02*
X135603333Y-81662380D01*
X135270000Y-82043333D01*
X135412857Y-82043333D01*
X135508095Y-82090952D01*
X135555714Y-82138571D01*
X135603333Y-82233809D01*
X135603333Y-82471904D01*
X135555714Y-82567142D01*
X135508095Y-82614761D01*
X135412857Y-82662380D01*
X135127142Y-82662380D01*
X135031904Y-82614761D01*
X134984285Y-82567142D01*
X136031904Y-82567142D02*
X136079523Y-82614761D01*
X136031904Y-82662380D01*
X135984285Y-82614761D01*
X136031904Y-82567142D01*
X136031904Y-82662380D01*
X136698571Y-81662380D02*
X136793809Y-81662380D01*
X136889047Y-81710000D01*
X136936666Y-81757619D01*
X136984285Y-81852857D01*
X137031904Y-82043333D01*
X137031904Y-82281428D01*
X136984285Y-82471904D01*
X136936666Y-82567142D01*
X136889047Y-82614761D01*
X136793809Y-82662380D01*
X136698571Y-82662380D01*
X136603333Y-82614761D01*
X136555714Y-82567142D01*
X136508095Y-82471904D01*
X136460476Y-82281428D01*
X136460476Y-82043333D01*
X136508095Y-81852857D01*
X136555714Y-81757619D01*
X136603333Y-81710000D01*
X136698571Y-81662380D01*
X115841428Y-84177142D02*
X115793809Y-84224761D01*
X115650952Y-84272380D01*
X115555714Y-84272380D01*
X115412857Y-84224761D01*
X115317619Y-84129523D01*
X115270000Y-84034285D01*
X115222380Y-83843809D01*
X115222380Y-83700952D01*
X115270000Y-83510476D01*
X115317619Y-83415238D01*
X115412857Y-83320000D01*
X115555714Y-83272380D01*
X115650952Y-83272380D01*
X115793809Y-83320000D01*
X115841428Y-83367619D01*
X116412857Y-84272380D02*
X116317619Y-84224761D01*
X116270000Y-84177142D01*
X116222380Y-84081904D01*
X116222380Y-83796190D01*
X116270000Y-83700952D01*
X116317619Y-83653333D01*
X116412857Y-83605714D01*
X116555714Y-83605714D01*
X116650952Y-83653333D01*
X116698571Y-83700952D01*
X116746190Y-83796190D01*
X116746190Y-84081904D01*
X116698571Y-84177142D01*
X116650952Y-84224761D01*
X116555714Y-84272380D01*
X116412857Y-84272380D01*
X117174761Y-83605714D02*
X117174761Y-84605714D01*
X117174761Y-83653333D02*
X117270000Y-83605714D01*
X117460476Y-83605714D01*
X117555714Y-83653333D01*
X117603333Y-83700952D01*
X117650952Y-83796190D01*
X117650952Y-84081904D01*
X117603333Y-84177142D01*
X117555714Y-84224761D01*
X117460476Y-84272380D01*
X117270000Y-84272380D01*
X117174761Y-84224761D01*
X117984285Y-83605714D02*
X118222380Y-84272380D01*
X118460476Y-83605714D02*
X118222380Y-84272380D01*
X118127142Y-84510476D01*
X118079523Y-84558095D01*
X117984285Y-84605714D01*
X118841428Y-84272380D02*
X118841428Y-83605714D01*
X118841428Y-83796190D02*
X118889047Y-83700952D01*
X118936666Y-83653333D01*
X119031904Y-83605714D01*
X119127142Y-83605714D01*
X119460476Y-84272380D02*
X119460476Y-83605714D01*
X119460476Y-83272380D02*
X119412857Y-83320000D01*
X119460476Y-83367619D01*
X119508095Y-83320000D01*
X119460476Y-83272380D01*
X119460476Y-83367619D01*
X120365238Y-83605714D02*
X120365238Y-84415238D01*
X120317619Y-84510476D01*
X120270000Y-84558095D01*
X120174761Y-84605714D01*
X120031904Y-84605714D01*
X119936666Y-84558095D01*
X120365238Y-84224761D02*
X120270000Y-84272380D01*
X120079523Y-84272380D01*
X119984285Y-84224761D01*
X119936666Y-84177142D01*
X119889047Y-84081904D01*
X119889047Y-83796190D01*
X119936666Y-83700952D01*
X119984285Y-83653333D01*
X120079523Y-83605714D01*
X120270000Y-83605714D01*
X120365238Y-83653333D01*
X120841428Y-84272380D02*
X120841428Y-83272380D01*
X121270000Y-84272380D02*
X121270000Y-83748571D01*
X121222380Y-83653333D01*
X121127142Y-83605714D01*
X120984285Y-83605714D01*
X120889047Y-83653333D01*
X120841428Y-83700952D01*
X121603333Y-83605714D02*
X121984285Y-83605714D01*
X121746190Y-83272380D02*
X121746190Y-84129523D01*
X121793809Y-84224761D01*
X121889047Y-84272380D01*
X121984285Y-84272380D01*
X123365238Y-84653333D02*
X123317619Y-84605714D01*
X123222380Y-84462857D01*
X123174761Y-84367619D01*
X123127142Y-84224761D01*
X123079523Y-83986666D01*
X123079523Y-83796190D01*
X123127142Y-83558095D01*
X123174761Y-83415238D01*
X123222380Y-83320000D01*
X123317619Y-83177142D01*
X123365238Y-83129523D01*
X124317619Y-84177142D02*
X124270000Y-84224761D01*
X124127142Y-84272380D01*
X124031904Y-84272380D01*
X123889047Y-84224761D01*
X123793809Y-84129523D01*
X123746190Y-84034285D01*
X123698571Y-83843809D01*
X123698571Y-83700952D01*
X123746190Y-83510476D01*
X123793809Y-83415238D01*
X123889047Y-83320000D01*
X124031904Y-83272380D01*
X124127142Y-83272380D01*
X124270000Y-83320000D01*
X124317619Y-83367619D01*
X124650952Y-84653333D02*
X124698571Y-84605714D01*
X124793809Y-84462857D01*
X124841428Y-84367619D01*
X124889047Y-84224761D01*
X124936666Y-83986666D01*
X124936666Y-83796190D01*
X124889047Y-83558095D01*
X124841428Y-83415238D01*
X124793809Y-83320000D01*
X124698571Y-83177142D01*
X124650952Y-83129523D01*
X126127142Y-83367619D02*
X126174761Y-83320000D01*
X126270000Y-83272380D01*
X126508095Y-83272380D01*
X126603333Y-83320000D01*
X126650952Y-83367619D01*
X126698571Y-83462857D01*
X126698571Y-83558095D01*
X126650952Y-83700952D01*
X126079523Y-84272380D01*
X126698571Y-84272380D01*
X127317619Y-83272380D02*
X127412857Y-83272380D01*
X127508095Y-83320000D01*
X127555714Y-83367619D01*
X127603333Y-83462857D01*
X127650952Y-83653333D01*
X127650952Y-83891428D01*
X127603333Y-84081904D01*
X127555714Y-84177142D01*
X127508095Y-84224761D01*
X127412857Y-84272380D01*
X127317619Y-84272380D01*
X127222380Y-84224761D01*
X127174761Y-84177142D01*
X127127142Y-84081904D01*
X127079523Y-83891428D01*
X127079523Y-83653333D01*
X127127142Y-83462857D01*
X127174761Y-83367619D01*
X127222380Y-83320000D01*
X127317619Y-83272380D01*
X128031904Y-83367619D02*
X128079523Y-83320000D01*
X128174761Y-83272380D01*
X128412857Y-83272380D01*
X128508095Y-83320000D01*
X128555714Y-83367619D01*
X128603333Y-83462857D01*
X128603333Y-83558095D01*
X128555714Y-83700952D01*
X127984285Y-84272380D01*
X128603333Y-84272380D01*
X129460476Y-83605714D02*
X129460476Y-84272380D01*
X129222380Y-83224761D02*
X128984285Y-83939047D01*
X129603333Y-83939047D01*
X130698571Y-84224761D02*
X130841428Y-84272380D01*
X131079523Y-84272380D01*
X131174761Y-84224761D01*
X131222380Y-84177142D01*
X131270000Y-84081904D01*
X131270000Y-83986666D01*
X131222380Y-83891428D01*
X131174761Y-83843809D01*
X131079523Y-83796190D01*
X130889047Y-83748571D01*
X130793809Y-83700952D01*
X130746190Y-83653333D01*
X130698571Y-83558095D01*
X130698571Y-83462857D01*
X130746190Y-83367619D01*
X130793809Y-83320000D01*
X130889047Y-83272380D01*
X131127142Y-83272380D01*
X131270000Y-83320000D01*
X132079523Y-84224761D02*
X131984285Y-84272380D01*
X131793809Y-84272380D01*
X131698571Y-84224761D01*
X131650952Y-84129523D01*
X131650952Y-83748571D01*
X131698571Y-83653333D01*
X131793809Y-83605714D01*
X131984285Y-83605714D01*
X132079523Y-83653333D01*
X132127142Y-83748571D01*
X132127142Y-83843809D01*
X131650952Y-83939047D01*
X132555714Y-84272380D02*
X132555714Y-83605714D01*
X132555714Y-83796190D02*
X132603333Y-83700952D01*
X132650952Y-83653333D01*
X132746190Y-83605714D01*
X132841428Y-83605714D01*
X133603333Y-83605714D02*
X133603333Y-84415238D01*
X133555714Y-84510476D01*
X133508095Y-84558095D01*
X133412857Y-84605714D01*
X133270000Y-84605714D01*
X133174761Y-84558095D01*
X133603333Y-84224761D02*
X133508095Y-84272380D01*
X133317619Y-84272380D01*
X133222380Y-84224761D01*
X133174761Y-84177142D01*
X133127142Y-84081904D01*
X133127142Y-83796190D01*
X133174761Y-83700952D01*
X133222380Y-83653333D01*
X133317619Y-83605714D01*
X133508095Y-83605714D01*
X133603333Y-83653333D01*
X134460476Y-84224761D02*
X134365238Y-84272380D01*
X134174761Y-84272380D01*
X134079523Y-84224761D01*
X134031904Y-84129523D01*
X134031904Y-83748571D01*
X134079523Y-83653333D01*
X134174761Y-83605714D01*
X134365238Y-83605714D01*
X134460476Y-83653333D01*
X134508095Y-83748571D01*
X134508095Y-83843809D01*
X134031904Y-83939047D01*
X134841428Y-83605714D02*
X135079523Y-84272380D01*
X135317619Y-83605714D02*
X135079523Y-84272380D01*
X134984285Y-84510476D01*
X134936666Y-84558095D01*
X134841428Y-84605714D01*
X136460476Y-84272380D02*
X136460476Y-83272380D01*
X137031904Y-84272380D02*
X136603333Y-83700952D01*
X137031904Y-83272380D02*
X136460476Y-83843809D01*
X137460476Y-84272380D02*
X137460476Y-83605714D01*
X137460476Y-83272380D02*
X137412857Y-83320000D01*
X137460476Y-83367619D01*
X137508095Y-83320000D01*
X137460476Y-83272380D01*
X137460476Y-83367619D01*
X137889047Y-84224761D02*
X137984285Y-84272380D01*
X138174761Y-84272380D01*
X138270000Y-84224761D01*
X138317619Y-84129523D01*
X138317619Y-84081904D01*
X138270000Y-83986666D01*
X138174761Y-83939047D01*
X138031904Y-83939047D01*
X137936666Y-83891428D01*
X137889047Y-83796190D01*
X137889047Y-83748571D01*
X137936666Y-83653333D01*
X138031904Y-83605714D01*
X138174761Y-83605714D01*
X138270000Y-83653333D01*
X139127142Y-84224761D02*
X139031904Y-84272380D01*
X138841428Y-84272380D01*
X138746190Y-84224761D01*
X138698571Y-84129523D01*
X138698571Y-83748571D01*
X138746190Y-83653333D01*
X138841428Y-83605714D01*
X139031904Y-83605714D01*
X139127142Y-83653333D01*
X139174761Y-83748571D01*
X139174761Y-83843809D01*
X138698571Y-83939047D01*
X139746190Y-84272380D02*
X139650952Y-84224761D01*
X139603333Y-84129523D01*
X139603333Y-83272380D01*
X140508095Y-84224761D02*
X140412857Y-84272380D01*
X140222380Y-84272380D01*
X140127142Y-84224761D01*
X140079523Y-84129523D01*
X140079523Y-83748571D01*
X140127142Y-83653333D01*
X140222380Y-83605714D01*
X140412857Y-83605714D01*
X140508095Y-83653333D01*
X140555714Y-83748571D01*
X140555714Y-83843809D01*
X140079523Y-83939047D01*
X140889047Y-83605714D02*
X141127142Y-84272380D01*
X141365238Y-83605714D01*
X110746190Y-85787142D02*
X110698571Y-85834761D01*
X110555714Y-85882380D01*
X110460476Y-85882380D01*
X110317619Y-85834761D01*
X110222380Y-85739523D01*
X110174761Y-85644285D01*
X110127142Y-85453809D01*
X110127142Y-85310952D01*
X110174761Y-85120476D01*
X110222380Y-85025238D01*
X110317619Y-84930000D01*
X110460476Y-84882380D01*
X110555714Y-84882380D01*
X110698571Y-84930000D01*
X110746190Y-84977619D01*
X111317619Y-85882380D02*
X111222380Y-85834761D01*
X111174761Y-85787142D01*
X111127142Y-85691904D01*
X111127142Y-85406190D01*
X111174761Y-85310952D01*
X111222380Y-85263333D01*
X111317619Y-85215714D01*
X111460476Y-85215714D01*
X111555714Y-85263333D01*
X111603333Y-85310952D01*
X111650952Y-85406190D01*
X111650952Y-85691904D01*
X111603333Y-85787142D01*
X111555714Y-85834761D01*
X111460476Y-85882380D01*
X111317619Y-85882380D01*
X112079523Y-85215714D02*
X112079523Y-86215714D01*
X112079523Y-85263333D02*
X112174761Y-85215714D01*
X112365238Y-85215714D01*
X112460476Y-85263333D01*
X112508095Y-85310952D01*
X112555714Y-85406190D01*
X112555714Y-85691904D01*
X112508095Y-85787142D01*
X112460476Y-85834761D01*
X112365238Y-85882380D01*
X112174761Y-85882380D01*
X112079523Y-85834761D01*
X112889047Y-85215714D02*
X113127142Y-85882380D01*
X113365238Y-85215714D02*
X113127142Y-85882380D01*
X113031904Y-86120476D01*
X112984285Y-86168095D01*
X112889047Y-86215714D01*
X113746190Y-85882380D02*
X113746190Y-85215714D01*
X113746190Y-85406190D02*
X113793809Y-85310952D01*
X113841428Y-85263333D01*
X113936666Y-85215714D01*
X114031904Y-85215714D01*
X114365238Y-85882380D02*
X114365238Y-85215714D01*
X114365238Y-84882380D02*
X114317619Y-84930000D01*
X114365238Y-84977619D01*
X114412857Y-84930000D01*
X114365238Y-84882380D01*
X114365238Y-84977619D01*
X115269999Y-85215714D02*
X115269999Y-86025238D01*
X115222380Y-86120476D01*
X115174761Y-86168095D01*
X115079523Y-86215714D01*
X114936666Y-86215714D01*
X114841428Y-86168095D01*
X115269999Y-85834761D02*
X115174761Y-85882380D01*
X114984285Y-85882380D01*
X114889047Y-85834761D01*
X114841428Y-85787142D01*
X114793809Y-85691904D01*
X114793809Y-85406190D01*
X114841428Y-85310952D01*
X114889047Y-85263333D01*
X114984285Y-85215714D01*
X115174761Y-85215714D01*
X115269999Y-85263333D01*
X115746190Y-85882380D02*
X115746190Y-84882380D01*
X116174761Y-85882380D02*
X116174761Y-85358571D01*
X116127142Y-85263333D01*
X116031904Y-85215714D01*
X115889047Y-85215714D01*
X115793809Y-85263333D01*
X115746190Y-85310952D01*
X116508095Y-85215714D02*
X116889047Y-85215714D01*
X116650952Y-84882380D02*
X116650952Y-85739523D01*
X116698571Y-85834761D01*
X116793809Y-85882380D01*
X116889047Y-85882380D01*
X118269999Y-86263333D02*
X118222380Y-86215714D01*
X118127142Y-86072857D01*
X118079523Y-85977619D01*
X118031904Y-85834761D01*
X117984285Y-85596666D01*
X117984285Y-85406190D01*
X118031904Y-85168095D01*
X118079523Y-85025238D01*
X118127142Y-84930000D01*
X118222380Y-84787142D01*
X118269999Y-84739523D01*
X119222380Y-85787142D02*
X119174761Y-85834761D01*
X119031904Y-85882380D01*
X118936666Y-85882380D01*
X118793809Y-85834761D01*
X118698571Y-85739523D01*
X118650952Y-85644285D01*
X118603333Y-85453809D01*
X118603333Y-85310952D01*
X118650952Y-85120476D01*
X118698571Y-85025238D01*
X118793809Y-84930000D01*
X118936666Y-84882380D01*
X119031904Y-84882380D01*
X119174761Y-84930000D01*
X119222380Y-84977619D01*
X119555714Y-86263333D02*
X119603333Y-86215714D01*
X119698571Y-86072857D01*
X119746190Y-85977619D01*
X119793809Y-85834761D01*
X119841428Y-85596666D01*
X119841428Y-85406190D01*
X119793809Y-85168095D01*
X119746190Y-85025238D01*
X119698571Y-84930000D01*
X119603333Y-84787142D01*
X119555714Y-84739523D01*
X121031904Y-84977619D02*
X121079523Y-84930000D01*
X121174761Y-84882380D01*
X121412857Y-84882380D01*
X121508095Y-84930000D01*
X121555714Y-84977619D01*
X121603333Y-85072857D01*
X121603333Y-85168095D01*
X121555714Y-85310952D01*
X120984285Y-85882380D01*
X121603333Y-85882380D01*
X122222380Y-84882380D02*
X122317619Y-84882380D01*
X122412857Y-84930000D01*
X122460476Y-84977619D01*
X122508095Y-85072857D01*
X122555714Y-85263333D01*
X122555714Y-85501428D01*
X122508095Y-85691904D01*
X122460476Y-85787142D01*
X122412857Y-85834761D01*
X122317619Y-85882380D01*
X122222380Y-85882380D01*
X122127142Y-85834761D01*
X122079523Y-85787142D01*
X122031904Y-85691904D01*
X121984285Y-85501428D01*
X121984285Y-85263333D01*
X122031904Y-85072857D01*
X122079523Y-84977619D01*
X122127142Y-84930000D01*
X122222380Y-84882380D01*
X123508095Y-85882380D02*
X122936666Y-85882380D01*
X123222380Y-85882380D02*
X123222380Y-84882380D01*
X123127142Y-85025238D01*
X123031904Y-85120476D01*
X122936666Y-85168095D01*
X123984285Y-85882380D02*
X124174761Y-85882380D01*
X124269999Y-85834761D01*
X124317619Y-85787142D01*
X124412857Y-85644285D01*
X124460476Y-85453809D01*
X124460476Y-85072857D01*
X124412857Y-84977619D01*
X124365238Y-84930000D01*
X124269999Y-84882380D01*
X124079523Y-84882380D01*
X123984285Y-84930000D01*
X123936666Y-84977619D01*
X123889047Y-85072857D01*
X123889047Y-85310952D01*
X123936666Y-85406190D01*
X123984285Y-85453809D01*
X124079523Y-85501428D01*
X124269999Y-85501428D01*
X124365238Y-85453809D01*
X124412857Y-85406190D01*
X124460476Y-85310952D01*
X125650952Y-85501428D02*
X126412857Y-85501428D01*
X127603333Y-84977619D02*
X127650952Y-84930000D01*
X127746190Y-84882380D01*
X127984285Y-84882380D01*
X128079523Y-84930000D01*
X128127142Y-84977619D01*
X128174761Y-85072857D01*
X128174761Y-85168095D01*
X128127142Y-85310952D01*
X127555714Y-85882380D01*
X128174761Y-85882380D01*
X128793809Y-84882380D02*
X128889047Y-84882380D01*
X128984285Y-84930000D01*
X129031904Y-84977619D01*
X129079523Y-85072857D01*
X129127142Y-85263333D01*
X129127142Y-85501428D01*
X129079523Y-85691904D01*
X129031904Y-85787142D01*
X128984285Y-85834761D01*
X128889047Y-85882380D01*
X128793809Y-85882380D01*
X128698571Y-85834761D01*
X128650952Y-85787142D01*
X128603333Y-85691904D01*
X128555714Y-85501428D01*
X128555714Y-85263333D01*
X128603333Y-85072857D01*
X128650952Y-84977619D01*
X128698571Y-84930000D01*
X128793809Y-84882380D01*
X129508095Y-84977619D02*
X129555714Y-84930000D01*
X129650952Y-84882380D01*
X129889047Y-84882380D01*
X129984285Y-84930000D01*
X130031904Y-84977619D01*
X130079523Y-85072857D01*
X130079523Y-85168095D01*
X130031904Y-85310952D01*
X129460476Y-85882380D01*
X130079523Y-85882380D01*
X131031904Y-85882380D02*
X130460476Y-85882380D01*
X130746190Y-85882380D02*
X130746190Y-84882380D01*
X130650952Y-85025238D01*
X130555714Y-85120476D01*
X130460476Y-85168095D01*
X132174761Y-85596666D02*
X132650952Y-85596666D01*
X132079523Y-85882380D02*
X132412857Y-84882380D01*
X132746190Y-85882380D01*
X133079523Y-85882380D02*
X133079523Y-85215714D01*
X133079523Y-84882380D02*
X133031904Y-84930000D01*
X133079523Y-84977619D01*
X133127142Y-84930000D01*
X133079523Y-84882380D01*
X133079523Y-84977619D01*
X133412857Y-85215714D02*
X133793809Y-85215714D01*
X133555714Y-84882380D02*
X133555714Y-85739523D01*
X133603333Y-85834761D01*
X133698571Y-85882380D01*
X133793809Y-85882380D01*
X134269999Y-85882380D02*
X134174761Y-85834761D01*
X134127142Y-85787142D01*
X134079523Y-85691904D01*
X134079523Y-85406190D01*
X134127142Y-85310952D01*
X134174761Y-85263333D01*
X134269999Y-85215714D01*
X134412857Y-85215714D01*
X134508095Y-85263333D01*
X134555714Y-85310952D01*
X134603333Y-85406190D01*
X134603333Y-85691904D01*
X134555714Y-85787142D01*
X134508095Y-85834761D01*
X134412857Y-85882380D01*
X134269999Y-85882380D01*
X135031904Y-85882380D02*
X135031904Y-85215714D01*
X135031904Y-85406190D02*
X135079523Y-85310952D01*
X135127142Y-85263333D01*
X135222380Y-85215714D01*
X135317619Y-85215714D01*
X136936666Y-84930000D02*
X136841428Y-84882380D01*
X136698571Y-84882380D01*
X136555714Y-84930000D01*
X136460476Y-85025238D01*
X136412857Y-85120476D01*
X136365238Y-85310952D01*
X136365238Y-85453809D01*
X136412857Y-85644285D01*
X136460476Y-85739523D01*
X136555714Y-85834761D01*
X136698571Y-85882380D01*
X136793809Y-85882380D01*
X136936666Y-85834761D01*
X136984285Y-85787142D01*
X136984285Y-85453809D01*
X136793809Y-85453809D01*
X137555714Y-85882380D02*
X137460476Y-85834761D01*
X137412857Y-85787142D01*
X137365238Y-85691904D01*
X137365238Y-85406190D01*
X137412857Y-85310952D01*
X137460476Y-85263333D01*
X137555714Y-85215714D01*
X137698571Y-85215714D01*
X137793809Y-85263333D01*
X137841428Y-85310952D01*
X137889047Y-85406190D01*
X137889047Y-85691904D01*
X137841428Y-85787142D01*
X137793809Y-85834761D01*
X137698571Y-85882380D01*
X137555714Y-85882380D01*
X137746190Y-84834761D02*
X137603333Y-84977619D01*
X138317619Y-85882380D02*
X138317619Y-85215714D01*
X138317619Y-85310952D02*
X138365238Y-85263333D01*
X138460476Y-85215714D01*
X138603333Y-85215714D01*
X138698571Y-85263333D01*
X138746190Y-85358571D01*
X138746190Y-85882380D01*
X138746190Y-85358571D02*
X138793809Y-85263333D01*
X138889047Y-85215714D01*
X139031904Y-85215714D01*
X139127142Y-85263333D01*
X139174761Y-85358571D01*
X139174761Y-85882380D01*
X140031904Y-85834761D02*
X139936666Y-85882380D01*
X139746190Y-85882380D01*
X139650952Y-85834761D01*
X139603333Y-85739523D01*
X139603333Y-85358571D01*
X139650952Y-85263333D01*
X139746190Y-85215714D01*
X139936666Y-85215714D01*
X140031904Y-85263333D01*
X140079523Y-85358571D01*
X140079523Y-85453809D01*
X139603333Y-85549047D01*
X140412857Y-85215714D02*
X140936666Y-85215714D01*
X140412857Y-85882380D01*
X140936666Y-85882380D01*
X142603333Y-84930000D02*
X142508095Y-84882380D01*
X142365238Y-84882380D01*
X142222380Y-84930000D01*
X142127142Y-85025238D01*
X142079523Y-85120476D01*
X142031904Y-85310952D01*
X142031904Y-85453809D01*
X142079523Y-85644285D01*
X142127142Y-85739523D01*
X142222380Y-85834761D01*
X142365238Y-85882380D01*
X142460476Y-85882380D01*
X142603333Y-85834761D01*
X142650952Y-85787142D01*
X142650952Y-85453809D01*
X142460476Y-85453809D01*
X143508095Y-85882380D02*
X143508095Y-85358571D01*
X143460476Y-85263333D01*
X143365238Y-85215714D01*
X143174761Y-85215714D01*
X143079523Y-85263333D01*
X143508095Y-85834761D02*
X143412857Y-85882380D01*
X143174761Y-85882380D01*
X143079523Y-85834761D01*
X143031904Y-85739523D01*
X143031904Y-85644285D01*
X143079523Y-85549047D01*
X143174761Y-85501428D01*
X143412857Y-85501428D01*
X143508095Y-85453809D01*
X143984285Y-85882380D02*
X143984285Y-85215714D01*
X143984285Y-85406190D02*
X144031904Y-85310952D01*
X144079523Y-85263333D01*
X144174761Y-85215714D01*
X144269999Y-85215714D01*
X145031904Y-85834761D02*
X144936666Y-85882380D01*
X144746190Y-85882380D01*
X144650952Y-85834761D01*
X144603333Y-85787142D01*
X144555714Y-85691904D01*
X144555714Y-85406190D01*
X144603333Y-85310952D01*
X144650952Y-85263333D01*
X144746190Y-85215714D01*
X144936666Y-85215714D01*
X145031904Y-85263333D01*
X145460476Y-85882380D02*
X145460476Y-85215714D01*
X145555714Y-84834761D02*
X145412857Y-84977619D01*
X146365238Y-85882380D02*
X146365238Y-85358571D01*
X146317619Y-85263333D01*
X146222380Y-85215714D01*
X146031904Y-85215714D01*
X145936666Y-85263333D01*
X146365238Y-85834761D02*
X146270000Y-85882380D01*
X146031904Y-85882380D01*
X145936666Y-85834761D01*
X145889047Y-85739523D01*
X145889047Y-85644285D01*
X145936666Y-85549047D01*
X146031904Y-85501428D01*
X146270000Y-85501428D01*
X146365238Y-85453809D01*
X132647380Y-58587261D02*
X132761666Y-58634880D01*
X132952142Y-58634880D01*
X133028333Y-58587261D01*
X133066428Y-58539642D01*
X133104523Y-58444404D01*
X133104523Y-58349166D01*
X133066428Y-58253928D01*
X133028333Y-58206309D01*
X132952142Y-58158690D01*
X132799761Y-58111071D01*
X132723571Y-58063452D01*
X132685476Y-58015833D01*
X132647380Y-57920595D01*
X132647380Y-57825357D01*
X132685476Y-57730119D01*
X132723571Y-57682500D01*
X132799761Y-57634880D01*
X132990238Y-57634880D01*
X133104523Y-57682500D01*
X133371190Y-57634880D02*
X133561666Y-58634880D01*
X133714047Y-57920595D01*
X133866428Y-58634880D01*
X134056904Y-57634880D01*
X134780714Y-58634880D02*
X134323571Y-58634880D01*
X134552142Y-58634880D02*
X134552142Y-57634880D01*
X134475952Y-57777738D01*
X134399761Y-57872976D01*
X134323571Y-57920595D01*
X135123571Y-58539642D02*
X135161666Y-58587261D01*
X135123571Y-58634880D01*
X135085476Y-58587261D01*
X135123571Y-58539642D01*
X135123571Y-58634880D01*
X135466428Y-57730119D02*
X135504523Y-57682500D01*
X135580714Y-57634880D01*
X135771190Y-57634880D01*
X135847380Y-57682500D01*
X135885476Y-57730119D01*
X135923571Y-57825357D01*
X135923571Y-57920595D01*
X135885476Y-58063452D01*
X135428333Y-58634880D01*
X135923571Y-58634880D01*
X132837857Y-59244880D02*
X132990238Y-59244880D01*
X133066428Y-59292500D01*
X133142619Y-59387738D01*
X133180714Y-59578214D01*
X133180714Y-59911547D01*
X133142619Y-60102023D01*
X133066428Y-60197261D01*
X132990238Y-60244880D01*
X132837857Y-60244880D01*
X132761666Y-60197261D01*
X132685476Y-60102023D01*
X132647380Y-59911547D01*
X132647380Y-59578214D01*
X132685476Y-59387738D01*
X132761666Y-59292500D01*
X132837857Y-59244880D01*
X133790238Y-59721071D02*
X133523571Y-59721071D01*
X133523571Y-60244880D02*
X133523571Y-59244880D01*
X133904523Y-59244880D01*
X134475952Y-59721071D02*
X134209285Y-59721071D01*
X134209285Y-60244880D02*
X134209285Y-59244880D01*
X134590238Y-59244880D01*
X132837857Y-60854880D02*
X132990238Y-60854880D01*
X133066428Y-60902500D01*
X133142619Y-60997738D01*
X133180714Y-61188214D01*
X133180714Y-61521547D01*
X133142619Y-61712023D01*
X133066428Y-61807261D01*
X132990238Y-61854880D01*
X132837857Y-61854880D01*
X132761666Y-61807261D01*
X132685476Y-61712023D01*
X132647380Y-61521547D01*
X132647380Y-61188214D01*
X132685476Y-60997738D01*
X132761666Y-60902500D01*
X132837857Y-60854880D01*
X133790238Y-61331071D02*
X133523571Y-61331071D01*
X133523571Y-61854880D02*
X133523571Y-60854880D01*
X133904523Y-60854880D01*
X134475952Y-61331071D02*
X134209285Y-61331071D01*
X134209285Y-61854880D02*
X134209285Y-60854880D01*
X134590238Y-60854880D01*
X132837857Y-62464880D02*
X132990238Y-62464880D01*
X133066428Y-62512500D01*
X133142619Y-62607738D01*
X133180714Y-62798214D01*
X133180714Y-63131547D01*
X133142619Y-63322023D01*
X133066428Y-63417261D01*
X132990238Y-63464880D01*
X132837857Y-63464880D01*
X132761666Y-63417261D01*
X132685476Y-63322023D01*
X132647380Y-63131547D01*
X132647380Y-62798214D01*
X132685476Y-62607738D01*
X132761666Y-62512500D01*
X132837857Y-62464880D01*
X133523571Y-63464880D02*
X133523571Y-62464880D01*
X133980714Y-63464880D01*
X133980714Y-62464880D01*
X132837857Y-64074880D02*
X132990238Y-64074880D01*
X133066428Y-64122500D01*
X133142619Y-64217738D01*
X133180714Y-64408214D01*
X133180714Y-64741547D01*
X133142619Y-64932023D01*
X133066428Y-65027261D01*
X132990238Y-65074880D01*
X132837857Y-65074880D01*
X132761666Y-65027261D01*
X132685476Y-64932023D01*
X132647380Y-64741547D01*
X132647380Y-64408214D01*
X132685476Y-64217738D01*
X132761666Y-64122500D01*
X132837857Y-64074880D01*
X133523571Y-65074880D02*
X133523571Y-64074880D01*
X133980714Y-65074880D01*
X133980714Y-64074880D01*
X132837857Y-65684880D02*
X132990238Y-65684880D01*
X133066428Y-65732500D01*
X133142619Y-65827738D01*
X133180714Y-66018214D01*
X133180714Y-66351547D01*
X133142619Y-66542023D01*
X133066428Y-66637261D01*
X132990238Y-66684880D01*
X132837857Y-66684880D01*
X132761666Y-66637261D01*
X132685476Y-66542023D01*
X132647380Y-66351547D01*
X132647380Y-66018214D01*
X132685476Y-65827738D01*
X132761666Y-65732500D01*
X132837857Y-65684880D01*
X133790238Y-66161071D02*
X133523571Y-66161071D01*
X133523571Y-66684880D02*
X133523571Y-65684880D01*
X133904523Y-65684880D01*
X134475952Y-66161071D02*
X134209285Y-66161071D01*
X134209285Y-66684880D02*
X134209285Y-65684880D01*
X134590238Y-65684880D01*
X132837857Y-67294880D02*
X132990238Y-67294880D01*
X133066428Y-67342500D01*
X133142619Y-67437738D01*
X133180714Y-67628214D01*
X133180714Y-67961547D01*
X133142619Y-68152023D01*
X133066428Y-68247261D01*
X132990238Y-68294880D01*
X132837857Y-68294880D01*
X132761666Y-68247261D01*
X132685476Y-68152023D01*
X132647380Y-67961547D01*
X132647380Y-67628214D01*
X132685476Y-67437738D01*
X132761666Y-67342500D01*
X132837857Y-67294880D01*
X133790238Y-67771071D02*
X133523571Y-67771071D01*
X133523571Y-68294880D02*
X133523571Y-67294880D01*
X133904523Y-67294880D01*
X134475952Y-67771071D02*
X134209285Y-67771071D01*
X134209285Y-68294880D02*
X134209285Y-67294880D01*
X134590238Y-67294880D01*
X132837857Y-68904880D02*
X132990238Y-68904880D01*
X133066428Y-68952500D01*
X133142619Y-69047738D01*
X133180714Y-69238214D01*
X133180714Y-69571547D01*
X133142619Y-69762023D01*
X133066428Y-69857261D01*
X132990238Y-69904880D01*
X132837857Y-69904880D01*
X132761666Y-69857261D01*
X132685476Y-69762023D01*
X132647380Y-69571547D01*
X132647380Y-69238214D01*
X132685476Y-69047738D01*
X132761666Y-68952500D01*
X132837857Y-68904880D01*
X133523571Y-69904880D02*
X133523571Y-68904880D01*
X133980714Y-69904880D01*
X133980714Y-68904880D01*
%TO.C,U1*%
X176085595Y-80097380D02*
X176085595Y-80906904D01*
X176133214Y-81002142D01*
X176180833Y-81049761D01*
X176276071Y-81097380D01*
X176466547Y-81097380D01*
X176561785Y-81049761D01*
X176609404Y-81002142D01*
X176657023Y-80906904D01*
X176657023Y-80097380D01*
X177657023Y-81097380D02*
X177085595Y-81097380D01*
X177371309Y-81097380D02*
X177371309Y-80097380D01*
X177276071Y-80240238D01*
X177180833Y-80335476D01*
X177085595Y-80383095D01*
X186010684Y-81097380D02*
X186135684Y-80097380D01*
X186349970Y-80097380D01*
X186472589Y-80145000D01*
X186546398Y-80240238D01*
X186577351Y-80335476D01*
X186596398Y-80525952D01*
X186578541Y-80668809D01*
X186511875Y-80859285D01*
X186457113Y-80954523D01*
X186359494Y-81049761D01*
X186224970Y-81097380D01*
X186010684Y-81097380D01*
X186873779Y-81049761D02*
X186996398Y-81097380D01*
X187210684Y-81097380D01*
X187302351Y-81049761D01*
X187351160Y-81002142D01*
X187405922Y-80906904D01*
X187417827Y-80811666D01*
X187386875Y-80716428D01*
X187349970Y-80668809D01*
X187270208Y-80621190D01*
X187104732Y-80573571D01*
X187024970Y-80525952D01*
X186988065Y-80478333D01*
X186957113Y-80383095D01*
X186969017Y-80287857D01*
X187023779Y-80192619D01*
X187072589Y-80145000D01*
X187164255Y-80097380D01*
X187378541Y-80097380D01*
X187501160Y-80145000D01*
X188239255Y-81097380D02*
X187724970Y-81097380D01*
X187982113Y-81097380D02*
X188107113Y-80097380D01*
X188003541Y-80240238D01*
X187905922Y-80335476D01*
X187814255Y-80383095D01*
X188695208Y-80192619D02*
X188744017Y-80145000D01*
X188835684Y-80097380D01*
X189049970Y-80097380D01*
X189129732Y-80145000D01*
X189166636Y-80192619D01*
X189197589Y-80287857D01*
X189185684Y-80383095D01*
X189124970Y-80525952D01*
X188539255Y-81097380D01*
X189096398Y-81097380D01*
X189682113Y-80525952D02*
X189602351Y-80478333D01*
X189565446Y-80430714D01*
X189534494Y-80335476D01*
X189540446Y-80287857D01*
X189595208Y-80192619D01*
X189644017Y-80145000D01*
X189735684Y-80097380D01*
X189907113Y-80097380D01*
X189986875Y-80145000D01*
X190023779Y-80192619D01*
X190054732Y-80287857D01*
X190048779Y-80335476D01*
X189994017Y-80430714D01*
X189945208Y-80478333D01*
X189853541Y-80525952D01*
X189682113Y-80525952D01*
X189590446Y-80573571D01*
X189541636Y-80621190D01*
X189486875Y-80716428D01*
X189463065Y-80906904D01*
X189494017Y-81002142D01*
X189530922Y-81049761D01*
X189610684Y-81097380D01*
X189782113Y-81097380D01*
X189873779Y-81049761D01*
X189922589Y-81002142D01*
X189977351Y-80906904D01*
X190001160Y-80716428D01*
X189970208Y-80621190D01*
X189933303Y-80573571D01*
X189853541Y-80525952D01*
X190539255Y-80525952D02*
X190459494Y-80478333D01*
X190422589Y-80430714D01*
X190391636Y-80335476D01*
X190397589Y-80287857D01*
X190452351Y-80192619D01*
X190501160Y-80145000D01*
X190592827Y-80097380D01*
X190764255Y-80097380D01*
X190844017Y-80145000D01*
X190880922Y-80192619D01*
X190911875Y-80287857D01*
X190905922Y-80335476D01*
X190851160Y-80430714D01*
X190802351Y-80478333D01*
X190710684Y-80525952D01*
X190539255Y-80525952D01*
X190447589Y-80573571D01*
X190398779Y-80621190D01*
X190344017Y-80716428D01*
X190320208Y-80906904D01*
X190351160Y-81002142D01*
X190388065Y-81049761D01*
X190467827Y-81097380D01*
X190639255Y-81097380D01*
X190730922Y-81049761D01*
X190779732Y-81002142D01*
X190834494Y-80906904D01*
X190858303Y-80716428D01*
X190827351Y-80621190D01*
X190790446Y-80573571D01*
X190710684Y-80525952D01*
X191749970Y-80097380D02*
X191321398Y-80097380D01*
X191219017Y-80573571D01*
X191267827Y-80525952D01*
X191359494Y-80478333D01*
X191573779Y-80478333D01*
X191653541Y-80525952D01*
X191690446Y-80573571D01*
X191721398Y-80668809D01*
X191691636Y-80906904D01*
X191636875Y-81002142D01*
X191588065Y-81049761D01*
X191496398Y-81097380D01*
X191282113Y-81097380D01*
X191202351Y-81049761D01*
X191165446Y-81002142D01*
%TO.C,RN1*%
X111577380Y-66412976D02*
X111101190Y-66746309D01*
X111577380Y-66984404D02*
X110577380Y-66984404D01*
X110577380Y-66603452D01*
X110625000Y-66508214D01*
X110672619Y-66460595D01*
X110767857Y-66412976D01*
X110910714Y-66412976D01*
X111005952Y-66460595D01*
X111053571Y-66508214D01*
X111101190Y-66603452D01*
X111101190Y-66984404D01*
X111577380Y-65984404D02*
X110577380Y-65984404D01*
X111577380Y-65412976D01*
X110577380Y-65412976D01*
X111577380Y-64412976D02*
X111577380Y-64984404D01*
X111577380Y-64698690D02*
X110577380Y-64698690D01*
X110720238Y-64793928D01*
X110815476Y-64889166D01*
X110863095Y-64984404D01*
X111577380Y-63435863D02*
X111577380Y-63893005D01*
X111577380Y-63664434D02*
X110577380Y-63539434D01*
X110720238Y-63633482D01*
X110815476Y-63721577D01*
X110863095Y-63803720D01*
X110577380Y-62815625D02*
X110577380Y-62739434D01*
X110625000Y-62669196D01*
X110672619Y-62637053D01*
X110767857Y-62610863D01*
X110958333Y-62596577D01*
X111196428Y-62626339D01*
X111386904Y-62688244D01*
X111482142Y-62738244D01*
X111529761Y-62782291D01*
X111577380Y-62864434D01*
X111577380Y-62940625D01*
X111529761Y-63010863D01*
X111482142Y-63043005D01*
X111386904Y-63069196D01*
X111196428Y-63083482D01*
X110958333Y-63053720D01*
X110767857Y-62991815D01*
X110672619Y-62941815D01*
X110625000Y-62897767D01*
X110577380Y-62815625D01*
X111577380Y-62331101D02*
X110577380Y-62206101D01*
X111196428Y-62207291D02*
X111577380Y-62026339D01*
X110910714Y-61943005D02*
X111291666Y-62295386D01*
%TO.C,JP1*%
X173791666Y-57872380D02*
X173791666Y-58586666D01*
X173744047Y-58729523D01*
X173648809Y-58824761D01*
X173505952Y-58872380D01*
X173410714Y-58872380D01*
X174267857Y-58872380D02*
X174267857Y-57872380D01*
X174648809Y-57872380D01*
X174744047Y-57920000D01*
X174791666Y-57967619D01*
X174839285Y-58062857D01*
X174839285Y-58205714D01*
X174791666Y-58300952D01*
X174744047Y-58348571D01*
X174648809Y-58396190D01*
X174267857Y-58396190D01*
X175791666Y-58872380D02*
X175220238Y-58872380D01*
X175505952Y-58872380D02*
X175505952Y-57872380D01*
X175410714Y-58015238D01*
X175315476Y-58110476D01*
X175220238Y-58158095D01*
X175751517Y-60999642D02*
X175702708Y-61047261D01*
X175568184Y-61094880D01*
X175482470Y-61094880D01*
X175359851Y-61047261D01*
X175286041Y-60952023D01*
X175255089Y-60856785D01*
X175236041Y-60666309D01*
X175253898Y-60523452D01*
X175320565Y-60332976D01*
X175375327Y-60237738D01*
X175472946Y-60142500D01*
X175607470Y-60094880D01*
X175693184Y-60094880D01*
X175815803Y-60142500D01*
X175852708Y-60190119D01*
X176253898Y-61094880D02*
X176174136Y-61047261D01*
X176143184Y-60952023D01*
X176250327Y-60094880D01*
X176945565Y-61047261D02*
X176853898Y-61094880D01*
X176682470Y-61094880D01*
X176602708Y-61047261D01*
X176571755Y-60952023D01*
X176619375Y-60571071D01*
X176674136Y-60475833D01*
X176765803Y-60428214D01*
X176937232Y-60428214D01*
X177016994Y-60475833D01*
X177047946Y-60571071D01*
X177036041Y-60666309D01*
X176595565Y-60761547D01*
X177753898Y-61094880D02*
X177819375Y-60571071D01*
X177788422Y-60475833D01*
X177708660Y-60428214D01*
X177537232Y-60428214D01*
X177445565Y-60475833D01*
X177759851Y-61047261D02*
X177668184Y-61094880D01*
X177453898Y-61094880D01*
X177374136Y-61047261D01*
X177343184Y-60952023D01*
X177355089Y-60856785D01*
X177409851Y-60761547D01*
X177501517Y-60713928D01*
X177715803Y-60713928D01*
X177807470Y-60666309D01*
X178182470Y-61094880D02*
X178265803Y-60428214D01*
X178241994Y-60618690D02*
X178296755Y-60523452D01*
X178345565Y-60475833D01*
X178437232Y-60428214D01*
X178522946Y-60428214D01*
X179951517Y-60999642D02*
X179902708Y-61047261D01*
X179768184Y-61094880D01*
X179682470Y-61094880D01*
X179559851Y-61047261D01*
X179486041Y-60952023D01*
X179455089Y-60856785D01*
X179436041Y-60666309D01*
X179453898Y-60523452D01*
X179520565Y-60332976D01*
X179575327Y-60237738D01*
X179672946Y-60142500D01*
X179807470Y-60094880D01*
X179893184Y-60094880D01*
X180015803Y-60142500D01*
X180052708Y-60190119D01*
X180325327Y-61094880D02*
X180450327Y-60094880D01*
X180661041Y-60809166D01*
X181050327Y-60094880D01*
X180925327Y-61094880D01*
X181650327Y-60094880D02*
X181821755Y-60094880D01*
X181901517Y-60142500D01*
X181975327Y-60237738D01*
X181994375Y-60428214D01*
X181952708Y-60761547D01*
X181886041Y-60952023D01*
X181788422Y-61047261D01*
X181696755Y-61094880D01*
X181525327Y-61094880D01*
X181445565Y-61047261D01*
X181371755Y-60952023D01*
X181352708Y-60761547D01*
X181394375Y-60428214D01*
X181461041Y-60237738D01*
X181558660Y-60142500D01*
X181650327Y-60094880D01*
X182259851Y-61047261D02*
X182382470Y-61094880D01*
X182596755Y-61094880D01*
X182688422Y-61047261D01*
X182737232Y-60999642D01*
X182791994Y-60904404D01*
X182803898Y-60809166D01*
X182772946Y-60713928D01*
X182736041Y-60666309D01*
X182656279Y-60618690D01*
X182490803Y-60571071D01*
X182411041Y-60523452D01*
X182374136Y-60475833D01*
X182343184Y-60380595D01*
X182355089Y-60285357D01*
X182409851Y-60190119D01*
X182458660Y-60142500D01*
X182550327Y-60094880D01*
X182764613Y-60094880D01*
X182887232Y-60142500D01*
%TO.C,U2*%
X112268095Y-80097380D02*
X112268095Y-80906904D01*
X112315714Y-81002142D01*
X112363333Y-81049761D01*
X112458571Y-81097380D01*
X112649047Y-81097380D01*
X112744285Y-81049761D01*
X112791904Y-81002142D01*
X112839523Y-80906904D01*
X112839523Y-80097380D01*
X113268095Y-80192619D02*
X113315714Y-80145000D01*
X113410952Y-80097380D01*
X113649047Y-80097380D01*
X113744285Y-80145000D01*
X113791904Y-80192619D01*
X113839523Y-80287857D01*
X113839523Y-80383095D01*
X113791904Y-80525952D01*
X113220476Y-81097380D01*
X113839523Y-81097380D01*
X128321755Y-80811666D02*
X128750327Y-80811666D01*
X128200327Y-81097380D02*
X128625327Y-80097380D01*
X128800327Y-81097380D01*
X129096755Y-80097380D02*
X129611041Y-80097380D01*
X129228898Y-81097380D02*
X129353898Y-80097380D01*
X130151517Y-80573571D02*
X129851517Y-80573571D01*
X129786041Y-81097380D02*
X129911041Y-80097380D01*
X130339613Y-80097380D01*
X131028898Y-81097380D02*
X130514613Y-81097380D01*
X130771755Y-81097380D02*
X130896755Y-80097380D01*
X130793184Y-80240238D01*
X130695565Y-80335476D01*
X130603898Y-80383095D01*
X131925327Y-80097380D02*
X131753898Y-80097380D01*
X131662232Y-80145000D01*
X131613422Y-80192619D01*
X131509851Y-80335476D01*
X131443184Y-80525952D01*
X131395565Y-80906904D01*
X131426517Y-81002142D01*
X131463422Y-81049761D01*
X131543184Y-81097380D01*
X131714613Y-81097380D01*
X131806279Y-81049761D01*
X131855089Y-81002142D01*
X131909851Y-80906904D01*
X131939613Y-80668809D01*
X131908660Y-80573571D01*
X131871755Y-80525952D01*
X131791994Y-80478333D01*
X131620565Y-80478333D01*
X131528898Y-80525952D01*
X131480089Y-80573571D01*
X131425327Y-80668809D01*
X132268184Y-80097380D02*
X132443184Y-81097380D01*
X132868184Y-80097380D01*
X133243184Y-80525952D02*
X133163422Y-80478333D01*
X133126517Y-80430714D01*
X133095565Y-80335476D01*
X133101517Y-80287857D01*
X133156279Y-80192619D01*
X133205089Y-80145000D01*
X133296755Y-80097380D01*
X133468184Y-80097380D01*
X133547946Y-80145000D01*
X133584851Y-80192619D01*
X133615803Y-80287857D01*
X133609851Y-80335476D01*
X133555089Y-80430714D01*
X133506279Y-80478333D01*
X133414613Y-80525952D01*
X133243184Y-80525952D01*
X133151517Y-80573571D01*
X133102708Y-80621190D01*
X133047946Y-80716428D01*
X133024136Y-80906904D01*
X133055089Y-81002142D01*
X133091994Y-81049761D01*
X133171755Y-81097380D01*
X133343184Y-81097380D01*
X133434851Y-81049761D01*
X133483660Y-81002142D01*
X133538422Y-80906904D01*
X133562232Y-80716428D01*
X133531279Y-80621190D01*
X133494375Y-80573571D01*
X133414613Y-80525952D01*
X134265803Y-80573571D02*
X134388422Y-80621190D01*
X134425327Y-80668809D01*
X134456279Y-80764047D01*
X134438422Y-80906904D01*
X134383660Y-81002142D01*
X134334851Y-81049761D01*
X134243184Y-81097380D01*
X133900327Y-81097380D01*
X134025327Y-80097380D01*
X134325327Y-80097380D01*
X134405089Y-80145000D01*
X134441994Y-80192619D01*
X134472946Y-80287857D01*
X134461041Y-80383095D01*
X134406279Y-80478333D01*
X134357470Y-80525952D01*
X134265803Y-80573571D01*
X133965803Y-80573571D01*
%TO.C,SW1*%
X111529761Y-60388333D02*
X111577380Y-60245476D01*
X111577380Y-60007380D01*
X111529761Y-59912142D01*
X111482142Y-59864523D01*
X111386904Y-59816904D01*
X111291666Y-59816904D01*
X111196428Y-59864523D01*
X111148809Y-59912142D01*
X111101190Y-60007380D01*
X111053571Y-60197857D01*
X111005952Y-60293095D01*
X110958333Y-60340714D01*
X110863095Y-60388333D01*
X110767857Y-60388333D01*
X110672619Y-60340714D01*
X110625000Y-60293095D01*
X110577380Y-60197857D01*
X110577380Y-59959761D01*
X110625000Y-59816904D01*
X110577380Y-59483571D02*
X111577380Y-59245476D01*
X110863095Y-59055000D01*
X111577380Y-58864523D01*
X110577380Y-58626428D01*
X111577380Y-57721666D02*
X111577380Y-58293095D01*
X111577380Y-58007380D02*
X110577380Y-58007380D01*
X110720238Y-58102619D01*
X110815476Y-58197857D01*
X110863095Y-58293095D01*
X122721666Y-66593720D02*
X122721666Y-66212767D01*
X123007380Y-66705625D02*
X122007380Y-66313958D01*
X123007380Y-66172291D01*
X123007380Y-65562767D02*
X122007380Y-65437767D01*
X122959761Y-65556815D02*
X123007380Y-65638958D01*
X123007380Y-65791339D01*
X122959761Y-65861577D01*
X122912142Y-65893720D01*
X122816904Y-65919910D01*
X122531190Y-65884196D01*
X122435952Y-65834196D01*
X122388333Y-65790148D01*
X122340714Y-65708005D01*
X122340714Y-65555625D01*
X122388333Y-65485386D01*
X123007380Y-64838958D02*
X122007380Y-64713958D01*
X122959761Y-64833005D02*
X123007380Y-64915148D01*
X123007380Y-65067529D01*
X122959761Y-65137767D01*
X122912142Y-65169910D01*
X122816904Y-65196101D01*
X122531190Y-65160386D01*
X122435952Y-65110386D01*
X122388333Y-65066339D01*
X122340714Y-64984196D01*
X122340714Y-64831815D01*
X122388333Y-64761577D01*
X123007380Y-64458005D02*
X122340714Y-64374672D01*
X122531190Y-64398482D02*
X122435952Y-64348482D01*
X122388333Y-64304434D01*
X122340714Y-64222291D01*
X122340714Y-64146101D01*
X122959761Y-63652053D02*
X123007380Y-63734196D01*
X123007380Y-63886577D01*
X122959761Y-63956815D01*
X122864523Y-63983005D01*
X122483571Y-63935386D01*
X122388333Y-63885386D01*
X122340714Y-63803244D01*
X122340714Y-63650863D01*
X122388333Y-63580625D01*
X122483571Y-63554434D01*
X122578809Y-63566339D01*
X122674047Y-63959196D01*
X122959761Y-63309196D02*
X123007380Y-63238958D01*
X123007380Y-63086577D01*
X122959761Y-63004434D01*
X122864523Y-62954434D01*
X122816904Y-62948482D01*
X122721666Y-62974672D01*
X122674047Y-63044910D01*
X122674047Y-63159196D01*
X122626428Y-63229434D01*
X122531190Y-63255625D01*
X122483571Y-63249672D01*
X122388333Y-63199672D01*
X122340714Y-63117529D01*
X122340714Y-63003244D01*
X122388333Y-62933005D01*
X122959761Y-62661577D02*
X123007380Y-62591339D01*
X123007380Y-62438958D01*
X122959761Y-62356815D01*
X122864523Y-62306815D01*
X122816904Y-62300863D01*
X122721666Y-62327053D01*
X122674047Y-62397291D01*
X122674047Y-62511577D01*
X122626428Y-62581815D01*
X122531190Y-62608005D01*
X122483571Y-62602053D01*
X122388333Y-62552053D01*
X122340714Y-62469910D01*
X122340714Y-62355625D01*
X122388333Y-62285386D01*
X122959761Y-61404434D02*
X123007380Y-61296101D01*
X123007380Y-61105625D01*
X122959761Y-61023482D01*
X122912142Y-60979434D01*
X122816904Y-60929434D01*
X122721666Y-60917529D01*
X122626428Y-60943720D01*
X122578809Y-60975863D01*
X122531190Y-61046101D01*
X122483571Y-61192529D01*
X122435952Y-61262767D01*
X122388333Y-61294910D01*
X122293095Y-61321101D01*
X122197857Y-61309196D01*
X122102619Y-61259196D01*
X122055000Y-61215148D01*
X122007380Y-61133005D01*
X122007380Y-60942529D01*
X122055000Y-60834196D01*
X122959761Y-60299672D02*
X123007380Y-60381815D01*
X123007380Y-60534196D01*
X122959761Y-60604434D01*
X122864523Y-60630625D01*
X122483571Y-60583005D01*
X122388333Y-60533005D01*
X122340714Y-60450863D01*
X122340714Y-60298482D01*
X122388333Y-60228244D01*
X122483571Y-60202053D01*
X122578809Y-60213958D01*
X122674047Y-60606815D01*
X123007380Y-59810386D02*
X122959761Y-59880625D01*
X122864523Y-59906815D01*
X122007380Y-59799672D01*
X122959761Y-59194910D02*
X123007380Y-59277053D01*
X123007380Y-59429434D01*
X122959761Y-59499672D01*
X122864523Y-59525863D01*
X122483571Y-59478244D01*
X122388333Y-59428244D01*
X122340714Y-59346101D01*
X122340714Y-59193720D01*
X122388333Y-59123482D01*
X122483571Y-59097291D01*
X122578809Y-59109196D01*
X122674047Y-59502053D01*
X122959761Y-58471101D02*
X123007380Y-58553244D01*
X123007380Y-58705625D01*
X122959761Y-58775863D01*
X122912142Y-58808005D01*
X122816904Y-58834196D01*
X122531190Y-58798482D01*
X122435952Y-58748482D01*
X122388333Y-58704434D01*
X122340714Y-58622291D01*
X122340714Y-58469910D01*
X122388333Y-58399672D01*
X122340714Y-58165148D02*
X122340714Y-57860386D01*
X122007380Y-58009196D02*
X122864523Y-58116339D01*
X122959761Y-58090148D01*
X123007380Y-58019910D01*
X123007380Y-57943720D01*
%TO.C,Y1*%
X170973809Y-81573690D02*
X170973809Y-82049880D01*
X170640476Y-81049880D02*
X170973809Y-81573690D01*
X171307142Y-81049880D01*
X172164285Y-82049880D02*
X171592857Y-82049880D01*
X171878571Y-82049880D02*
X171878571Y-81049880D01*
X171783333Y-81192738D01*
X171688095Y-81287976D01*
X171592857Y-81335595D01*
X170851994Y-82637380D02*
X171347232Y-82637380D01*
X171032946Y-83018333D01*
X171147232Y-83018333D01*
X171217470Y-83065952D01*
X171249613Y-83113571D01*
X171275803Y-83208809D01*
X171246041Y-83446904D01*
X171196041Y-83542142D01*
X171151994Y-83589761D01*
X171069851Y-83637380D01*
X170841279Y-83637380D01*
X170771041Y-83589761D01*
X170738898Y-83542142D01*
X171640089Y-82732619D02*
X171684136Y-82685000D01*
X171766279Y-82637380D01*
X171956755Y-82637380D01*
X172026994Y-82685000D01*
X172059136Y-82732619D01*
X172085327Y-82827857D01*
X172073422Y-82923095D01*
X172017470Y-83065952D01*
X171488898Y-83637380D01*
X171984136Y-83637380D01*
X172375803Y-82637380D02*
X172909136Y-82637380D01*
X172441279Y-83637380D01*
X173556755Y-82637380D02*
X173404375Y-82637380D01*
X173322232Y-82685000D01*
X173278184Y-82732619D01*
X173184136Y-82875476D01*
X173122232Y-83065952D01*
X173074613Y-83446904D01*
X173100803Y-83542142D01*
X173132946Y-83589761D01*
X173203184Y-83637380D01*
X173355565Y-83637380D01*
X173437708Y-83589761D01*
X173481755Y-83542142D01*
X173531755Y-83446904D01*
X173561517Y-83208809D01*
X173535327Y-83113571D01*
X173503184Y-83065952D01*
X173432946Y-83018333D01*
X173280565Y-83018333D01*
X173198422Y-83065952D01*
X173154375Y-83113571D01*
X173104375Y-83208809D01*
X174036517Y-83065952D02*
X173966279Y-83018333D01*
X173934136Y-82970714D01*
X173907946Y-82875476D01*
X173913898Y-82827857D01*
X173963898Y-82732619D01*
X174007946Y-82685000D01*
X174090089Y-82637380D01*
X174242470Y-82637380D01*
X174312708Y-82685000D01*
X174344851Y-82732619D01*
X174371041Y-82827857D01*
X174365089Y-82875476D01*
X174315089Y-82970714D01*
X174271041Y-83018333D01*
X174188898Y-83065952D01*
X174036517Y-83065952D01*
X173954375Y-83113571D01*
X173910327Y-83161190D01*
X173860327Y-83256428D01*
X173836517Y-83446904D01*
X173862708Y-83542142D01*
X173894851Y-83589761D01*
X173965089Y-83637380D01*
X174117470Y-83637380D01*
X174199613Y-83589761D01*
X174243660Y-83542142D01*
X174293660Y-83446904D01*
X174317470Y-83256428D01*
X174291279Y-83161190D01*
X174259136Y-83113571D01*
X174188898Y-83065952D01*
X174612708Y-83637380D02*
X174737708Y-82637380D01*
X174678184Y-83113571D02*
X175135327Y-83113571D01*
X175069851Y-83637380D02*
X175194851Y-82637380D01*
X175457946Y-82970714D02*
X175876994Y-82970714D01*
X175374613Y-83637380D01*
X175793660Y-83637380D01*
%TO.C,C1*%
X165568333Y-60682142D02*
X165520714Y-60729761D01*
X165377857Y-60777380D01*
X165282619Y-60777380D01*
X165139761Y-60729761D01*
X165044523Y-60634523D01*
X164996904Y-60539285D01*
X164949285Y-60348809D01*
X164949285Y-60205952D01*
X164996904Y-60015476D01*
X165044523Y-59920238D01*
X165139761Y-59825000D01*
X165282619Y-59777380D01*
X165377857Y-59777380D01*
X165520714Y-59825000D01*
X165568333Y-59872619D01*
X166520714Y-60777380D02*
X165949285Y-60777380D01*
X166235000Y-60777380D02*
X166235000Y-59777380D01*
X166139761Y-59920238D01*
X166044523Y-60015476D01*
X165949285Y-60063095D01*
X168096755Y-59777380D02*
X168182470Y-59777380D01*
X168262232Y-59825000D01*
X168299136Y-59872619D01*
X168330089Y-59967857D01*
X168349136Y-60158333D01*
X168319375Y-60396428D01*
X168252708Y-60586904D01*
X168197946Y-60682142D01*
X168149136Y-60729761D01*
X168057470Y-60777380D01*
X167971755Y-60777380D01*
X167891994Y-60729761D01*
X167855089Y-60682142D01*
X167824136Y-60586904D01*
X167805089Y-60396428D01*
X167834851Y-60158333D01*
X167901517Y-59967857D01*
X167956279Y-59872619D01*
X168005089Y-59825000D01*
X168096755Y-59777380D01*
X168669375Y-60682142D02*
X168706279Y-60729761D01*
X168657470Y-60777380D01*
X168620565Y-60729761D01*
X168669375Y-60682142D01*
X168657470Y-60777380D01*
X169557470Y-60777380D02*
X169043184Y-60777380D01*
X169300327Y-60777380D02*
X169425327Y-59777380D01*
X169321755Y-59920238D01*
X169224136Y-60015476D01*
X169132470Y-60063095D01*
X170412232Y-60110714D02*
X170328898Y-60777380D01*
X170026517Y-60110714D02*
X169961041Y-60634523D01*
X169991994Y-60729761D01*
X170071755Y-60777380D01*
X170200327Y-60777380D01*
X170291994Y-60729761D01*
X170340803Y-60682142D01*
X171122946Y-60253571D02*
X170822946Y-60253571D01*
X170757470Y-60777380D02*
X170882470Y-59777380D01*
X171311041Y-59777380D01*
%TO.C,BT1*%
X158281785Y-58666071D02*
X158424642Y-58713690D01*
X158472261Y-58761309D01*
X158519880Y-58856547D01*
X158519880Y-58999404D01*
X158472261Y-59094642D01*
X158424642Y-59142261D01*
X158329404Y-59189880D01*
X157948452Y-59189880D01*
X157948452Y-58189880D01*
X158281785Y-58189880D01*
X158377023Y-58237500D01*
X158424642Y-58285119D01*
X158472261Y-58380357D01*
X158472261Y-58475595D01*
X158424642Y-58570833D01*
X158377023Y-58618452D01*
X158281785Y-58666071D01*
X157948452Y-58666071D01*
X158805595Y-58189880D02*
X159377023Y-58189880D01*
X159091309Y-59189880D02*
X159091309Y-58189880D01*
X160234166Y-59189880D02*
X159662738Y-59189880D01*
X159948452Y-59189880D02*
X159948452Y-58189880D01*
X159853214Y-58332738D01*
X159757976Y-58427976D01*
X159662738Y-58475595D01*
X157099017Y-60682142D02*
X157050208Y-60729761D01*
X156915684Y-60777380D01*
X156829970Y-60777380D01*
X156707351Y-60729761D01*
X156633541Y-60634523D01*
X156602589Y-60539285D01*
X156583541Y-60348809D01*
X156601398Y-60205952D01*
X156668065Y-60015476D01*
X156722827Y-59920238D01*
X156820446Y-59825000D01*
X156954970Y-59777380D01*
X157040684Y-59777380D01*
X157163303Y-59825000D01*
X157200208Y-59872619D01*
X157987113Y-60777380D02*
X157746636Y-60301190D01*
X157472827Y-60777380D02*
X157597827Y-59777380D01*
X157940684Y-59777380D01*
X158020446Y-59825000D01*
X158057351Y-59872619D01*
X158088303Y-59967857D01*
X158070446Y-60110714D01*
X158015684Y-60205952D01*
X157966875Y-60253571D01*
X157875208Y-60301190D01*
X157532351Y-60301190D01*
X158443065Y-59872619D02*
X158491875Y-59825000D01*
X158583541Y-59777380D01*
X158797827Y-59777380D01*
X158877589Y-59825000D01*
X158914494Y-59872619D01*
X158945446Y-59967857D01*
X158933541Y-60063095D01*
X158872827Y-60205952D01*
X158287113Y-60777380D01*
X158844255Y-60777380D01*
X159526398Y-59777380D02*
X159612113Y-59777380D01*
X159691875Y-59825000D01*
X159728779Y-59872619D01*
X159759732Y-59967857D01*
X159778779Y-60158333D01*
X159749017Y-60396428D01*
X159682351Y-60586904D01*
X159627589Y-60682142D01*
X159578779Y-60729761D01*
X159487113Y-60777380D01*
X159401398Y-60777380D01*
X159321636Y-60729761D01*
X159284732Y-60682142D01*
X159253779Y-60586904D01*
X159234732Y-60396428D01*
X159264494Y-60158333D01*
X159331160Y-59967857D01*
X159385922Y-59872619D01*
X159434732Y-59825000D01*
X159526398Y-59777380D01*
X160126398Y-59777380D02*
X160683541Y-59777380D01*
X160335922Y-60158333D01*
X160464494Y-60158333D01*
X160544255Y-60205952D01*
X160581160Y-60253571D01*
X160612113Y-60348809D01*
X160582351Y-60586904D01*
X160527589Y-60682142D01*
X160478779Y-60729761D01*
X160387113Y-60777380D01*
X160129970Y-60777380D01*
X160050208Y-60729761D01*
X160013303Y-60682142D01*
X161014494Y-59872619D02*
X161063303Y-59825000D01*
X161154970Y-59777380D01*
X161369255Y-59777380D01*
X161449017Y-59825000D01*
X161485922Y-59872619D01*
X161516875Y-59967857D01*
X161504970Y-60063095D01*
X161444255Y-60205952D01*
X160858541Y-60777380D01*
X161415684Y-60777380D01*
X147497847Y-79708048D02*
X148259752Y-79708048D01*
X147924828Y-60078572D02*
X147924828Y-59316667D01*
X148305780Y-59697620D02*
X147543876Y-59697620D01*
D10*
%TO.C,U1*%
X194945000Y-77978000D02*
X163195000Y-77978000D01*
X163195000Y-64262000D02*
X194945000Y-64262000D01*
X194945000Y-64262000D02*
X194945000Y-77978000D01*
X163195000Y-77978000D02*
X163195000Y-64262000D01*
X163195000Y-72136000D02*
G75*
G03*
X164211000Y-71120000I-2J1016002D01*
G01*
X164211000Y-71120000D02*
G75*
G03*
X163195000Y-70104000I-1016002J-2D01*
G01*
%TO.C,RN1*%
X123190000Y-67310000D02*
X123190000Y-69850000D01*
X110490000Y-69850000D02*
X110490000Y-67310000D01*
X113030000Y-69850000D02*
X113030000Y-67310000D01*
X123190000Y-69850000D02*
X110490000Y-69850000D01*
X110490000Y-67310000D02*
X123190000Y-67310000D01*
%TO.C,JP1*%
X179070000Y-57785000D02*
X179705000Y-57150000D01*
X180975000Y-59690000D02*
X179705000Y-59690000D01*
X179705000Y-59690000D02*
X179070000Y-59055000D01*
X181610000Y-59055000D02*
X180975000Y-59690000D01*
X180975000Y-57150000D02*
X181610000Y-57785000D01*
X181610000Y-57785000D02*
X181610000Y-59055000D01*
X179705000Y-57150000D02*
X180975000Y-57150000D01*
X178435000Y-59690000D02*
X179070000Y-59055000D01*
X177165000Y-59690000D02*
X178435000Y-59690000D01*
X176530000Y-57785000D02*
X176530000Y-59055000D01*
X179070000Y-57785000D02*
X178435000Y-57150000D01*
X177165000Y-57150000D02*
X176530000Y-57785000D01*
X178435000Y-57150000D02*
X177165000Y-57150000D01*
X176530000Y-59055000D02*
X177165000Y-59690000D01*
%TO.C,U2*%
X109982000Y-77978000D02*
X109982000Y-71882000D01*
X109982000Y-71882000D02*
X136398000Y-71882000D01*
X136398000Y-71882000D02*
X136398000Y-77978000D01*
X136398000Y-77978000D02*
X109982000Y-77978000D01*
X109982000Y-75946000D02*
G75*
G03*
X110998000Y-74930000I-2J1016002D01*
G01*
X110998000Y-74930000D02*
G75*
G03*
X109982000Y-73914000I-1016002J-2D01*
G01*
%TO.C,SW1*%
X117221000Y-64008000D02*
X117221000Y-62357000D01*
X119761000Y-64008000D02*
X119761000Y-62357000D01*
X120015000Y-60198000D02*
X120015000Y-64262000D01*
X112395000Y-64770000D02*
X113030000Y-64770000D01*
X116205000Y-64262000D02*
X116205000Y-60198000D01*
X121740000Y-67130000D02*
X111940000Y-67130000D01*
X119761000Y-62357000D02*
X118999000Y-62357000D01*
X116459000Y-64008000D02*
X117221000Y-64008000D01*
X118745000Y-60198000D02*
X120015000Y-60198000D01*
X113030000Y-65405000D02*
X112395000Y-65405000D01*
X114681000Y-64008000D02*
X114681000Y-62357000D01*
X117475000Y-64262000D02*
X116205000Y-64262000D01*
X114935000Y-64262000D02*
X113665000Y-64262000D01*
X114935000Y-60198000D02*
X114935000Y-64262000D01*
X113919000Y-62357000D02*
X113919000Y-64008000D01*
X116205000Y-60198000D02*
X117475000Y-60198000D01*
X120015000Y-64262000D02*
X118745000Y-64262000D01*
X111940000Y-57330000D02*
X121740000Y-57330000D01*
X117475000Y-60198000D02*
X117475000Y-64262000D01*
X117221000Y-62357000D02*
X116459000Y-62357000D01*
X121740000Y-57330000D02*
X121740000Y-67130000D01*
X116459000Y-62357000D02*
X116459000Y-64008000D01*
X111940000Y-67130000D02*
X111940000Y-57330000D01*
X118999000Y-64008000D02*
X119761000Y-64008000D01*
X118999000Y-62357000D02*
X118999000Y-64008000D01*
X113665000Y-64262000D02*
X113665000Y-60198000D01*
X112395000Y-65405000D02*
X112395000Y-64770000D01*
X113665000Y-60198000D02*
X114935000Y-60198000D01*
X113919000Y-64008000D02*
X114681000Y-64008000D01*
X113030000Y-64770000D02*
X113030000Y-65405000D01*
X114681000Y-62357000D02*
X113919000Y-62357000D01*
X118745000Y-64262000D02*
X118745000Y-60198000D01*
%TO.C,Y1*%
X158838685Y-84074000D02*
X166966685Y-84074000D01*
X166966685Y-83312000D02*
X167982685Y-83566000D01*
X166966685Y-81026000D02*
X158838685Y-81026000D01*
X166966685Y-84074000D02*
X166966685Y-81026000D01*
X158838685Y-81026000D02*
X158838685Y-84074000D01*
X166966685Y-81788000D02*
X167982685Y-81534000D01*
D11*
X170076316Y-83820000D02*
G75*
G03*
X170076316Y-83820000I-1077631J0D01*
G01*
D10*
X170076316Y-81280000D02*
G75*
G03*
X170076316Y-81280000I-1077631J0D01*
G01*
%TO.C,C1*%
X164592000Y-59436000D02*
X170688000Y-59436000D01*
X164592000Y-57404000D02*
X170688000Y-57404000D01*
X171196000Y-58928000D02*
X171196000Y-57912000D01*
X164084000Y-58928000D02*
X164084000Y-57912000D01*
X171196000Y-57912000D02*
G75*
G03*
X170688000Y-57404000I-508000J0D01*
G01*
X164084000Y-58928000D02*
G75*
G03*
X164592000Y-59436000I508001J1D01*
G01*
X170688000Y-59436000D02*
G75*
G03*
X171196000Y-58928000I0J508000D01*
G01*
X164592000Y-57404000D02*
G75*
G03*
X164084000Y-57912000I1J-508001D01*
G01*
%TO.C,BT1*%
X138360000Y-69693020D02*
X138360000Y-79193020D01*
X152860000Y-80693020D02*
X152860000Y-84693020D01*
X155586500Y-59693020D02*
X161360000Y-69693020D01*
X153360120Y-58193940D02*
X146359880Y-58193940D01*
X146860000Y-80693020D02*
X146860000Y-84693020D01*
X138860000Y-79693020D02*
X145860000Y-79693020D01*
X153610000Y-58538020D02*
X153610000Y-61374020D01*
X146110000Y-58538020D02*
X146110000Y-61374020D01*
X146359880Y-58193940D02*
X146359880Y-62771020D01*
X153360120Y-62771020D02*
X153360120Y-58193940D01*
X144133500Y-59693020D02*
X138360000Y-69693020D01*
X161360000Y-69693020D02*
X161360000Y-79193020D01*
X152360000Y-85193020D02*
X147360000Y-85193020D01*
X153610000Y-58538020D02*
X146110000Y-58538020D01*
X153860000Y-79693020D02*
X160860000Y-79693020D01*
X152360000Y-85193020D02*
G75*
G03*
X152860000Y-84693020I0J500000D01*
G01*
X138360000Y-79193020D02*
G75*
G03*
X138860000Y-79693020I500000J0D01*
G01*
X146860000Y-80693020D02*
G75*
G03*
X145860000Y-79693020I-1000000J0D01*
G01*
X149860000Y-57693560D02*
G75*
G03*
X149359620Y-58193940I0J-500380D01*
G01*
X160860000Y-79693020D02*
G75*
G03*
X161360000Y-79193020I0J500000D01*
G01*
X150360380Y-58193940D02*
G75*
G03*
X149860000Y-57693560I-500380J0D01*
G01*
X155610000Y-59733728D02*
G75*
G03*
X149860000Y-58193020I-5750000J-9959290D01*
G01*
X146860000Y-84693020D02*
G75*
G03*
X147360000Y-85193020I500000J0D01*
G01*
X153860000Y-79693020D02*
G75*
G03*
X152860000Y-80693020I0J-1000000D01*
G01*
X149860000Y-58193020D02*
G75*
G03*
X144110000Y-59733728I0J-11499998D01*
G01*
X161290000Y-73693020D02*
G75*
G03*
X161290000Y-73693020I-11430000J0D01*
G01*
X160909000Y-71788020D02*
G75*
G03*
X160909000Y-71788020I-11049000J0D01*
G01*
%TD*%
M02*
