%TF.GenerationSoftware,KiCad,Pcbnew,(6.0.2)*%
%TF.CreationDate,2024-04-26T00:25:47-07:00*%
%TF.ProjectId,RTC8088,52544338-3038-4382-9e6b-696361645f70,3.0*%
%TF.SameCoordinates,Original*%
%TF.FileFunction,Copper,L2,Bot*%
%TF.FilePolarity,Positive*%
%FSLAX46Y46*%
G04 Gerber Fmt 4.6, Leading zero omitted, Abs format (unit mm)*
G04 Created by KiCad (PCBNEW (6.0.2)) date 2024-04-26 00:25:47*
%MOMM*%
%LPD*%
G01*
G04 APERTURE LIST*
G04 Aperture macros list*
%AMRoundRect*
0 Rectangle with rounded corners*
0 $1 Rounding radius*
0 $2 $3 $4 $5 $6 $7 $8 $9 X,Y pos of 4 corners*
0 Add a 4 corners polygon primitive as box body*
4,1,4,$2,$3,$4,$5,$6,$7,$8,$9,$2,$3,0*
0 Add four circle primitives for the rounded corners*
1,1,$1+$1,$2,$3*
1,1,$1+$1,$4,$5*
1,1,$1+$1,$6,$7*
1,1,$1+$1,$8,$9*
0 Add four rect primitives between the rounded corners*
20,1,$1+$1,$2,$3,$4,$5,0*
20,1,$1+$1,$4,$5,$6,$7,0*
20,1,$1+$1,$6,$7,$8,$9,0*
20,1,$1+$1,$8,$9,$2,$3,0*%
G04 Aperture macros list end*
%TA.AperFunction,ComponentPad*%
%ADD10R,1.397000X1.397000*%
%TD*%
%TA.AperFunction,ComponentPad*%
%ADD11C,1.397000*%
%TD*%
%TA.AperFunction,ComponentPad*%
%ADD12C,1.524000*%
%TD*%
%TA.AperFunction,ConnectorPad*%
%ADD13RoundRect,0.444500X-0.444500X-3.619500X0.444500X-3.619500X0.444500X3.619500X-0.444500X3.619500X0*%
%TD*%
%TA.AperFunction,ViaPad*%
%ADD14C,0.800000*%
%TD*%
%TA.AperFunction,Conductor*%
%ADD15C,1.500000*%
%TD*%
%TA.AperFunction,Conductor*%
%ADD16C,0.500000*%
%TD*%
G04 APERTURE END LIST*
D10*
%TO.P,RN1,1,common*%
%TO.N,VCC*%
X111760000Y-68580000D03*
D11*
%TO.P,RN1,2,R1*%
%TO.N,/AS0*%
X114300000Y-68580000D03*
%TO.P,RN1,3,R2*%
%TO.N,/AS1*%
X116840000Y-68580000D03*
%TO.P,RN1,4,R3*%
%TO.N,/AS2*%
X119380000Y-68580000D03*
%TO.P,RN1,5,R4*%
%TO.N,/~{IRQ}*%
X121920000Y-68580000D03*
%TD*%
D10*
%TO.P,SW1,1*%
%TO.N,/AS0*%
X114300000Y-66040000D03*
D11*
%TO.P,SW1,2*%
%TO.N,/AS1*%
X116840000Y-66040000D03*
%TO.P,SW1,3*%
%TO.N,/AS2*%
X119380000Y-66040000D03*
%TO.P,SW1,4*%
%TO.N,GND*%
X119380000Y-58420000D03*
%TO.P,SW1,5*%
X116840000Y-58420000D03*
%TO.P,SW1,6*%
X114300000Y-58420000D03*
%TD*%
D10*
%TO.P,U2,1,I/CLK*%
%TO.N,/A0*%
X111760000Y-78740000D03*
D11*
%TO.P,U2,2,I1*%
%TO.N,/A2*%
X114300000Y-78740000D03*
%TO.P,U2,3,I2*%
%TO.N,/A3*%
X116840000Y-78740000D03*
%TO.P,U2,4,I3*%
%TO.N,/A4*%
X119380000Y-78740000D03*
%TO.P,U2,5,I4*%
%TO.N,/A5*%
X121920000Y-78740000D03*
%TO.P,U2,6,I5*%
%TO.N,/A6*%
X124460000Y-78740000D03*
%TO.P,U2,7,I6*%
%TO.N,/A7*%
X127000000Y-78740000D03*
%TO.P,U2,8,I7*%
%TO.N,/A8*%
X129540000Y-78740000D03*
%TO.P,U2,9,I8*%
%TO.N,/A9*%
X132080000Y-78740000D03*
%TO.P,U2,10,GND*%
%TO.N,GND*%
X134620000Y-78740000D03*
%TO.P,U2,11,I9/~{OE}*%
%TO.N,/AS2*%
X134620000Y-71120000D03*
%TO.P,U2,12,I/O8*%
%TO.N,/IOW*%
X132080000Y-71120000D03*
%TO.P,U2,13,I/O7*%
%TO.N,/IOR*%
X129540000Y-71120000D03*
%TO.P,U2,14,I/O6*%
%TO.N,/RTCALE*%
X127000000Y-71120000D03*
%TO.P,U2,15,I/O5*%
%TO.N,/RTCWR*%
X124460000Y-71120000D03*
%TO.P,U2,16,I/O4*%
%TO.N,/RTCRD*%
X121920000Y-71120000D03*
%TO.P,U2,17,I/O3*%
%TO.N,/AEN*%
X119380000Y-71120000D03*
%TO.P,U2,18,I/O2*%
%TO.N,/AS1*%
X116840000Y-71120000D03*
%TO.P,U2,19,I/O1*%
%TO.N,/AS0*%
X114300000Y-71120000D03*
%TO.P,U2,20,VCC*%
%TO.N,VCC*%
X111760000Y-71120000D03*
%TD*%
%TO.P,Y1,1,1*%
%TO.N,Net-(U1-Pad2)*%
X167640000Y-81280000D03*
%TO.P,Y1,2,2*%
%TO.N,Net-(U1-Pad3)*%
X167640000Y-83820000D03*
%TO.P,Y1,3,3*%
%TO.N,GND*%
X162560000Y-84137500D03*
X162560000Y-80962500D03*
%TD*%
D10*
%TO.P,U1,1,MOT*%
%TO.N,unconnected-(U1-Pad1)*%
X165100000Y-78740000D03*
D11*
%TO.P,U1,2,X1*%
%TO.N,Net-(U1-Pad2)*%
X167640000Y-78740000D03*
%TO.P,U1,3,X2*%
%TO.N,Net-(U1-Pad3)*%
X170180000Y-78740000D03*
%TO.P,U1,4,AD0*%
%TO.N,/D0*%
X172720000Y-78740000D03*
%TO.P,U1,5,AD1*%
%TO.N,/D1*%
X175260000Y-78740000D03*
%TO.P,U1,6,AD2*%
%TO.N,/D2*%
X177800000Y-78740000D03*
%TO.P,U1,7,AD3*%
%TO.N,/D3*%
X180340000Y-78740000D03*
%TO.P,U1,8,AD4*%
%TO.N,/D4*%
X182880000Y-78740000D03*
%TO.P,U1,9,AD5*%
%TO.N,/D5*%
X185420000Y-78740000D03*
%TO.P,U1,10,AD6*%
%TO.N,/D6*%
X187960000Y-78740000D03*
%TO.P,U1,11,AD7*%
%TO.N,/D7*%
X190500000Y-78740000D03*
%TO.P,U1,12,GND*%
%TO.N,GND*%
X193040000Y-78740000D03*
%TO.P,U1,13,~{CS}*%
X193040000Y-63500000D03*
%TO.P,U1,14,AS*%
%TO.N,/RTCALE*%
X190500000Y-63500000D03*
%TO.P,U1,15,R/~{W}*%
%TO.N,/RTCWR*%
X187960000Y-63500000D03*
%TO.P,U1,16,GND*%
%TO.N,GND*%
X185420000Y-63500000D03*
%TO.P,U1,17,DS*%
%TO.N,/RTCRD*%
X182880000Y-63500000D03*
%TO.P,U1,18,~{RESET}*%
%TO.N,VCC*%
X180340000Y-63500000D03*
%TO.P,U1,19,~{IRQ}*%
%TO.N,/~{IRQ}*%
X177800000Y-63500000D03*
%TO.P,U1,20,VBAT*%
%TO.N,Net-(BT1-Pad1)*%
X175260000Y-63500000D03*
%TO.P,U1,21,~{RCLR}*%
%TO.N,Net-(JP1-Pad1)*%
X172720000Y-63500000D03*
%TO.P,U1,22,NC*%
%TO.N,unconnected-(U1-Pad22)*%
X170180000Y-63500000D03*
%TO.P,U1,23,SQW*%
%TO.N,unconnected-(U1-Pad23)*%
X167640000Y-63500000D03*
%TO.P,U1,24,VCC*%
%TO.N,VCC*%
X165100000Y-63500000D03*
%TD*%
D12*
%TO.P,BT1,1,+*%
%TO.N,Net-(BT1-Pad1)*%
X149860000Y-58389520D03*
%TO.P,BT1,2,-*%
%TO.N,GND*%
X149860000Y-78389480D03*
%TD*%
%TO.P,JP1,1,A*%
%TO.N,Net-(JP1-Pad1)*%
X177800000Y-58420000D03*
%TO.P,JP1,2,B*%
%TO.N,GND*%
X180340000Y-58420000D03*
%TD*%
D13*
%TO.P,BUS1,1,GND*%
%TO.N,GND*%
X190500000Y-91122500D03*
%TO.P,BUS1,2,RESET*%
%TO.N,unconnected-(BUS1-Pad2)*%
X187960000Y-91122500D03*
%TO.P,BUS1,3,VCC*%
%TO.N,VCC*%
X185420000Y-91122500D03*
%TO.P,BUS1,4,IRQ2*%
%TO.N,/IRQ2*%
X182880000Y-91122500D03*
%TO.P,BUS1,5,-5V*%
%TO.N,unconnected-(BUS1-Pad5)*%
X180340000Y-91122500D03*
%TO.P,BUS1,6,DRQ2*%
%TO.N,unconnected-(BUS1-Pad6)*%
X177800000Y-91122500D03*
%TO.P,BUS1,7,-12V*%
%TO.N,unconnected-(BUS1-Pad7)*%
X175260000Y-91122500D03*
%TO.P,BUS1,8,UNUSED*%
%TO.N,unconnected-(BUS1-Pad8)*%
X172720000Y-91122500D03*
%TO.P,BUS1,9,+12V*%
%TO.N,unconnected-(BUS1-Pad9)*%
X170180000Y-91122500D03*
%TO.P,BUS1,10,GND*%
%TO.N,GND*%
X167640000Y-91122500D03*
%TO.P,BUS1,11,MEMW*%
%TO.N,unconnected-(BUS1-Pad11)*%
X165100000Y-91122500D03*
%TO.P,BUS1,12,MEMR*%
%TO.N,unconnected-(BUS1-Pad12)*%
X162560000Y-91122500D03*
%TO.P,BUS1,13,IOW*%
%TO.N,/IOW*%
X160020000Y-91122500D03*
%TO.P,BUS1,14,IOR*%
%TO.N,/IOR*%
X157480000Y-91122500D03*
%TO.P,BUS1,15,DACK3*%
%TO.N,unconnected-(BUS1-Pad15)*%
X154940000Y-91122500D03*
%TO.P,BUS1,16,DRQ3*%
%TO.N,unconnected-(BUS1-Pad16)*%
X152400000Y-91122500D03*
%TO.P,BUS1,17,DACK1*%
%TO.N,unconnected-(BUS1-Pad17)*%
X149860000Y-91122500D03*
%TO.P,BUS1,18,DRQ1*%
%TO.N,unconnected-(BUS1-Pad18)*%
X147320000Y-91122500D03*
%TO.P,BUS1,19,DACK0*%
%TO.N,unconnected-(BUS1-Pad19)*%
X144780000Y-91122500D03*
%TO.P,BUS1,20,CLK*%
%TO.N,unconnected-(BUS1-Pad20)*%
X142240000Y-91122500D03*
%TO.P,BUS1,21,IRQ7*%
%TO.N,/IRQ7*%
X139700000Y-91122500D03*
%TO.P,BUS1,22,IRQ6*%
%TO.N,/IRQ6*%
X137160000Y-91122500D03*
%TO.P,BUS1,23,IRQ5*%
%TO.N,/IRQ5*%
X134620000Y-91122500D03*
%TO.P,BUS1,24,IRQ4*%
%TO.N,/IRQ4*%
X132080000Y-91122500D03*
%TO.P,BUS1,25,IRQ3*%
%TO.N,/IRQ3*%
X129540000Y-91122500D03*
%TO.P,BUS1,26,DACK2*%
%TO.N,unconnected-(BUS1-Pad26)*%
X127000000Y-91122500D03*
%TO.P,BUS1,27,TC*%
%TO.N,unconnected-(BUS1-Pad27)*%
X124460000Y-91122500D03*
%TO.P,BUS1,28,ALE*%
%TO.N,unconnected-(BUS1-Pad28)*%
X121920000Y-91122500D03*
%TO.P,BUS1,29,VCC*%
%TO.N,VCC*%
X119380000Y-91122500D03*
%TO.P,BUS1,30,OSC*%
%TO.N,unconnected-(BUS1-Pad30)*%
X116840000Y-91122500D03*
%TO.P,BUS1,31,GND*%
%TO.N,GND*%
X114300000Y-91122500D03*
%TD*%
D11*
%TO.P,C1,1*%
%TO.N,VCC*%
X165100000Y-58420000D03*
%TO.P,C1,2*%
%TO.N,GND*%
X170180000Y-58420000D03*
%TD*%
D14*
%TO.N,GND*%
X163830000Y-72390000D03*
X163830000Y-73660000D03*
X163830000Y-74930000D03*
X190500000Y-85090000D03*
%TO.N,/AS2*%
X176530000Y-71120000D03*
%TO.N,/IOW*%
X158750000Y-73660000D03*
%TO.N,/IOR*%
X156210000Y-73660000D03*
%TD*%
D15*
%TO.N,VCC*%
X111760000Y-71628000D02*
X116840000Y-76708000D01*
X111760000Y-71120000D02*
X111760000Y-71628000D01*
D16*
X115570000Y-79375000D02*
X115570000Y-78105000D01*
X118110000Y-79375000D02*
X118110000Y-78105000D01*
X115570000Y-78105000D02*
X116840000Y-76835000D01*
X116840000Y-80645000D02*
X118110000Y-79375000D01*
X118110000Y-78105000D02*
X116840000Y-76835000D01*
X116840000Y-80645000D02*
X115570000Y-79375000D01*
D15*
X116840000Y-82550000D02*
X116840000Y-80645000D01*
X119380000Y-85090000D02*
X116840000Y-82550000D01*
X119380000Y-91122500D02*
X119380000Y-85090000D01*
X111760000Y-65024000D02*
X111760000Y-68580000D01*
X113284000Y-63500000D02*
X111760000Y-65024000D01*
X165100000Y-63500000D02*
X113284000Y-63500000D01*
D16*
%TO.N,/IOR*%
X157480000Y-74930000D02*
X157480000Y-90805000D01*
X156210000Y-73660000D02*
X157480000Y-74930000D01*
%TO.N,/IOW*%
X160020000Y-74930000D02*
X160020000Y-90805000D01*
X158750000Y-73660000D02*
X160020000Y-74930000D01*
D15*
%TO.N,VCC*%
X111760000Y-71120000D02*
X111760000Y-68580000D01*
D16*
%TO.N,GND*%
X118110000Y-59690000D02*
X119380000Y-58420000D01*
X116840000Y-58420000D02*
X118110000Y-59690000D01*
X176530000Y-64135000D02*
X174625000Y-66040000D01*
X110172500Y-62547500D02*
X114300000Y-58420000D01*
X168910000Y-59690000D02*
X170180000Y-58420000D01*
X191135000Y-61595000D02*
X193040000Y-63500000D01*
X191770000Y-64770000D02*
X193040000Y-63500000D01*
X157129480Y-71120000D02*
X149860000Y-78389480D01*
X163830000Y-71120000D02*
X168910000Y-66040000D01*
X162560000Y-80962500D02*
X163830000Y-79692500D01*
X162560000Y-84137500D02*
X163830000Y-82867500D01*
X174625000Y-66040000D02*
X168910000Y-66040000D01*
X167640000Y-85725000D02*
X167005000Y-85090000D01*
X115570000Y-59690000D02*
X116840000Y-58420000D01*
X168910000Y-66040000D02*
X168910000Y-59690000D01*
X176530000Y-62230000D02*
X176530000Y-64135000D01*
X163830000Y-82867500D02*
X163830000Y-82232500D01*
X163830000Y-79692500D02*
X163830000Y-71120000D01*
X185420000Y-63500000D02*
X187325000Y-61595000D01*
X193040000Y-78740000D02*
X191770000Y-77470000D01*
X187325000Y-61595000D02*
X191135000Y-61595000D01*
X180340000Y-58420000D02*
X185420000Y-63500000D01*
X163512500Y-85090000D02*
X162560000Y-84137500D01*
X161290000Y-71120000D02*
X157129480Y-71120000D01*
X190500000Y-85090000D02*
X193040000Y-82550000D01*
D15*
X190500000Y-91122500D02*
X190500000Y-85090000D01*
X167640000Y-91122500D02*
X167640000Y-85725000D01*
D16*
X180340000Y-58420000D02*
X176530000Y-62230000D01*
X167005000Y-85090000D02*
X163512500Y-85090000D01*
D15*
X114300000Y-91122500D02*
X114300000Y-85090000D01*
D16*
X163830000Y-71120000D02*
X161290000Y-71120000D01*
X163830000Y-82232500D02*
X162560000Y-80962500D01*
X114300000Y-58420000D02*
X115570000Y-59690000D01*
X193040000Y-82550000D02*
X193040000Y-78740000D01*
X114300000Y-85090000D02*
X110172500Y-80962500D01*
X110172500Y-69532500D02*
X110172500Y-62547500D01*
X110172500Y-80962500D02*
X110172500Y-69532500D01*
X191770000Y-77470000D02*
X191770000Y-64770000D01*
D15*
%TO.N,VCC*%
X185420000Y-68580000D02*
X180340000Y-63500000D01*
D16*
X184150000Y-78105000D02*
X184150000Y-79375000D01*
X185420000Y-76835000D02*
X184150000Y-78105000D01*
D15*
X185420000Y-76835000D02*
X185420000Y-68580000D01*
D16*
X185420000Y-76835000D02*
X186690000Y-78105000D01*
X186690000Y-79375000D02*
X185420000Y-80645000D01*
X184150000Y-79375000D02*
X185420000Y-80645000D01*
X186690000Y-78105000D02*
X186690000Y-79375000D01*
D15*
X185420000Y-91122500D02*
X185420000Y-80645000D01*
D16*
%TO.N,/AS2*%
X176530000Y-71120000D02*
X177800000Y-69850000D01*
X177800000Y-69850000D02*
X177800000Y-63500000D01*
%TO.N,Net-(JP1-Pad1)*%
X172720000Y-63182500D02*
X177482500Y-58420000D01*
X172720000Y-63500000D02*
X172720000Y-63182500D01*
X177482500Y-58420000D02*
X177800000Y-58420000D01*
%TD*%
%TA.AperFunction,Conductor*%
%TO.N,GND*%
G36*
X113272745Y-57551002D02*
G01*
X113319238Y-57604658D01*
X113329342Y-57674932D01*
X113303574Y-57735005D01*
X113287390Y-57755535D01*
X113281118Y-57765192D01*
X113183256Y-57951198D01*
X113178851Y-57961832D01*
X113116522Y-58162563D01*
X113114130Y-58173817D01*
X113089425Y-58382547D01*
X113089124Y-58394048D01*
X113102871Y-58603779D01*
X113104672Y-58615149D01*
X113156409Y-58818863D01*
X113160250Y-58829710D01*
X113248247Y-59020592D01*
X113253996Y-59030549D01*
X113275112Y-59060427D01*
X113285701Y-59068815D01*
X113299000Y-59061788D01*
X114210905Y-58149884D01*
X114273217Y-58115859D01*
X114344033Y-58120924D01*
X114389095Y-58149884D01*
X115302609Y-59063398D01*
X115314987Y-59070156D01*
X115321566Y-59065231D01*
X115404095Y-58917865D01*
X115408771Y-58907362D01*
X115449435Y-58787570D01*
X115490272Y-58729494D01*
X115556025Y-58702715D01*
X115625817Y-58715736D01*
X115677490Y-58764423D01*
X115690872Y-58797058D01*
X115696411Y-58818869D01*
X115700250Y-58829710D01*
X115788247Y-59020592D01*
X115793996Y-59030549D01*
X115815112Y-59060427D01*
X115825701Y-59068815D01*
X115839000Y-59061788D01*
X116750905Y-58149884D01*
X116813217Y-58115859D01*
X116884033Y-58120924D01*
X116929095Y-58149884D01*
X117842609Y-59063398D01*
X117854987Y-59070156D01*
X117861566Y-59065231D01*
X117944095Y-58917865D01*
X117948771Y-58907362D01*
X117989435Y-58787570D01*
X118030272Y-58729494D01*
X118096025Y-58702715D01*
X118165817Y-58715736D01*
X118217490Y-58764423D01*
X118230872Y-58797058D01*
X118236411Y-58818869D01*
X118240250Y-58829710D01*
X118328247Y-59020592D01*
X118333996Y-59030549D01*
X118355112Y-59060427D01*
X118365701Y-59068815D01*
X118379000Y-59061788D01*
X119290905Y-58149884D01*
X119353217Y-58115859D01*
X119424033Y-58120924D01*
X119469095Y-58149884D01*
X120382609Y-59063398D01*
X120394987Y-59070156D01*
X120401566Y-59065231D01*
X120484095Y-58917865D01*
X120488771Y-58907362D01*
X120556334Y-58708328D01*
X120559019Y-58697145D01*
X120589475Y-58487088D01*
X120590105Y-58479705D01*
X120591572Y-58423704D01*
X120591329Y-58416305D01*
X120571908Y-58204945D01*
X120569811Y-58193630D01*
X120512758Y-57991336D01*
X120508636Y-57980597D01*
X120415673Y-57792085D01*
X120409663Y-57782278D01*
X120372409Y-57732389D01*
X120347677Y-57665839D01*
X120362851Y-57596483D01*
X120413113Y-57546341D01*
X120473367Y-57531000D01*
X148820824Y-57531000D01*
X148888945Y-57551002D01*
X148935438Y-57604658D01*
X148945542Y-57674932D01*
X148919774Y-57735006D01*
X148896872Y-57764057D01*
X148894181Y-57769173D01*
X148894179Y-57769175D01*
X148801710Y-57944930D01*
X148799018Y-57950047D01*
X148736696Y-58150754D01*
X148736017Y-58156489D01*
X148736017Y-58156490D01*
X148732525Y-58185998D01*
X148711995Y-58359458D01*
X148725740Y-58569169D01*
X148777471Y-58772863D01*
X148786303Y-58792021D01*
X148863038Y-58958473D01*
X148863041Y-58958478D01*
X148865457Y-58963719D01*
X148868788Y-58968432D01*
X148868789Y-58968434D01*
X148981874Y-59128444D01*
X148986751Y-59135345D01*
X149137289Y-59281994D01*
X149142085Y-59285199D01*
X149142088Y-59285201D01*
X149212499Y-59332248D01*
X149312031Y-59398753D01*
X149317339Y-59401034D01*
X149317340Y-59401034D01*
X149499822Y-59479434D01*
X149499825Y-59479435D01*
X149505125Y-59481712D01*
X149510754Y-59482986D01*
X149510755Y-59482986D01*
X149704467Y-59526819D01*
X149704473Y-59526820D01*
X149710104Y-59528094D01*
X149715875Y-59528321D01*
X149715877Y-59528321D01*
X149779433Y-59530818D01*
X149920103Y-59536345D01*
X150128088Y-59506189D01*
X150133552Y-59504334D01*
X150133557Y-59504333D01*
X150321624Y-59440493D01*
X150321629Y-59440491D01*
X150327096Y-59438635D01*
X150348726Y-59426522D01*
X150404042Y-59395543D01*
X150510460Y-59335946D01*
X150672041Y-59201561D01*
X150806426Y-59039980D01*
X150909115Y-58856616D01*
X150910971Y-58851149D01*
X150910973Y-58851144D01*
X150974813Y-58663077D01*
X150974814Y-58663072D01*
X150976669Y-58657608D01*
X151006825Y-58449623D01*
X151008399Y-58389520D01*
X150989169Y-58180241D01*
X150980608Y-58149884D01*
X150940719Y-58008451D01*
X150932123Y-57977971D01*
X150839171Y-57789483D01*
X150796537Y-57732389D01*
X150771805Y-57665839D01*
X150786979Y-57596483D01*
X150837241Y-57546341D01*
X150897495Y-57531000D01*
X164165717Y-57531000D01*
X164233838Y-57551002D01*
X164280331Y-57604658D01*
X164290435Y-57674932D01*
X164264668Y-57735005D01*
X164190355Y-57829270D01*
X164187666Y-57834381D01*
X164187664Y-57834384D01*
X164140989Y-57923098D01*
X164097935Y-58004931D01*
X164039075Y-58194493D01*
X164015745Y-58391608D01*
X164028727Y-58589673D01*
X164077586Y-58782056D01*
X164160685Y-58962313D01*
X164164018Y-58967029D01*
X164267986Y-59114140D01*
X164275243Y-59124409D01*
X164417422Y-59262913D01*
X164582461Y-59373189D01*
X164587764Y-59375467D01*
X164587767Y-59375469D01*
X164759525Y-59449262D01*
X164764832Y-59451542D01*
X164830014Y-59466291D01*
X164952791Y-59494073D01*
X164952796Y-59494074D01*
X164958428Y-59495348D01*
X164964199Y-59495575D01*
X164964201Y-59495575D01*
X165023262Y-59497895D01*
X165156765Y-59503141D01*
X165267301Y-59487114D01*
X165347487Y-59475488D01*
X165347492Y-59475487D01*
X165353201Y-59474659D01*
X165377853Y-59466291D01*
X165477945Y-59432314D01*
X169532046Y-59432314D01*
X169541928Y-59444803D01*
X169597041Y-59481627D01*
X169607146Y-59487114D01*
X169800267Y-59570086D01*
X169811210Y-59573641D01*
X170016209Y-59620028D01*
X170027618Y-59621530D01*
X170237645Y-59629781D01*
X170249129Y-59629179D01*
X170457145Y-59599019D01*
X170468328Y-59596334D01*
X170667362Y-59528771D01*
X170677865Y-59524095D01*
X170820404Y-59444270D01*
X170830266Y-59434194D01*
X170827311Y-59426522D01*
X170192811Y-58792021D01*
X170178868Y-58784408D01*
X170177034Y-58784539D01*
X170170420Y-58788790D01*
X169538239Y-59420972D01*
X169532046Y-59432314D01*
X165477945Y-59432314D01*
X165541158Y-59410856D01*
X165714339Y-59313870D01*
X165866947Y-59186947D01*
X165933378Y-59107072D01*
X165990179Y-59038777D01*
X165993870Y-59034339D01*
X166090856Y-58861158D01*
X166154659Y-58673201D01*
X166155487Y-58667492D01*
X166155488Y-58667487D01*
X166182608Y-58480438D01*
X166183141Y-58476765D01*
X166184627Y-58420000D01*
X166166465Y-58222342D01*
X166161322Y-58204104D01*
X166127081Y-58082696D01*
X166112587Y-58031304D01*
X166024797Y-57853284D01*
X165934520Y-57732389D01*
X165909788Y-57665839D01*
X165924962Y-57596483D01*
X165975224Y-57546341D01*
X166035478Y-57531000D01*
X169084624Y-57531000D01*
X169152745Y-57551002D01*
X169199238Y-57604658D01*
X169209342Y-57674932D01*
X169183574Y-57735005D01*
X169167390Y-57755535D01*
X169161118Y-57765192D01*
X169063256Y-57951198D01*
X169058851Y-57961832D01*
X168996522Y-58162563D01*
X168994130Y-58173817D01*
X168969425Y-58382547D01*
X168969124Y-58394048D01*
X168982871Y-58603779D01*
X168984672Y-58615149D01*
X169036409Y-58818863D01*
X169040250Y-58829710D01*
X169128247Y-59020592D01*
X169133996Y-59030549D01*
X169155112Y-59060427D01*
X169165701Y-59068815D01*
X169179000Y-59061788D01*
X170090905Y-58149884D01*
X170153217Y-58115859D01*
X170224033Y-58120924D01*
X170269095Y-58149884D01*
X171182609Y-59063398D01*
X171194987Y-59070156D01*
X171201566Y-59065231D01*
X171284095Y-58917865D01*
X171288771Y-58907362D01*
X171356334Y-58708328D01*
X171359019Y-58697145D01*
X171389475Y-58487088D01*
X171390105Y-58479705D01*
X171391572Y-58423704D01*
X171391329Y-58416305D01*
X171371908Y-58204945D01*
X171369811Y-58193630D01*
X171312758Y-57991336D01*
X171308636Y-57980597D01*
X171215673Y-57792085D01*
X171209663Y-57782278D01*
X171172409Y-57732389D01*
X171147677Y-57665839D01*
X171162851Y-57596483D01*
X171213113Y-57546341D01*
X171273367Y-57531000D01*
X176784852Y-57531000D01*
X176852973Y-57551002D01*
X176899466Y-57604658D01*
X176909570Y-57674932D01*
X176883802Y-57735005D01*
X176842375Y-57787556D01*
X176836872Y-57794537D01*
X176834181Y-57799653D01*
X176834179Y-57799655D01*
X176741710Y-57975410D01*
X176739018Y-57980527D01*
X176676696Y-58181234D01*
X176676018Y-58186966D01*
X176676017Y-58186969D01*
X176661494Y-58309677D01*
X176633624Y-58374974D01*
X176625462Y-58383962D01*
X172609844Y-62399580D01*
X172542087Y-62434665D01*
X172468068Y-62447384D01*
X172439278Y-62452331D01*
X172253056Y-62521032D01*
X172248094Y-62523984D01*
X172244428Y-62526165D01*
X172082472Y-62622518D01*
X171933239Y-62753392D01*
X171929664Y-62757927D01*
X171929663Y-62757928D01*
X171916801Y-62774243D01*
X171810355Y-62909270D01*
X171807666Y-62914381D01*
X171807664Y-62914384D01*
X171794792Y-62938850D01*
X171717935Y-63084931D01*
X171659075Y-63274493D01*
X171635745Y-63471608D01*
X171648727Y-63669673D01*
X171697586Y-63862056D01*
X171780685Y-64042313D01*
X171784018Y-64047029D01*
X171869435Y-64167891D01*
X171895243Y-64204409D01*
X171899385Y-64208444D01*
X171954885Y-64262509D01*
X172037422Y-64342913D01*
X172042226Y-64346123D01*
X172113684Y-64393870D01*
X172202461Y-64453189D01*
X172207764Y-64455467D01*
X172207767Y-64455469D01*
X172379525Y-64529262D01*
X172384832Y-64531542D01*
X172435633Y-64543037D01*
X172572791Y-64574073D01*
X172572796Y-64574074D01*
X172578428Y-64575348D01*
X172584199Y-64575575D01*
X172584201Y-64575575D01*
X172643262Y-64577895D01*
X172776765Y-64583141D01*
X172887301Y-64567114D01*
X172967487Y-64555488D01*
X172967492Y-64555487D01*
X172973201Y-64554659D01*
X173161158Y-64490856D01*
X173334339Y-64393870D01*
X173342898Y-64386752D01*
X173482509Y-64270638D01*
X173486947Y-64266947D01*
X173613870Y-64114339D01*
X173710856Y-63941158D01*
X173774659Y-63753201D01*
X173775487Y-63747492D01*
X173775488Y-63747487D01*
X173801644Y-63567088D01*
X173803141Y-63556765D01*
X173804627Y-63500000D01*
X173802018Y-63471608D01*
X174175745Y-63471608D01*
X174188727Y-63669673D01*
X174237586Y-63862056D01*
X174320685Y-64042313D01*
X174324018Y-64047029D01*
X174409435Y-64167891D01*
X174435243Y-64204409D01*
X174439385Y-64208444D01*
X174494885Y-64262509D01*
X174577422Y-64342913D01*
X174582226Y-64346123D01*
X174653684Y-64393870D01*
X174742461Y-64453189D01*
X174747764Y-64455467D01*
X174747767Y-64455469D01*
X174919525Y-64529262D01*
X174924832Y-64531542D01*
X174975633Y-64543037D01*
X175112791Y-64574073D01*
X175112796Y-64574074D01*
X175118428Y-64575348D01*
X175124199Y-64575575D01*
X175124201Y-64575575D01*
X175183262Y-64577895D01*
X175316765Y-64583141D01*
X175427301Y-64567114D01*
X175507487Y-64555488D01*
X175507492Y-64555487D01*
X175513201Y-64554659D01*
X175701158Y-64490856D01*
X175874339Y-64393870D01*
X175882898Y-64386752D01*
X176022509Y-64270638D01*
X176026947Y-64266947D01*
X176153870Y-64114339D01*
X176250856Y-63941158D01*
X176314659Y-63753201D01*
X176315487Y-63747492D01*
X176315488Y-63747487D01*
X176341644Y-63567088D01*
X176343141Y-63556765D01*
X176344627Y-63500000D01*
X176326465Y-63302342D01*
X176318368Y-63273630D01*
X176279489Y-63135777D01*
X176272587Y-63111304D01*
X176184797Y-62933284D01*
X176066035Y-62774243D01*
X176052982Y-62762177D01*
X175924520Y-62643428D01*
X175924518Y-62643426D01*
X175920279Y-62639508D01*
X175752410Y-62533590D01*
X175747050Y-62531452D01*
X175747047Y-62531450D01*
X175635150Y-62486808D01*
X175568051Y-62460038D01*
X175562394Y-62458913D01*
X175562388Y-62458911D01*
X175379041Y-62422442D01*
X175379039Y-62422442D01*
X175373374Y-62421315D01*
X175367599Y-62421239D01*
X175367595Y-62421239D01*
X175268638Y-62419944D01*
X175174901Y-62418717D01*
X175169204Y-62419696D01*
X175169203Y-62419696D01*
X175033872Y-62442950D01*
X174979278Y-62452331D01*
X174793056Y-62521032D01*
X174788094Y-62523984D01*
X174784428Y-62526165D01*
X174622472Y-62622518D01*
X174473239Y-62753392D01*
X174469664Y-62757927D01*
X174469663Y-62757928D01*
X174456801Y-62774243D01*
X174350355Y-62909270D01*
X174347666Y-62914381D01*
X174347664Y-62914384D01*
X174334792Y-62938850D01*
X174257935Y-63084931D01*
X174199075Y-63274493D01*
X174175745Y-63471608D01*
X173802018Y-63471608D01*
X173786465Y-63302342D01*
X173778368Y-63273630D01*
X173742004Y-63144694D01*
X173742764Y-63073702D01*
X173774178Y-63021398D01*
X177271611Y-59523965D01*
X177333923Y-59489939D01*
X177410442Y-59497292D01*
X177439817Y-59509912D01*
X177439821Y-59509913D01*
X177445125Y-59512192D01*
X177450754Y-59513466D01*
X177450755Y-59513466D01*
X177644467Y-59557299D01*
X177644473Y-59557300D01*
X177650104Y-59558574D01*
X177655875Y-59558801D01*
X177655877Y-59558801D01*
X177719433Y-59561298D01*
X177860103Y-59566825D01*
X178068088Y-59536669D01*
X178073552Y-59534814D01*
X178073557Y-59534813D01*
X178238634Y-59478777D01*
X179645777Y-59478777D01*
X179655074Y-59490793D01*
X179698069Y-59520898D01*
X179707555Y-59526376D01*
X179898993Y-59615645D01*
X179909285Y-59619391D01*
X180113309Y-59674059D01*
X180124104Y-59675962D01*
X180334525Y-59694372D01*
X180345475Y-59694372D01*
X180555896Y-59675962D01*
X180566691Y-59674059D01*
X180770715Y-59619391D01*
X180781007Y-59615645D01*
X180972445Y-59526376D01*
X180981931Y-59520898D01*
X181025764Y-59490207D01*
X181034139Y-59479729D01*
X181027071Y-59466281D01*
X180352812Y-58792022D01*
X180338868Y-58784408D01*
X180337035Y-58784539D01*
X180330420Y-58788790D01*
X179652207Y-59467003D01*
X179645777Y-59478777D01*
X178238634Y-59478777D01*
X178261624Y-59470973D01*
X178261629Y-59470971D01*
X178267096Y-59469115D01*
X178272157Y-59466281D01*
X178353061Y-59420972D01*
X178450460Y-59366426D01*
X178612041Y-59232041D01*
X178746426Y-59070460D01*
X178814805Y-58948360D01*
X178846291Y-58892139D01*
X178846292Y-58892137D01*
X178849115Y-58887096D01*
X178883953Y-58784467D01*
X178924789Y-58726392D01*
X178990541Y-58699613D01*
X179060334Y-58712634D01*
X179112007Y-58761320D01*
X179124971Y-58792357D01*
X179140606Y-58850707D01*
X179144355Y-58861007D01*
X179233623Y-59052441D01*
X179239103Y-59061932D01*
X179269794Y-59105765D01*
X179280271Y-59114140D01*
X179293718Y-59107072D01*
X180250905Y-58149885D01*
X180313217Y-58115859D01*
X180384032Y-58120924D01*
X180429095Y-58149885D01*
X181387003Y-59107793D01*
X181398777Y-59114223D01*
X181410793Y-59104926D01*
X181440897Y-59061932D01*
X181446377Y-59052441D01*
X181535645Y-58861007D01*
X181539391Y-58850715D01*
X181594059Y-58646691D01*
X181595962Y-58635896D01*
X181614372Y-58425475D01*
X181614372Y-58414525D01*
X181595962Y-58204104D01*
X181594059Y-58193309D01*
X181539391Y-57989285D01*
X181535645Y-57978993D01*
X181446376Y-57787556D01*
X181440903Y-57778078D01*
X181406728Y-57729270D01*
X181384041Y-57661996D01*
X181401326Y-57593136D01*
X181453097Y-57544552D01*
X181509942Y-57531000D01*
X194905099Y-57531000D01*
X194924809Y-57532551D01*
X194945001Y-57535749D01*
X194954796Y-57534198D01*
X194955273Y-57534198D01*
X194974980Y-57535749D01*
X194980017Y-57536546D01*
X195049400Y-57571900D01*
X195158100Y-57680600D01*
X195193454Y-57749984D01*
X195194251Y-57755016D01*
X195195802Y-57774727D01*
X195195802Y-57775204D01*
X195194251Y-57784999D01*
X195195802Y-57794791D01*
X195197449Y-57805190D01*
X195199000Y-57824901D01*
X195199000Y-84783810D01*
X195178998Y-84851931D01*
X195162095Y-84872905D01*
X194981905Y-85053095D01*
X194919593Y-85087121D01*
X194892810Y-85090000D01*
X186677500Y-85090000D01*
X186609379Y-85069998D01*
X186562886Y-85016342D01*
X186551500Y-84964000D01*
X186551500Y-80591054D01*
X186543226Y-80504332D01*
X186541070Y-80481733D01*
X186554511Y-80412020D01*
X186577405Y-80380671D01*
X187081030Y-79877046D01*
X187089272Y-79869546D01*
X187095732Y-79865446D01*
X187142198Y-79815965D01*
X187144953Y-79813123D01*
X187164631Y-79793445D01*
X187167091Y-79790273D01*
X187174795Y-79781253D01*
X187183915Y-79771542D01*
X187204955Y-79749136D01*
X187214670Y-79731465D01*
X187225516Y-79714953D01*
X187237879Y-79699015D01*
X187237879Y-79699014D01*
X187240355Y-79700934D01*
X187281634Y-79662420D01*
X187351489Y-79649740D01*
X187408156Y-79670267D01*
X187442461Y-79693189D01*
X187447764Y-79695467D01*
X187447767Y-79695469D01*
X187609901Y-79765127D01*
X187624832Y-79771542D01*
X187667749Y-79781253D01*
X187812791Y-79814073D01*
X187812796Y-79814074D01*
X187818428Y-79815348D01*
X187824199Y-79815575D01*
X187824201Y-79815575D01*
X187883262Y-79817895D01*
X188016765Y-79823141D01*
X188127301Y-79807114D01*
X188207487Y-79795488D01*
X188207492Y-79795487D01*
X188213201Y-79794659D01*
X188226096Y-79790282D01*
X188347307Y-79749136D01*
X188401158Y-79730856D01*
X188574339Y-79633870D01*
X188726947Y-79506947D01*
X188853870Y-79354339D01*
X188950856Y-79181158D01*
X189014659Y-78993201D01*
X189015487Y-78987492D01*
X189015488Y-78987487D01*
X189030021Y-78887253D01*
X189043141Y-78796765D01*
X189044627Y-78740000D01*
X189042018Y-78711608D01*
X189415745Y-78711608D01*
X189428727Y-78909673D01*
X189477586Y-79102056D01*
X189560685Y-79282313D01*
X189564018Y-79287029D01*
X189636902Y-79390157D01*
X189675243Y-79444409D01*
X189817422Y-79582913D01*
X189982461Y-79693189D01*
X189987764Y-79695467D01*
X189987767Y-79695469D01*
X190149901Y-79765127D01*
X190164832Y-79771542D01*
X190207749Y-79781253D01*
X190352791Y-79814073D01*
X190352796Y-79814074D01*
X190358428Y-79815348D01*
X190364199Y-79815575D01*
X190364201Y-79815575D01*
X190423262Y-79817895D01*
X190556765Y-79823141D01*
X190667301Y-79807114D01*
X190747487Y-79795488D01*
X190747492Y-79795487D01*
X190753201Y-79794659D01*
X190766096Y-79790282D01*
X190877945Y-79752314D01*
X192392046Y-79752314D01*
X192401928Y-79764803D01*
X192457041Y-79801627D01*
X192467146Y-79807114D01*
X192660267Y-79890086D01*
X192671210Y-79893641D01*
X192876209Y-79940028D01*
X192887618Y-79941530D01*
X193097645Y-79949781D01*
X193109129Y-79949179D01*
X193317145Y-79919019D01*
X193328328Y-79916334D01*
X193527362Y-79848771D01*
X193537865Y-79844095D01*
X193680404Y-79764270D01*
X193690266Y-79754194D01*
X193687311Y-79746522D01*
X193052811Y-79112021D01*
X193038868Y-79104408D01*
X193037034Y-79104539D01*
X193030420Y-79108790D01*
X192398239Y-79740972D01*
X192392046Y-79752314D01*
X190877945Y-79752314D01*
X190887307Y-79749136D01*
X190941158Y-79730856D01*
X191114339Y-79633870D01*
X191266947Y-79506947D01*
X191393870Y-79354339D01*
X191490856Y-79181158D01*
X191554659Y-78993201D01*
X191555487Y-78987492D01*
X191555488Y-78987487D01*
X191582609Y-78800437D01*
X191582610Y-78800430D01*
X191583141Y-78796765D01*
X191583231Y-78793322D01*
X191602735Y-78743140D01*
X191600588Y-78738734D01*
X191810961Y-78738734D01*
X191832231Y-78778986D01*
X191834485Y-78795841D01*
X191842871Y-78923779D01*
X191844672Y-78935149D01*
X191896409Y-79138863D01*
X191900250Y-79149710D01*
X191988247Y-79340592D01*
X191993996Y-79350549D01*
X192015112Y-79380427D01*
X192025702Y-79388816D01*
X192039001Y-79381788D01*
X192667979Y-78752811D01*
X192674356Y-78741132D01*
X193404408Y-78741132D01*
X193404539Y-78742966D01*
X193408790Y-78749580D01*
X194042611Y-79383400D01*
X194054986Y-79390157D01*
X194061566Y-79385231D01*
X194144095Y-79237865D01*
X194148771Y-79227362D01*
X194216334Y-79028328D01*
X194219019Y-79017145D01*
X194249475Y-78807088D01*
X194250105Y-78799705D01*
X194251572Y-78743704D01*
X194251329Y-78736305D01*
X194231908Y-78524945D01*
X194229811Y-78513630D01*
X194172758Y-78311336D01*
X194168636Y-78300597D01*
X194075671Y-78112083D01*
X194069665Y-78102281D01*
X194066510Y-78098056D01*
X194055251Y-78089606D01*
X194042834Y-78096377D01*
X193412021Y-78727189D01*
X193404408Y-78741132D01*
X192674356Y-78741132D01*
X192675592Y-78738868D01*
X192675461Y-78737034D01*
X192671210Y-78730420D01*
X192035603Y-78094814D01*
X192023228Y-78088057D01*
X192017262Y-78092523D01*
X191923256Y-78271198D01*
X191918851Y-78281832D01*
X191856522Y-78482563D01*
X191854130Y-78493817D01*
X191830583Y-78692762D01*
X191810961Y-78738734D01*
X191600588Y-78738734D01*
X191581225Y-78698994D01*
X191579985Y-78689481D01*
X191566994Y-78548099D01*
X191566465Y-78542342D01*
X191558368Y-78513630D01*
X191526967Y-78402292D01*
X191512587Y-78351304D01*
X191424797Y-78173284D01*
X191361155Y-78088057D01*
X191309488Y-78018867D01*
X191309488Y-78018866D01*
X191306035Y-78014243D01*
X191291510Y-78000816D01*
X191164520Y-77883428D01*
X191164518Y-77883426D01*
X191160279Y-77879508D01*
X191049368Y-77809528D01*
X190997290Y-77776669D01*
X190997289Y-77776669D01*
X190992410Y-77773590D01*
X190987050Y-77771452D01*
X190987047Y-77771450D01*
X190875150Y-77726808D01*
X192390921Y-77726808D01*
X192394407Y-77735196D01*
X193027189Y-78367979D01*
X193041132Y-78375592D01*
X193042966Y-78375461D01*
X193049580Y-78371210D01*
X193681700Y-77739089D01*
X193688457Y-77726714D01*
X193682427Y-77718658D01*
X193594972Y-77663478D01*
X193584721Y-77658254D01*
X193389497Y-77580368D01*
X193378469Y-77577101D01*
X193172322Y-77536096D01*
X193160875Y-77534893D01*
X192950716Y-77532142D01*
X192939236Y-77533045D01*
X192732087Y-77568640D01*
X192720979Y-77571617D01*
X192523782Y-77644366D01*
X192513400Y-77649318D01*
X192400519Y-77716475D01*
X192390921Y-77726808D01*
X190875150Y-77726808D01*
X190808051Y-77700038D01*
X190802394Y-77698913D01*
X190802388Y-77698911D01*
X190619041Y-77662442D01*
X190619039Y-77662442D01*
X190613374Y-77661315D01*
X190607599Y-77661239D01*
X190607595Y-77661239D01*
X190508638Y-77659944D01*
X190414901Y-77658717D01*
X190409204Y-77659696D01*
X190409203Y-77659696D01*
X190224975Y-77691352D01*
X190219278Y-77692331D01*
X190033056Y-77761032D01*
X190028094Y-77763984D01*
X190015545Y-77771450D01*
X189862472Y-77862518D01*
X189713239Y-77993392D01*
X189709664Y-77997927D01*
X189709663Y-77997928D01*
X189696801Y-78014243D01*
X189590355Y-78149270D01*
X189587666Y-78154381D01*
X189587664Y-78154384D01*
X189540989Y-78243098D01*
X189497935Y-78324931D01*
X189439075Y-78514493D01*
X189415745Y-78711608D01*
X189042018Y-78711608D01*
X189026465Y-78542342D01*
X189018368Y-78513630D01*
X188986967Y-78402292D01*
X188972587Y-78351304D01*
X188884797Y-78173284D01*
X188821155Y-78088057D01*
X188769488Y-78018867D01*
X188769488Y-78018866D01*
X188766035Y-78014243D01*
X188751510Y-78000816D01*
X188624520Y-77883428D01*
X188624518Y-77883426D01*
X188620279Y-77879508D01*
X188509368Y-77809528D01*
X188457290Y-77776669D01*
X188457289Y-77776669D01*
X188452410Y-77773590D01*
X188447050Y-77771452D01*
X188447047Y-77771450D01*
X188335150Y-77726808D01*
X188268051Y-77700038D01*
X188262394Y-77698913D01*
X188262388Y-77698911D01*
X188079041Y-77662442D01*
X188079039Y-77662442D01*
X188073374Y-77661315D01*
X188067599Y-77661239D01*
X188067595Y-77661239D01*
X187968638Y-77659944D01*
X187874901Y-77658717D01*
X187869204Y-77659696D01*
X187869203Y-77659696D01*
X187684975Y-77691352D01*
X187679278Y-77692331D01*
X187493056Y-77761032D01*
X187488094Y-77763984D01*
X187401666Y-77815403D01*
X187332895Y-77833043D01*
X187265505Y-77810702D01*
X187235308Y-77781181D01*
X187221889Y-77762711D01*
X187215378Y-77752798D01*
X187196985Y-77721697D01*
X187196984Y-77721695D01*
X187192949Y-77714873D01*
X187178693Y-77700617D01*
X187165852Y-77685583D01*
X187158662Y-77675687D01*
X187154002Y-77669273D01*
X187120057Y-77641191D01*
X187111278Y-77633202D01*
X186577859Y-77099783D01*
X186543833Y-77037471D01*
X186543289Y-76986541D01*
X186546514Y-76970026D01*
X186551222Y-76945917D01*
X186551500Y-76940233D01*
X186551500Y-68686202D01*
X186552432Y-68675159D01*
X186552150Y-68675138D01*
X186552589Y-68669164D01*
X186553595Y-68663246D01*
X186551530Y-68568607D01*
X186551500Y-68565858D01*
X186551500Y-68526054D01*
X186550773Y-68518437D01*
X186550234Y-68509227D01*
X186549016Y-68453383D01*
X186549016Y-68453381D01*
X186548885Y-68447386D01*
X186541653Y-68413794D01*
X186539401Y-68399243D01*
X186537788Y-68382342D01*
X186536140Y-68365065D01*
X186533039Y-68354493D01*
X186518733Y-68305730D01*
X186516460Y-68296779D01*
X186504704Y-68242174D01*
X186503442Y-68236312D01*
X186489995Y-68204709D01*
X186485030Y-68190845D01*
X186483644Y-68186122D01*
X186475361Y-68157886D01*
X186447037Y-68102892D01*
X186443121Y-68094551D01*
X186421252Y-68043155D01*
X186418905Y-68037639D01*
X186405995Y-68018463D01*
X186399723Y-68009146D01*
X186392227Y-67996471D01*
X186379247Y-67971268D01*
X186379245Y-67971265D01*
X186376501Y-67965937D01*
X186338296Y-67917299D01*
X186332863Y-67909835D01*
X186300867Y-67862309D01*
X186300859Y-67862298D01*
X186298325Y-67858535D01*
X186294502Y-67854320D01*
X186273360Y-67833177D01*
X186263374Y-67821919D01*
X186246835Y-67800865D01*
X186243128Y-67796146D01*
X186195066Y-67754440D01*
X186188551Y-67748369D01*
X183173182Y-64733000D01*
X183139156Y-64670688D01*
X183144221Y-64599873D01*
X183186768Y-64543037D01*
X183221775Y-64524592D01*
X183222724Y-64524270D01*
X183257945Y-64512314D01*
X184772046Y-64512314D01*
X184781928Y-64524803D01*
X184837041Y-64561627D01*
X184847146Y-64567114D01*
X185040267Y-64650086D01*
X185051210Y-64653641D01*
X185256209Y-64700028D01*
X185267618Y-64701530D01*
X185477645Y-64709781D01*
X185489129Y-64709179D01*
X185697145Y-64679019D01*
X185708328Y-64676334D01*
X185907362Y-64608771D01*
X185917865Y-64604095D01*
X186060404Y-64524270D01*
X186070266Y-64514194D01*
X186067311Y-64506522D01*
X185432811Y-63872021D01*
X185418868Y-63864408D01*
X185417034Y-63864539D01*
X185410420Y-63868790D01*
X184778239Y-64500972D01*
X184772046Y-64512314D01*
X183257945Y-64512314D01*
X183321158Y-64490856D01*
X183494339Y-64393870D01*
X183502898Y-64386752D01*
X183642509Y-64270638D01*
X183646947Y-64266947D01*
X183773870Y-64114339D01*
X183870856Y-63941158D01*
X183934659Y-63753201D01*
X183935487Y-63747492D01*
X183935488Y-63747487D01*
X183962609Y-63560437D01*
X183962610Y-63560430D01*
X183963141Y-63556765D01*
X183963231Y-63553322D01*
X183982735Y-63503140D01*
X183980588Y-63498734D01*
X184190961Y-63498734D01*
X184212231Y-63538986D01*
X184214485Y-63555841D01*
X184222871Y-63683779D01*
X184224672Y-63695149D01*
X184276409Y-63898863D01*
X184280250Y-63909710D01*
X184368247Y-64100592D01*
X184373996Y-64110549D01*
X184395112Y-64140427D01*
X184405702Y-64148816D01*
X184419001Y-64141788D01*
X185047979Y-63512811D01*
X185054356Y-63501132D01*
X185784408Y-63501132D01*
X185784539Y-63502966D01*
X185788790Y-63509580D01*
X186422611Y-64143400D01*
X186434986Y-64150157D01*
X186441566Y-64145231D01*
X186524095Y-63997865D01*
X186528771Y-63987362D01*
X186596334Y-63788328D01*
X186599019Y-63777145D01*
X186629475Y-63567090D01*
X186630276Y-63557702D01*
X186650434Y-63505842D01*
X186648567Y-63502011D01*
X186857469Y-63502011D01*
X186879296Y-63543322D01*
X186881550Y-63560172D01*
X186888727Y-63669673D01*
X186937586Y-63862056D01*
X187020685Y-64042313D01*
X187024018Y-64047029D01*
X187109435Y-64167891D01*
X187135243Y-64204409D01*
X187139385Y-64208444D01*
X187194885Y-64262509D01*
X187277422Y-64342913D01*
X187282226Y-64346123D01*
X187353684Y-64393870D01*
X187442461Y-64453189D01*
X187447764Y-64455467D01*
X187447767Y-64455469D01*
X187619525Y-64529262D01*
X187624832Y-64531542D01*
X187675633Y-64543037D01*
X187812791Y-64574073D01*
X187812796Y-64574074D01*
X187818428Y-64575348D01*
X187824199Y-64575575D01*
X187824201Y-64575575D01*
X187883262Y-64577895D01*
X188016765Y-64583141D01*
X188127301Y-64567114D01*
X188207487Y-64555488D01*
X188207492Y-64555487D01*
X188213201Y-64554659D01*
X188401158Y-64490856D01*
X188574339Y-64393870D01*
X188582898Y-64386752D01*
X188722509Y-64270638D01*
X188726947Y-64266947D01*
X188853870Y-64114339D01*
X188950856Y-63941158D01*
X189014659Y-63753201D01*
X189015487Y-63747492D01*
X189015488Y-63747487D01*
X189041644Y-63567088D01*
X189043141Y-63556765D01*
X189044627Y-63500000D01*
X189042018Y-63471608D01*
X189415745Y-63471608D01*
X189428727Y-63669673D01*
X189477586Y-63862056D01*
X189560685Y-64042313D01*
X189564018Y-64047029D01*
X189649435Y-64167891D01*
X189675243Y-64204409D01*
X189679385Y-64208444D01*
X189734885Y-64262509D01*
X189817422Y-64342913D01*
X189822226Y-64346123D01*
X189893684Y-64393870D01*
X189982461Y-64453189D01*
X189987764Y-64455467D01*
X189987767Y-64455469D01*
X190159525Y-64529262D01*
X190164832Y-64531542D01*
X190215633Y-64543037D01*
X190352791Y-64574073D01*
X190352796Y-64574074D01*
X190358428Y-64575348D01*
X190364199Y-64575575D01*
X190364201Y-64575575D01*
X190423262Y-64577895D01*
X190556765Y-64583141D01*
X190667301Y-64567114D01*
X190747487Y-64555488D01*
X190747492Y-64555487D01*
X190753201Y-64554659D01*
X190877945Y-64512314D01*
X192392046Y-64512314D01*
X192401928Y-64524803D01*
X192457041Y-64561627D01*
X192467146Y-64567114D01*
X192660267Y-64650086D01*
X192671210Y-64653641D01*
X192876209Y-64700028D01*
X192887618Y-64701530D01*
X193097645Y-64709781D01*
X193109129Y-64709179D01*
X193317145Y-64679019D01*
X193328328Y-64676334D01*
X193527362Y-64608771D01*
X193537865Y-64604095D01*
X193680404Y-64524270D01*
X193690266Y-64514194D01*
X193687311Y-64506522D01*
X193052811Y-63872021D01*
X193038868Y-63864408D01*
X193037034Y-63864539D01*
X193030420Y-63868790D01*
X192398239Y-64500972D01*
X192392046Y-64512314D01*
X190877945Y-64512314D01*
X190941158Y-64490856D01*
X191114339Y-64393870D01*
X191122898Y-64386752D01*
X191262509Y-64270638D01*
X191266947Y-64266947D01*
X191393870Y-64114339D01*
X191490856Y-63941158D01*
X191554659Y-63753201D01*
X191555487Y-63747492D01*
X191555488Y-63747487D01*
X191582609Y-63560437D01*
X191582610Y-63560430D01*
X191583141Y-63556765D01*
X191583231Y-63553322D01*
X191602735Y-63503140D01*
X191600588Y-63498734D01*
X191810961Y-63498734D01*
X191832231Y-63538986D01*
X191834485Y-63555841D01*
X191842871Y-63683779D01*
X191844672Y-63695149D01*
X191896409Y-63898863D01*
X191900250Y-63909710D01*
X191988247Y-64100592D01*
X191993996Y-64110549D01*
X192015112Y-64140427D01*
X192025702Y-64148816D01*
X192039001Y-64141788D01*
X192667979Y-63512811D01*
X192674356Y-63501132D01*
X193404408Y-63501132D01*
X193404539Y-63502966D01*
X193408790Y-63509580D01*
X194042611Y-64143400D01*
X194054986Y-64150157D01*
X194061566Y-64145231D01*
X194144095Y-63997865D01*
X194148771Y-63987362D01*
X194216334Y-63788328D01*
X194219019Y-63777145D01*
X194249475Y-63567088D01*
X194250105Y-63559705D01*
X194251572Y-63503704D01*
X194251329Y-63496305D01*
X194231908Y-63284945D01*
X194229811Y-63273630D01*
X194172758Y-63071336D01*
X194168636Y-63060597D01*
X194075671Y-62872083D01*
X194069665Y-62862281D01*
X194066510Y-62858056D01*
X194055251Y-62849606D01*
X194042834Y-62856377D01*
X193412021Y-63487189D01*
X193404408Y-63501132D01*
X192674356Y-63501132D01*
X192675592Y-63498868D01*
X192675461Y-63497034D01*
X192671210Y-63490420D01*
X192035603Y-62854814D01*
X192023228Y-62848057D01*
X192017262Y-62852523D01*
X191923256Y-63031198D01*
X191918851Y-63041832D01*
X191856522Y-63242563D01*
X191854130Y-63253817D01*
X191830583Y-63452762D01*
X191810961Y-63498734D01*
X191600588Y-63498734D01*
X191581225Y-63458994D01*
X191579985Y-63449481D01*
X191566994Y-63308099D01*
X191566465Y-63302342D01*
X191558368Y-63273630D01*
X191519489Y-63135777D01*
X191512587Y-63111304D01*
X191424797Y-62933284D01*
X191306035Y-62774243D01*
X191292982Y-62762177D01*
X191164520Y-62643428D01*
X191164518Y-62643426D01*
X191160279Y-62639508D01*
X190992410Y-62533590D01*
X190987050Y-62531452D01*
X190987047Y-62531450D01*
X190875150Y-62486808D01*
X192390921Y-62486808D01*
X192394407Y-62495196D01*
X193027189Y-63127979D01*
X193041132Y-63135592D01*
X193042966Y-63135461D01*
X193049580Y-63131210D01*
X193681700Y-62499089D01*
X193688457Y-62486714D01*
X193682427Y-62478658D01*
X193594972Y-62423478D01*
X193584721Y-62418254D01*
X193389497Y-62340368D01*
X193378469Y-62337101D01*
X193172322Y-62296096D01*
X193160875Y-62294893D01*
X192950716Y-62292142D01*
X192939236Y-62293045D01*
X192732087Y-62328640D01*
X192720979Y-62331617D01*
X192523782Y-62404366D01*
X192513400Y-62409318D01*
X192400519Y-62476475D01*
X192390921Y-62486808D01*
X190875150Y-62486808D01*
X190808051Y-62460038D01*
X190802394Y-62458913D01*
X190802388Y-62458911D01*
X190619041Y-62422442D01*
X190619039Y-62422442D01*
X190613374Y-62421315D01*
X190607599Y-62421239D01*
X190607595Y-62421239D01*
X190508638Y-62419944D01*
X190414901Y-62418717D01*
X190409204Y-62419696D01*
X190409203Y-62419696D01*
X190273872Y-62442950D01*
X190219278Y-62452331D01*
X190033056Y-62521032D01*
X190028094Y-62523984D01*
X190024428Y-62526165D01*
X189862472Y-62622518D01*
X189713239Y-62753392D01*
X189709664Y-62757927D01*
X189709663Y-62757928D01*
X189696801Y-62774243D01*
X189590355Y-62909270D01*
X189587666Y-62914381D01*
X189587664Y-62914384D01*
X189574792Y-62938850D01*
X189497935Y-63084931D01*
X189439075Y-63274493D01*
X189415745Y-63471608D01*
X189042018Y-63471608D01*
X189026465Y-63302342D01*
X189018368Y-63273630D01*
X188979489Y-63135777D01*
X188972587Y-63111304D01*
X188884797Y-62933284D01*
X188766035Y-62774243D01*
X188752982Y-62762177D01*
X188624520Y-62643428D01*
X188624518Y-62643426D01*
X188620279Y-62639508D01*
X188452410Y-62533590D01*
X188447050Y-62531452D01*
X188447047Y-62531450D01*
X188335150Y-62486808D01*
X188268051Y-62460038D01*
X188262394Y-62458913D01*
X188262388Y-62458911D01*
X188079041Y-62422442D01*
X188079039Y-62422442D01*
X188073374Y-62421315D01*
X188067599Y-62421239D01*
X188067595Y-62421239D01*
X187968638Y-62419944D01*
X187874901Y-62418717D01*
X187869204Y-62419696D01*
X187869203Y-62419696D01*
X187733872Y-62442950D01*
X187679278Y-62452331D01*
X187493056Y-62521032D01*
X187488094Y-62523984D01*
X187484428Y-62526165D01*
X187322472Y-62622518D01*
X187173239Y-62753392D01*
X187169664Y-62757927D01*
X187169663Y-62757928D01*
X187156801Y-62774243D01*
X187050355Y-62909270D01*
X187047666Y-62914381D01*
X187047664Y-62914384D01*
X187034792Y-62938850D01*
X186957935Y-63084931D01*
X186899075Y-63274493D01*
X186898396Y-63280230D01*
X186877778Y-63454430D01*
X186857469Y-63502011D01*
X186648567Y-63502011D01*
X186628420Y-63460662D01*
X186627180Y-63451149D01*
X186611908Y-63284945D01*
X186609811Y-63273630D01*
X186552758Y-63071336D01*
X186548636Y-63060597D01*
X186455671Y-62872083D01*
X186449665Y-62862281D01*
X186446510Y-62858056D01*
X186435251Y-62849606D01*
X186422834Y-62856377D01*
X185792021Y-63487189D01*
X185784408Y-63501132D01*
X185054356Y-63501132D01*
X185055592Y-63498868D01*
X185055461Y-63497034D01*
X185051210Y-63490420D01*
X184415603Y-62854814D01*
X184403228Y-62848057D01*
X184397262Y-62852523D01*
X184303256Y-63031198D01*
X184298851Y-63041832D01*
X184236522Y-63242563D01*
X184234130Y-63253817D01*
X184210583Y-63452762D01*
X184190961Y-63498734D01*
X183980588Y-63498734D01*
X183961225Y-63458994D01*
X183959985Y-63449481D01*
X183946994Y-63308099D01*
X183946465Y-63302342D01*
X183938368Y-63273630D01*
X183899489Y-63135777D01*
X183892587Y-63111304D01*
X183804797Y-62933284D01*
X183686035Y-62774243D01*
X183672982Y-62762177D01*
X183544520Y-62643428D01*
X183544518Y-62643426D01*
X183540279Y-62639508D01*
X183372410Y-62533590D01*
X183367050Y-62531452D01*
X183367047Y-62531450D01*
X183255150Y-62486808D01*
X184770921Y-62486808D01*
X184774407Y-62495196D01*
X185407189Y-63127979D01*
X185421132Y-63135592D01*
X185422966Y-63135461D01*
X185429580Y-63131210D01*
X186061700Y-62499089D01*
X186068457Y-62486714D01*
X186062427Y-62478658D01*
X185974972Y-62423478D01*
X185964721Y-62418254D01*
X185769497Y-62340368D01*
X185758469Y-62337101D01*
X185552322Y-62296096D01*
X185540875Y-62294893D01*
X185330716Y-62292142D01*
X185319236Y-62293045D01*
X185112087Y-62328640D01*
X185100979Y-62331617D01*
X184903782Y-62404366D01*
X184893400Y-62409318D01*
X184780519Y-62476475D01*
X184770921Y-62486808D01*
X183255150Y-62486808D01*
X183188051Y-62460038D01*
X183182394Y-62458913D01*
X183182388Y-62458911D01*
X182999041Y-62422442D01*
X182999039Y-62422442D01*
X182993374Y-62421315D01*
X182987599Y-62421239D01*
X182987595Y-62421239D01*
X182888638Y-62419944D01*
X182794901Y-62418717D01*
X182789204Y-62419696D01*
X182789203Y-62419696D01*
X182653872Y-62442950D01*
X182599278Y-62452331D01*
X182413056Y-62521032D01*
X182408094Y-62523984D01*
X182404428Y-62526165D01*
X182242472Y-62622518D01*
X182093239Y-62753392D01*
X182089664Y-62757927D01*
X182089663Y-62757928D01*
X182076801Y-62774243D01*
X181970355Y-62909270D01*
X181967666Y-62914381D01*
X181967664Y-62914384D01*
X181954792Y-62938850D01*
X181877935Y-63084931D01*
X181862147Y-63135777D01*
X181856217Y-63154875D01*
X181816914Y-63214000D01*
X181751885Y-63242491D01*
X181681775Y-63231301D01*
X181646789Y-63206606D01*
X181101946Y-62661763D01*
X180977248Y-62558788D01*
X180787773Y-62455267D01*
X180613805Y-62399580D01*
X180587845Y-62391270D01*
X180587843Y-62391270D01*
X180582140Y-62389444D01*
X180489756Y-62378346D01*
X180373718Y-62364406D01*
X180373714Y-62364406D01*
X180367771Y-62363692D01*
X180361796Y-62364115D01*
X180361793Y-62364115D01*
X180158383Y-62378518D01*
X180158380Y-62378518D01*
X180152399Y-62378942D01*
X180146606Y-62380489D01*
X180146605Y-62380489D01*
X180115742Y-62388730D01*
X179943797Y-62434642D01*
X179938402Y-62437256D01*
X179938399Y-62437257D01*
X179754891Y-62526165D01*
X179754889Y-62526166D01*
X179749490Y-62528782D01*
X179744684Y-62532371D01*
X179744682Y-62532372D01*
X179581294Y-62654380D01*
X179581291Y-62654382D01*
X179576491Y-62657967D01*
X179572452Y-62662398D01*
X179572451Y-62662399D01*
X179555128Y-62681403D01*
X179431041Y-62817534D01*
X179427909Y-62822655D01*
X179321515Y-62996613D01*
X179321512Y-62996619D01*
X179318388Y-63001727D01*
X179242598Y-63203898D01*
X179241592Y-63209815D01*
X179214722Y-63367843D01*
X179206405Y-63416754D01*
X179207191Y-63452762D01*
X179209563Y-63561465D01*
X179211115Y-63632614D01*
X179212377Y-63638474D01*
X179212377Y-63638477D01*
X179224578Y-63695149D01*
X179256558Y-63843688D01*
X179258903Y-63849200D01*
X179258904Y-63849202D01*
X179265374Y-63864408D01*
X179341095Y-64042362D01*
X179344442Y-64047333D01*
X179344445Y-64047339D01*
X179423381Y-64164585D01*
X179461675Y-64221465D01*
X179465498Y-64225680D01*
X179466578Y-64226760D01*
X184251595Y-69011778D01*
X184285621Y-69074090D01*
X184288500Y-69100873D01*
X184288500Y-76888946D01*
X184288785Y-76891930D01*
X184298930Y-76998267D01*
X184285489Y-77067980D01*
X184262595Y-77099329D01*
X183758970Y-77602954D01*
X183750728Y-77610454D01*
X183744268Y-77614554D01*
X183738843Y-77620331D01*
X183697802Y-77664035D01*
X183695047Y-77666877D01*
X183675369Y-77686555D01*
X183672909Y-77689727D01*
X183665209Y-77698743D01*
X183635045Y-77730864D01*
X183625330Y-77748535D01*
X183614484Y-77765047D01*
X183602121Y-77780985D01*
X183602121Y-77780986D01*
X183599890Y-77779255D01*
X183557838Y-77818514D01*
X183487987Y-77831215D01*
X183434048Y-77812480D01*
X183377298Y-77776673D01*
X183377289Y-77776668D01*
X183372410Y-77773590D01*
X183367050Y-77771452D01*
X183367047Y-77771450D01*
X183255150Y-77726808D01*
X183188051Y-77700038D01*
X183182394Y-77698913D01*
X183182388Y-77698911D01*
X182999041Y-77662442D01*
X182999039Y-77662442D01*
X182993374Y-77661315D01*
X182987599Y-77661239D01*
X182987595Y-77661239D01*
X182888638Y-77659944D01*
X182794901Y-77658717D01*
X182789204Y-77659696D01*
X182789203Y-77659696D01*
X182604975Y-77691352D01*
X182599278Y-77692331D01*
X182413056Y-77761032D01*
X182408094Y-77763984D01*
X182395545Y-77771450D01*
X182242472Y-77862518D01*
X182093239Y-77993392D01*
X182089664Y-77997927D01*
X182089663Y-77997928D01*
X182076801Y-78014243D01*
X181970355Y-78149270D01*
X181967666Y-78154381D01*
X181967664Y-78154384D01*
X181920989Y-78243098D01*
X181877935Y-78324931D01*
X181819075Y-78514493D01*
X181795745Y-78711608D01*
X181808727Y-78909673D01*
X181857586Y-79102056D01*
X181940685Y-79282313D01*
X181944018Y-79287029D01*
X182016902Y-79390157D01*
X182055243Y-79444409D01*
X182197422Y-79582913D01*
X182362461Y-79693189D01*
X182367764Y-79695467D01*
X182367767Y-79695469D01*
X182529901Y-79765127D01*
X182544832Y-79771542D01*
X182587749Y-79781253D01*
X182732791Y-79814073D01*
X182732796Y-79814074D01*
X182738428Y-79815348D01*
X182744199Y-79815575D01*
X182744201Y-79815575D01*
X182803262Y-79817895D01*
X182936765Y-79823141D01*
X183047301Y-79807114D01*
X183127487Y-79795488D01*
X183127492Y-79795487D01*
X183133201Y-79794659D01*
X183146096Y-79790282D01*
X183267307Y-79749136D01*
X183321158Y-79730856D01*
X183326192Y-79728037D01*
X183326196Y-79728035D01*
X183441545Y-79663436D01*
X183510754Y-79647602D01*
X183577536Y-79671699D01*
X183605047Y-79699308D01*
X183606229Y-79700934D01*
X183618104Y-79717279D01*
X183624622Y-79727202D01*
X183647051Y-79765127D01*
X183661307Y-79779383D01*
X183674148Y-79794417D01*
X183679386Y-79801627D01*
X183685998Y-79810727D01*
X183719943Y-79838809D01*
X183728722Y-79846798D01*
X184262141Y-80380217D01*
X184296167Y-80442529D01*
X184296711Y-80493459D01*
X184288778Y-80534083D01*
X184288500Y-80539767D01*
X184288500Y-84964000D01*
X184268498Y-85032121D01*
X184214842Y-85078614D01*
X184162500Y-85090000D01*
X168021996Y-85090000D01*
X167953875Y-85069998D01*
X167907382Y-85016342D01*
X167897278Y-84946068D01*
X167926772Y-84881488D01*
X167981495Y-84844687D01*
X168081158Y-84810856D01*
X168254339Y-84713870D01*
X168261490Y-84707923D01*
X168402509Y-84590638D01*
X168406947Y-84586947D01*
X168473878Y-84506471D01*
X168530179Y-84438777D01*
X168533870Y-84434339D01*
X168630856Y-84261158D01*
X168694659Y-84073201D01*
X168695487Y-84067492D01*
X168695488Y-84067487D01*
X168710021Y-83967253D01*
X168723141Y-83876765D01*
X168724627Y-83820000D01*
X168706465Y-83622342D01*
X168652587Y-83431304D01*
X168564797Y-83253284D01*
X168468486Y-83124308D01*
X168449488Y-83098867D01*
X168449488Y-83098866D01*
X168446035Y-83094243D01*
X168438028Y-83086841D01*
X168304520Y-82963428D01*
X168304518Y-82963426D01*
X168300279Y-82959508D01*
X168252945Y-82929642D01*
X168137290Y-82856669D01*
X168137289Y-82856669D01*
X168132410Y-82853590D01*
X168127050Y-82851452D01*
X168127047Y-82851450D01*
X168040231Y-82816814D01*
X167948051Y-82780038D01*
X167942394Y-82778913D01*
X167942388Y-82778911D01*
X167759041Y-82742442D01*
X167759039Y-82742442D01*
X167753374Y-82741315D01*
X167747599Y-82741239D01*
X167747595Y-82741239D01*
X167648638Y-82739944D01*
X167554901Y-82738717D01*
X167549204Y-82739696D01*
X167549203Y-82739696D01*
X167437093Y-82758960D01*
X167359278Y-82772331D01*
X167173056Y-82841032D01*
X167002472Y-82942518D01*
X166853239Y-83073392D01*
X166849664Y-83077927D01*
X166849663Y-83077928D01*
X166838284Y-83092362D01*
X166730355Y-83229270D01*
X166727666Y-83234381D01*
X166727664Y-83234384D01*
X166680989Y-83323098D01*
X166637935Y-83404931D01*
X166579075Y-83594493D01*
X166555745Y-83791608D01*
X166568727Y-83989673D01*
X166617586Y-84182056D01*
X166700685Y-84362313D01*
X166704018Y-84367029D01*
X166807200Y-84513028D01*
X166815243Y-84524409D01*
X166957422Y-84662913D01*
X166962226Y-84666123D01*
X167024784Y-84707923D01*
X167122461Y-84773189D01*
X167127764Y-84775467D01*
X167127767Y-84775469D01*
X167297128Y-84848232D01*
X167351821Y-84893500D01*
X167373358Y-84961151D01*
X167354901Y-85029707D01*
X167302310Y-85077401D01*
X167247390Y-85090000D01*
X163605846Y-85090000D01*
X163537725Y-85069998D01*
X163491232Y-85016342D01*
X163481128Y-84946068D01*
X163508972Y-84883431D01*
X163554870Y-84828245D01*
X163561393Y-84818752D01*
X163664091Y-84635373D01*
X163668773Y-84624858D01*
X163736334Y-84425828D01*
X163739019Y-84414645D01*
X163769475Y-84204588D01*
X163770105Y-84197205D01*
X163771572Y-84141204D01*
X163771329Y-84133805D01*
X163751908Y-83922445D01*
X163749811Y-83911130D01*
X163692758Y-83708836D01*
X163688636Y-83698097D01*
X163595671Y-83509583D01*
X163589665Y-83499781D01*
X163586510Y-83495556D01*
X163575251Y-83487107D01*
X163562835Y-83493877D01*
X162649095Y-84407616D01*
X162586783Y-84441641D01*
X162515967Y-84436576D01*
X162470905Y-84407616D01*
X161555605Y-83492316D01*
X161543227Y-83485558D01*
X161537262Y-83490023D01*
X161443256Y-83668698D01*
X161438851Y-83679332D01*
X161376522Y-83880062D01*
X161374130Y-83891317D01*
X161349425Y-84100047D01*
X161349124Y-84111548D01*
X161362871Y-84321279D01*
X161364672Y-84332649D01*
X161416409Y-84536363D01*
X161420250Y-84547210D01*
X161508246Y-84738089D01*
X161513997Y-84748050D01*
X161615222Y-84891280D01*
X161638203Y-84958454D01*
X161621219Y-85027389D01*
X161569661Y-85076199D01*
X161512325Y-85090000D01*
X160777500Y-85090000D01*
X160709379Y-85069998D01*
X160662886Y-85016342D01*
X160651500Y-84964000D01*
X160651500Y-83124308D01*
X161910921Y-83124308D01*
X161914407Y-83132696D01*
X162547189Y-83765479D01*
X162561132Y-83773092D01*
X162562966Y-83772961D01*
X162569580Y-83768710D01*
X163201700Y-83136589D01*
X163208457Y-83124214D01*
X163202427Y-83116158D01*
X163114972Y-83060978D01*
X163104721Y-83055754D01*
X162909497Y-82977868D01*
X162898469Y-82974601D01*
X162692322Y-82933596D01*
X162680875Y-82932393D01*
X162470716Y-82929642D01*
X162459236Y-82930545D01*
X162252087Y-82966140D01*
X162240979Y-82969117D01*
X162043782Y-83041866D01*
X162033400Y-83046818D01*
X161920519Y-83113975D01*
X161910921Y-83124308D01*
X160651500Y-83124308D01*
X160651500Y-81974814D01*
X161912046Y-81974814D01*
X161921928Y-81987303D01*
X161977041Y-82024127D01*
X161987146Y-82029614D01*
X162180267Y-82112586D01*
X162191210Y-82116141D01*
X162396209Y-82162528D01*
X162407618Y-82164030D01*
X162617645Y-82172281D01*
X162629129Y-82171679D01*
X162837145Y-82141519D01*
X162848328Y-82138834D01*
X163047362Y-82071271D01*
X163057865Y-82066595D01*
X163200404Y-81986770D01*
X163210266Y-81976694D01*
X163207311Y-81969022D01*
X162572811Y-81334521D01*
X162558868Y-81326908D01*
X162557034Y-81327039D01*
X162550420Y-81331290D01*
X161918239Y-81963472D01*
X161912046Y-81974814D01*
X160651500Y-81974814D01*
X160651500Y-80936548D01*
X161349124Y-80936548D01*
X161362871Y-81146279D01*
X161364672Y-81157649D01*
X161416409Y-81361363D01*
X161420250Y-81372210D01*
X161508247Y-81563092D01*
X161513996Y-81573049D01*
X161535112Y-81602927D01*
X161545702Y-81611316D01*
X161559001Y-81604288D01*
X162187979Y-80975311D01*
X162194356Y-80963632D01*
X162924408Y-80963632D01*
X162924539Y-80965466D01*
X162928790Y-80972080D01*
X163562611Y-81605900D01*
X163574986Y-81612657D01*
X163581566Y-81607731D01*
X163664095Y-81460365D01*
X163668771Y-81449862D01*
X163736069Y-81251608D01*
X166555745Y-81251608D01*
X166568727Y-81449673D01*
X166617586Y-81642056D01*
X166700685Y-81822313D01*
X166704018Y-81827029D01*
X166809791Y-81976694D01*
X166815243Y-81984409D01*
X166819385Y-81988444D01*
X166861647Y-82029614D01*
X166957422Y-82122913D01*
X167122461Y-82233189D01*
X167127764Y-82235467D01*
X167127767Y-82235469D01*
X167203569Y-82268036D01*
X167304832Y-82311542D01*
X167375905Y-82327624D01*
X167492791Y-82354073D01*
X167492796Y-82354074D01*
X167498428Y-82355348D01*
X167504199Y-82355575D01*
X167504201Y-82355575D01*
X167563262Y-82357895D01*
X167696765Y-82363141D01*
X167794983Y-82348900D01*
X167887487Y-82335488D01*
X167887492Y-82335487D01*
X167893201Y-82334659D01*
X168081158Y-82270856D01*
X168254339Y-82173870D01*
X168406947Y-82046947D01*
X168533870Y-81894339D01*
X168630856Y-81721158D01*
X168694659Y-81533201D01*
X168695487Y-81527492D01*
X168695488Y-81527487D01*
X168710021Y-81427253D01*
X168723141Y-81336765D01*
X168724627Y-81280000D01*
X168706465Y-81082342D01*
X168652587Y-80891304D01*
X168564797Y-80713284D01*
X168446035Y-80554243D01*
X168429015Y-80538510D01*
X168304520Y-80423428D01*
X168304518Y-80423426D01*
X168300279Y-80419508D01*
X168132410Y-80313590D01*
X168127050Y-80311452D01*
X168127047Y-80311450D01*
X168040230Y-80276814D01*
X167948051Y-80240038D01*
X167942394Y-80238913D01*
X167942388Y-80238911D01*
X167759041Y-80202442D01*
X167759039Y-80202442D01*
X167753374Y-80201315D01*
X167747599Y-80201239D01*
X167747595Y-80201239D01*
X167648638Y-80199944D01*
X167554901Y-80198717D01*
X167549204Y-80199696D01*
X167549203Y-80199696D01*
X167364975Y-80231352D01*
X167359278Y-80232331D01*
X167173056Y-80301032D01*
X167002472Y-80402518D01*
X166853239Y-80533392D01*
X166849664Y-80537927D01*
X166849663Y-80537928D01*
X166836801Y-80554243D01*
X166730355Y-80689270D01*
X166727666Y-80694381D01*
X166727664Y-80694384D01*
X166680989Y-80783098D01*
X166637935Y-80864931D01*
X166579075Y-81054493D01*
X166555745Y-81251608D01*
X163736069Y-81251608D01*
X163736334Y-81250828D01*
X163739019Y-81239645D01*
X163769475Y-81029588D01*
X163770105Y-81022205D01*
X163771572Y-80966204D01*
X163771329Y-80958805D01*
X163751908Y-80747445D01*
X163749811Y-80736130D01*
X163692758Y-80533836D01*
X163688636Y-80523097D01*
X163595671Y-80334583D01*
X163589665Y-80324781D01*
X163586510Y-80320556D01*
X163575251Y-80312106D01*
X163562834Y-80318877D01*
X162932021Y-80949689D01*
X162924408Y-80963632D01*
X162194356Y-80963632D01*
X162195592Y-80961368D01*
X162195461Y-80959534D01*
X162191210Y-80952920D01*
X161555603Y-80317314D01*
X161543228Y-80310557D01*
X161537262Y-80315023D01*
X161443256Y-80493698D01*
X161438851Y-80504332D01*
X161376522Y-80705063D01*
X161374130Y-80716317D01*
X161349425Y-80925047D01*
X161349124Y-80936548D01*
X160651500Y-80936548D01*
X160651500Y-79949308D01*
X161910921Y-79949308D01*
X161914407Y-79957696D01*
X162547189Y-80590479D01*
X162561132Y-80598092D01*
X162562966Y-80597961D01*
X162569580Y-80593710D01*
X163201700Y-79961589D01*
X163208457Y-79949214D01*
X163202427Y-79941158D01*
X163114972Y-79885978D01*
X163104721Y-79880754D01*
X162909497Y-79802868D01*
X162898469Y-79799601D01*
X162692322Y-79758596D01*
X162680875Y-79757393D01*
X162470716Y-79754642D01*
X162459236Y-79755545D01*
X162252087Y-79791140D01*
X162240979Y-79794117D01*
X162043782Y-79866866D01*
X162033400Y-79871818D01*
X161920519Y-79938975D01*
X161910921Y-79949308D01*
X160651500Y-79949308D01*
X160651500Y-79474658D01*
X164020000Y-79474658D01*
X164020670Y-79479206D01*
X164020670Y-79479213D01*
X164029612Y-79539959D01*
X164031038Y-79549644D01*
X164035353Y-79558432D01*
X164035353Y-79558433D01*
X164078073Y-79645442D01*
X164087013Y-79663651D01*
X164176899Y-79753380D01*
X164186255Y-79757953D01*
X164186256Y-79757954D01*
X164214055Y-79771542D01*
X164291003Y-79809155D01*
X164323784Y-79813937D01*
X164360816Y-79819340D01*
X164360820Y-79819340D01*
X164365342Y-79820000D01*
X165834658Y-79820000D01*
X165839206Y-79819330D01*
X165839213Y-79819330D01*
X165899959Y-79810388D01*
X165899961Y-79810387D01*
X165909644Y-79808962D01*
X165935527Y-79796254D01*
X166014303Y-79757577D01*
X166014304Y-79757576D01*
X166023651Y-79752987D01*
X166113380Y-79663101D01*
X166118258Y-79653123D01*
X166151655Y-79584798D01*
X166169155Y-79548997D01*
X166174751Y-79510638D01*
X166179340Y-79479184D01*
X166179340Y-79479180D01*
X166180000Y-79474658D01*
X166180000Y-78711608D01*
X166555745Y-78711608D01*
X166568727Y-78909673D01*
X166617586Y-79102056D01*
X166700685Y-79282313D01*
X166704018Y-79287029D01*
X166776902Y-79390157D01*
X166815243Y-79444409D01*
X166957422Y-79582913D01*
X167122461Y-79693189D01*
X167127764Y-79695467D01*
X167127767Y-79695469D01*
X167289901Y-79765127D01*
X167304832Y-79771542D01*
X167347749Y-79781253D01*
X167492791Y-79814073D01*
X167492796Y-79814074D01*
X167498428Y-79815348D01*
X167504199Y-79815575D01*
X167504201Y-79815575D01*
X167563262Y-79817895D01*
X167696765Y-79823141D01*
X167807301Y-79807114D01*
X167887487Y-79795488D01*
X167887492Y-79795487D01*
X167893201Y-79794659D01*
X167906096Y-79790282D01*
X168027307Y-79749136D01*
X168081158Y-79730856D01*
X168254339Y-79633870D01*
X168406947Y-79506947D01*
X168533870Y-79354339D01*
X168630856Y-79181158D01*
X168694659Y-78993201D01*
X168695487Y-78987492D01*
X168695488Y-78987487D01*
X168710021Y-78887253D01*
X168723141Y-78796765D01*
X168724627Y-78740000D01*
X168722018Y-78711608D01*
X169095745Y-78711608D01*
X169108727Y-78909673D01*
X169157586Y-79102056D01*
X169240685Y-79282313D01*
X169244018Y-79287029D01*
X169316902Y-79390157D01*
X169355243Y-79444409D01*
X169497422Y-79582913D01*
X169662461Y-79693189D01*
X169667764Y-79695467D01*
X169667767Y-79695469D01*
X169829901Y-79765127D01*
X169844832Y-79771542D01*
X169887749Y-79781253D01*
X170032791Y-79814073D01*
X170032796Y-79814074D01*
X170038428Y-79815348D01*
X170044199Y-79815575D01*
X170044201Y-79815575D01*
X170103262Y-79817895D01*
X170236765Y-79823141D01*
X170347301Y-79807114D01*
X170427487Y-79795488D01*
X170427492Y-79795487D01*
X170433201Y-79794659D01*
X170446096Y-79790282D01*
X170567307Y-79749136D01*
X170621158Y-79730856D01*
X170794339Y-79633870D01*
X170946947Y-79506947D01*
X171073870Y-79354339D01*
X171170856Y-79181158D01*
X171234659Y-78993201D01*
X171235487Y-78987492D01*
X171235488Y-78987487D01*
X171250021Y-78887253D01*
X171263141Y-78796765D01*
X171264627Y-78740000D01*
X171262018Y-78711608D01*
X171635745Y-78711608D01*
X171648727Y-78909673D01*
X171697586Y-79102056D01*
X171780685Y-79282313D01*
X171784018Y-79287029D01*
X171856902Y-79390157D01*
X171895243Y-79444409D01*
X172037422Y-79582913D01*
X172202461Y-79693189D01*
X172207764Y-79695467D01*
X172207767Y-79695469D01*
X172369901Y-79765127D01*
X172384832Y-79771542D01*
X172427749Y-79781253D01*
X172572791Y-79814073D01*
X172572796Y-79814074D01*
X172578428Y-79815348D01*
X172584199Y-79815575D01*
X172584201Y-79815575D01*
X172643262Y-79817895D01*
X172776765Y-79823141D01*
X172887301Y-79807114D01*
X172967487Y-79795488D01*
X172967492Y-79795487D01*
X172973201Y-79794659D01*
X172986096Y-79790282D01*
X173107307Y-79749136D01*
X173161158Y-79730856D01*
X173334339Y-79633870D01*
X173486947Y-79506947D01*
X173613870Y-79354339D01*
X173710856Y-79181158D01*
X173774659Y-78993201D01*
X173775487Y-78987492D01*
X173775488Y-78987487D01*
X173790021Y-78887253D01*
X173803141Y-78796765D01*
X173804627Y-78740000D01*
X173802018Y-78711608D01*
X174175745Y-78711608D01*
X174188727Y-78909673D01*
X174237586Y-79102056D01*
X174320685Y-79282313D01*
X174324018Y-79287029D01*
X174396902Y-79390157D01*
X174435243Y-79444409D01*
X174577422Y-79582913D01*
X174742461Y-79693189D01*
X174747764Y-79695467D01*
X174747767Y-79695469D01*
X174909901Y-79765127D01*
X174924832Y-79771542D01*
X174967749Y-79781253D01*
X175112791Y-79814073D01*
X175112796Y-79814074D01*
X175118428Y-79815348D01*
X175124199Y-79815575D01*
X175124201Y-79815575D01*
X175183262Y-79817895D01*
X175316765Y-79823141D01*
X175427301Y-79807114D01*
X175507487Y-79795488D01*
X175507492Y-79795487D01*
X175513201Y-79794659D01*
X175526096Y-79790282D01*
X175647307Y-79749136D01*
X175701158Y-79730856D01*
X175874339Y-79633870D01*
X176026947Y-79506947D01*
X176153870Y-79354339D01*
X176250856Y-79181158D01*
X176314659Y-78993201D01*
X176315487Y-78987492D01*
X176315488Y-78987487D01*
X176330021Y-78887253D01*
X176343141Y-78796765D01*
X176344627Y-78740000D01*
X176342018Y-78711608D01*
X176715745Y-78711608D01*
X176728727Y-78909673D01*
X176777586Y-79102056D01*
X176860685Y-79282313D01*
X176864018Y-79287029D01*
X176936902Y-79390157D01*
X176975243Y-79444409D01*
X177117422Y-79582913D01*
X177282461Y-79693189D01*
X177287764Y-79695467D01*
X177287767Y-79695469D01*
X177449901Y-79765127D01*
X177464832Y-79771542D01*
X177507749Y-79781253D01*
X177652791Y-79814073D01*
X177652796Y-79814074D01*
X177658428Y-79815348D01*
X177664199Y-79815575D01*
X177664201Y-79815575D01*
X177723262Y-79817895D01*
X177856765Y-79823141D01*
X177967301Y-79807114D01*
X178047487Y-79795488D01*
X178047492Y-79795487D01*
X178053201Y-79794659D01*
X178066096Y-79790282D01*
X178187307Y-79749136D01*
X178241158Y-79730856D01*
X178414339Y-79633870D01*
X178566947Y-79506947D01*
X178693870Y-79354339D01*
X178790856Y-79181158D01*
X178854659Y-78993201D01*
X178855487Y-78987492D01*
X178855488Y-78987487D01*
X178870021Y-78887253D01*
X178883141Y-78796765D01*
X178884627Y-78740000D01*
X178882018Y-78711608D01*
X179255745Y-78711608D01*
X179268727Y-78909673D01*
X179317586Y-79102056D01*
X179400685Y-79282313D01*
X179404018Y-79287029D01*
X179476902Y-79390157D01*
X179515243Y-79444409D01*
X179657422Y-79582913D01*
X179822461Y-79693189D01*
X179827764Y-79695467D01*
X179827767Y-79695469D01*
X179989901Y-79765127D01*
X180004832Y-79771542D01*
X180047749Y-79781253D01*
X180192791Y-79814073D01*
X180192796Y-79814074D01*
X180198428Y-79815348D01*
X180204199Y-79815575D01*
X180204201Y-79815575D01*
X180263262Y-79817895D01*
X180396765Y-79823141D01*
X180507301Y-79807114D01*
X180587487Y-79795488D01*
X180587492Y-79795487D01*
X180593201Y-79794659D01*
X180606096Y-79790282D01*
X180727307Y-79749136D01*
X180781158Y-79730856D01*
X180954339Y-79633870D01*
X181106947Y-79506947D01*
X181233870Y-79354339D01*
X181330856Y-79181158D01*
X181394659Y-78993201D01*
X181395487Y-78987492D01*
X181395488Y-78987487D01*
X181410021Y-78887253D01*
X181423141Y-78796765D01*
X181424627Y-78740000D01*
X181406465Y-78542342D01*
X181398368Y-78513630D01*
X181366967Y-78402292D01*
X181352587Y-78351304D01*
X181264797Y-78173284D01*
X181201155Y-78088057D01*
X181149488Y-78018867D01*
X181149488Y-78018866D01*
X181146035Y-78014243D01*
X181131510Y-78000816D01*
X181004520Y-77883428D01*
X181004518Y-77883426D01*
X181000279Y-77879508D01*
X180889368Y-77809528D01*
X180837290Y-77776669D01*
X180837289Y-77776669D01*
X180832410Y-77773590D01*
X180827050Y-77771452D01*
X180827047Y-77771450D01*
X180715150Y-77726808D01*
X180648051Y-77700038D01*
X180642394Y-77698913D01*
X180642388Y-77698911D01*
X180459041Y-77662442D01*
X180459039Y-77662442D01*
X180453374Y-77661315D01*
X180447599Y-77661239D01*
X180447595Y-77661239D01*
X180348638Y-77659944D01*
X180254901Y-77658717D01*
X180249204Y-77659696D01*
X180249203Y-77659696D01*
X180064975Y-77691352D01*
X180059278Y-77692331D01*
X179873056Y-77761032D01*
X179868094Y-77763984D01*
X179855545Y-77771450D01*
X179702472Y-77862518D01*
X179553239Y-77993392D01*
X179549664Y-77997927D01*
X179549663Y-77997928D01*
X179536801Y-78014243D01*
X179430355Y-78149270D01*
X179427666Y-78154381D01*
X179427664Y-78154384D01*
X179380989Y-78243098D01*
X179337935Y-78324931D01*
X179279075Y-78514493D01*
X179255745Y-78711608D01*
X178882018Y-78711608D01*
X178866465Y-78542342D01*
X178858368Y-78513630D01*
X178826967Y-78402292D01*
X178812587Y-78351304D01*
X178724797Y-78173284D01*
X178661155Y-78088057D01*
X178609488Y-78018867D01*
X178609488Y-78018866D01*
X178606035Y-78014243D01*
X178591510Y-78000816D01*
X178464520Y-77883428D01*
X178464518Y-77883426D01*
X178460279Y-77879508D01*
X178349368Y-77809528D01*
X178297290Y-77776669D01*
X178297289Y-77776669D01*
X178292410Y-77773590D01*
X178287050Y-77771452D01*
X178287047Y-77771450D01*
X178175150Y-77726808D01*
X178108051Y-77700038D01*
X178102394Y-77698913D01*
X178102388Y-77698911D01*
X177919041Y-77662442D01*
X177919039Y-77662442D01*
X177913374Y-77661315D01*
X177907599Y-77661239D01*
X177907595Y-77661239D01*
X177808638Y-77659944D01*
X177714901Y-77658717D01*
X177709204Y-77659696D01*
X177709203Y-77659696D01*
X177524975Y-77691352D01*
X177519278Y-77692331D01*
X177333056Y-77761032D01*
X177328094Y-77763984D01*
X177315545Y-77771450D01*
X177162472Y-77862518D01*
X177013239Y-77993392D01*
X177009664Y-77997927D01*
X177009663Y-77997928D01*
X176996801Y-78014243D01*
X176890355Y-78149270D01*
X176887666Y-78154381D01*
X176887664Y-78154384D01*
X176840989Y-78243098D01*
X176797935Y-78324931D01*
X176739075Y-78514493D01*
X176715745Y-78711608D01*
X176342018Y-78711608D01*
X176326465Y-78542342D01*
X176318368Y-78513630D01*
X176286967Y-78402292D01*
X176272587Y-78351304D01*
X176184797Y-78173284D01*
X176121155Y-78088057D01*
X176069488Y-78018867D01*
X176069488Y-78018866D01*
X176066035Y-78014243D01*
X176051510Y-78000816D01*
X175924520Y-77883428D01*
X175924518Y-77883426D01*
X175920279Y-77879508D01*
X175809368Y-77809528D01*
X175757290Y-77776669D01*
X175757289Y-77776669D01*
X175752410Y-77773590D01*
X175747050Y-77771452D01*
X175747047Y-77771450D01*
X175635150Y-77726808D01*
X175568051Y-77700038D01*
X175562394Y-77698913D01*
X175562388Y-77698911D01*
X175379041Y-77662442D01*
X175379039Y-77662442D01*
X175373374Y-77661315D01*
X175367599Y-77661239D01*
X175367595Y-77661239D01*
X175268638Y-77659944D01*
X175174901Y-77658717D01*
X175169204Y-77659696D01*
X175169203Y-77659696D01*
X174984975Y-77691352D01*
X174979278Y-77692331D01*
X174793056Y-77761032D01*
X174788094Y-77763984D01*
X174775545Y-77771450D01*
X174622472Y-77862518D01*
X174473239Y-77993392D01*
X174469664Y-77997927D01*
X174469663Y-77997928D01*
X174456801Y-78014243D01*
X174350355Y-78149270D01*
X174347666Y-78154381D01*
X174347664Y-78154384D01*
X174300989Y-78243098D01*
X174257935Y-78324931D01*
X174199075Y-78514493D01*
X174175745Y-78711608D01*
X173802018Y-78711608D01*
X173786465Y-78542342D01*
X173778368Y-78513630D01*
X173746967Y-78402292D01*
X173732587Y-78351304D01*
X173644797Y-78173284D01*
X173581155Y-78088057D01*
X173529488Y-78018867D01*
X173529488Y-78018866D01*
X173526035Y-78014243D01*
X173511510Y-78000816D01*
X173384520Y-77883428D01*
X173384518Y-77883426D01*
X173380279Y-77879508D01*
X173269368Y-77809528D01*
X173217290Y-77776669D01*
X173217289Y-77776669D01*
X173212410Y-77773590D01*
X173207050Y-77771452D01*
X173207047Y-77771450D01*
X173095150Y-77726808D01*
X173028051Y-77700038D01*
X173022394Y-77698913D01*
X173022388Y-77698911D01*
X172839041Y-77662442D01*
X172839039Y-77662442D01*
X172833374Y-77661315D01*
X172827599Y-77661239D01*
X172827595Y-77661239D01*
X172728638Y-77659944D01*
X172634901Y-77658717D01*
X172629204Y-77659696D01*
X172629203Y-77659696D01*
X172444975Y-77691352D01*
X172439278Y-77692331D01*
X172253056Y-77761032D01*
X172248094Y-77763984D01*
X172235545Y-77771450D01*
X172082472Y-77862518D01*
X171933239Y-77993392D01*
X171929664Y-77997927D01*
X171929663Y-77997928D01*
X171916801Y-78014243D01*
X171810355Y-78149270D01*
X171807666Y-78154381D01*
X171807664Y-78154384D01*
X171760989Y-78243098D01*
X171717935Y-78324931D01*
X171659075Y-78514493D01*
X171635745Y-78711608D01*
X171262018Y-78711608D01*
X171246465Y-78542342D01*
X171238368Y-78513630D01*
X171206967Y-78402292D01*
X171192587Y-78351304D01*
X171104797Y-78173284D01*
X171041155Y-78088057D01*
X170989488Y-78018867D01*
X170989488Y-78018866D01*
X170986035Y-78014243D01*
X170971510Y-78000816D01*
X170844520Y-77883428D01*
X170844518Y-77883426D01*
X170840279Y-77879508D01*
X170729368Y-77809528D01*
X170677290Y-77776669D01*
X170677289Y-77776669D01*
X170672410Y-77773590D01*
X170667050Y-77771452D01*
X170667047Y-77771450D01*
X170555150Y-77726808D01*
X170488051Y-77700038D01*
X170482394Y-77698913D01*
X170482388Y-77698911D01*
X170299041Y-77662442D01*
X170299039Y-77662442D01*
X170293374Y-77661315D01*
X170287599Y-77661239D01*
X170287595Y-77661239D01*
X170188638Y-77659944D01*
X170094901Y-77658717D01*
X170089204Y-77659696D01*
X170089203Y-77659696D01*
X169904975Y-77691352D01*
X169899278Y-77692331D01*
X169713056Y-77761032D01*
X169708094Y-77763984D01*
X169695545Y-77771450D01*
X169542472Y-77862518D01*
X169393239Y-77993392D01*
X169389664Y-77997927D01*
X169389663Y-77997928D01*
X169376801Y-78014243D01*
X169270355Y-78149270D01*
X169267666Y-78154381D01*
X169267664Y-78154384D01*
X169220989Y-78243098D01*
X169177935Y-78324931D01*
X169119075Y-78514493D01*
X169095745Y-78711608D01*
X168722018Y-78711608D01*
X168706465Y-78542342D01*
X168698368Y-78513630D01*
X168666967Y-78402292D01*
X168652587Y-78351304D01*
X168564797Y-78173284D01*
X168501155Y-78088057D01*
X168449488Y-78018867D01*
X168449488Y-78018866D01*
X168446035Y-78014243D01*
X168431510Y-78000816D01*
X168304520Y-77883428D01*
X168304518Y-77883426D01*
X168300279Y-77879508D01*
X168189368Y-77809528D01*
X168137290Y-77776669D01*
X168137289Y-77776669D01*
X168132410Y-77773590D01*
X168127050Y-77771452D01*
X168127047Y-77771450D01*
X168015150Y-77726808D01*
X167948051Y-77700038D01*
X167942394Y-77698913D01*
X167942388Y-77698911D01*
X167759041Y-77662442D01*
X167759039Y-77662442D01*
X167753374Y-77661315D01*
X167747599Y-77661239D01*
X167747595Y-77661239D01*
X167648638Y-77659944D01*
X167554901Y-77658717D01*
X167549204Y-77659696D01*
X167549203Y-77659696D01*
X167364975Y-77691352D01*
X167359278Y-77692331D01*
X167173056Y-77761032D01*
X167168094Y-77763984D01*
X167155545Y-77771450D01*
X167002472Y-77862518D01*
X166853239Y-77993392D01*
X166849664Y-77997927D01*
X166849663Y-77997928D01*
X166836801Y-78014243D01*
X166730355Y-78149270D01*
X166727666Y-78154381D01*
X166727664Y-78154384D01*
X166680989Y-78243098D01*
X166637935Y-78324931D01*
X166579075Y-78514493D01*
X166555745Y-78711608D01*
X166180000Y-78711608D01*
X166180000Y-78005342D01*
X166170483Y-77940683D01*
X166170388Y-77940041D01*
X166170387Y-77940039D01*
X166168962Y-77930356D01*
X166151203Y-77894185D01*
X166117577Y-77825697D01*
X166117576Y-77825696D01*
X166112987Y-77816349D01*
X166023101Y-77726620D01*
X166006813Y-77718658D01*
X165966079Y-77698747D01*
X165908997Y-77670845D01*
X165858499Y-77663478D01*
X165839184Y-77660660D01*
X165839180Y-77660660D01*
X165834658Y-77660000D01*
X164365342Y-77660000D01*
X164360794Y-77660670D01*
X164360787Y-77660670D01*
X164300041Y-77669612D01*
X164300039Y-77669613D01*
X164290356Y-77671038D01*
X164281568Y-77675353D01*
X164281567Y-77675353D01*
X164185697Y-77722423D01*
X164185696Y-77722424D01*
X164176349Y-77727013D01*
X164086620Y-77816899D01*
X164082047Y-77826255D01*
X164082046Y-77826256D01*
X164069361Y-77852208D01*
X164030845Y-77931003D01*
X164029433Y-77940683D01*
X164020665Y-78000787D01*
X164020000Y-78005342D01*
X164020000Y-79474658D01*
X160651500Y-79474658D01*
X160651500Y-75008490D01*
X160652024Y-74997367D01*
X160653693Y-74989902D01*
X160651562Y-74922082D01*
X160651500Y-74918125D01*
X160651500Y-74890270D01*
X160650996Y-74886280D01*
X160650066Y-74874459D01*
X160648931Y-74838350D01*
X160648682Y-74830426D01*
X160643059Y-74811072D01*
X160639049Y-74791709D01*
X160637515Y-74779565D01*
X160636522Y-74771704D01*
X160633605Y-74764338D01*
X160633604Y-74764332D01*
X160620303Y-74730737D01*
X160616459Y-74719510D01*
X160606381Y-74684825D01*
X160604168Y-74677208D01*
X160593904Y-74659852D01*
X160585212Y-74642110D01*
X160577786Y-74623355D01*
X160551885Y-74587706D01*
X160545378Y-74577798D01*
X160526985Y-74546697D01*
X160526984Y-74546695D01*
X160522949Y-74539873D01*
X160508693Y-74525617D01*
X160495852Y-74510583D01*
X160488662Y-74500687D01*
X160484002Y-74494273D01*
X160450057Y-74466191D01*
X160441278Y-74458202D01*
X159554175Y-73571099D01*
X159520149Y-73508787D01*
X159518056Y-73496053D01*
X159517687Y-73492768D01*
X159517686Y-73492765D01*
X159516901Y-73485764D01*
X159513179Y-73475074D01*
X159461557Y-73326835D01*
X159461556Y-73326833D01*
X159459242Y-73320188D01*
X159366332Y-73171501D01*
X159357835Y-73162944D01*
X159247754Y-73052094D01*
X159242789Y-73047094D01*
X159236846Y-73043322D01*
X159236843Y-73043320D01*
X159155270Y-72991552D01*
X159094755Y-72953148D01*
X159067570Y-72943468D01*
X158936220Y-72896696D01*
X158936215Y-72896695D01*
X158929585Y-72894334D01*
X158922597Y-72893501D01*
X158922594Y-72893500D01*
X158802307Y-72879157D01*
X158755490Y-72873574D01*
X158748487Y-72874310D01*
X158748486Y-72874310D01*
X158588122Y-72891165D01*
X158588120Y-72891166D01*
X158581122Y-72891901D01*
X158415148Y-72948403D01*
X158401296Y-72956925D01*
X158271823Y-73036577D01*
X158271820Y-73036579D01*
X158265816Y-73040273D01*
X158260781Y-73045204D01*
X158260778Y-73045206D01*
X158145581Y-73158016D01*
X158140549Y-73162944D01*
X158045572Y-73310319D01*
X158043163Y-73316939D01*
X158043161Y-73316942D01*
X157988015Y-73468455D01*
X157985606Y-73475074D01*
X157984723Y-73482062D01*
X157984723Y-73482063D01*
X157983371Y-73492768D01*
X157963632Y-73649020D01*
X157980741Y-73823511D01*
X158036083Y-73989876D01*
X158126908Y-74139846D01*
X158248701Y-74265966D01*
X158254593Y-74269821D01*
X158254597Y-74269825D01*
X158339457Y-74325355D01*
X158395410Y-74361970D01*
X158402014Y-74364426D01*
X158553140Y-74420629D01*
X158553142Y-74420629D01*
X158559742Y-74423084D01*
X158566725Y-74424016D01*
X158566726Y-74424016D01*
X158576072Y-74425263D01*
X158587014Y-74426723D01*
X158651891Y-74455559D01*
X158659445Y-74462521D01*
X159351595Y-75154671D01*
X159385621Y-75216983D01*
X159388500Y-75243766D01*
X159388500Y-84964000D01*
X159368498Y-85032121D01*
X159314842Y-85078614D01*
X159262500Y-85090000D01*
X158237500Y-85090000D01*
X158169379Y-85069998D01*
X158122886Y-85016342D01*
X158111500Y-84964000D01*
X158111500Y-75008490D01*
X158112024Y-74997367D01*
X158113693Y-74989902D01*
X158111562Y-74922082D01*
X158111500Y-74918125D01*
X158111500Y-74890270D01*
X158110996Y-74886280D01*
X158110066Y-74874459D01*
X158108931Y-74838350D01*
X158108682Y-74830426D01*
X158103059Y-74811072D01*
X158099049Y-74791709D01*
X158097515Y-74779565D01*
X158096522Y-74771704D01*
X158093605Y-74764338D01*
X158093604Y-74764332D01*
X158080303Y-74730737D01*
X158076459Y-74719510D01*
X158066381Y-74684825D01*
X158064168Y-74677208D01*
X158053904Y-74659852D01*
X158045212Y-74642110D01*
X158037786Y-74623355D01*
X158011885Y-74587706D01*
X158005378Y-74577798D01*
X157986985Y-74546697D01*
X157986984Y-74546695D01*
X157982949Y-74539873D01*
X157968693Y-74525617D01*
X157955852Y-74510583D01*
X157948662Y-74500687D01*
X157944002Y-74494273D01*
X157910057Y-74466191D01*
X157901278Y-74458202D01*
X157014175Y-73571099D01*
X156980149Y-73508787D01*
X156978056Y-73496053D01*
X156977687Y-73492768D01*
X156977686Y-73492765D01*
X156976901Y-73485764D01*
X156973179Y-73475074D01*
X156921557Y-73326835D01*
X156921556Y-73326833D01*
X156919242Y-73320188D01*
X156826332Y-73171501D01*
X156817835Y-73162944D01*
X156707754Y-73052094D01*
X156702789Y-73047094D01*
X156696846Y-73043322D01*
X156696843Y-73043320D01*
X156615270Y-72991552D01*
X156554755Y-72953148D01*
X156527570Y-72943468D01*
X156396220Y-72896696D01*
X156396215Y-72896695D01*
X156389585Y-72894334D01*
X156382597Y-72893501D01*
X156382594Y-72893500D01*
X156262307Y-72879157D01*
X156215490Y-72873574D01*
X156208487Y-72874310D01*
X156208486Y-72874310D01*
X156048122Y-72891165D01*
X156048120Y-72891166D01*
X156041122Y-72891901D01*
X155875148Y-72948403D01*
X155861296Y-72956925D01*
X155731823Y-73036577D01*
X155731820Y-73036579D01*
X155725816Y-73040273D01*
X155720781Y-73045204D01*
X155720778Y-73045206D01*
X155605581Y-73158016D01*
X155600549Y-73162944D01*
X155505572Y-73310319D01*
X155503163Y-73316939D01*
X155503161Y-73316942D01*
X155448015Y-73468455D01*
X155445606Y-73475074D01*
X155444723Y-73482062D01*
X155444723Y-73482063D01*
X155443371Y-73492768D01*
X155423632Y-73649020D01*
X155440741Y-73823511D01*
X155496083Y-73989876D01*
X155586908Y-74139846D01*
X155708701Y-74265966D01*
X155714593Y-74269821D01*
X155714597Y-74269825D01*
X155799457Y-74325355D01*
X155855410Y-74361970D01*
X155862014Y-74364426D01*
X156013140Y-74420629D01*
X156013142Y-74420629D01*
X156019742Y-74423084D01*
X156026725Y-74424016D01*
X156026726Y-74424016D01*
X156036072Y-74425263D01*
X156047014Y-74426723D01*
X156111891Y-74455559D01*
X156119445Y-74462521D01*
X156811595Y-75154671D01*
X156845621Y-75216983D01*
X156848500Y-75243766D01*
X156848500Y-84964000D01*
X156828498Y-85032121D01*
X156774842Y-85078614D01*
X156722500Y-85090000D01*
X120635058Y-85090000D01*
X120566937Y-85069998D01*
X120520444Y-85016342D01*
X120509088Y-84966745D01*
X120509015Y-84963383D01*
X120509015Y-84963382D01*
X120508884Y-84957386D01*
X120506448Y-84946068D01*
X120501654Y-84923803D01*
X120499402Y-84909252D01*
X120496710Y-84881035D01*
X120496709Y-84881031D01*
X120496140Y-84875065D01*
X120478724Y-84815695D01*
X120476463Y-84806794D01*
X120463441Y-84746312D01*
X120449992Y-84714704D01*
X120445030Y-84700846D01*
X120437050Y-84673644D01*
X120435361Y-84667886D01*
X120407037Y-84612892D01*
X120403121Y-84604550D01*
X120381255Y-84553159D01*
X120381251Y-84553152D01*
X120378905Y-84547638D01*
X120375558Y-84542667D01*
X120375555Y-84542661D01*
X120359723Y-84519146D01*
X120352227Y-84506471D01*
X120339247Y-84481268D01*
X120339245Y-84481265D01*
X120336501Y-84475937D01*
X120309561Y-84441641D01*
X120298294Y-84427297D01*
X120292860Y-84419832D01*
X120289368Y-84414645D01*
X120258325Y-84368535D01*
X120254502Y-84364319D01*
X120233364Y-84343181D01*
X120223373Y-84331919D01*
X120206834Y-84310864D01*
X120203128Y-84306146D01*
X120155074Y-84264447D01*
X120148559Y-84258376D01*
X118008405Y-82118222D01*
X117974379Y-82055910D01*
X117971500Y-82029127D01*
X117971500Y-80591054D01*
X117963226Y-80504332D01*
X117961070Y-80481733D01*
X117974511Y-80412020D01*
X117997405Y-80380671D01*
X118501030Y-79877046D01*
X118509272Y-79869546D01*
X118515732Y-79865446D01*
X118562198Y-79815965D01*
X118564953Y-79813123D01*
X118584631Y-79793445D01*
X118587091Y-79790273D01*
X118594795Y-79781253D01*
X118603915Y-79771542D01*
X118624955Y-79749136D01*
X118634670Y-79731465D01*
X118645516Y-79714953D01*
X118657879Y-79699015D01*
X118657879Y-79699014D01*
X118660355Y-79700934D01*
X118701634Y-79662420D01*
X118771489Y-79649740D01*
X118828156Y-79670267D01*
X118862461Y-79693189D01*
X118867764Y-79695467D01*
X118867767Y-79695469D01*
X119029901Y-79765127D01*
X119044832Y-79771542D01*
X119087749Y-79781253D01*
X119232791Y-79814073D01*
X119232796Y-79814074D01*
X119238428Y-79815348D01*
X119244199Y-79815575D01*
X119244201Y-79815575D01*
X119303262Y-79817895D01*
X119436765Y-79823141D01*
X119547301Y-79807114D01*
X119627487Y-79795488D01*
X119627492Y-79795487D01*
X119633201Y-79794659D01*
X119646096Y-79790282D01*
X119767307Y-79749136D01*
X119821158Y-79730856D01*
X119994339Y-79633870D01*
X120146947Y-79506947D01*
X120273870Y-79354339D01*
X120370856Y-79181158D01*
X120434659Y-78993201D01*
X120435487Y-78987492D01*
X120435488Y-78987487D01*
X120450021Y-78887253D01*
X120463141Y-78796765D01*
X120464627Y-78740000D01*
X120462018Y-78711608D01*
X120835745Y-78711608D01*
X120848727Y-78909673D01*
X120897586Y-79102056D01*
X120980685Y-79282313D01*
X120984018Y-79287029D01*
X121056902Y-79390157D01*
X121095243Y-79444409D01*
X121237422Y-79582913D01*
X121402461Y-79693189D01*
X121407764Y-79695467D01*
X121407767Y-79695469D01*
X121569901Y-79765127D01*
X121584832Y-79771542D01*
X121627749Y-79781253D01*
X121772791Y-79814073D01*
X121772796Y-79814074D01*
X121778428Y-79815348D01*
X121784199Y-79815575D01*
X121784201Y-79815575D01*
X121843262Y-79817895D01*
X121976765Y-79823141D01*
X122087301Y-79807114D01*
X122167487Y-79795488D01*
X122167492Y-79795487D01*
X122173201Y-79794659D01*
X122186096Y-79790282D01*
X122307307Y-79749136D01*
X122361158Y-79730856D01*
X122534339Y-79633870D01*
X122686947Y-79506947D01*
X122813870Y-79354339D01*
X122910856Y-79181158D01*
X122974659Y-78993201D01*
X122975487Y-78987492D01*
X122975488Y-78987487D01*
X122990021Y-78887253D01*
X123003141Y-78796765D01*
X123004627Y-78740000D01*
X123002018Y-78711608D01*
X123375745Y-78711608D01*
X123388727Y-78909673D01*
X123437586Y-79102056D01*
X123520685Y-79282313D01*
X123524018Y-79287029D01*
X123596902Y-79390157D01*
X123635243Y-79444409D01*
X123777422Y-79582913D01*
X123942461Y-79693189D01*
X123947764Y-79695467D01*
X123947767Y-79695469D01*
X124109901Y-79765127D01*
X124124832Y-79771542D01*
X124167749Y-79781253D01*
X124312791Y-79814073D01*
X124312796Y-79814074D01*
X124318428Y-79815348D01*
X124324199Y-79815575D01*
X124324201Y-79815575D01*
X124383262Y-79817895D01*
X124516765Y-79823141D01*
X124627301Y-79807114D01*
X124707487Y-79795488D01*
X124707492Y-79795487D01*
X124713201Y-79794659D01*
X124726096Y-79790282D01*
X124847307Y-79749136D01*
X124901158Y-79730856D01*
X125074339Y-79633870D01*
X125226947Y-79506947D01*
X125353870Y-79354339D01*
X125450856Y-79181158D01*
X125514659Y-78993201D01*
X125515487Y-78987492D01*
X125515488Y-78987487D01*
X125530021Y-78887253D01*
X125543141Y-78796765D01*
X125544627Y-78740000D01*
X125542018Y-78711608D01*
X125915745Y-78711608D01*
X125928727Y-78909673D01*
X125977586Y-79102056D01*
X126060685Y-79282313D01*
X126064018Y-79287029D01*
X126136902Y-79390157D01*
X126175243Y-79444409D01*
X126317422Y-79582913D01*
X126482461Y-79693189D01*
X126487764Y-79695467D01*
X126487767Y-79695469D01*
X126649901Y-79765127D01*
X126664832Y-79771542D01*
X126707749Y-79781253D01*
X126852791Y-79814073D01*
X126852796Y-79814074D01*
X126858428Y-79815348D01*
X126864199Y-79815575D01*
X126864201Y-79815575D01*
X126923262Y-79817895D01*
X127056765Y-79823141D01*
X127167301Y-79807114D01*
X127247487Y-79795488D01*
X127247492Y-79795487D01*
X127253201Y-79794659D01*
X127266096Y-79790282D01*
X127387307Y-79749136D01*
X127441158Y-79730856D01*
X127614339Y-79633870D01*
X127766947Y-79506947D01*
X127893870Y-79354339D01*
X127990856Y-79181158D01*
X128054659Y-78993201D01*
X128055487Y-78987492D01*
X128055488Y-78987487D01*
X128070021Y-78887253D01*
X128083141Y-78796765D01*
X128084627Y-78740000D01*
X128082018Y-78711608D01*
X128455745Y-78711608D01*
X128468727Y-78909673D01*
X128517586Y-79102056D01*
X128600685Y-79282313D01*
X128604018Y-79287029D01*
X128676902Y-79390157D01*
X128715243Y-79444409D01*
X128857422Y-79582913D01*
X129022461Y-79693189D01*
X129027764Y-79695467D01*
X129027767Y-79695469D01*
X129189901Y-79765127D01*
X129204832Y-79771542D01*
X129247749Y-79781253D01*
X129392791Y-79814073D01*
X129392796Y-79814074D01*
X129398428Y-79815348D01*
X129404199Y-79815575D01*
X129404201Y-79815575D01*
X129463262Y-79817895D01*
X129596765Y-79823141D01*
X129707301Y-79807114D01*
X129787487Y-79795488D01*
X129787492Y-79795487D01*
X129793201Y-79794659D01*
X129806096Y-79790282D01*
X129927307Y-79749136D01*
X129981158Y-79730856D01*
X130154339Y-79633870D01*
X130306947Y-79506947D01*
X130433870Y-79354339D01*
X130530856Y-79181158D01*
X130594659Y-78993201D01*
X130595487Y-78987492D01*
X130595488Y-78987487D01*
X130610021Y-78887253D01*
X130623141Y-78796765D01*
X130624627Y-78740000D01*
X130622018Y-78711608D01*
X130995745Y-78711608D01*
X131008727Y-78909673D01*
X131057586Y-79102056D01*
X131140685Y-79282313D01*
X131144018Y-79287029D01*
X131216902Y-79390157D01*
X131255243Y-79444409D01*
X131397422Y-79582913D01*
X131562461Y-79693189D01*
X131567764Y-79695467D01*
X131567767Y-79695469D01*
X131729901Y-79765127D01*
X131744832Y-79771542D01*
X131787749Y-79781253D01*
X131932791Y-79814073D01*
X131932796Y-79814074D01*
X131938428Y-79815348D01*
X131944199Y-79815575D01*
X131944201Y-79815575D01*
X132003262Y-79817895D01*
X132136765Y-79823141D01*
X132247301Y-79807114D01*
X132327487Y-79795488D01*
X132327492Y-79795487D01*
X132333201Y-79794659D01*
X132346096Y-79790282D01*
X132457945Y-79752314D01*
X133972046Y-79752314D01*
X133981928Y-79764803D01*
X134037041Y-79801627D01*
X134047146Y-79807114D01*
X134240267Y-79890086D01*
X134251210Y-79893641D01*
X134456209Y-79940028D01*
X134467618Y-79941530D01*
X134677645Y-79949781D01*
X134689129Y-79949179D01*
X134897145Y-79919019D01*
X134908328Y-79916334D01*
X135107362Y-79848771D01*
X135117865Y-79844095D01*
X135260404Y-79764270D01*
X135270266Y-79754194D01*
X135267311Y-79746522D01*
X134969046Y-79448257D01*
X149165777Y-79448257D01*
X149175074Y-79460273D01*
X149218069Y-79490378D01*
X149227555Y-79495856D01*
X149418993Y-79585125D01*
X149429285Y-79588871D01*
X149633309Y-79643539D01*
X149644104Y-79645442D01*
X149854525Y-79663852D01*
X149865475Y-79663852D01*
X150075896Y-79645442D01*
X150086691Y-79643539D01*
X150290715Y-79588871D01*
X150301007Y-79585125D01*
X150492445Y-79495856D01*
X150501931Y-79490378D01*
X150545764Y-79459687D01*
X150554139Y-79449209D01*
X150547071Y-79435761D01*
X149872812Y-78761502D01*
X149858868Y-78753888D01*
X149857035Y-78754019D01*
X149850420Y-78758270D01*
X149172207Y-79436483D01*
X149165777Y-79448257D01*
X134969046Y-79448257D01*
X134632811Y-79112021D01*
X134618868Y-79104408D01*
X134617034Y-79104539D01*
X134610420Y-79108790D01*
X133978239Y-79740972D01*
X133972046Y-79752314D01*
X132457945Y-79752314D01*
X132467307Y-79749136D01*
X132521158Y-79730856D01*
X132694339Y-79633870D01*
X132846947Y-79506947D01*
X132973870Y-79354339D01*
X133070856Y-79181158D01*
X133134659Y-78993201D01*
X133135487Y-78987492D01*
X133135488Y-78987487D01*
X133162609Y-78800437D01*
X133162610Y-78800430D01*
X133163141Y-78796765D01*
X133163231Y-78793322D01*
X133182735Y-78743140D01*
X133180588Y-78738734D01*
X133390961Y-78738734D01*
X133412231Y-78778986D01*
X133414485Y-78795841D01*
X133422871Y-78923779D01*
X133424672Y-78935149D01*
X133476409Y-79138863D01*
X133480250Y-79149710D01*
X133568247Y-79340592D01*
X133573996Y-79350549D01*
X133595112Y-79380427D01*
X133605702Y-79388816D01*
X133619001Y-79381788D01*
X134247979Y-78752811D01*
X134254356Y-78741132D01*
X134984408Y-78741132D01*
X134984539Y-78742966D01*
X134988790Y-78749580D01*
X135622611Y-79383400D01*
X135634986Y-79390157D01*
X135641566Y-79385231D01*
X135724095Y-79237865D01*
X135728771Y-79227362D01*
X135796334Y-79028328D01*
X135799019Y-79017145D01*
X135829475Y-78807088D01*
X135830105Y-78799705D01*
X135831572Y-78743704D01*
X135831329Y-78736305D01*
X135811908Y-78524945D01*
X135809811Y-78513630D01*
X135776341Y-78394955D01*
X148585628Y-78394955D01*
X148604038Y-78605376D01*
X148605941Y-78616171D01*
X148660609Y-78820195D01*
X148664355Y-78830487D01*
X148753623Y-79021921D01*
X148759103Y-79031412D01*
X148789794Y-79075245D01*
X148800271Y-79083620D01*
X148813718Y-79076552D01*
X149487978Y-78402292D01*
X149494356Y-78390612D01*
X150224408Y-78390612D01*
X150224539Y-78392445D01*
X150228790Y-78399060D01*
X150907003Y-79077273D01*
X150918777Y-79083703D01*
X150930793Y-79074406D01*
X150960897Y-79031412D01*
X150966377Y-79021921D01*
X151055645Y-78830487D01*
X151059391Y-78820195D01*
X151114059Y-78616171D01*
X151115962Y-78605376D01*
X151134372Y-78394955D01*
X151134372Y-78384005D01*
X151115962Y-78173584D01*
X151114059Y-78162789D01*
X151059391Y-77958765D01*
X151055645Y-77948473D01*
X150966377Y-77757039D01*
X150960897Y-77747548D01*
X150930206Y-77703715D01*
X150919729Y-77695340D01*
X150906282Y-77702408D01*
X150232022Y-78376668D01*
X150224408Y-78390612D01*
X149494356Y-78390612D01*
X149495592Y-78388348D01*
X149495461Y-78386515D01*
X149491210Y-78379900D01*
X148812997Y-77701687D01*
X148801223Y-77695257D01*
X148789207Y-77704554D01*
X148759103Y-77747548D01*
X148753623Y-77757039D01*
X148664355Y-77948473D01*
X148660609Y-77958765D01*
X148605941Y-78162789D01*
X148604038Y-78173584D01*
X148585628Y-78384005D01*
X148585628Y-78394955D01*
X135776341Y-78394955D01*
X135752758Y-78311336D01*
X135748636Y-78300597D01*
X135655671Y-78112083D01*
X135649665Y-78102281D01*
X135646510Y-78098056D01*
X135635251Y-78089606D01*
X135622834Y-78096377D01*
X134992021Y-78727189D01*
X134984408Y-78741132D01*
X134254356Y-78741132D01*
X134255592Y-78738868D01*
X134255461Y-78737034D01*
X134251210Y-78730420D01*
X133615603Y-78094814D01*
X133603228Y-78088057D01*
X133597262Y-78092523D01*
X133503256Y-78271198D01*
X133498851Y-78281832D01*
X133436522Y-78482563D01*
X133434130Y-78493817D01*
X133410583Y-78692762D01*
X133390961Y-78738734D01*
X133180588Y-78738734D01*
X133161225Y-78698994D01*
X133159985Y-78689481D01*
X133146994Y-78548099D01*
X133146465Y-78542342D01*
X133138368Y-78513630D01*
X133106967Y-78402292D01*
X133092587Y-78351304D01*
X133004797Y-78173284D01*
X132941155Y-78088057D01*
X132889488Y-78018867D01*
X132889488Y-78018866D01*
X132886035Y-78014243D01*
X132871510Y-78000816D01*
X132744520Y-77883428D01*
X132744518Y-77883426D01*
X132740279Y-77879508D01*
X132629368Y-77809528D01*
X132577290Y-77776669D01*
X132577289Y-77776669D01*
X132572410Y-77773590D01*
X132567050Y-77771452D01*
X132567047Y-77771450D01*
X132455150Y-77726808D01*
X133970921Y-77726808D01*
X133974407Y-77735196D01*
X134607189Y-78367979D01*
X134621132Y-78375592D01*
X134622966Y-78375461D01*
X134629580Y-78371210D01*
X135261700Y-77739089D01*
X135268457Y-77726714D01*
X135262427Y-77718658D01*
X135174972Y-77663478D01*
X135164721Y-77658254D01*
X134969497Y-77580368D01*
X134958469Y-77577101D01*
X134752322Y-77536096D01*
X134740875Y-77534893D01*
X134530716Y-77532142D01*
X134519236Y-77533045D01*
X134312087Y-77568640D01*
X134300979Y-77571617D01*
X134103782Y-77644366D01*
X134093400Y-77649318D01*
X133980519Y-77716475D01*
X133970921Y-77726808D01*
X132455150Y-77726808D01*
X132388051Y-77700038D01*
X132382394Y-77698913D01*
X132382388Y-77698911D01*
X132199041Y-77662442D01*
X132199039Y-77662442D01*
X132193374Y-77661315D01*
X132187599Y-77661239D01*
X132187595Y-77661239D01*
X132088638Y-77659944D01*
X131994901Y-77658717D01*
X131989204Y-77659696D01*
X131989203Y-77659696D01*
X131804975Y-77691352D01*
X131799278Y-77692331D01*
X131613056Y-77761032D01*
X131608094Y-77763984D01*
X131595545Y-77771450D01*
X131442472Y-77862518D01*
X131293239Y-77993392D01*
X131289664Y-77997927D01*
X131289663Y-77997928D01*
X131276801Y-78014243D01*
X131170355Y-78149270D01*
X131167666Y-78154381D01*
X131167664Y-78154384D01*
X131120989Y-78243098D01*
X131077935Y-78324931D01*
X131019075Y-78514493D01*
X130995745Y-78711608D01*
X130622018Y-78711608D01*
X130606465Y-78542342D01*
X130598368Y-78513630D01*
X130566967Y-78402292D01*
X130552587Y-78351304D01*
X130464797Y-78173284D01*
X130401155Y-78088057D01*
X130349488Y-78018867D01*
X130349488Y-78018866D01*
X130346035Y-78014243D01*
X130331510Y-78000816D01*
X130204520Y-77883428D01*
X130204518Y-77883426D01*
X130200279Y-77879508D01*
X130089368Y-77809528D01*
X130037290Y-77776669D01*
X130037289Y-77776669D01*
X130032410Y-77773590D01*
X130027050Y-77771452D01*
X130027047Y-77771450D01*
X129915150Y-77726808D01*
X129848051Y-77700038D01*
X129842394Y-77698913D01*
X129842388Y-77698911D01*
X129659041Y-77662442D01*
X129659039Y-77662442D01*
X129653374Y-77661315D01*
X129647599Y-77661239D01*
X129647595Y-77661239D01*
X129548638Y-77659944D01*
X129454901Y-77658717D01*
X129449204Y-77659696D01*
X129449203Y-77659696D01*
X129264975Y-77691352D01*
X129259278Y-77692331D01*
X129073056Y-77761032D01*
X129068094Y-77763984D01*
X129055545Y-77771450D01*
X128902472Y-77862518D01*
X128753239Y-77993392D01*
X128749664Y-77997927D01*
X128749663Y-77997928D01*
X128736801Y-78014243D01*
X128630355Y-78149270D01*
X128627666Y-78154381D01*
X128627664Y-78154384D01*
X128580989Y-78243098D01*
X128537935Y-78324931D01*
X128479075Y-78514493D01*
X128455745Y-78711608D01*
X128082018Y-78711608D01*
X128066465Y-78542342D01*
X128058368Y-78513630D01*
X128026967Y-78402292D01*
X128012587Y-78351304D01*
X127924797Y-78173284D01*
X127861155Y-78088057D01*
X127809488Y-78018867D01*
X127809488Y-78018866D01*
X127806035Y-78014243D01*
X127791510Y-78000816D01*
X127664520Y-77883428D01*
X127664518Y-77883426D01*
X127660279Y-77879508D01*
X127549368Y-77809528D01*
X127497290Y-77776669D01*
X127497289Y-77776669D01*
X127492410Y-77773590D01*
X127487050Y-77771452D01*
X127487047Y-77771450D01*
X127375150Y-77726808D01*
X127308051Y-77700038D01*
X127302394Y-77698913D01*
X127302388Y-77698911D01*
X127119041Y-77662442D01*
X127119039Y-77662442D01*
X127113374Y-77661315D01*
X127107599Y-77661239D01*
X127107595Y-77661239D01*
X127008638Y-77659944D01*
X126914901Y-77658717D01*
X126909204Y-77659696D01*
X126909203Y-77659696D01*
X126724975Y-77691352D01*
X126719278Y-77692331D01*
X126533056Y-77761032D01*
X126528094Y-77763984D01*
X126515545Y-77771450D01*
X126362472Y-77862518D01*
X126213239Y-77993392D01*
X126209664Y-77997927D01*
X126209663Y-77997928D01*
X126196801Y-78014243D01*
X126090355Y-78149270D01*
X126087666Y-78154381D01*
X126087664Y-78154384D01*
X126040989Y-78243098D01*
X125997935Y-78324931D01*
X125939075Y-78514493D01*
X125915745Y-78711608D01*
X125542018Y-78711608D01*
X125526465Y-78542342D01*
X125518368Y-78513630D01*
X125486967Y-78402292D01*
X125472587Y-78351304D01*
X125384797Y-78173284D01*
X125321155Y-78088057D01*
X125269488Y-78018867D01*
X125269488Y-78018866D01*
X125266035Y-78014243D01*
X125251510Y-78000816D01*
X125124520Y-77883428D01*
X125124518Y-77883426D01*
X125120279Y-77879508D01*
X125009368Y-77809528D01*
X124957290Y-77776669D01*
X124957289Y-77776669D01*
X124952410Y-77773590D01*
X124947050Y-77771452D01*
X124947047Y-77771450D01*
X124835150Y-77726808D01*
X124768051Y-77700038D01*
X124762394Y-77698913D01*
X124762388Y-77698911D01*
X124579041Y-77662442D01*
X124579039Y-77662442D01*
X124573374Y-77661315D01*
X124567599Y-77661239D01*
X124567595Y-77661239D01*
X124468638Y-77659944D01*
X124374901Y-77658717D01*
X124369204Y-77659696D01*
X124369203Y-77659696D01*
X124184975Y-77691352D01*
X124179278Y-77692331D01*
X123993056Y-77761032D01*
X123988094Y-77763984D01*
X123975545Y-77771450D01*
X123822472Y-77862518D01*
X123673239Y-77993392D01*
X123669664Y-77997927D01*
X123669663Y-77997928D01*
X123656801Y-78014243D01*
X123550355Y-78149270D01*
X123547666Y-78154381D01*
X123547664Y-78154384D01*
X123500989Y-78243098D01*
X123457935Y-78324931D01*
X123399075Y-78514493D01*
X123375745Y-78711608D01*
X123002018Y-78711608D01*
X122986465Y-78542342D01*
X122978368Y-78513630D01*
X122946967Y-78402292D01*
X122932587Y-78351304D01*
X122844797Y-78173284D01*
X122781155Y-78088057D01*
X122729488Y-78018867D01*
X122729488Y-78018866D01*
X122726035Y-78014243D01*
X122711510Y-78000816D01*
X122584520Y-77883428D01*
X122584518Y-77883426D01*
X122580279Y-77879508D01*
X122469368Y-77809528D01*
X122417290Y-77776669D01*
X122417289Y-77776669D01*
X122412410Y-77773590D01*
X122407050Y-77771452D01*
X122407047Y-77771450D01*
X122295150Y-77726808D01*
X122228051Y-77700038D01*
X122222394Y-77698913D01*
X122222388Y-77698911D01*
X122039041Y-77662442D01*
X122039039Y-77662442D01*
X122033374Y-77661315D01*
X122027599Y-77661239D01*
X122027595Y-77661239D01*
X121928638Y-77659944D01*
X121834901Y-77658717D01*
X121829204Y-77659696D01*
X121829203Y-77659696D01*
X121644975Y-77691352D01*
X121639278Y-77692331D01*
X121453056Y-77761032D01*
X121448094Y-77763984D01*
X121435545Y-77771450D01*
X121282472Y-77862518D01*
X121133239Y-77993392D01*
X121129664Y-77997927D01*
X121129663Y-77997928D01*
X121116801Y-78014243D01*
X121010355Y-78149270D01*
X121007666Y-78154381D01*
X121007664Y-78154384D01*
X120960989Y-78243098D01*
X120917935Y-78324931D01*
X120859075Y-78514493D01*
X120835745Y-78711608D01*
X120462018Y-78711608D01*
X120446465Y-78542342D01*
X120438368Y-78513630D01*
X120406967Y-78402292D01*
X120392587Y-78351304D01*
X120304797Y-78173284D01*
X120241155Y-78088057D01*
X120189488Y-78018867D01*
X120189488Y-78018866D01*
X120186035Y-78014243D01*
X120171510Y-78000816D01*
X120044520Y-77883428D01*
X120044518Y-77883426D01*
X120040279Y-77879508D01*
X119929368Y-77809528D01*
X119877290Y-77776669D01*
X119877289Y-77776669D01*
X119872410Y-77773590D01*
X119867050Y-77771452D01*
X119867047Y-77771450D01*
X119755150Y-77726808D01*
X119688051Y-77700038D01*
X119682394Y-77698913D01*
X119682388Y-77698911D01*
X119499041Y-77662442D01*
X119499039Y-77662442D01*
X119493374Y-77661315D01*
X119487599Y-77661239D01*
X119487595Y-77661239D01*
X119388638Y-77659944D01*
X119294901Y-77658717D01*
X119289204Y-77659696D01*
X119289203Y-77659696D01*
X119104975Y-77691352D01*
X119099278Y-77692331D01*
X118913056Y-77761032D01*
X118908094Y-77763984D01*
X118821666Y-77815403D01*
X118752895Y-77833043D01*
X118685505Y-77810702D01*
X118655308Y-77781181D01*
X118641889Y-77762711D01*
X118635378Y-77752798D01*
X118616985Y-77721697D01*
X118616984Y-77721695D01*
X118612949Y-77714873D01*
X118598693Y-77700617D01*
X118585852Y-77685583D01*
X118578662Y-77675687D01*
X118574002Y-77669273D01*
X118540057Y-77641191D01*
X118531278Y-77633202D01*
X118227827Y-77329751D01*
X149165860Y-77329751D01*
X149172928Y-77343198D01*
X149847188Y-78017458D01*
X149861132Y-78025072D01*
X149862965Y-78024941D01*
X149869580Y-78020690D01*
X150547793Y-77342477D01*
X150554223Y-77330703D01*
X150544926Y-77318687D01*
X150501931Y-77288582D01*
X150492445Y-77283104D01*
X150301007Y-77193835D01*
X150290715Y-77190089D01*
X150086691Y-77135421D01*
X150075896Y-77133518D01*
X149865475Y-77115108D01*
X149854525Y-77115108D01*
X149644104Y-77133518D01*
X149633309Y-77135421D01*
X149429285Y-77190089D01*
X149418993Y-77193835D01*
X149227559Y-77283103D01*
X149218068Y-77288583D01*
X149174235Y-77319274D01*
X149165860Y-77329751D01*
X118227827Y-77329751D01*
X117978318Y-77080242D01*
X117944292Y-77017930D01*
X117943196Y-76970026D01*
X117972589Y-76797164D01*
X117972589Y-76797161D01*
X117973595Y-76791246D01*
X117968885Y-76575386D01*
X117923442Y-76364312D01*
X117838905Y-76165639D01*
X117718325Y-75986535D01*
X117714502Y-75982320D01*
X115993080Y-74260898D01*
X114145725Y-72413542D01*
X114111699Y-72351230D01*
X114116764Y-72280414D01*
X114159311Y-72223579D01*
X114225831Y-72198768D01*
X114239767Y-72198544D01*
X114253519Y-72199084D01*
X114356765Y-72203141D01*
X114454983Y-72188900D01*
X114547487Y-72175488D01*
X114547492Y-72175487D01*
X114553201Y-72174659D01*
X114741158Y-72110856D01*
X114914339Y-72013870D01*
X115066947Y-71886947D01*
X115180819Y-71750031D01*
X115190179Y-71738777D01*
X115193870Y-71734339D01*
X115290856Y-71561158D01*
X115354659Y-71373201D01*
X115355487Y-71367492D01*
X115355488Y-71367487D01*
X115373851Y-71240834D01*
X115383141Y-71176765D01*
X115384627Y-71120000D01*
X115382018Y-71091608D01*
X115755745Y-71091608D01*
X115768727Y-71289673D01*
X115817586Y-71482056D01*
X115900685Y-71662313D01*
X115923189Y-71694155D01*
X115993898Y-71794206D01*
X116015243Y-71824409D01*
X116157422Y-71962913D01*
X116322461Y-72073189D01*
X116327764Y-72075467D01*
X116327767Y-72075469D01*
X116410133Y-72110856D01*
X116504832Y-72151542D01*
X116563606Y-72164841D01*
X116692791Y-72194073D01*
X116692796Y-72194074D01*
X116698428Y-72195348D01*
X116704199Y-72195575D01*
X116704201Y-72195575D01*
X116763262Y-72197895D01*
X116896765Y-72203141D01*
X116994983Y-72188900D01*
X117087487Y-72175488D01*
X117087492Y-72175487D01*
X117093201Y-72174659D01*
X117281158Y-72110856D01*
X117454339Y-72013870D01*
X117606947Y-71886947D01*
X117720819Y-71750031D01*
X117730179Y-71738777D01*
X117733870Y-71734339D01*
X117830856Y-71561158D01*
X117894659Y-71373201D01*
X117895487Y-71367492D01*
X117895488Y-71367487D01*
X117913851Y-71240834D01*
X117923141Y-71176765D01*
X117924627Y-71120000D01*
X117922018Y-71091608D01*
X118295745Y-71091608D01*
X118308727Y-71289673D01*
X118357586Y-71482056D01*
X118440685Y-71662313D01*
X118463189Y-71694155D01*
X118533898Y-71794206D01*
X118555243Y-71824409D01*
X118697422Y-71962913D01*
X118862461Y-72073189D01*
X118867764Y-72075467D01*
X118867767Y-72075469D01*
X118950133Y-72110856D01*
X119044832Y-72151542D01*
X119103606Y-72164841D01*
X119232791Y-72194073D01*
X119232796Y-72194074D01*
X119238428Y-72195348D01*
X119244199Y-72195575D01*
X119244201Y-72195575D01*
X119303262Y-72197895D01*
X119436765Y-72203141D01*
X119534983Y-72188900D01*
X119627487Y-72175488D01*
X119627492Y-72175487D01*
X119633201Y-72174659D01*
X119821158Y-72110856D01*
X119994339Y-72013870D01*
X120146947Y-71886947D01*
X120260819Y-71750031D01*
X120270179Y-71738777D01*
X120273870Y-71734339D01*
X120370856Y-71561158D01*
X120434659Y-71373201D01*
X120435487Y-71367492D01*
X120435488Y-71367487D01*
X120453851Y-71240834D01*
X120463141Y-71176765D01*
X120464627Y-71120000D01*
X120462018Y-71091608D01*
X120835745Y-71091608D01*
X120848727Y-71289673D01*
X120897586Y-71482056D01*
X120980685Y-71662313D01*
X121003189Y-71694155D01*
X121073898Y-71794206D01*
X121095243Y-71824409D01*
X121237422Y-71962913D01*
X121402461Y-72073189D01*
X121407764Y-72075467D01*
X121407767Y-72075469D01*
X121490133Y-72110856D01*
X121584832Y-72151542D01*
X121643606Y-72164841D01*
X121772791Y-72194073D01*
X121772796Y-72194074D01*
X121778428Y-72195348D01*
X121784199Y-72195575D01*
X121784201Y-72195575D01*
X121843262Y-72197895D01*
X121976765Y-72203141D01*
X122074983Y-72188900D01*
X122167487Y-72175488D01*
X122167492Y-72175487D01*
X122173201Y-72174659D01*
X122361158Y-72110856D01*
X122534339Y-72013870D01*
X122686947Y-71886947D01*
X122800819Y-71750031D01*
X122810179Y-71738777D01*
X122813870Y-71734339D01*
X122910856Y-71561158D01*
X122974659Y-71373201D01*
X122975487Y-71367492D01*
X122975488Y-71367487D01*
X122993851Y-71240834D01*
X123003141Y-71176765D01*
X123004627Y-71120000D01*
X123002018Y-71091608D01*
X123375745Y-71091608D01*
X123388727Y-71289673D01*
X123437586Y-71482056D01*
X123520685Y-71662313D01*
X123543189Y-71694155D01*
X123613898Y-71794206D01*
X123635243Y-71824409D01*
X123777422Y-71962913D01*
X123942461Y-72073189D01*
X123947764Y-72075467D01*
X123947767Y-72075469D01*
X124030133Y-72110856D01*
X124124832Y-72151542D01*
X124183606Y-72164841D01*
X124312791Y-72194073D01*
X124312796Y-72194074D01*
X124318428Y-72195348D01*
X124324199Y-72195575D01*
X124324201Y-72195575D01*
X124383262Y-72197895D01*
X124516765Y-72203141D01*
X124614983Y-72188900D01*
X124707487Y-72175488D01*
X124707492Y-72175487D01*
X124713201Y-72174659D01*
X124901158Y-72110856D01*
X125074339Y-72013870D01*
X125226947Y-71886947D01*
X125340819Y-71750031D01*
X125350179Y-71738777D01*
X125353870Y-71734339D01*
X125450856Y-71561158D01*
X125514659Y-71373201D01*
X125515487Y-71367492D01*
X125515488Y-71367487D01*
X125533851Y-71240834D01*
X125543141Y-71176765D01*
X125544627Y-71120000D01*
X125542018Y-71091608D01*
X125915745Y-71091608D01*
X125928727Y-71289673D01*
X125977586Y-71482056D01*
X126060685Y-71662313D01*
X126083189Y-71694155D01*
X126153898Y-71794206D01*
X126175243Y-71824409D01*
X126317422Y-71962913D01*
X126482461Y-72073189D01*
X126487764Y-72075467D01*
X126487767Y-72075469D01*
X126570133Y-72110856D01*
X126664832Y-72151542D01*
X126723606Y-72164841D01*
X126852791Y-72194073D01*
X126852796Y-72194074D01*
X126858428Y-72195348D01*
X126864199Y-72195575D01*
X126864201Y-72195575D01*
X126923262Y-72197895D01*
X127056765Y-72203141D01*
X127154983Y-72188900D01*
X127247487Y-72175488D01*
X127247492Y-72175487D01*
X127253201Y-72174659D01*
X127441158Y-72110856D01*
X127614339Y-72013870D01*
X127766947Y-71886947D01*
X127880819Y-71750031D01*
X127890179Y-71738777D01*
X127893870Y-71734339D01*
X127990856Y-71561158D01*
X128054659Y-71373201D01*
X128055487Y-71367492D01*
X128055488Y-71367487D01*
X128073851Y-71240834D01*
X128083141Y-71176765D01*
X128084627Y-71120000D01*
X128082018Y-71091608D01*
X128455745Y-71091608D01*
X128468727Y-71289673D01*
X128517586Y-71482056D01*
X128600685Y-71662313D01*
X128623189Y-71694155D01*
X128693898Y-71794206D01*
X128715243Y-71824409D01*
X128857422Y-71962913D01*
X129022461Y-72073189D01*
X129027764Y-72075467D01*
X129027767Y-72075469D01*
X129110133Y-72110856D01*
X129204832Y-72151542D01*
X129263606Y-72164841D01*
X129392791Y-72194073D01*
X129392796Y-72194074D01*
X129398428Y-72195348D01*
X129404199Y-72195575D01*
X129404201Y-72195575D01*
X129463262Y-72197895D01*
X129596765Y-72203141D01*
X129694983Y-72188900D01*
X129787487Y-72175488D01*
X129787492Y-72175487D01*
X129793201Y-72174659D01*
X129981158Y-72110856D01*
X130154339Y-72013870D01*
X130306947Y-71886947D01*
X130420819Y-71750031D01*
X130430179Y-71738777D01*
X130433870Y-71734339D01*
X130530856Y-71561158D01*
X130594659Y-71373201D01*
X130595487Y-71367492D01*
X130595488Y-71367487D01*
X130613851Y-71240834D01*
X130623141Y-71176765D01*
X130624627Y-71120000D01*
X130622018Y-71091608D01*
X130995745Y-71091608D01*
X131008727Y-71289673D01*
X131057586Y-71482056D01*
X131140685Y-71662313D01*
X131163189Y-71694155D01*
X131233898Y-71794206D01*
X131255243Y-71824409D01*
X131397422Y-71962913D01*
X131562461Y-72073189D01*
X131567764Y-72075467D01*
X131567767Y-72075469D01*
X131650133Y-72110856D01*
X131744832Y-72151542D01*
X131803606Y-72164841D01*
X131932791Y-72194073D01*
X131932796Y-72194074D01*
X131938428Y-72195348D01*
X131944199Y-72195575D01*
X131944201Y-72195575D01*
X132003262Y-72197895D01*
X132136765Y-72203141D01*
X132234983Y-72188900D01*
X132327487Y-72175488D01*
X132327492Y-72175487D01*
X132333201Y-72174659D01*
X132521158Y-72110856D01*
X132694339Y-72013870D01*
X132846947Y-71886947D01*
X132960819Y-71750031D01*
X132970179Y-71738777D01*
X132973870Y-71734339D01*
X133070856Y-71561158D01*
X133134659Y-71373201D01*
X133135487Y-71367492D01*
X133135488Y-71367487D01*
X133153851Y-71240834D01*
X133163141Y-71176765D01*
X133164627Y-71120000D01*
X133162018Y-71091608D01*
X133535745Y-71091608D01*
X133548727Y-71289673D01*
X133597586Y-71482056D01*
X133680685Y-71662313D01*
X133703189Y-71694155D01*
X133773898Y-71794206D01*
X133795243Y-71824409D01*
X133937422Y-71962913D01*
X134102461Y-72073189D01*
X134107764Y-72075467D01*
X134107767Y-72075469D01*
X134190133Y-72110856D01*
X134284832Y-72151542D01*
X134343606Y-72164841D01*
X134472791Y-72194073D01*
X134472796Y-72194074D01*
X134478428Y-72195348D01*
X134484199Y-72195575D01*
X134484201Y-72195575D01*
X134543262Y-72197895D01*
X134676765Y-72203141D01*
X134774983Y-72188900D01*
X134867487Y-72175488D01*
X134867492Y-72175487D01*
X134873201Y-72174659D01*
X135061158Y-72110856D01*
X135234339Y-72013870D01*
X135386947Y-71886947D01*
X135500819Y-71750031D01*
X135510179Y-71738777D01*
X135513870Y-71734339D01*
X135610856Y-71561158D01*
X135674659Y-71373201D01*
X135675487Y-71367492D01*
X135675488Y-71367487D01*
X135693851Y-71240834D01*
X135703141Y-71176765D01*
X135704627Y-71120000D01*
X135703618Y-71109020D01*
X175743632Y-71109020D01*
X175760741Y-71283511D01*
X175816083Y-71449876D01*
X175819730Y-71455898D01*
X175819731Y-71455900D01*
X175883478Y-71561158D01*
X175906908Y-71599846D01*
X175911797Y-71604909D01*
X175911798Y-71604910D01*
X175945098Y-71639393D01*
X176028701Y-71725966D01*
X176034593Y-71729821D01*
X176034597Y-71729825D01*
X176090608Y-71766477D01*
X176175410Y-71821970D01*
X176182014Y-71824426D01*
X176333140Y-71880629D01*
X176333142Y-71880629D01*
X176339742Y-71883084D01*
X176346725Y-71884016D01*
X176346726Y-71884016D01*
X176506549Y-71905342D01*
X176506553Y-71905342D01*
X176513530Y-71906273D01*
X176520541Y-71905635D01*
X176520545Y-71905635D01*
X176658105Y-71893115D01*
X176688137Y-71890382D01*
X176694839Y-71888204D01*
X176694841Y-71888204D01*
X176848185Y-71838380D01*
X176848188Y-71838379D01*
X176854884Y-71836203D01*
X177005484Y-71746427D01*
X177010578Y-71741576D01*
X177010582Y-71741573D01*
X177114994Y-71642142D01*
X177132452Y-71625517D01*
X177229477Y-71479482D01*
X177291737Y-71315581D01*
X177296375Y-71282581D01*
X177325664Y-71217907D01*
X177332054Y-71211022D01*
X178191030Y-70352046D01*
X178199272Y-70344546D01*
X178205732Y-70340446D01*
X178252198Y-70290965D01*
X178254953Y-70288123D01*
X178274631Y-70268445D01*
X178277091Y-70265273D01*
X178284795Y-70256253D01*
X178309529Y-70229914D01*
X178314955Y-70224136D01*
X178324670Y-70206465D01*
X178335516Y-70189953D01*
X178347879Y-70174015D01*
X178365381Y-70133569D01*
X178370598Y-70122921D01*
X178388003Y-70091262D01*
X178388004Y-70091259D01*
X178391820Y-70084318D01*
X178396835Y-70064786D01*
X178403233Y-70046100D01*
X178411245Y-70027584D01*
X178412485Y-70019756D01*
X178412486Y-70019752D01*
X178418138Y-69984072D01*
X178420544Y-69972451D01*
X178429528Y-69937458D01*
X178429528Y-69937457D01*
X178431500Y-69929777D01*
X178431500Y-69909612D01*
X178433051Y-69889902D01*
X178434964Y-69877824D01*
X178434964Y-69877823D01*
X178436204Y-69869994D01*
X178432059Y-69826140D01*
X178431500Y-69814284D01*
X178431500Y-64438686D01*
X178451502Y-64370565D01*
X178476929Y-64341814D01*
X178566947Y-64266947D01*
X178693870Y-64114339D01*
X178790856Y-63941158D01*
X178854659Y-63753201D01*
X178855487Y-63747492D01*
X178855488Y-63747487D01*
X178881644Y-63567088D01*
X178883141Y-63556765D01*
X178884627Y-63500000D01*
X178866465Y-63302342D01*
X178858368Y-63273630D01*
X178819489Y-63135777D01*
X178812587Y-63111304D01*
X178724797Y-62933284D01*
X178606035Y-62774243D01*
X178592982Y-62762177D01*
X178464520Y-62643428D01*
X178464518Y-62643426D01*
X178460279Y-62639508D01*
X178292410Y-62533590D01*
X178287050Y-62531452D01*
X178287047Y-62531450D01*
X178175150Y-62486808D01*
X178108051Y-62460038D01*
X178102394Y-62458913D01*
X178102388Y-62458911D01*
X177919041Y-62422442D01*
X177919039Y-62422442D01*
X177913374Y-62421315D01*
X177907599Y-62421239D01*
X177907595Y-62421239D01*
X177808638Y-62419944D01*
X177714901Y-62418717D01*
X177709204Y-62419696D01*
X177709203Y-62419696D01*
X177573872Y-62442950D01*
X177519278Y-62452331D01*
X177333056Y-62521032D01*
X177328094Y-62523984D01*
X177324428Y-62526165D01*
X177162472Y-62622518D01*
X177013239Y-62753392D01*
X177009664Y-62757927D01*
X177009663Y-62757928D01*
X176996801Y-62774243D01*
X176890355Y-62909270D01*
X176887666Y-62914381D01*
X176887664Y-62914384D01*
X176874792Y-62938850D01*
X176797935Y-63084931D01*
X176739075Y-63274493D01*
X176715745Y-63471608D01*
X176728727Y-63669673D01*
X176777586Y-63862056D01*
X176860685Y-64042313D01*
X176864018Y-64047029D01*
X176949435Y-64167891D01*
X176975243Y-64204409D01*
X176979385Y-64208444D01*
X177034885Y-64262509D01*
X177117422Y-64342913D01*
X177121874Y-64345888D01*
X177162148Y-64404191D01*
X177168500Y-64443694D01*
X177168500Y-69536234D01*
X177148498Y-69604355D01*
X177131595Y-69625329D01*
X176441730Y-70315194D01*
X176379418Y-70349220D01*
X176370329Y-70350681D01*
X176368130Y-70351164D01*
X176361122Y-70351901D01*
X176195148Y-70408403D01*
X176189144Y-70412097D01*
X176051823Y-70496577D01*
X176051820Y-70496579D01*
X176045816Y-70500273D01*
X176040781Y-70505204D01*
X176040778Y-70505206D01*
X175925581Y-70618016D01*
X175920549Y-70622944D01*
X175825572Y-70770319D01*
X175765606Y-70935074D01*
X175743632Y-71109020D01*
X135703618Y-71109020D01*
X135686465Y-70922342D01*
X135632587Y-70731304D01*
X135544797Y-70553284D01*
X135426035Y-70394243D01*
X135421799Y-70390327D01*
X135284520Y-70263428D01*
X135284518Y-70263426D01*
X135280279Y-70259508D01*
X135182451Y-70197783D01*
X135117290Y-70156669D01*
X135117289Y-70156669D01*
X135112410Y-70153590D01*
X135107050Y-70151452D01*
X135107047Y-70151450D01*
X135020230Y-70116814D01*
X134928051Y-70080038D01*
X134922394Y-70078913D01*
X134922388Y-70078911D01*
X134739041Y-70042442D01*
X134739039Y-70042442D01*
X134733374Y-70041315D01*
X134727599Y-70041239D01*
X134727595Y-70041239D01*
X134628638Y-70039944D01*
X134534901Y-70038717D01*
X134529204Y-70039696D01*
X134529203Y-70039696D01*
X134339278Y-70072331D01*
X134153056Y-70141032D01*
X133982472Y-70242518D01*
X133833239Y-70373392D01*
X133829664Y-70377927D01*
X133829663Y-70377928D01*
X133816801Y-70394243D01*
X133710355Y-70529270D01*
X133707666Y-70534381D01*
X133707664Y-70534384D01*
X133663663Y-70618016D01*
X133617935Y-70704931D01*
X133559075Y-70894493D01*
X133535745Y-71091608D01*
X133162018Y-71091608D01*
X133146465Y-70922342D01*
X133092587Y-70731304D01*
X133004797Y-70553284D01*
X132886035Y-70394243D01*
X132881799Y-70390327D01*
X132744520Y-70263428D01*
X132744518Y-70263426D01*
X132740279Y-70259508D01*
X132642451Y-70197783D01*
X132577290Y-70156669D01*
X132577289Y-70156669D01*
X132572410Y-70153590D01*
X132567050Y-70151452D01*
X132567047Y-70151450D01*
X132480230Y-70116814D01*
X132388051Y-70080038D01*
X132382394Y-70078913D01*
X132382388Y-70078911D01*
X132199041Y-70042442D01*
X132199039Y-70042442D01*
X132193374Y-70041315D01*
X132187599Y-70041239D01*
X132187595Y-70041239D01*
X132088638Y-70039944D01*
X131994901Y-70038717D01*
X131989204Y-70039696D01*
X131989203Y-70039696D01*
X131799278Y-70072331D01*
X131613056Y-70141032D01*
X131442472Y-70242518D01*
X131293239Y-70373392D01*
X131289664Y-70377927D01*
X131289663Y-70377928D01*
X131276801Y-70394243D01*
X131170355Y-70529270D01*
X131167666Y-70534381D01*
X131167664Y-70534384D01*
X131123663Y-70618016D01*
X131077935Y-70704931D01*
X131019075Y-70894493D01*
X130995745Y-71091608D01*
X130622018Y-71091608D01*
X130606465Y-70922342D01*
X130552587Y-70731304D01*
X130464797Y-70553284D01*
X130346035Y-70394243D01*
X130341799Y-70390327D01*
X130204520Y-70263428D01*
X130204518Y-70263426D01*
X130200279Y-70259508D01*
X130102451Y-70197783D01*
X130037290Y-70156669D01*
X130037289Y-70156669D01*
X130032410Y-70153590D01*
X130027050Y-70151452D01*
X130027047Y-70151450D01*
X129940230Y-70116814D01*
X129848051Y-70080038D01*
X129842394Y-70078913D01*
X129842388Y-70078911D01*
X129659041Y-70042442D01*
X129659039Y-70042442D01*
X129653374Y-70041315D01*
X129647599Y-70041239D01*
X129647595Y-70041239D01*
X129548638Y-70039944D01*
X129454901Y-70038717D01*
X129449204Y-70039696D01*
X129449203Y-70039696D01*
X129259278Y-70072331D01*
X129073056Y-70141032D01*
X128902472Y-70242518D01*
X128753239Y-70373392D01*
X128749664Y-70377927D01*
X128749663Y-70377928D01*
X128736801Y-70394243D01*
X128630355Y-70529270D01*
X128627666Y-70534381D01*
X128627664Y-70534384D01*
X128583663Y-70618016D01*
X128537935Y-70704931D01*
X128479075Y-70894493D01*
X128455745Y-71091608D01*
X128082018Y-71091608D01*
X128066465Y-70922342D01*
X128012587Y-70731304D01*
X127924797Y-70553284D01*
X127806035Y-70394243D01*
X127801799Y-70390327D01*
X127664520Y-70263428D01*
X127664518Y-70263426D01*
X127660279Y-70259508D01*
X127562451Y-70197783D01*
X127497290Y-70156669D01*
X127497289Y-70156669D01*
X127492410Y-70153590D01*
X127487050Y-70151452D01*
X127487047Y-70151450D01*
X127400230Y-70116814D01*
X127308051Y-70080038D01*
X127302394Y-70078913D01*
X127302388Y-70078911D01*
X127119041Y-70042442D01*
X127119039Y-70042442D01*
X127113374Y-70041315D01*
X127107599Y-70041239D01*
X127107595Y-70041239D01*
X127008638Y-70039944D01*
X126914901Y-70038717D01*
X126909204Y-70039696D01*
X126909203Y-70039696D01*
X126719278Y-70072331D01*
X126533056Y-70141032D01*
X126362472Y-70242518D01*
X126213239Y-70373392D01*
X126209664Y-70377927D01*
X126209663Y-70377928D01*
X126196801Y-70394243D01*
X126090355Y-70529270D01*
X126087666Y-70534381D01*
X126087664Y-70534384D01*
X126043663Y-70618016D01*
X125997935Y-70704931D01*
X125939075Y-70894493D01*
X125915745Y-71091608D01*
X125542018Y-71091608D01*
X125526465Y-70922342D01*
X125472587Y-70731304D01*
X125384797Y-70553284D01*
X125266035Y-70394243D01*
X125261799Y-70390327D01*
X125124520Y-70263428D01*
X125124518Y-70263426D01*
X125120279Y-70259508D01*
X125022451Y-70197783D01*
X124957290Y-70156669D01*
X124957289Y-70156669D01*
X124952410Y-70153590D01*
X124947050Y-70151452D01*
X124947047Y-70151450D01*
X124860230Y-70116814D01*
X124768051Y-70080038D01*
X124762394Y-70078913D01*
X124762388Y-70078911D01*
X124579041Y-70042442D01*
X124579039Y-70042442D01*
X124573374Y-70041315D01*
X124567599Y-70041239D01*
X124567595Y-70041239D01*
X124468638Y-70039944D01*
X124374901Y-70038717D01*
X124369204Y-70039696D01*
X124369203Y-70039696D01*
X124179278Y-70072331D01*
X123993056Y-70141032D01*
X123822472Y-70242518D01*
X123673239Y-70373392D01*
X123669664Y-70377927D01*
X123669663Y-70377928D01*
X123656801Y-70394243D01*
X123550355Y-70529270D01*
X123547666Y-70534381D01*
X123547664Y-70534384D01*
X123503663Y-70618016D01*
X123457935Y-70704931D01*
X123399075Y-70894493D01*
X123375745Y-71091608D01*
X123002018Y-71091608D01*
X122986465Y-70922342D01*
X122932587Y-70731304D01*
X122844797Y-70553284D01*
X122726035Y-70394243D01*
X122721799Y-70390327D01*
X122584520Y-70263428D01*
X122584518Y-70263426D01*
X122580279Y-70259508D01*
X122482451Y-70197783D01*
X122417290Y-70156669D01*
X122417289Y-70156669D01*
X122412410Y-70153590D01*
X122407050Y-70151452D01*
X122407047Y-70151450D01*
X122320230Y-70116814D01*
X122228051Y-70080038D01*
X122222394Y-70078913D01*
X122222388Y-70078911D01*
X122039041Y-70042442D01*
X122039039Y-70042442D01*
X122033374Y-70041315D01*
X122027599Y-70041239D01*
X122027595Y-70041239D01*
X121928638Y-70039944D01*
X121834901Y-70038717D01*
X121829204Y-70039696D01*
X121829203Y-70039696D01*
X121639278Y-70072331D01*
X121453056Y-70141032D01*
X121282472Y-70242518D01*
X121133239Y-70373392D01*
X121129664Y-70377927D01*
X121129663Y-70377928D01*
X121116801Y-70394243D01*
X121010355Y-70529270D01*
X121007666Y-70534381D01*
X121007664Y-70534384D01*
X120963663Y-70618016D01*
X120917935Y-70704931D01*
X120859075Y-70894493D01*
X120835745Y-71091608D01*
X120462018Y-71091608D01*
X120446465Y-70922342D01*
X120392587Y-70731304D01*
X120304797Y-70553284D01*
X120186035Y-70394243D01*
X120181799Y-70390327D01*
X120044520Y-70263428D01*
X120044518Y-70263426D01*
X120040279Y-70259508D01*
X119942451Y-70197783D01*
X119877290Y-70156669D01*
X119877289Y-70156669D01*
X119872410Y-70153590D01*
X119867050Y-70151452D01*
X119867047Y-70151450D01*
X119780230Y-70116814D01*
X119688051Y-70080038D01*
X119682394Y-70078913D01*
X119682388Y-70078911D01*
X119499041Y-70042442D01*
X119499039Y-70042442D01*
X119493374Y-70041315D01*
X119487599Y-70041239D01*
X119487595Y-70041239D01*
X119388638Y-70039944D01*
X119294901Y-70038717D01*
X119289204Y-70039696D01*
X119289203Y-70039696D01*
X119099278Y-70072331D01*
X118913056Y-70141032D01*
X118742472Y-70242518D01*
X118593239Y-70373392D01*
X118589664Y-70377927D01*
X118589663Y-70377928D01*
X118576801Y-70394243D01*
X118470355Y-70529270D01*
X118467666Y-70534381D01*
X118467664Y-70534384D01*
X118423663Y-70618016D01*
X118377935Y-70704931D01*
X118319075Y-70894493D01*
X118295745Y-71091608D01*
X117922018Y-71091608D01*
X117906465Y-70922342D01*
X117852587Y-70731304D01*
X117764797Y-70553284D01*
X117646035Y-70394243D01*
X117641799Y-70390327D01*
X117504520Y-70263428D01*
X117504518Y-70263426D01*
X117500279Y-70259508D01*
X117402451Y-70197783D01*
X117337290Y-70156669D01*
X117337289Y-70156669D01*
X117332410Y-70153590D01*
X117327050Y-70151452D01*
X117327047Y-70151450D01*
X117240230Y-70116814D01*
X117148051Y-70080038D01*
X117142394Y-70078913D01*
X117142388Y-70078911D01*
X116959041Y-70042442D01*
X116959039Y-70042442D01*
X116953374Y-70041315D01*
X116947599Y-70041239D01*
X116947595Y-70041239D01*
X116848638Y-70039944D01*
X116754901Y-70038717D01*
X116749204Y-70039696D01*
X116749203Y-70039696D01*
X116559278Y-70072331D01*
X116373056Y-70141032D01*
X116202472Y-70242518D01*
X116053239Y-70373392D01*
X116049664Y-70377927D01*
X116049663Y-70377928D01*
X116036801Y-70394243D01*
X115930355Y-70529270D01*
X115927666Y-70534381D01*
X115927664Y-70534384D01*
X115883663Y-70618016D01*
X115837935Y-70704931D01*
X115779075Y-70894493D01*
X115755745Y-71091608D01*
X115382018Y-71091608D01*
X115366465Y-70922342D01*
X115312587Y-70731304D01*
X115224797Y-70553284D01*
X115106035Y-70394243D01*
X115101799Y-70390327D01*
X114964520Y-70263428D01*
X114964518Y-70263426D01*
X114960279Y-70259508D01*
X114862451Y-70197783D01*
X114797290Y-70156669D01*
X114797289Y-70156669D01*
X114792410Y-70153590D01*
X114787050Y-70151452D01*
X114787047Y-70151450D01*
X114700230Y-70116814D01*
X114608051Y-70080038D01*
X114602394Y-70078913D01*
X114602388Y-70078911D01*
X114419041Y-70042442D01*
X114419039Y-70042442D01*
X114413374Y-70041315D01*
X114407599Y-70041239D01*
X114407595Y-70041239D01*
X114308638Y-70039944D01*
X114214901Y-70038717D01*
X114209204Y-70039696D01*
X114209203Y-70039696D01*
X114019278Y-70072331D01*
X113833056Y-70141032D01*
X113662472Y-70242518D01*
X113513239Y-70373392D01*
X113509664Y-70377927D01*
X113509663Y-70377928D01*
X113496801Y-70394243D01*
X113390355Y-70529270D01*
X113387666Y-70534381D01*
X113387664Y-70534384D01*
X113343663Y-70618016D01*
X113297935Y-70704931D01*
X113239075Y-70894493D01*
X113215745Y-71091608D01*
X113216123Y-71097374D01*
X113221342Y-71176998D01*
X113205838Y-71246281D01*
X113155339Y-71296184D01*
X113085876Y-71310862D01*
X113019504Y-71285656D01*
X113006517Y-71274334D01*
X112928405Y-71196222D01*
X112894379Y-71133910D01*
X112891500Y-71107127D01*
X112891500Y-68551608D01*
X113215745Y-68551608D01*
X113228727Y-68749673D01*
X113277586Y-68942056D01*
X113360685Y-69122313D01*
X113475243Y-69284409D01*
X113617422Y-69422913D01*
X113782461Y-69533189D01*
X113787764Y-69535467D01*
X113787767Y-69535469D01*
X113948104Y-69604355D01*
X113964832Y-69611542D01*
X114025762Y-69625329D01*
X114152791Y-69654073D01*
X114152796Y-69654074D01*
X114158428Y-69655348D01*
X114164199Y-69655575D01*
X114164201Y-69655575D01*
X114223262Y-69657895D01*
X114356765Y-69663141D01*
X114454983Y-69648900D01*
X114547487Y-69635488D01*
X114547492Y-69635487D01*
X114553201Y-69634659D01*
X114580687Y-69625329D01*
X114735690Y-69572712D01*
X114741158Y-69570856D01*
X114914339Y-69473870D01*
X115066947Y-69346947D01*
X115193870Y-69194339D01*
X115290856Y-69021158D01*
X115354659Y-68833201D01*
X115355487Y-68827492D01*
X115355488Y-68827487D01*
X115379301Y-68663246D01*
X115383141Y-68636765D01*
X115384627Y-68580000D01*
X115382018Y-68551608D01*
X115755745Y-68551608D01*
X115768727Y-68749673D01*
X115817586Y-68942056D01*
X115900685Y-69122313D01*
X116015243Y-69284409D01*
X116157422Y-69422913D01*
X116322461Y-69533189D01*
X116327764Y-69535467D01*
X116327767Y-69535469D01*
X116488104Y-69604355D01*
X116504832Y-69611542D01*
X116565762Y-69625329D01*
X116692791Y-69654073D01*
X116692796Y-69654074D01*
X116698428Y-69655348D01*
X116704199Y-69655575D01*
X116704201Y-69655575D01*
X116763262Y-69657895D01*
X116896765Y-69663141D01*
X116994983Y-69648900D01*
X117087487Y-69635488D01*
X117087492Y-69635487D01*
X117093201Y-69634659D01*
X117120687Y-69625329D01*
X117275690Y-69572712D01*
X117281158Y-69570856D01*
X117454339Y-69473870D01*
X117606947Y-69346947D01*
X117733870Y-69194339D01*
X117830856Y-69021158D01*
X117894659Y-68833201D01*
X117895487Y-68827492D01*
X117895488Y-68827487D01*
X117919301Y-68663246D01*
X117923141Y-68636765D01*
X117924627Y-68580000D01*
X117922018Y-68551608D01*
X118295745Y-68551608D01*
X118308727Y-68749673D01*
X118357586Y-68942056D01*
X118440685Y-69122313D01*
X118555243Y-69284409D01*
X118697422Y-69422913D01*
X118862461Y-69533189D01*
X118867764Y-69535467D01*
X118867767Y-69535469D01*
X119028104Y-69604355D01*
X119044832Y-69611542D01*
X119105762Y-69625329D01*
X119232791Y-69654073D01*
X119232796Y-69654074D01*
X119238428Y-69655348D01*
X119244199Y-69655575D01*
X119244201Y-69655575D01*
X119303262Y-69657895D01*
X119436765Y-69663141D01*
X119534983Y-69648900D01*
X119627487Y-69635488D01*
X119627492Y-69635487D01*
X119633201Y-69634659D01*
X119660687Y-69625329D01*
X119815690Y-69572712D01*
X119821158Y-69570856D01*
X119994339Y-69473870D01*
X120146947Y-69346947D01*
X120273870Y-69194339D01*
X120370856Y-69021158D01*
X120434659Y-68833201D01*
X120435487Y-68827492D01*
X120435488Y-68827487D01*
X120459301Y-68663246D01*
X120463141Y-68636765D01*
X120464627Y-68580000D01*
X120462018Y-68551608D01*
X120835745Y-68551608D01*
X120848727Y-68749673D01*
X120897586Y-68942056D01*
X120980685Y-69122313D01*
X121095243Y-69284409D01*
X121237422Y-69422913D01*
X121402461Y-69533189D01*
X121407764Y-69535467D01*
X121407767Y-69535469D01*
X121568104Y-69604355D01*
X121584832Y-69611542D01*
X121645762Y-69625329D01*
X121772791Y-69654073D01*
X121772796Y-69654074D01*
X121778428Y-69655348D01*
X121784199Y-69655575D01*
X121784201Y-69655575D01*
X121843262Y-69657895D01*
X121976765Y-69663141D01*
X122074983Y-69648900D01*
X122167487Y-69635488D01*
X122167492Y-69635487D01*
X122173201Y-69634659D01*
X122200687Y-69625329D01*
X122355690Y-69572712D01*
X122361158Y-69570856D01*
X122534339Y-69473870D01*
X122686947Y-69346947D01*
X122813870Y-69194339D01*
X122910856Y-69021158D01*
X122974659Y-68833201D01*
X122975487Y-68827492D01*
X122975488Y-68827487D01*
X122999301Y-68663246D01*
X123003141Y-68636765D01*
X123004627Y-68580000D01*
X122986465Y-68382342D01*
X122981593Y-68365065D01*
X122962334Y-68296779D01*
X122932587Y-68191304D01*
X122844797Y-68013284D01*
X122726035Y-67854243D01*
X122721799Y-67850327D01*
X122584520Y-67723428D01*
X122584518Y-67723426D01*
X122580279Y-67719508D01*
X122412410Y-67613590D01*
X122407050Y-67611452D01*
X122407047Y-67611450D01*
X122320230Y-67576814D01*
X122228051Y-67540038D01*
X122222394Y-67538913D01*
X122222388Y-67538911D01*
X122039041Y-67502442D01*
X122039039Y-67502442D01*
X122033374Y-67501315D01*
X122027599Y-67501239D01*
X122027595Y-67501239D01*
X121928638Y-67499944D01*
X121834901Y-67498717D01*
X121829204Y-67499696D01*
X121829203Y-67499696D01*
X121644975Y-67531352D01*
X121639278Y-67532331D01*
X121453056Y-67601032D01*
X121282472Y-67702518D01*
X121133239Y-67833392D01*
X121129664Y-67837927D01*
X121129663Y-67837928D01*
X121117589Y-67853244D01*
X121010355Y-67989270D01*
X121007666Y-67994381D01*
X121007664Y-67994384D01*
X120960989Y-68083098D01*
X120917935Y-68164931D01*
X120859075Y-68354493D01*
X120835745Y-68551608D01*
X120462018Y-68551608D01*
X120446465Y-68382342D01*
X120441593Y-68365065D01*
X120422334Y-68296779D01*
X120392587Y-68191304D01*
X120304797Y-68013284D01*
X120186035Y-67854243D01*
X120181799Y-67850327D01*
X120044520Y-67723428D01*
X120044518Y-67723426D01*
X120040279Y-67719508D01*
X119872410Y-67613590D01*
X119867050Y-67611452D01*
X119867047Y-67611450D01*
X119780230Y-67576814D01*
X119688051Y-67540038D01*
X119682394Y-67538913D01*
X119682388Y-67538911D01*
X119499041Y-67502442D01*
X119499039Y-67502442D01*
X119493374Y-67501315D01*
X119487599Y-67501239D01*
X119487595Y-67501239D01*
X119388638Y-67499944D01*
X119294901Y-67498717D01*
X119289204Y-67499696D01*
X119289203Y-67499696D01*
X119104975Y-67531352D01*
X119099278Y-67532331D01*
X118913056Y-67601032D01*
X118742472Y-67702518D01*
X118593239Y-67833392D01*
X118589664Y-67837927D01*
X118589663Y-67837928D01*
X118577589Y-67853244D01*
X118470355Y-67989270D01*
X118467666Y-67994381D01*
X118467664Y-67994384D01*
X118420989Y-68083098D01*
X118377935Y-68164931D01*
X118319075Y-68354493D01*
X118295745Y-68551608D01*
X117922018Y-68551608D01*
X117906465Y-68382342D01*
X117901593Y-68365065D01*
X117882334Y-68296779D01*
X117852587Y-68191304D01*
X117764797Y-68013284D01*
X117646035Y-67854243D01*
X117641799Y-67850327D01*
X117504520Y-67723428D01*
X117504518Y-67723426D01*
X117500279Y-67719508D01*
X117332410Y-67613590D01*
X117327050Y-67611452D01*
X117327047Y-67611450D01*
X117240230Y-67576814D01*
X117148051Y-67540038D01*
X117142394Y-67538913D01*
X117142388Y-67538911D01*
X116959041Y-67502442D01*
X116959039Y-67502442D01*
X116953374Y-67501315D01*
X116947599Y-67501239D01*
X116947595Y-67501239D01*
X116848638Y-67499944D01*
X116754901Y-67498717D01*
X116749204Y-67499696D01*
X116749203Y-67499696D01*
X116564975Y-67531352D01*
X116559278Y-67532331D01*
X116373056Y-67601032D01*
X116202472Y-67702518D01*
X116053239Y-67833392D01*
X116049664Y-67837927D01*
X116049663Y-67837928D01*
X116037589Y-67853244D01*
X115930355Y-67989270D01*
X115927666Y-67994381D01*
X115927664Y-67994384D01*
X115880989Y-68083098D01*
X115837935Y-68164931D01*
X115779075Y-68354493D01*
X115755745Y-68551608D01*
X115382018Y-68551608D01*
X115366465Y-68382342D01*
X115361593Y-68365065D01*
X115342334Y-68296779D01*
X115312587Y-68191304D01*
X115224797Y-68013284D01*
X115106035Y-67854243D01*
X115101799Y-67850327D01*
X114964520Y-67723428D01*
X114964518Y-67723426D01*
X114960279Y-67719508D01*
X114792410Y-67613590D01*
X114787050Y-67611452D01*
X114787047Y-67611450D01*
X114700230Y-67576814D01*
X114608051Y-67540038D01*
X114602394Y-67538913D01*
X114602388Y-67538911D01*
X114419041Y-67502442D01*
X114419039Y-67502442D01*
X114413374Y-67501315D01*
X114407599Y-67501239D01*
X114407595Y-67501239D01*
X114308638Y-67499944D01*
X114214901Y-67498717D01*
X114209204Y-67499696D01*
X114209203Y-67499696D01*
X114024975Y-67531352D01*
X114019278Y-67532331D01*
X113833056Y-67601032D01*
X113662472Y-67702518D01*
X113513239Y-67833392D01*
X113509664Y-67837927D01*
X113509663Y-67837928D01*
X113497589Y-67853244D01*
X113390355Y-67989270D01*
X113387666Y-67994381D01*
X113387664Y-67994384D01*
X113340989Y-68083098D01*
X113297935Y-68164931D01*
X113239075Y-68354493D01*
X113215745Y-68551608D01*
X112891500Y-68551608D01*
X112891500Y-65544873D01*
X112911502Y-65476752D01*
X112928405Y-65455778D01*
X113004905Y-65379278D01*
X113067217Y-65345252D01*
X113138032Y-65350317D01*
X113194868Y-65392864D01*
X113219679Y-65459384D01*
X113220000Y-65468373D01*
X113220000Y-66774658D01*
X113220670Y-66779206D01*
X113220670Y-66779213D01*
X113229612Y-66839959D01*
X113231038Y-66849644D01*
X113287013Y-66963651D01*
X113376899Y-67053380D01*
X113491003Y-67109155D01*
X113523784Y-67113937D01*
X113560816Y-67119340D01*
X113560820Y-67119340D01*
X113565342Y-67120000D01*
X115034658Y-67120000D01*
X115039206Y-67119330D01*
X115039213Y-67119330D01*
X115099959Y-67110388D01*
X115099961Y-67110387D01*
X115109644Y-67108962D01*
X115118433Y-67104647D01*
X115214303Y-67057577D01*
X115214304Y-67057576D01*
X115223651Y-67052987D01*
X115313380Y-66963101D01*
X115326291Y-66936689D01*
X115351007Y-66886123D01*
X115369155Y-66848997D01*
X115374751Y-66810638D01*
X115379340Y-66779184D01*
X115379340Y-66779180D01*
X115380000Y-66774658D01*
X115380000Y-66011608D01*
X115755745Y-66011608D01*
X115768727Y-66209673D01*
X115817586Y-66402056D01*
X115900685Y-66582313D01*
X116015243Y-66744409D01*
X116157422Y-66882913D01*
X116322461Y-66993189D01*
X116327764Y-66995467D01*
X116327767Y-66995469D01*
X116473205Y-67057954D01*
X116504832Y-67071542D01*
X116575905Y-67087624D01*
X116692791Y-67114073D01*
X116692796Y-67114074D01*
X116698428Y-67115348D01*
X116704199Y-67115575D01*
X116704201Y-67115575D01*
X116763262Y-67117895D01*
X116896765Y-67123141D01*
X116994983Y-67108900D01*
X117087487Y-67095488D01*
X117087492Y-67095487D01*
X117093201Y-67094659D01*
X117281158Y-67030856D01*
X117454339Y-66933870D01*
X117606947Y-66806947D01*
X117733870Y-66654339D01*
X117830856Y-66481158D01*
X117894659Y-66293201D01*
X117895487Y-66287492D01*
X117895488Y-66287487D01*
X117922608Y-66100438D01*
X117923141Y-66096765D01*
X117924627Y-66040000D01*
X117922018Y-66011608D01*
X118295745Y-66011608D01*
X118308727Y-66209673D01*
X118357586Y-66402056D01*
X118440685Y-66582313D01*
X118555243Y-66744409D01*
X118697422Y-66882913D01*
X118862461Y-66993189D01*
X118867764Y-66995467D01*
X118867767Y-66995469D01*
X119013205Y-67057954D01*
X119044832Y-67071542D01*
X119115905Y-67087624D01*
X119232791Y-67114073D01*
X119232796Y-67114074D01*
X119238428Y-67115348D01*
X119244199Y-67115575D01*
X119244201Y-67115575D01*
X119303262Y-67117895D01*
X119436765Y-67123141D01*
X119534983Y-67108900D01*
X119627487Y-67095488D01*
X119627492Y-67095487D01*
X119633201Y-67094659D01*
X119821158Y-67030856D01*
X119994339Y-66933870D01*
X120146947Y-66806947D01*
X120273870Y-66654339D01*
X120370856Y-66481158D01*
X120434659Y-66293201D01*
X120435487Y-66287492D01*
X120435488Y-66287487D01*
X120462608Y-66100438D01*
X120463141Y-66096765D01*
X120464627Y-66040000D01*
X120446465Y-65842342D01*
X120392587Y-65651304D01*
X120304797Y-65473284D01*
X120186035Y-65314243D01*
X120176406Y-65305342D01*
X120044520Y-65183428D01*
X120044518Y-65183426D01*
X120040279Y-65179508D01*
X119940179Y-65116349D01*
X119877290Y-65076669D01*
X119877289Y-65076669D01*
X119872410Y-65073590D01*
X119867050Y-65071452D01*
X119867047Y-65071450D01*
X119743214Y-65022046D01*
X119688051Y-65000038D01*
X119682394Y-64998913D01*
X119682388Y-64998911D01*
X119499041Y-64962442D01*
X119499039Y-64962442D01*
X119493374Y-64961315D01*
X119487599Y-64961239D01*
X119487595Y-64961239D01*
X119388638Y-64959944D01*
X119294901Y-64958717D01*
X119289204Y-64959696D01*
X119289203Y-64959696D01*
X119104975Y-64991352D01*
X119099278Y-64992331D01*
X118913056Y-65061032D01*
X118742472Y-65162518D01*
X118593239Y-65293392D01*
X118589664Y-65297927D01*
X118589663Y-65297928D01*
X118576801Y-65314243D01*
X118470355Y-65449270D01*
X118467666Y-65454381D01*
X118467664Y-65454384D01*
X118447515Y-65492682D01*
X118377935Y-65624931D01*
X118319075Y-65814493D01*
X118295745Y-66011608D01*
X117922018Y-66011608D01*
X117906465Y-65842342D01*
X117852587Y-65651304D01*
X117764797Y-65473284D01*
X117646035Y-65314243D01*
X117636406Y-65305342D01*
X117504520Y-65183428D01*
X117504518Y-65183426D01*
X117500279Y-65179508D01*
X117400179Y-65116349D01*
X117337290Y-65076669D01*
X117337289Y-65076669D01*
X117332410Y-65073590D01*
X117327050Y-65071452D01*
X117327047Y-65071450D01*
X117203214Y-65022046D01*
X117148051Y-65000038D01*
X117142394Y-64998913D01*
X117142388Y-64998911D01*
X116959041Y-64962442D01*
X116959039Y-64962442D01*
X116953374Y-64961315D01*
X116947599Y-64961239D01*
X116947595Y-64961239D01*
X116848638Y-64959944D01*
X116754901Y-64958717D01*
X116749204Y-64959696D01*
X116749203Y-64959696D01*
X116564975Y-64991352D01*
X116559278Y-64992331D01*
X116373056Y-65061032D01*
X116202472Y-65162518D01*
X116053239Y-65293392D01*
X116049664Y-65297927D01*
X116049663Y-65297928D01*
X116036801Y-65314243D01*
X115930355Y-65449270D01*
X115927666Y-65454381D01*
X115927664Y-65454384D01*
X115907515Y-65492682D01*
X115837935Y-65624931D01*
X115779075Y-65814493D01*
X115755745Y-66011608D01*
X115380000Y-66011608D01*
X115380000Y-65305342D01*
X115368962Y-65230356D01*
X115364647Y-65221567D01*
X115317577Y-65125697D01*
X115317576Y-65125696D01*
X115312987Y-65116349D01*
X115223101Y-65026620D01*
X115108997Y-64970845D01*
X115076216Y-64966063D01*
X115039184Y-64960660D01*
X115039180Y-64960660D01*
X115034658Y-64960000D01*
X113728374Y-64960000D01*
X113660253Y-64939998D01*
X113613760Y-64886342D01*
X113603656Y-64816068D01*
X113633150Y-64751488D01*
X113639279Y-64744905D01*
X113715779Y-64668405D01*
X113778091Y-64634379D01*
X113804874Y-64631500D01*
X165153946Y-64631500D01*
X165314935Y-64616140D01*
X165320691Y-64614451D01*
X165320693Y-64614451D01*
X165404229Y-64589944D01*
X165522114Y-64555361D01*
X165527442Y-64552617D01*
X165708732Y-64459247D01*
X165708735Y-64459245D01*
X165714063Y-64456501D01*
X165883854Y-64323128D01*
X166025362Y-64160054D01*
X166133480Y-63973164D01*
X166204308Y-63769201D01*
X166206628Y-63753201D01*
X166234429Y-63561465D01*
X166234429Y-63561462D01*
X166235290Y-63555525D01*
X166231406Y-63471608D01*
X166555745Y-63471608D01*
X166568727Y-63669673D01*
X166617586Y-63862056D01*
X166700685Y-64042313D01*
X166704018Y-64047029D01*
X166789435Y-64167891D01*
X166815243Y-64204409D01*
X166819385Y-64208444D01*
X166874885Y-64262509D01*
X166957422Y-64342913D01*
X166962226Y-64346123D01*
X167033684Y-64393870D01*
X167122461Y-64453189D01*
X167127764Y-64455467D01*
X167127767Y-64455469D01*
X167299525Y-64529262D01*
X167304832Y-64531542D01*
X167355633Y-64543037D01*
X167492791Y-64574073D01*
X167492796Y-64574074D01*
X167498428Y-64575348D01*
X167504199Y-64575575D01*
X167504201Y-64575575D01*
X167563262Y-64577895D01*
X167696765Y-64583141D01*
X167807301Y-64567114D01*
X167887487Y-64555488D01*
X167887492Y-64555487D01*
X167893201Y-64554659D01*
X168081158Y-64490856D01*
X168254339Y-64393870D01*
X168262898Y-64386752D01*
X168402509Y-64270638D01*
X168406947Y-64266947D01*
X168533870Y-64114339D01*
X168630856Y-63941158D01*
X168694659Y-63753201D01*
X168695487Y-63747492D01*
X168695488Y-63747487D01*
X168721644Y-63567088D01*
X168723141Y-63556765D01*
X168724627Y-63500000D01*
X168722018Y-63471608D01*
X169095745Y-63471608D01*
X169108727Y-63669673D01*
X169157586Y-63862056D01*
X169240685Y-64042313D01*
X169244018Y-64047029D01*
X169329435Y-64167891D01*
X169355243Y-64204409D01*
X169359385Y-64208444D01*
X169414885Y-64262509D01*
X169497422Y-64342913D01*
X169502226Y-64346123D01*
X169573684Y-64393870D01*
X169662461Y-64453189D01*
X169667764Y-64455467D01*
X169667767Y-64455469D01*
X169839525Y-64529262D01*
X169844832Y-64531542D01*
X169895633Y-64543037D01*
X170032791Y-64574073D01*
X170032796Y-64574074D01*
X170038428Y-64575348D01*
X170044199Y-64575575D01*
X170044201Y-64575575D01*
X170103262Y-64577895D01*
X170236765Y-64583141D01*
X170347301Y-64567114D01*
X170427487Y-64555488D01*
X170427492Y-64555487D01*
X170433201Y-64554659D01*
X170621158Y-64490856D01*
X170794339Y-64393870D01*
X170802898Y-64386752D01*
X170942509Y-64270638D01*
X170946947Y-64266947D01*
X171073870Y-64114339D01*
X171170856Y-63941158D01*
X171234659Y-63753201D01*
X171235487Y-63747492D01*
X171235488Y-63747487D01*
X171261644Y-63567088D01*
X171263141Y-63556765D01*
X171264627Y-63500000D01*
X171246465Y-63302342D01*
X171238368Y-63273630D01*
X171199489Y-63135777D01*
X171192587Y-63111304D01*
X171104797Y-62933284D01*
X170986035Y-62774243D01*
X170972982Y-62762177D01*
X170844520Y-62643428D01*
X170844518Y-62643426D01*
X170840279Y-62639508D01*
X170672410Y-62533590D01*
X170667050Y-62531452D01*
X170667047Y-62531450D01*
X170555150Y-62486808D01*
X170488051Y-62460038D01*
X170482394Y-62458913D01*
X170482388Y-62458911D01*
X170299041Y-62422442D01*
X170299039Y-62422442D01*
X170293374Y-62421315D01*
X170287599Y-62421239D01*
X170287595Y-62421239D01*
X170188638Y-62419944D01*
X170094901Y-62418717D01*
X170089204Y-62419696D01*
X170089203Y-62419696D01*
X169953872Y-62442950D01*
X169899278Y-62452331D01*
X169713056Y-62521032D01*
X169708094Y-62523984D01*
X169704428Y-62526165D01*
X169542472Y-62622518D01*
X169393239Y-62753392D01*
X169389664Y-62757927D01*
X169389663Y-62757928D01*
X169376801Y-62774243D01*
X169270355Y-62909270D01*
X169267666Y-62914381D01*
X169267664Y-62914384D01*
X169254792Y-62938850D01*
X169177935Y-63084931D01*
X169119075Y-63274493D01*
X169095745Y-63471608D01*
X168722018Y-63471608D01*
X168706465Y-63302342D01*
X168698368Y-63273630D01*
X168659489Y-63135777D01*
X168652587Y-63111304D01*
X168564797Y-62933284D01*
X168446035Y-62774243D01*
X168432982Y-62762177D01*
X168304520Y-62643428D01*
X168304518Y-62643426D01*
X168300279Y-62639508D01*
X168132410Y-62533590D01*
X168127050Y-62531452D01*
X168127047Y-62531450D01*
X168015150Y-62486808D01*
X167948051Y-62460038D01*
X167942394Y-62458913D01*
X167942388Y-62458911D01*
X167759041Y-62422442D01*
X167759039Y-62422442D01*
X167753374Y-62421315D01*
X167747599Y-62421239D01*
X167747595Y-62421239D01*
X167648638Y-62419944D01*
X167554901Y-62418717D01*
X167549204Y-62419696D01*
X167549203Y-62419696D01*
X167413872Y-62442950D01*
X167359278Y-62452331D01*
X167173056Y-62521032D01*
X167168094Y-62523984D01*
X167164428Y-62526165D01*
X167002472Y-62622518D01*
X166853239Y-62753392D01*
X166849664Y-62757927D01*
X166849663Y-62757928D01*
X166836801Y-62774243D01*
X166730355Y-62909270D01*
X166727666Y-62914381D01*
X166727664Y-62914384D01*
X166714792Y-62938850D01*
X166637935Y-63084931D01*
X166579075Y-63274493D01*
X166555745Y-63471608D01*
X166231406Y-63471608D01*
X166225307Y-63339845D01*
X166191189Y-63198278D01*
X166176127Y-63135777D01*
X166176126Y-63135775D01*
X166174721Y-63129944D01*
X166168777Y-63116869D01*
X166087836Y-62938850D01*
X166085356Y-62933395D01*
X165960436Y-62757291D01*
X165818770Y-62621675D01*
X165808800Y-62612131D01*
X165804470Y-62607986D01*
X165623085Y-62490867D01*
X165515190Y-62447384D01*
X165428391Y-62412403D01*
X165428390Y-62412403D01*
X165422825Y-62410160D01*
X165210917Y-62368778D01*
X165205233Y-62368500D01*
X113390195Y-62368500D01*
X113379158Y-62367568D01*
X113379137Y-62367851D01*
X113373163Y-62367412D01*
X113367245Y-62366406D01*
X113272652Y-62368470D01*
X113269903Y-62368500D01*
X113230054Y-62368500D01*
X113227074Y-62368784D01*
X113227059Y-62368785D01*
X113222427Y-62369227D01*
X113213211Y-62369767D01*
X113184541Y-62370392D01*
X113157384Y-62370985D01*
X113157383Y-62370985D01*
X113151386Y-62371116D01*
X113145527Y-62372377D01*
X113145522Y-62372378D01*
X113117803Y-62378346D01*
X113103252Y-62380598D01*
X113075035Y-62383290D01*
X113075031Y-62383291D01*
X113069065Y-62383860D01*
X113009695Y-62401276D01*
X113000794Y-62403537D01*
X112940312Y-62416559D01*
X112908704Y-62430008D01*
X112894845Y-62434970D01*
X112861886Y-62444639D01*
X112806892Y-62472963D01*
X112798550Y-62476879D01*
X112747159Y-62498745D01*
X112747152Y-62498749D01*
X112741638Y-62501095D01*
X112736667Y-62504442D01*
X112736661Y-62504445D01*
X112713146Y-62520277D01*
X112700471Y-62527773D01*
X112675268Y-62540753D01*
X112675265Y-62540755D01*
X112669937Y-62543499D01*
X112665222Y-62547203D01*
X112621297Y-62581706D01*
X112613834Y-62587138D01*
X112562535Y-62621675D01*
X112558319Y-62625498D01*
X112537181Y-62646636D01*
X112525919Y-62656627D01*
X112500146Y-62676872D01*
X112496215Y-62681402D01*
X112496214Y-62681403D01*
X112458447Y-62724926D01*
X112452376Y-62731441D01*
X111035007Y-64148810D01*
X111026538Y-64155961D01*
X111026722Y-64156175D01*
X111022177Y-64160098D01*
X111017291Y-64163564D01*
X111013149Y-64167891D01*
X110951817Y-64231959D01*
X110949894Y-64233923D01*
X110921763Y-64262054D01*
X110919851Y-64264370D01*
X110919846Y-64264375D01*
X110916889Y-64267956D01*
X110910749Y-64274859D01*
X110867986Y-64319530D01*
X110864734Y-64324566D01*
X110864732Y-64324569D01*
X110849351Y-64348391D01*
X110840653Y-64360275D01*
X110818788Y-64386752D01*
X110815910Y-64392020D01*
X110789141Y-64441016D01*
X110784419Y-64448953D01*
X110750867Y-64500915D01*
X110748622Y-64506486D01*
X110738028Y-64532772D01*
X110731735Y-64546084D01*
X110718147Y-64570955D01*
X110715267Y-64576227D01*
X110702491Y-64616140D01*
X110696414Y-64635124D01*
X110693278Y-64643809D01*
X110672402Y-64695609D01*
X110672399Y-64695619D01*
X110670160Y-64701175D01*
X110664480Y-64730259D01*
X110663576Y-64734889D01*
X110659914Y-64749149D01*
X110651273Y-64776144D01*
X110651272Y-64776151D01*
X110649444Y-64781860D01*
X110644483Y-64823153D01*
X110642067Y-64843264D01*
X110640631Y-64852382D01*
X110634000Y-64886342D01*
X110628778Y-64913083D01*
X110628500Y-64918767D01*
X110628500Y-64948661D01*
X110627601Y-64963688D01*
X110623692Y-64996229D01*
X110624115Y-65002204D01*
X110624115Y-65002208D01*
X110628185Y-65059682D01*
X110628500Y-65068582D01*
X110628500Y-71521798D01*
X110627568Y-71532841D01*
X110627850Y-71532862D01*
X110627411Y-71538836D01*
X110626405Y-71544754D01*
X110626536Y-71550755D01*
X110628470Y-71639393D01*
X110628500Y-71642142D01*
X110628500Y-71681946D01*
X110629227Y-71689563D01*
X110629766Y-71698766D01*
X110631115Y-71760614D01*
X110632377Y-71766474D01*
X110632377Y-71766477D01*
X110638347Y-71794206D01*
X110640599Y-71808757D01*
X110643860Y-71842935D01*
X110645547Y-71848687D01*
X110645548Y-71848690D01*
X110661267Y-71902270D01*
X110663540Y-71911221D01*
X110676558Y-71971688D01*
X110678905Y-71977204D01*
X110678906Y-71977207D01*
X110690009Y-72003301D01*
X110694968Y-72017150D01*
X110704639Y-72050114D01*
X110707386Y-72055448D01*
X110707387Y-72055450D01*
X110732956Y-72105095D01*
X110736879Y-72113452D01*
X110761095Y-72170362D01*
X110764446Y-72175339D01*
X110780277Y-72198854D01*
X110787773Y-72211529D01*
X110803499Y-72242063D01*
X110807203Y-72246778D01*
X110841706Y-72290703D01*
X110847138Y-72298166D01*
X110881675Y-72349465D01*
X110885498Y-72353680D01*
X110886574Y-72354756D01*
X110906640Y-72374823D01*
X110916626Y-72386081D01*
X110936872Y-72411854D01*
X110941402Y-72415785D01*
X110941403Y-72415786D01*
X110984934Y-72453560D01*
X110991449Y-72459631D01*
X115567776Y-77035958D01*
X115601802Y-77098270D01*
X115596737Y-77169085D01*
X115567776Y-77214148D01*
X115178970Y-77602954D01*
X115170728Y-77610454D01*
X115164268Y-77614554D01*
X115158843Y-77620331D01*
X115117802Y-77664035D01*
X115115047Y-77666877D01*
X115095369Y-77686555D01*
X115092909Y-77689727D01*
X115085209Y-77698743D01*
X115055045Y-77730864D01*
X115045330Y-77748535D01*
X115034484Y-77765047D01*
X115022121Y-77780985D01*
X115022121Y-77780986D01*
X115019890Y-77779255D01*
X114977838Y-77818514D01*
X114907987Y-77831215D01*
X114854048Y-77812480D01*
X114797298Y-77776673D01*
X114797289Y-77776668D01*
X114792410Y-77773590D01*
X114787050Y-77771452D01*
X114787047Y-77771450D01*
X114675150Y-77726808D01*
X114608051Y-77700038D01*
X114602394Y-77698913D01*
X114602388Y-77698911D01*
X114419041Y-77662442D01*
X114419039Y-77662442D01*
X114413374Y-77661315D01*
X114407599Y-77661239D01*
X114407595Y-77661239D01*
X114308638Y-77659944D01*
X114214901Y-77658717D01*
X114209204Y-77659696D01*
X114209203Y-77659696D01*
X114024975Y-77691352D01*
X114019278Y-77692331D01*
X113833056Y-77761032D01*
X113828094Y-77763984D01*
X113815545Y-77771450D01*
X113662472Y-77862518D01*
X113513239Y-77993392D01*
X113509664Y-77997927D01*
X113509663Y-77997928D01*
X113496801Y-78014243D01*
X113390355Y-78149270D01*
X113387666Y-78154381D01*
X113387664Y-78154384D01*
X113340989Y-78243098D01*
X113297935Y-78324931D01*
X113239075Y-78514493D01*
X113215745Y-78711608D01*
X113228727Y-78909673D01*
X113277586Y-79102056D01*
X113360685Y-79282313D01*
X113364018Y-79287029D01*
X113436902Y-79390157D01*
X113475243Y-79444409D01*
X113617422Y-79582913D01*
X113782461Y-79693189D01*
X113787764Y-79695467D01*
X113787767Y-79695469D01*
X113949901Y-79765127D01*
X113964832Y-79771542D01*
X114007749Y-79781253D01*
X114152791Y-79814073D01*
X114152796Y-79814074D01*
X114158428Y-79815348D01*
X114164199Y-79815575D01*
X114164201Y-79815575D01*
X114223262Y-79817895D01*
X114356765Y-79823141D01*
X114467301Y-79807114D01*
X114547487Y-79795488D01*
X114547492Y-79795487D01*
X114553201Y-79794659D01*
X114566096Y-79790282D01*
X114687307Y-79749136D01*
X114741158Y-79730856D01*
X114746192Y-79728037D01*
X114746196Y-79728035D01*
X114861545Y-79663436D01*
X114930754Y-79647602D01*
X114997536Y-79671699D01*
X115025047Y-79699308D01*
X115026229Y-79700934D01*
X115038104Y-79717279D01*
X115044622Y-79727202D01*
X115067051Y-79765127D01*
X115081307Y-79779383D01*
X115094148Y-79794417D01*
X115099386Y-79801627D01*
X115105998Y-79810727D01*
X115139943Y-79838809D01*
X115148722Y-79846798D01*
X115682141Y-80380217D01*
X115716167Y-80442529D01*
X115716711Y-80493459D01*
X115708778Y-80534083D01*
X115708500Y-80539767D01*
X115708500Y-82443798D01*
X115707568Y-82454841D01*
X115707850Y-82454862D01*
X115707411Y-82460836D01*
X115706405Y-82466754D01*
X115706536Y-82472755D01*
X115708470Y-82561393D01*
X115708500Y-82564142D01*
X115708500Y-82603946D01*
X115709227Y-82611563D01*
X115709766Y-82620766D01*
X115711115Y-82682614D01*
X115712377Y-82688474D01*
X115712377Y-82688477D01*
X115718347Y-82716206D01*
X115720599Y-82730757D01*
X115723860Y-82764935D01*
X115725547Y-82770687D01*
X115725548Y-82770690D01*
X115741267Y-82824270D01*
X115743540Y-82833221D01*
X115756558Y-82893688D01*
X115758905Y-82899204D01*
X115758906Y-82899207D01*
X115770009Y-82925301D01*
X115774968Y-82939150D01*
X115784639Y-82972114D01*
X115787386Y-82977448D01*
X115787387Y-82977450D01*
X115812956Y-83027095D01*
X115816879Y-83035452D01*
X115825518Y-83055754D01*
X115841095Y-83092362D01*
X115855646Y-83113975D01*
X115860277Y-83120854D01*
X115867773Y-83133529D01*
X115883499Y-83164063D01*
X115887203Y-83168778D01*
X115921706Y-83212703D01*
X115927138Y-83220166D01*
X115961675Y-83271465D01*
X115965498Y-83275680D01*
X115986633Y-83296815D01*
X115996624Y-83308077D01*
X116013166Y-83329137D01*
X116013170Y-83329142D01*
X116016872Y-83333854D01*
X116021402Y-83337785D01*
X116021403Y-83337786D01*
X116064934Y-83375560D01*
X116071449Y-83381631D01*
X117564722Y-84874905D01*
X117598748Y-84937217D01*
X117593683Y-85008033D01*
X117551136Y-85064868D01*
X117484616Y-85089679D01*
X117475627Y-85090000D01*
X109907190Y-85090000D01*
X109839069Y-85069998D01*
X109818095Y-85053095D01*
X109637905Y-84872905D01*
X109603879Y-84810593D01*
X109601000Y-84783810D01*
X109601000Y-79474658D01*
X110680000Y-79474658D01*
X110680670Y-79479206D01*
X110680670Y-79479213D01*
X110689612Y-79539959D01*
X110691038Y-79549644D01*
X110695353Y-79558432D01*
X110695353Y-79558433D01*
X110738073Y-79645442D01*
X110747013Y-79663651D01*
X110836899Y-79753380D01*
X110846255Y-79757953D01*
X110846256Y-79757954D01*
X110874055Y-79771542D01*
X110951003Y-79809155D01*
X110983784Y-79813937D01*
X111020816Y-79819340D01*
X111020820Y-79819340D01*
X111025342Y-79820000D01*
X112494658Y-79820000D01*
X112499206Y-79819330D01*
X112499213Y-79819330D01*
X112559959Y-79810388D01*
X112559961Y-79810387D01*
X112569644Y-79808962D01*
X112595527Y-79796254D01*
X112674303Y-79757577D01*
X112674304Y-79757576D01*
X112683651Y-79752987D01*
X112773380Y-79663101D01*
X112778258Y-79653123D01*
X112811655Y-79584798D01*
X112829155Y-79548997D01*
X112834751Y-79510638D01*
X112839340Y-79479184D01*
X112839340Y-79479180D01*
X112840000Y-79474658D01*
X112840000Y-78005342D01*
X112830483Y-77940683D01*
X112830388Y-77940041D01*
X112830387Y-77940039D01*
X112828962Y-77930356D01*
X112811203Y-77894185D01*
X112777577Y-77825697D01*
X112777576Y-77825696D01*
X112772987Y-77816349D01*
X112683101Y-77726620D01*
X112666813Y-77718658D01*
X112626079Y-77698747D01*
X112568997Y-77670845D01*
X112518499Y-77663478D01*
X112499184Y-77660660D01*
X112499180Y-77660660D01*
X112494658Y-77660000D01*
X111025342Y-77660000D01*
X111020794Y-77660670D01*
X111020787Y-77660670D01*
X110960041Y-77669612D01*
X110960039Y-77669613D01*
X110950356Y-77671038D01*
X110941568Y-77675353D01*
X110941567Y-77675353D01*
X110845697Y-77722423D01*
X110845696Y-77722424D01*
X110836349Y-77727013D01*
X110746620Y-77816899D01*
X110742047Y-77826255D01*
X110742046Y-77826256D01*
X110729361Y-77852208D01*
X110690845Y-77931003D01*
X110689433Y-77940683D01*
X110680665Y-78000787D01*
X110680000Y-78005342D01*
X110680000Y-79474658D01*
X109601000Y-79474658D01*
X109601000Y-59432314D01*
X113652046Y-59432314D01*
X113661928Y-59444803D01*
X113717041Y-59481627D01*
X113727146Y-59487114D01*
X113920267Y-59570086D01*
X113931210Y-59573641D01*
X114136209Y-59620028D01*
X114147618Y-59621530D01*
X114357645Y-59629781D01*
X114369129Y-59629179D01*
X114577145Y-59599019D01*
X114588328Y-59596334D01*
X114787362Y-59528771D01*
X114797865Y-59524095D01*
X114940404Y-59444270D01*
X114950266Y-59434194D01*
X114949542Y-59432314D01*
X116192046Y-59432314D01*
X116201928Y-59444803D01*
X116257041Y-59481627D01*
X116267146Y-59487114D01*
X116460267Y-59570086D01*
X116471210Y-59573641D01*
X116676209Y-59620028D01*
X116687618Y-59621530D01*
X116897645Y-59629781D01*
X116909129Y-59629179D01*
X117117145Y-59599019D01*
X117128328Y-59596334D01*
X117327362Y-59528771D01*
X117337865Y-59524095D01*
X117480404Y-59444270D01*
X117490266Y-59434194D01*
X117489542Y-59432314D01*
X118732046Y-59432314D01*
X118741928Y-59444803D01*
X118797041Y-59481627D01*
X118807146Y-59487114D01*
X119000267Y-59570086D01*
X119011210Y-59573641D01*
X119216209Y-59620028D01*
X119227618Y-59621530D01*
X119437645Y-59629781D01*
X119449129Y-59629179D01*
X119657145Y-59599019D01*
X119668328Y-59596334D01*
X119867362Y-59528771D01*
X119877865Y-59524095D01*
X120020404Y-59444270D01*
X120030266Y-59434194D01*
X120027311Y-59426522D01*
X119392811Y-58792021D01*
X119378868Y-58784408D01*
X119377034Y-58784539D01*
X119370420Y-58788790D01*
X118738239Y-59420972D01*
X118732046Y-59432314D01*
X117489542Y-59432314D01*
X117487311Y-59426522D01*
X116852811Y-58792021D01*
X116838868Y-58784408D01*
X116837034Y-58784539D01*
X116830420Y-58788790D01*
X116198239Y-59420972D01*
X116192046Y-59432314D01*
X114949542Y-59432314D01*
X114947311Y-59426522D01*
X114312811Y-58792021D01*
X114298868Y-58784408D01*
X114297034Y-58784539D01*
X114290420Y-58788790D01*
X113658239Y-59420972D01*
X113652046Y-59432314D01*
X109601000Y-59432314D01*
X109601000Y-57824901D01*
X109602551Y-57805190D01*
X109604198Y-57794791D01*
X109605749Y-57784999D01*
X109604198Y-57775204D01*
X109604198Y-57774727D01*
X109605749Y-57755016D01*
X109606546Y-57749984D01*
X109641900Y-57680600D01*
X109750600Y-57571900D01*
X109819983Y-57536546D01*
X109825020Y-57535749D01*
X109844727Y-57534198D01*
X109845204Y-57534198D01*
X109854999Y-57535749D01*
X109875191Y-57532551D01*
X109894901Y-57531000D01*
X113204624Y-57531000D01*
X113272745Y-57551002D01*
G37*
%TD.AperFunction*%
%TD*%
M02*
