%TF.GenerationSoftware,KiCad,Pcbnew,(6.0.2)*%
%TF.CreationDate,2024-04-26T11:10:43-07:00*%
%TF.ProjectId,RTC8088,52544338-3038-4382-9e6b-696361645f70,3.0*%
%TF.SameCoordinates,Original*%
%TF.FileFunction,Copper,L1,Top*%
%TF.FilePolarity,Positive*%
%FSLAX46Y46*%
G04 Gerber Fmt 4.6, Leading zero omitted, Abs format (unit mm)*
G04 Created by KiCad (PCBNEW (6.0.2)) date 2024-04-26 11:10:43*
%MOMM*%
%LPD*%
G01*
G04 APERTURE LIST*
G04 Aperture macros list*
%AMRoundRect*
0 Rectangle with rounded corners*
0 $1 Rounding radius*
0 $2 $3 $4 $5 $6 $7 $8 $9 X,Y pos of 4 corners*
0 Add a 4 corners polygon primitive as box body*
4,1,4,$2,$3,$4,$5,$6,$7,$8,$9,$2,$3,0*
0 Add four circle primitives for the rounded corners*
1,1,$1+$1,$2,$3*
1,1,$1+$1,$4,$5*
1,1,$1+$1,$6,$7*
1,1,$1+$1,$8,$9*
0 Add four rect primitives between the rounded corners*
20,1,$1+$1,$2,$3,$4,$5,0*
20,1,$1+$1,$4,$5,$6,$7,0*
20,1,$1+$1,$6,$7,$8,$9,0*
20,1,$1+$1,$8,$9,$2,$3,0*%
G04 Aperture macros list end*
%TA.AperFunction,ConnectorPad*%
%ADD10RoundRect,0.444500X-0.444500X-3.619500X0.444500X-3.619500X0.444500X3.619500X-0.444500X3.619500X0*%
%TD*%
%TA.AperFunction,ComponentPad*%
%ADD11R,1.397000X1.397000*%
%TD*%
%TA.AperFunction,ComponentPad*%
%ADD12C,1.397000*%
%TD*%
%TA.AperFunction,ComponentPad*%
%ADD13C,1.524000*%
%TD*%
%TA.AperFunction,ViaPad*%
%ADD14C,0.800000*%
%TD*%
%TA.AperFunction,Conductor*%
%ADD15C,0.500000*%
%TD*%
%TA.AperFunction,Conductor*%
%ADD16C,1.500000*%
%TD*%
G04 APERTURE END LIST*
D10*
%TO.P,BUS1,62,SA0*%
%TO.N,/A0*%
X114300000Y-91122500D03*
%TO.P,BUS1,60,SA2*%
%TO.N,/A2*%
X119380000Y-91122500D03*
%TO.P,BUS1,59,SA3*%
%TO.N,/A3*%
X121920000Y-91122500D03*
%TO.P,BUS1,58,SA4*%
%TO.N,/A4*%
X124460000Y-91122500D03*
%TO.P,BUS1,57,SA5*%
%TO.N,/A5*%
X127000000Y-91122500D03*
%TO.P,BUS1,56,SA6*%
%TO.N,/A6*%
X129540000Y-91122500D03*
%TO.P,BUS1,55,SA7*%
%TO.N,/A7*%
X132080000Y-91122500D03*
%TO.P,BUS1,54,SA8*%
%TO.N,/A8*%
X134620000Y-91122500D03*
%TO.P,BUS1,53,SA9*%
%TO.N,/A9*%
X137160000Y-91122500D03*
%TO.P,BUS1,42,AEN*%
%TO.N,/AEN*%
X165100000Y-91122500D03*
%TO.P,BUS1,40,SD0*%
%TO.N,/D0*%
X170180000Y-91122500D03*
%TO.P,BUS1,39,SD1*%
%TO.N,/D1*%
X172720000Y-91122500D03*
%TO.P,BUS1,38,SD2*%
%TO.N,/D2*%
X175260000Y-91122500D03*
%TO.P,BUS1,37,SD3*%
%TO.N,/D3*%
X177800000Y-91122500D03*
%TO.P,BUS1,36,SD4*%
%TO.N,/D4*%
X180340000Y-91122500D03*
%TO.P,BUS1,35,SD5*%
%TO.N,/D5*%
X182880000Y-91122500D03*
%TO.P,BUS1,34,SD6*%
%TO.N,/D6*%
X185420000Y-91122500D03*
%TO.P,BUS1,33,SD7*%
%TO.N,/D7*%
X187960000Y-91122500D03*
%TD*%
D11*
%TO.P,RN1,1,common*%
%TO.N,VCC*%
X111760000Y-68580000D03*
D12*
%TO.P,RN1,2,R1*%
%TO.N,/AS0*%
X114300000Y-68580000D03*
%TO.P,RN1,3,R2*%
%TO.N,/AS1*%
X116840000Y-68580000D03*
%TO.P,RN1,4,R3*%
%TO.N,/AS2*%
X119380000Y-68580000D03*
%TO.P,RN1,5,R4*%
%TO.N,/~{IRQ}*%
X121920000Y-68580000D03*
%TD*%
D11*
%TO.P,SW1,1*%
%TO.N,/AS0*%
X114300000Y-66040000D03*
D12*
%TO.P,SW1,2*%
%TO.N,/AS1*%
X116840000Y-66040000D03*
%TO.P,SW1,3*%
%TO.N,/AS2*%
X119380000Y-66040000D03*
%TO.P,SW1,4*%
%TO.N,GND*%
X119380000Y-58420000D03*
%TO.P,SW1,5*%
X116840000Y-58420000D03*
%TO.P,SW1,6*%
X114300000Y-58420000D03*
%TD*%
D11*
%TO.P,U2,1,I/CLK*%
%TO.N,/A0*%
X111760000Y-78740000D03*
D12*
%TO.P,U2,2,I1*%
%TO.N,/A2*%
X114300000Y-78740000D03*
%TO.P,U2,3,I2*%
%TO.N,/A3*%
X116840000Y-78740000D03*
%TO.P,U2,4,I3*%
%TO.N,/A4*%
X119380000Y-78740000D03*
%TO.P,U2,5,I4*%
%TO.N,/A5*%
X121920000Y-78740000D03*
%TO.P,U2,6,I5*%
%TO.N,/A6*%
X124460000Y-78740000D03*
%TO.P,U2,7,I6*%
%TO.N,/A7*%
X127000000Y-78740000D03*
%TO.P,U2,8,I7*%
%TO.N,/A8*%
X129540000Y-78740000D03*
%TO.P,U2,9,I8*%
%TO.N,/A9*%
X132080000Y-78740000D03*
%TO.P,U2,10,GND*%
%TO.N,GND*%
X134620000Y-78740000D03*
%TO.P,U2,11,I9/~{OE}*%
%TO.N,/AS2*%
X134620000Y-71120000D03*
%TO.P,U2,12,I/O8*%
%TO.N,/IOW*%
X132080000Y-71120000D03*
%TO.P,U2,13,I/O7*%
%TO.N,/IOR*%
X129540000Y-71120000D03*
%TO.P,U2,14,I/O6*%
%TO.N,/RTCALE*%
X127000000Y-71120000D03*
%TO.P,U2,15,I/O5*%
%TO.N,/RTCWR*%
X124460000Y-71120000D03*
%TO.P,U2,16,I/O4*%
%TO.N,/RTCRD*%
X121920000Y-71120000D03*
%TO.P,U2,17,I/O3*%
%TO.N,/AEN*%
X119380000Y-71120000D03*
%TO.P,U2,18,I/O2*%
%TO.N,/AS1*%
X116840000Y-71120000D03*
%TO.P,U2,19,I/O1*%
%TO.N,/AS0*%
X114300000Y-71120000D03*
%TO.P,U2,20,VCC*%
%TO.N,VCC*%
X111760000Y-71120000D03*
%TD*%
%TO.P,Y1,1,1*%
%TO.N,Net-(U1-Pad2)*%
X168998685Y-81280000D03*
%TO.P,Y1,2,2*%
%TO.N,Net-(U1-Pad3)*%
X168998685Y-83820000D03*
%TO.P,Y1,3,3*%
%TO.N,GND*%
X163918685Y-84137500D03*
X163918685Y-80962500D03*
%TD*%
D11*
%TO.P,U1,1,MOT*%
%TO.N,unconnected-(U1-Pad1)*%
X165100000Y-78740000D03*
D12*
%TO.P,U1,2,X1*%
%TO.N,Net-(U1-Pad2)*%
X167640000Y-78740000D03*
%TO.P,U1,3,X2*%
%TO.N,Net-(U1-Pad3)*%
X170180000Y-78740000D03*
%TO.P,U1,4,AD0*%
%TO.N,/D0*%
X172720000Y-78740000D03*
%TO.P,U1,5,AD1*%
%TO.N,/D1*%
X175260000Y-78740000D03*
%TO.P,U1,6,AD2*%
%TO.N,/D2*%
X177800000Y-78740000D03*
%TO.P,U1,7,AD3*%
%TO.N,/D3*%
X180340000Y-78740000D03*
%TO.P,U1,8,AD4*%
%TO.N,/D4*%
X182880000Y-78740000D03*
%TO.P,U1,9,AD5*%
%TO.N,/D5*%
X185420000Y-78740000D03*
%TO.P,U1,10,AD6*%
%TO.N,/D6*%
X187960000Y-78740000D03*
%TO.P,U1,11,AD7*%
%TO.N,/D7*%
X190500000Y-78740000D03*
%TO.P,U1,12,GND*%
%TO.N,GND*%
X193040000Y-78740000D03*
%TO.P,U1,13,~{CS}*%
X193040000Y-63500000D03*
%TO.P,U1,14,AS*%
%TO.N,/RTCALE*%
X190500000Y-63500000D03*
%TO.P,U1,15,R/~{W}*%
%TO.N,/RTCWR*%
X187960000Y-63500000D03*
%TO.P,U1,16,GND*%
%TO.N,GND*%
X185420000Y-63500000D03*
%TO.P,U1,17,DS*%
%TO.N,/RTCRD*%
X182880000Y-63500000D03*
%TO.P,U1,18,~{RESET}*%
%TO.N,VCC*%
X180340000Y-63500000D03*
%TO.P,U1,19,~{IRQ}*%
%TO.N,/~{IRQ}*%
X177800000Y-63500000D03*
%TO.P,U1,20,VBAT*%
%TO.N,Net-(BT1-Pad1)*%
X175260000Y-63500000D03*
%TO.P,U1,21,~{RCLR}*%
%TO.N,Net-(JP1-Pad1)*%
X172720000Y-63500000D03*
%TO.P,U1,22,NC*%
%TO.N,unconnected-(U1-Pad22)*%
X170180000Y-63500000D03*
%TO.P,U1,23,SQW*%
%TO.N,unconnected-(U1-Pad23)*%
X167640000Y-63500000D03*
%TO.P,U1,24,VCC*%
%TO.N,VCC*%
X165100000Y-63500000D03*
%TD*%
D13*
%TO.P,BT1,1,+*%
%TO.N,Net-(BT1-Pad1)*%
X149860000Y-59692540D03*
%TO.P,BT1,2,-*%
%TO.N,GND*%
X149860000Y-79692500D03*
%TD*%
%TO.P,JP1,1,A*%
%TO.N,Net-(JP1-Pad1)*%
X177800000Y-58420000D03*
%TO.P,JP1,2,B*%
%TO.N,GND*%
X180340000Y-58420000D03*
%TD*%
D12*
%TO.P,C1,1*%
%TO.N,VCC*%
X165100000Y-58420000D03*
%TO.P,C1,2*%
%TO.N,GND*%
X170180000Y-58420000D03*
%TD*%
D14*
%TO.N,GND*%
X136525000Y-71120000D03*
X163830000Y-72390000D03*
X163830000Y-73660000D03*
X163830000Y-74930000D03*
X190500000Y-85090000D03*
%TO.N,/IOW*%
X160020000Y-74930000D03*
%TO.N,/IOR*%
X157480000Y-74930000D03*
%TD*%
D15*
%TO.N,/AEN*%
X154940000Y-74930000D02*
X156210000Y-76200000D01*
X119380000Y-71120000D02*
X119380000Y-72390000D01*
X119380000Y-72390000D02*
X120650000Y-73660000D01*
X120650000Y-73660000D02*
X129540000Y-73660000D01*
X129540000Y-73660000D02*
X130810000Y-74930000D01*
X165100000Y-85090000D02*
X165100000Y-90805000D01*
X130810000Y-74930000D02*
X154940000Y-74930000D01*
X156210000Y-76200000D02*
X165100000Y-76200000D01*
X165100000Y-76200000D02*
X166370000Y-77470000D01*
X166370000Y-77470000D02*
X166370000Y-83820000D01*
X166370000Y-83820000D02*
X165100000Y-85090000D01*
%TO.N,/IOR*%
X132080000Y-73660000D02*
X129540000Y-71120000D01*
X156210000Y-73660000D02*
X132080000Y-73660000D01*
X157480000Y-74930000D02*
X156210000Y-73660000D01*
%TO.N,/IOW*%
X133350000Y-72390000D02*
X132080000Y-71120000D01*
X157480000Y-72390000D02*
X133350000Y-72390000D01*
X160020000Y-74930000D02*
X157480000Y-72390000D01*
%TO.N,Net-(BT1-Pad1)*%
X174060480Y-64699520D02*
X175260000Y-63500000D01*
X154866980Y-64699520D02*
X174060480Y-64699520D01*
X149860000Y-59692540D02*
X154866980Y-64699520D01*
%TO.N,GND*%
X147637500Y-77470000D02*
X149860000Y-79692500D01*
X135890000Y-77470000D02*
X147637500Y-77470000D01*
X134620000Y-78740000D02*
X135890000Y-77470000D01*
%TO.N,Net-(U1-Pad3)*%
X170180000Y-82550000D02*
X168910000Y-83820000D01*
X170180000Y-78740000D02*
X170180000Y-82550000D01*
%TO.N,Net-(U1-Pad2)*%
X167640000Y-79921315D02*
X167640000Y-78740000D01*
X168998685Y-81280000D02*
X167640000Y-79921315D01*
D16*
%TO.N,VCC*%
X165417500Y-61595000D02*
X165100000Y-61277500D01*
X167005000Y-61595000D02*
X165417500Y-61595000D01*
X165100000Y-61277500D02*
X165100000Y-58420000D01*
X165100000Y-63500000D02*
X165100000Y-61277500D01*
D15*
%TO.N,GND*%
X113030000Y-59690000D02*
X114300000Y-58420000D01*
X118173500Y-77216000D02*
X113030000Y-72072500D01*
X113030000Y-72072500D02*
X113030000Y-59690000D01*
X134620000Y-78740000D02*
X133096000Y-77216000D01*
X133096000Y-77216000D02*
X118173500Y-77216000D01*
%TO.N,/RTCWR*%
X187960000Y-64452500D02*
X187960000Y-63500000D01*
X127635000Y-67310000D02*
X136395960Y-67310000D01*
X136395960Y-67310000D02*
X137730480Y-68644520D01*
X124460000Y-70485000D02*
X127635000Y-67310000D01*
X124460000Y-71120000D02*
X124460000Y-70485000D01*
X137730480Y-68644520D02*
X183767980Y-68644520D01*
X183767980Y-68644520D02*
X187960000Y-64452500D01*
%TO.N,/RTCALE*%
X184150000Y-69850000D02*
X190500000Y-63500000D01*
X128270000Y-68580000D02*
X135890000Y-68580000D01*
X135890000Y-68580000D02*
X137160000Y-69850000D01*
X127000000Y-69850000D02*
X128270000Y-68580000D01*
X127000000Y-71120000D02*
X127000000Y-69850000D01*
X137160000Y-69850000D02*
X184150000Y-69850000D01*
%TO.N,/AS2*%
X119380000Y-66040000D02*
X119380000Y-68580000D01*
X120650000Y-69850000D02*
X119380000Y-68580000D01*
X127635000Y-72390000D02*
X121285000Y-72390000D01*
X121285000Y-72390000D02*
X120650000Y-71755000D01*
X128270000Y-70485000D02*
X128270000Y-71755000D01*
X128905000Y-69850000D02*
X128270000Y-70485000D01*
X128270000Y-71755000D02*
X127635000Y-72390000D01*
X133350000Y-69850000D02*
X128905000Y-69850000D01*
X134620000Y-71120000D02*
X133350000Y-69850000D01*
X120650000Y-71755000D02*
X120650000Y-69850000D01*
%TO.N,/RTCRD*%
X127000000Y-66040000D02*
X137160000Y-66040000D01*
X137160000Y-66040000D02*
X138430000Y-67310000D01*
X138430000Y-67310000D02*
X180657500Y-67310000D01*
X121920000Y-71120000D02*
X127000000Y-66040000D01*
%TO.N,/~{IRQ}*%
X137795000Y-64770000D02*
X139065000Y-66040000D01*
X125730000Y-64770000D02*
X137795000Y-64770000D01*
X175260000Y-66040000D02*
X139065000Y-66040000D01*
X121920000Y-68580000D02*
X125730000Y-64770000D01*
%TO.N,/A0*%
X114300000Y-83820000D02*
X111760000Y-81280000D01*
X114300000Y-90805000D02*
X114300000Y-83820000D01*
X111760000Y-81280000D02*
X111760000Y-78740000D01*
%TO.N,/A9*%
X137160000Y-85090000D02*
X137160000Y-90805000D01*
X132080000Y-80010000D02*
X137160000Y-85090000D01*
X132080000Y-78740000D02*
X132080000Y-80010000D01*
%TO.N,/A8*%
X134620000Y-85090000D02*
X134620000Y-90805000D01*
X129540000Y-80010000D02*
X134620000Y-85090000D01*
X129540000Y-78740000D02*
X129540000Y-80010000D01*
%TO.N,/A6*%
X124460000Y-80010000D02*
X124460000Y-78740000D01*
X129540000Y-85090000D02*
X124460000Y-80010000D01*
X129540000Y-90805000D02*
X129540000Y-85090000D01*
%TO.N,/A5*%
X121920000Y-80010000D02*
X121920000Y-78740000D01*
X127000000Y-85090000D02*
X121920000Y-80010000D01*
X127000000Y-90805000D02*
X127000000Y-85090000D01*
%TO.N,/A4*%
X119380000Y-80010000D02*
X119380000Y-78740000D01*
X124460000Y-85090000D02*
X119380000Y-80010000D01*
X124460000Y-90805000D02*
X124460000Y-85090000D01*
%TO.N,/~{IRQ}*%
X177800000Y-63500000D02*
X175260000Y-66040000D01*
%TO.N,/AS1*%
X116840000Y-68580000D02*
X116840000Y-66040000D01*
X116840000Y-71120000D02*
X116840000Y-68580000D01*
%TO.N,/AS0*%
X114300000Y-68580000D02*
X114300000Y-66040000D01*
X114300000Y-71120000D02*
X114300000Y-68580000D01*
%TO.N,/A2*%
X114300000Y-80168750D02*
X114300000Y-78740000D01*
X119380000Y-85248750D02*
X114300000Y-80168750D01*
X119380000Y-91122500D02*
X119380000Y-85248750D01*
%TO.N,GND*%
X187960000Y-73660000D02*
X193040000Y-78740000D01*
X163830000Y-73660000D02*
X187960000Y-73660000D01*
D16*
%TO.N,VCC*%
X180340000Y-63500000D02*
X178435000Y-61595000D01*
X178435000Y-61595000D02*
X167005000Y-61595000D01*
D15*
%TO.N,/D0*%
X172720000Y-82550000D02*
X170180000Y-85090000D01*
X172720000Y-78740000D02*
X172720000Y-82550000D01*
X170180000Y-85090000D02*
X170180000Y-90805000D01*
%TO.N,/D1*%
X172720000Y-85090000D02*
X175260000Y-82550000D01*
X175260000Y-82550000D02*
X175260000Y-78740000D01*
X172720000Y-90805000D02*
X172720000Y-85090000D01*
%TO.N,/D2*%
X175260000Y-85090000D02*
X177800000Y-82550000D01*
X177800000Y-82550000D02*
X177800000Y-78740000D01*
X175260000Y-90805000D02*
X175260000Y-85090000D01*
%TO.N,/D3*%
X177800000Y-85090000D02*
X180340000Y-82550000D01*
X177800000Y-90805000D02*
X177800000Y-85090000D01*
X180340000Y-82550000D02*
X180340000Y-78740000D01*
%TO.N,/D4*%
X180340000Y-90805000D02*
X180340000Y-85090000D01*
X180340000Y-85090000D02*
X182880000Y-82550000D01*
X182880000Y-82550000D02*
X182880000Y-78740000D01*
%TO.N,/D5*%
X185420000Y-82550000D02*
X185420000Y-78740000D01*
X182880000Y-85090000D02*
X185420000Y-82550000D01*
X182880000Y-90805000D02*
X182880000Y-85090000D01*
%TO.N,/D6*%
X187960000Y-82550000D02*
X187960000Y-78740000D01*
X185420000Y-85090000D02*
X187960000Y-82550000D01*
X185420000Y-90805000D02*
X185420000Y-85090000D01*
%TO.N,/D7*%
X187960000Y-85090000D02*
X190500000Y-82550000D01*
X190500000Y-82550000D02*
X190500000Y-78740000D01*
X187960000Y-91122500D02*
X187960000Y-85090000D01*
%TO.N,/RTCRD*%
X182880000Y-65087500D02*
X182880000Y-63500000D01*
X180657500Y-67310000D02*
X182880000Y-65087500D01*
%TO.N,/A3*%
X116840000Y-80010000D02*
X121920000Y-85090000D01*
X116840000Y-78740000D02*
X116840000Y-80010000D01*
X121920000Y-85090000D02*
X121920000Y-90805000D01*
%TO.N,/A7*%
X132080000Y-85090000D02*
X132080000Y-90805000D01*
X127000000Y-78740000D02*
X127000000Y-80010000D01*
X127000000Y-80010000D02*
X132080000Y-85090000D01*
%TD*%
%TA.AperFunction,Conductor*%
%TO.N,GND*%
G36*
X169152745Y-57551002D02*
G01*
X169199238Y-57604658D01*
X169209342Y-57674932D01*
X169183574Y-57735005D01*
X169167390Y-57755535D01*
X169161118Y-57765192D01*
X169063256Y-57951198D01*
X169058851Y-57961832D01*
X168996522Y-58162563D01*
X168994130Y-58173817D01*
X168969425Y-58382547D01*
X168969124Y-58394048D01*
X168982871Y-58603779D01*
X168984672Y-58615149D01*
X169036409Y-58818863D01*
X169040250Y-58829710D01*
X169128247Y-59020592D01*
X169133996Y-59030549D01*
X169155112Y-59060427D01*
X169165701Y-59068815D01*
X169179000Y-59061788D01*
X170090905Y-58149884D01*
X170153217Y-58115859D01*
X170224033Y-58120924D01*
X170269095Y-58149884D01*
X171182609Y-59063398D01*
X171194987Y-59070156D01*
X171201566Y-59065231D01*
X171284095Y-58917865D01*
X171288771Y-58907362D01*
X171356334Y-58708328D01*
X171359019Y-58697145D01*
X171389475Y-58487088D01*
X171390105Y-58479705D01*
X171391572Y-58423704D01*
X171391329Y-58416305D01*
X171371908Y-58204945D01*
X171369811Y-58193630D01*
X171312758Y-57991336D01*
X171308636Y-57980597D01*
X171215673Y-57792085D01*
X171209663Y-57782278D01*
X171172409Y-57732389D01*
X171147677Y-57665839D01*
X171162851Y-57596483D01*
X171213113Y-57546341D01*
X171273367Y-57531000D01*
X176784852Y-57531000D01*
X176852973Y-57551002D01*
X176899466Y-57604658D01*
X176909570Y-57674932D01*
X176883802Y-57735005D01*
X176842375Y-57787556D01*
X176836872Y-57794537D01*
X176834181Y-57799653D01*
X176834179Y-57799655D01*
X176820769Y-57825144D01*
X176739018Y-57980527D01*
X176676696Y-58181234D01*
X176676017Y-58186969D01*
X176676017Y-58186970D01*
X176673206Y-58210721D01*
X176651995Y-58389938D01*
X176665740Y-58599649D01*
X176717471Y-58803343D01*
X176719890Y-58808590D01*
X176803038Y-58988953D01*
X176803041Y-58988958D01*
X176805457Y-58994199D01*
X176808788Y-58998912D01*
X176808789Y-58998914D01*
X176885738Y-59107793D01*
X176926751Y-59165825D01*
X177077289Y-59312474D01*
X177082085Y-59315679D01*
X177082088Y-59315681D01*
X177152499Y-59362728D01*
X177252031Y-59429233D01*
X177257339Y-59431514D01*
X177257340Y-59431514D01*
X177439822Y-59509914D01*
X177439825Y-59509915D01*
X177445125Y-59512192D01*
X177450754Y-59513466D01*
X177450755Y-59513466D01*
X177644467Y-59557299D01*
X177644473Y-59557300D01*
X177650104Y-59558574D01*
X177655875Y-59558801D01*
X177655877Y-59558801D01*
X177719433Y-59561298D01*
X177860103Y-59566825D01*
X178068088Y-59536669D01*
X178073552Y-59534814D01*
X178073557Y-59534813D01*
X178238634Y-59478777D01*
X179645777Y-59478777D01*
X179655074Y-59490793D01*
X179698069Y-59520898D01*
X179707555Y-59526376D01*
X179898993Y-59615645D01*
X179909285Y-59619391D01*
X180113309Y-59674059D01*
X180124104Y-59675962D01*
X180334525Y-59694372D01*
X180345475Y-59694372D01*
X180555896Y-59675962D01*
X180566691Y-59674059D01*
X180770715Y-59619391D01*
X180781007Y-59615645D01*
X180972445Y-59526376D01*
X180981931Y-59520898D01*
X181025764Y-59490207D01*
X181034139Y-59479729D01*
X181027071Y-59466281D01*
X180352812Y-58792022D01*
X180338868Y-58784408D01*
X180337035Y-58784539D01*
X180330420Y-58788790D01*
X179652207Y-59467003D01*
X179645777Y-59478777D01*
X178238634Y-59478777D01*
X178261624Y-59470973D01*
X178261629Y-59470971D01*
X178267096Y-59469115D01*
X178272157Y-59466281D01*
X178353061Y-59420972D01*
X178450460Y-59366426D01*
X178612041Y-59232041D01*
X178746426Y-59070460D01*
X178830579Y-58920195D01*
X178846291Y-58892139D01*
X178846292Y-58892137D01*
X178849115Y-58887096D01*
X178883953Y-58784467D01*
X178924789Y-58726392D01*
X178990541Y-58699613D01*
X179060334Y-58712634D01*
X179112007Y-58761320D01*
X179124971Y-58792357D01*
X179140606Y-58850707D01*
X179144355Y-58861007D01*
X179233623Y-59052441D01*
X179239103Y-59061932D01*
X179269794Y-59105765D01*
X179280271Y-59114140D01*
X179293718Y-59107072D01*
X180250905Y-58149885D01*
X180313217Y-58115859D01*
X180384032Y-58120924D01*
X180429095Y-58149885D01*
X181387003Y-59107793D01*
X181398777Y-59114223D01*
X181410793Y-59104926D01*
X181440897Y-59061932D01*
X181446377Y-59052441D01*
X181535645Y-58861007D01*
X181539391Y-58850715D01*
X181594059Y-58646691D01*
X181595962Y-58635896D01*
X181614372Y-58425475D01*
X181614372Y-58414525D01*
X181595962Y-58204104D01*
X181594059Y-58193309D01*
X181539391Y-57989285D01*
X181535645Y-57978993D01*
X181446376Y-57787556D01*
X181440903Y-57778078D01*
X181406728Y-57729270D01*
X181384041Y-57661996D01*
X181401326Y-57593136D01*
X181453097Y-57544552D01*
X181509942Y-57531000D01*
X194905099Y-57531000D01*
X194924809Y-57532551D01*
X194945001Y-57535749D01*
X194954796Y-57534198D01*
X194955273Y-57534198D01*
X194974980Y-57535749D01*
X194980017Y-57536546D01*
X195049400Y-57571900D01*
X195158100Y-57680600D01*
X195193454Y-57749984D01*
X195194251Y-57755016D01*
X195195802Y-57774727D01*
X195195802Y-57775204D01*
X195194251Y-57784999D01*
X195197449Y-57805190D01*
X195199000Y-57824901D01*
X195199000Y-85101310D01*
X195178998Y-85169431D01*
X195162095Y-85190405D01*
X194981905Y-85370595D01*
X194919593Y-85404621D01*
X194892810Y-85407500D01*
X188839766Y-85407500D01*
X188771645Y-85387498D01*
X188725152Y-85333842D01*
X188715048Y-85263568D01*
X188744542Y-85198988D01*
X188750671Y-85192405D01*
X190891030Y-83052046D01*
X190899272Y-83044546D01*
X190905732Y-83040446D01*
X190952198Y-82990965D01*
X190954953Y-82988123D01*
X190974631Y-82968445D01*
X190977091Y-82965273D01*
X190984795Y-82956253D01*
X191006072Y-82933596D01*
X191014955Y-82924136D01*
X191024670Y-82906465D01*
X191035516Y-82889953D01*
X191047879Y-82874015D01*
X191065381Y-82833569D01*
X191070598Y-82822921D01*
X191088003Y-82791262D01*
X191088004Y-82791259D01*
X191091820Y-82784318D01*
X191096835Y-82764786D01*
X191103233Y-82746100D01*
X191111245Y-82727584D01*
X191112485Y-82719756D01*
X191112486Y-82719752D01*
X191118138Y-82684072D01*
X191120544Y-82672451D01*
X191129528Y-82637458D01*
X191129528Y-82637457D01*
X191131500Y-82629777D01*
X191131500Y-82609612D01*
X191133051Y-82589902D01*
X191134964Y-82577824D01*
X191134964Y-82577823D01*
X191136204Y-82569994D01*
X191132059Y-82526140D01*
X191131500Y-82514287D01*
X191131500Y-79752314D01*
X192392046Y-79752314D01*
X192401928Y-79764803D01*
X192457041Y-79801627D01*
X192467146Y-79807114D01*
X192660267Y-79890086D01*
X192671210Y-79893641D01*
X192876209Y-79940028D01*
X192887618Y-79941530D01*
X193097645Y-79949781D01*
X193109129Y-79949179D01*
X193317145Y-79919019D01*
X193328328Y-79916334D01*
X193527362Y-79848771D01*
X193537865Y-79844095D01*
X193680404Y-79764270D01*
X193690266Y-79754194D01*
X193687311Y-79746522D01*
X193052811Y-79112021D01*
X193038868Y-79104408D01*
X193037034Y-79104539D01*
X193030420Y-79108790D01*
X192398239Y-79740972D01*
X192392046Y-79752314D01*
X191131500Y-79752314D01*
X191131500Y-79678686D01*
X191151502Y-79610565D01*
X191176929Y-79581814D01*
X191266947Y-79506947D01*
X191393870Y-79354339D01*
X191490856Y-79181158D01*
X191531964Y-79060059D01*
X191552803Y-78998669D01*
X191552803Y-78998668D01*
X191554659Y-78993201D01*
X191555487Y-78987492D01*
X191555488Y-78987487D01*
X191582609Y-78800437D01*
X191582610Y-78800430D01*
X191583141Y-78796765D01*
X191583231Y-78793322D01*
X191602735Y-78743140D01*
X191600588Y-78738734D01*
X191810961Y-78738734D01*
X191832231Y-78778986D01*
X191834485Y-78795841D01*
X191842871Y-78923779D01*
X191844672Y-78935149D01*
X191896409Y-79138863D01*
X191900250Y-79149710D01*
X191988247Y-79340592D01*
X191993996Y-79350549D01*
X192015112Y-79380427D01*
X192025702Y-79388816D01*
X192039001Y-79381788D01*
X192667979Y-78752811D01*
X192674356Y-78741132D01*
X193404408Y-78741132D01*
X193404539Y-78742966D01*
X193408790Y-78749580D01*
X194042611Y-79383400D01*
X194054986Y-79390157D01*
X194061566Y-79385231D01*
X194144095Y-79237865D01*
X194148771Y-79227362D01*
X194216334Y-79028328D01*
X194219019Y-79017145D01*
X194249475Y-78807088D01*
X194250105Y-78799705D01*
X194251572Y-78743704D01*
X194251329Y-78736305D01*
X194231908Y-78524945D01*
X194229811Y-78513630D01*
X194172758Y-78311336D01*
X194168636Y-78300597D01*
X194075671Y-78112083D01*
X194069665Y-78102281D01*
X194066510Y-78098056D01*
X194055251Y-78089606D01*
X194042834Y-78096377D01*
X193412021Y-78727189D01*
X193404408Y-78741132D01*
X192674356Y-78741132D01*
X192675592Y-78738868D01*
X192675461Y-78737034D01*
X192671210Y-78730420D01*
X192035603Y-78094814D01*
X192023228Y-78088057D01*
X192017262Y-78092523D01*
X191923256Y-78271198D01*
X191918851Y-78281832D01*
X191856522Y-78482563D01*
X191854130Y-78493817D01*
X191830583Y-78692762D01*
X191810961Y-78738734D01*
X191600588Y-78738734D01*
X191581225Y-78698994D01*
X191579985Y-78689481D01*
X191566994Y-78548099D01*
X191566465Y-78542342D01*
X191558368Y-78513630D01*
X191531433Y-78418128D01*
X191512587Y-78351304D01*
X191424797Y-78173284D01*
X191306035Y-78014243D01*
X191291510Y-78000816D01*
X191164520Y-77883428D01*
X191164518Y-77883426D01*
X191160279Y-77879508D01*
X191049368Y-77809528D01*
X190997290Y-77776669D01*
X190997289Y-77776669D01*
X190992410Y-77773590D01*
X190987050Y-77771452D01*
X190987047Y-77771450D01*
X190875150Y-77726808D01*
X192390921Y-77726808D01*
X192394407Y-77735196D01*
X193027189Y-78367979D01*
X193041132Y-78375592D01*
X193042966Y-78375461D01*
X193049580Y-78371210D01*
X193681700Y-77739089D01*
X193688457Y-77726714D01*
X193682427Y-77718658D01*
X193594972Y-77663478D01*
X193584721Y-77658254D01*
X193389497Y-77580368D01*
X193378469Y-77577101D01*
X193172322Y-77536096D01*
X193160875Y-77534893D01*
X192950716Y-77532142D01*
X192939236Y-77533045D01*
X192732087Y-77568640D01*
X192720979Y-77571617D01*
X192523782Y-77644366D01*
X192513400Y-77649318D01*
X192400519Y-77716475D01*
X192390921Y-77726808D01*
X190875150Y-77726808D01*
X190808051Y-77700038D01*
X190802394Y-77698913D01*
X190802388Y-77698911D01*
X190619041Y-77662442D01*
X190619039Y-77662442D01*
X190613374Y-77661315D01*
X190607599Y-77661239D01*
X190607595Y-77661239D01*
X190508638Y-77659944D01*
X190414901Y-77658717D01*
X190409204Y-77659696D01*
X190409203Y-77659696D01*
X190224975Y-77691352D01*
X190219278Y-77692331D01*
X190033056Y-77761032D01*
X189862472Y-77862518D01*
X189713239Y-77993392D01*
X189709664Y-77997927D01*
X189709663Y-77997928D01*
X189696801Y-78014243D01*
X189590355Y-78149270D01*
X189587666Y-78154381D01*
X189587664Y-78154384D01*
X189540989Y-78243098D01*
X189497935Y-78324931D01*
X189439075Y-78514493D01*
X189415745Y-78711608D01*
X189428727Y-78909673D01*
X189477586Y-79102056D01*
X189560685Y-79282313D01*
X189564018Y-79287029D01*
X189636902Y-79390157D01*
X189675243Y-79444409D01*
X189817422Y-79582913D01*
X189821874Y-79585888D01*
X189862148Y-79644191D01*
X189868500Y-79683694D01*
X189868500Y-82236235D01*
X189848498Y-82304356D01*
X189831595Y-82325330D01*
X187568970Y-84587954D01*
X187560728Y-84595454D01*
X187554268Y-84599554D01*
X187548843Y-84605331D01*
X187507802Y-84649035D01*
X187505047Y-84651877D01*
X187485369Y-84671555D01*
X187482909Y-84674727D01*
X187475209Y-84683743D01*
X187445045Y-84715864D01*
X187435330Y-84733535D01*
X187424484Y-84750047D01*
X187412121Y-84765985D01*
X187394619Y-84806431D01*
X187389402Y-84817079D01*
X187374149Y-84844825D01*
X187368180Y-84855682D01*
X187363165Y-84875214D01*
X187356767Y-84893900D01*
X187348755Y-84912416D01*
X187344053Y-84942105D01*
X187341865Y-84955923D01*
X187339458Y-84967547D01*
X187328500Y-85010223D01*
X187328500Y-85030389D01*
X187326949Y-85050099D01*
X187323796Y-85070007D01*
X187324542Y-85077899D01*
X187327941Y-85113860D01*
X187328500Y-85125717D01*
X187328500Y-85281500D01*
X187308498Y-85349621D01*
X187254842Y-85396114D01*
X187202500Y-85407500D01*
X186299766Y-85407500D01*
X186231645Y-85387498D01*
X186185152Y-85333842D01*
X186175048Y-85263568D01*
X186204542Y-85198988D01*
X186210671Y-85192405D01*
X188351030Y-83052046D01*
X188359272Y-83044546D01*
X188365732Y-83040446D01*
X188412198Y-82990965D01*
X188414953Y-82988123D01*
X188434631Y-82968445D01*
X188437091Y-82965273D01*
X188444795Y-82956253D01*
X188466072Y-82933596D01*
X188474955Y-82924136D01*
X188484670Y-82906465D01*
X188495516Y-82889953D01*
X188507879Y-82874015D01*
X188525381Y-82833569D01*
X188530598Y-82822921D01*
X188548003Y-82791262D01*
X188548004Y-82791259D01*
X188551820Y-82784318D01*
X188556835Y-82764786D01*
X188563233Y-82746100D01*
X188571245Y-82727584D01*
X188572485Y-82719756D01*
X188572486Y-82719752D01*
X188578138Y-82684072D01*
X188580544Y-82672451D01*
X188589528Y-82637458D01*
X188589528Y-82637457D01*
X188591500Y-82629777D01*
X188591500Y-82609612D01*
X188593051Y-82589902D01*
X188594964Y-82577824D01*
X188594964Y-82577823D01*
X188596204Y-82569994D01*
X188592059Y-82526140D01*
X188591500Y-82514287D01*
X188591500Y-79678686D01*
X188611502Y-79610565D01*
X188636929Y-79581814D01*
X188726947Y-79506947D01*
X188853870Y-79354339D01*
X188950856Y-79181158D01*
X188991964Y-79060059D01*
X189012803Y-78998669D01*
X189012803Y-78998668D01*
X189014659Y-78993201D01*
X189015487Y-78987492D01*
X189015488Y-78987487D01*
X189042608Y-78800438D01*
X189043141Y-78796765D01*
X189044627Y-78740000D01*
X189026465Y-78542342D01*
X189018368Y-78513630D01*
X188991433Y-78418128D01*
X188972587Y-78351304D01*
X188884797Y-78173284D01*
X188766035Y-78014243D01*
X188751510Y-78000816D01*
X188624520Y-77883428D01*
X188624518Y-77883426D01*
X188620279Y-77879508D01*
X188509368Y-77809528D01*
X188457290Y-77776669D01*
X188457289Y-77776669D01*
X188452410Y-77773590D01*
X188447050Y-77771452D01*
X188447047Y-77771450D01*
X188335150Y-77726808D01*
X188268051Y-77700038D01*
X188262394Y-77698913D01*
X188262388Y-77698911D01*
X188079041Y-77662442D01*
X188079039Y-77662442D01*
X188073374Y-77661315D01*
X188067599Y-77661239D01*
X188067595Y-77661239D01*
X187968638Y-77659944D01*
X187874901Y-77658717D01*
X187869204Y-77659696D01*
X187869203Y-77659696D01*
X187684975Y-77691352D01*
X187679278Y-77692331D01*
X187493056Y-77761032D01*
X187322472Y-77862518D01*
X187173239Y-77993392D01*
X187169664Y-77997927D01*
X187169663Y-77997928D01*
X187156801Y-78014243D01*
X187050355Y-78149270D01*
X187047666Y-78154381D01*
X187047664Y-78154384D01*
X187000989Y-78243098D01*
X186957935Y-78324931D01*
X186899075Y-78514493D01*
X186875745Y-78711608D01*
X186888727Y-78909673D01*
X186937586Y-79102056D01*
X187020685Y-79282313D01*
X187024018Y-79287029D01*
X187096902Y-79390157D01*
X187135243Y-79444409D01*
X187277422Y-79582913D01*
X187281874Y-79585888D01*
X187322148Y-79644191D01*
X187328500Y-79683694D01*
X187328500Y-82236235D01*
X187308498Y-82304356D01*
X187291595Y-82325330D01*
X185028970Y-84587954D01*
X185020728Y-84595454D01*
X185014268Y-84599554D01*
X185008843Y-84605331D01*
X184967802Y-84649035D01*
X184965047Y-84651877D01*
X184945369Y-84671555D01*
X184942909Y-84674727D01*
X184935209Y-84683743D01*
X184905045Y-84715864D01*
X184895330Y-84733535D01*
X184884484Y-84750047D01*
X184872121Y-84765985D01*
X184854619Y-84806431D01*
X184849402Y-84817079D01*
X184834149Y-84844825D01*
X184828180Y-84855682D01*
X184823165Y-84875214D01*
X184816767Y-84893900D01*
X184808755Y-84912416D01*
X184804053Y-84942105D01*
X184801865Y-84955923D01*
X184799458Y-84967547D01*
X184788500Y-85010223D01*
X184788500Y-85030389D01*
X184786949Y-85050099D01*
X184783796Y-85070007D01*
X184784542Y-85077899D01*
X184787941Y-85113860D01*
X184788500Y-85125717D01*
X184788500Y-85281500D01*
X184768498Y-85349621D01*
X184714842Y-85396114D01*
X184662500Y-85407500D01*
X183759766Y-85407500D01*
X183691645Y-85387498D01*
X183645152Y-85333842D01*
X183635048Y-85263568D01*
X183664542Y-85198988D01*
X183670671Y-85192405D01*
X185811030Y-83052046D01*
X185819272Y-83044546D01*
X185825732Y-83040446D01*
X185872198Y-82990965D01*
X185874953Y-82988123D01*
X185894631Y-82968445D01*
X185897091Y-82965273D01*
X185904795Y-82956253D01*
X185926072Y-82933596D01*
X185934955Y-82924136D01*
X185944670Y-82906465D01*
X185955516Y-82889953D01*
X185967879Y-82874015D01*
X185985381Y-82833569D01*
X185990598Y-82822921D01*
X186008003Y-82791262D01*
X186008004Y-82791259D01*
X186011820Y-82784318D01*
X186016835Y-82764786D01*
X186023233Y-82746100D01*
X186031245Y-82727584D01*
X186032485Y-82719756D01*
X186032486Y-82719752D01*
X186038138Y-82684072D01*
X186040544Y-82672451D01*
X186049528Y-82637458D01*
X186049528Y-82637457D01*
X186051500Y-82629777D01*
X186051500Y-82609612D01*
X186053051Y-82589902D01*
X186054964Y-82577824D01*
X186054964Y-82577823D01*
X186056204Y-82569994D01*
X186052059Y-82526140D01*
X186051500Y-82514287D01*
X186051500Y-79678686D01*
X186071502Y-79610565D01*
X186096929Y-79581814D01*
X186186947Y-79506947D01*
X186313870Y-79354339D01*
X186410856Y-79181158D01*
X186451964Y-79060059D01*
X186472803Y-78998669D01*
X186472803Y-78998668D01*
X186474659Y-78993201D01*
X186475487Y-78987492D01*
X186475488Y-78987487D01*
X186502608Y-78800438D01*
X186503141Y-78796765D01*
X186504627Y-78740000D01*
X186486465Y-78542342D01*
X186478368Y-78513630D01*
X186451433Y-78418128D01*
X186432587Y-78351304D01*
X186344797Y-78173284D01*
X186226035Y-78014243D01*
X186211510Y-78000816D01*
X186084520Y-77883428D01*
X186084518Y-77883426D01*
X186080279Y-77879508D01*
X185969368Y-77809528D01*
X185917290Y-77776669D01*
X185917289Y-77776669D01*
X185912410Y-77773590D01*
X185907050Y-77771452D01*
X185907047Y-77771450D01*
X185795150Y-77726808D01*
X185728051Y-77700038D01*
X185722394Y-77698913D01*
X185722388Y-77698911D01*
X185539041Y-77662442D01*
X185539039Y-77662442D01*
X185533374Y-77661315D01*
X185527599Y-77661239D01*
X185527595Y-77661239D01*
X185428638Y-77659944D01*
X185334901Y-77658717D01*
X185329204Y-77659696D01*
X185329203Y-77659696D01*
X185144975Y-77691352D01*
X185139278Y-77692331D01*
X184953056Y-77761032D01*
X184782472Y-77862518D01*
X184633239Y-77993392D01*
X184629664Y-77997927D01*
X184629663Y-77997928D01*
X184616801Y-78014243D01*
X184510355Y-78149270D01*
X184507666Y-78154381D01*
X184507664Y-78154384D01*
X184460989Y-78243098D01*
X184417935Y-78324931D01*
X184359075Y-78514493D01*
X184335745Y-78711608D01*
X184348727Y-78909673D01*
X184397586Y-79102056D01*
X184480685Y-79282313D01*
X184484018Y-79287029D01*
X184556902Y-79390157D01*
X184595243Y-79444409D01*
X184737422Y-79582913D01*
X184741874Y-79585888D01*
X184782148Y-79644191D01*
X184788500Y-79683694D01*
X184788500Y-82236235D01*
X184768498Y-82304356D01*
X184751595Y-82325330D01*
X182488970Y-84587954D01*
X182480728Y-84595454D01*
X182474268Y-84599554D01*
X182468843Y-84605331D01*
X182427802Y-84649035D01*
X182425047Y-84651877D01*
X182405369Y-84671555D01*
X182402909Y-84674727D01*
X182395209Y-84683743D01*
X182365045Y-84715864D01*
X182355330Y-84733535D01*
X182344484Y-84750047D01*
X182332121Y-84765985D01*
X182314619Y-84806431D01*
X182309402Y-84817079D01*
X182294149Y-84844825D01*
X182288180Y-84855682D01*
X182283165Y-84875214D01*
X182276767Y-84893900D01*
X182268755Y-84912416D01*
X182264053Y-84942105D01*
X182261865Y-84955923D01*
X182259458Y-84967547D01*
X182248500Y-85010223D01*
X182248500Y-85030389D01*
X182246949Y-85050099D01*
X182243796Y-85070007D01*
X182244542Y-85077899D01*
X182247941Y-85113860D01*
X182248500Y-85125717D01*
X182248500Y-85281500D01*
X182228498Y-85349621D01*
X182174842Y-85396114D01*
X182122500Y-85407500D01*
X181219766Y-85407500D01*
X181151645Y-85387498D01*
X181105152Y-85333842D01*
X181095048Y-85263568D01*
X181124542Y-85198988D01*
X181130671Y-85192405D01*
X183271030Y-83052046D01*
X183279272Y-83044546D01*
X183285732Y-83040446D01*
X183332198Y-82990965D01*
X183334953Y-82988123D01*
X183354631Y-82968445D01*
X183357091Y-82965273D01*
X183364795Y-82956253D01*
X183386072Y-82933596D01*
X183394955Y-82924136D01*
X183404670Y-82906465D01*
X183415516Y-82889953D01*
X183427879Y-82874015D01*
X183445381Y-82833569D01*
X183450598Y-82822921D01*
X183468003Y-82791262D01*
X183468004Y-82791259D01*
X183471820Y-82784318D01*
X183476835Y-82764786D01*
X183483233Y-82746100D01*
X183491245Y-82727584D01*
X183492485Y-82719756D01*
X183492486Y-82719752D01*
X183498138Y-82684072D01*
X183500544Y-82672451D01*
X183509528Y-82637458D01*
X183509528Y-82637457D01*
X183511500Y-82629777D01*
X183511500Y-82609612D01*
X183513051Y-82589902D01*
X183514964Y-82577824D01*
X183514964Y-82577823D01*
X183516204Y-82569994D01*
X183512059Y-82526140D01*
X183511500Y-82514287D01*
X183511500Y-79678686D01*
X183531502Y-79610565D01*
X183556929Y-79581814D01*
X183646947Y-79506947D01*
X183773870Y-79354339D01*
X183870856Y-79181158D01*
X183911964Y-79060059D01*
X183932803Y-78998669D01*
X183932803Y-78998668D01*
X183934659Y-78993201D01*
X183935487Y-78987492D01*
X183935488Y-78987487D01*
X183962608Y-78800438D01*
X183963141Y-78796765D01*
X183964627Y-78740000D01*
X183946465Y-78542342D01*
X183938368Y-78513630D01*
X183911433Y-78418128D01*
X183892587Y-78351304D01*
X183804797Y-78173284D01*
X183686035Y-78014243D01*
X183671510Y-78000816D01*
X183544520Y-77883428D01*
X183544518Y-77883426D01*
X183540279Y-77879508D01*
X183429368Y-77809528D01*
X183377290Y-77776669D01*
X183377289Y-77776669D01*
X183372410Y-77773590D01*
X183367050Y-77771452D01*
X183367047Y-77771450D01*
X183255150Y-77726808D01*
X183188051Y-77700038D01*
X183182394Y-77698913D01*
X183182388Y-77698911D01*
X182999041Y-77662442D01*
X182999039Y-77662442D01*
X182993374Y-77661315D01*
X182987599Y-77661239D01*
X182987595Y-77661239D01*
X182888638Y-77659944D01*
X182794901Y-77658717D01*
X182789204Y-77659696D01*
X182789203Y-77659696D01*
X182604975Y-77691352D01*
X182599278Y-77692331D01*
X182413056Y-77761032D01*
X182242472Y-77862518D01*
X182093239Y-77993392D01*
X182089664Y-77997927D01*
X182089663Y-77997928D01*
X182076801Y-78014243D01*
X181970355Y-78149270D01*
X181967666Y-78154381D01*
X181967664Y-78154384D01*
X181920989Y-78243098D01*
X181877935Y-78324931D01*
X181819075Y-78514493D01*
X181795745Y-78711608D01*
X181808727Y-78909673D01*
X181857586Y-79102056D01*
X181940685Y-79282313D01*
X181944018Y-79287029D01*
X182016902Y-79390157D01*
X182055243Y-79444409D01*
X182197422Y-79582913D01*
X182201874Y-79585888D01*
X182242148Y-79644191D01*
X182248500Y-79683694D01*
X182248500Y-82236235D01*
X182228498Y-82304356D01*
X182211595Y-82325330D01*
X179948970Y-84587954D01*
X179940728Y-84595454D01*
X179934268Y-84599554D01*
X179928843Y-84605331D01*
X179887802Y-84649035D01*
X179885047Y-84651877D01*
X179865369Y-84671555D01*
X179862909Y-84674727D01*
X179855209Y-84683743D01*
X179825045Y-84715864D01*
X179815330Y-84733535D01*
X179804484Y-84750047D01*
X179792121Y-84765985D01*
X179774619Y-84806431D01*
X179769402Y-84817079D01*
X179754149Y-84844825D01*
X179748180Y-84855682D01*
X179743165Y-84875214D01*
X179736767Y-84893900D01*
X179728755Y-84912416D01*
X179724053Y-84942105D01*
X179721865Y-84955923D01*
X179719458Y-84967547D01*
X179708500Y-85010223D01*
X179708500Y-85030389D01*
X179706949Y-85050099D01*
X179703796Y-85070007D01*
X179704542Y-85077899D01*
X179707941Y-85113860D01*
X179708500Y-85125717D01*
X179708500Y-85281500D01*
X179688498Y-85349621D01*
X179634842Y-85396114D01*
X179582500Y-85407500D01*
X178679766Y-85407500D01*
X178611645Y-85387498D01*
X178565152Y-85333842D01*
X178555048Y-85263568D01*
X178584542Y-85198988D01*
X178590671Y-85192405D01*
X180731030Y-83052046D01*
X180739272Y-83044546D01*
X180745732Y-83040446D01*
X180792198Y-82990965D01*
X180794953Y-82988123D01*
X180814631Y-82968445D01*
X180817091Y-82965273D01*
X180824795Y-82956253D01*
X180846072Y-82933596D01*
X180854955Y-82924136D01*
X180864670Y-82906465D01*
X180875516Y-82889953D01*
X180887879Y-82874015D01*
X180905381Y-82833569D01*
X180910598Y-82822921D01*
X180928003Y-82791262D01*
X180928004Y-82791259D01*
X180931820Y-82784318D01*
X180936835Y-82764786D01*
X180943233Y-82746100D01*
X180951245Y-82727584D01*
X180952485Y-82719756D01*
X180952486Y-82719752D01*
X180958138Y-82684072D01*
X180960544Y-82672451D01*
X180969528Y-82637458D01*
X180969528Y-82637457D01*
X180971500Y-82629777D01*
X180971500Y-82609612D01*
X180973051Y-82589902D01*
X180974964Y-82577824D01*
X180974964Y-82577823D01*
X180976204Y-82569994D01*
X180972059Y-82526140D01*
X180971500Y-82514287D01*
X180971500Y-79678686D01*
X180991502Y-79610565D01*
X181016929Y-79581814D01*
X181106947Y-79506947D01*
X181233870Y-79354339D01*
X181330856Y-79181158D01*
X181371964Y-79060059D01*
X181392803Y-78998669D01*
X181392803Y-78998668D01*
X181394659Y-78993201D01*
X181395487Y-78987492D01*
X181395488Y-78987487D01*
X181422608Y-78800438D01*
X181423141Y-78796765D01*
X181424627Y-78740000D01*
X181406465Y-78542342D01*
X181398368Y-78513630D01*
X181371433Y-78418128D01*
X181352587Y-78351304D01*
X181264797Y-78173284D01*
X181146035Y-78014243D01*
X181131510Y-78000816D01*
X181004520Y-77883428D01*
X181004518Y-77883426D01*
X181000279Y-77879508D01*
X180889368Y-77809528D01*
X180837290Y-77776669D01*
X180837289Y-77776669D01*
X180832410Y-77773590D01*
X180827050Y-77771452D01*
X180827047Y-77771450D01*
X180715150Y-77726808D01*
X180648051Y-77700038D01*
X180642394Y-77698913D01*
X180642388Y-77698911D01*
X180459041Y-77662442D01*
X180459039Y-77662442D01*
X180453374Y-77661315D01*
X180447599Y-77661239D01*
X180447595Y-77661239D01*
X180348638Y-77659944D01*
X180254901Y-77658717D01*
X180249204Y-77659696D01*
X180249203Y-77659696D01*
X180064975Y-77691352D01*
X180059278Y-77692331D01*
X179873056Y-77761032D01*
X179702472Y-77862518D01*
X179553239Y-77993392D01*
X179549664Y-77997927D01*
X179549663Y-77997928D01*
X179536801Y-78014243D01*
X179430355Y-78149270D01*
X179427666Y-78154381D01*
X179427664Y-78154384D01*
X179380989Y-78243098D01*
X179337935Y-78324931D01*
X179279075Y-78514493D01*
X179255745Y-78711608D01*
X179268727Y-78909673D01*
X179317586Y-79102056D01*
X179400685Y-79282313D01*
X179404018Y-79287029D01*
X179476902Y-79390157D01*
X179515243Y-79444409D01*
X179657422Y-79582913D01*
X179661874Y-79585888D01*
X179702148Y-79644191D01*
X179708500Y-79683694D01*
X179708500Y-82236235D01*
X179688498Y-82304356D01*
X179671595Y-82325330D01*
X177408970Y-84587954D01*
X177400728Y-84595454D01*
X177394268Y-84599554D01*
X177388843Y-84605331D01*
X177347802Y-84649035D01*
X177345047Y-84651877D01*
X177325369Y-84671555D01*
X177322909Y-84674727D01*
X177315209Y-84683743D01*
X177285045Y-84715864D01*
X177275330Y-84733535D01*
X177264484Y-84750047D01*
X177252121Y-84765985D01*
X177234619Y-84806431D01*
X177229402Y-84817079D01*
X177214149Y-84844825D01*
X177208180Y-84855682D01*
X177203165Y-84875214D01*
X177196767Y-84893900D01*
X177188755Y-84912416D01*
X177184053Y-84942105D01*
X177181865Y-84955923D01*
X177179458Y-84967547D01*
X177168500Y-85010223D01*
X177168500Y-85030389D01*
X177166949Y-85050099D01*
X177163796Y-85070007D01*
X177164542Y-85077899D01*
X177167941Y-85113860D01*
X177168500Y-85125717D01*
X177168500Y-85281500D01*
X177148498Y-85349621D01*
X177094842Y-85396114D01*
X177042500Y-85407500D01*
X176139766Y-85407500D01*
X176071645Y-85387498D01*
X176025152Y-85333842D01*
X176015048Y-85263568D01*
X176044542Y-85198988D01*
X176050671Y-85192405D01*
X178191030Y-83052046D01*
X178199272Y-83044546D01*
X178205732Y-83040446D01*
X178252198Y-82990965D01*
X178254953Y-82988123D01*
X178274631Y-82968445D01*
X178277091Y-82965273D01*
X178284795Y-82956253D01*
X178306072Y-82933596D01*
X178314955Y-82924136D01*
X178324670Y-82906465D01*
X178335516Y-82889953D01*
X178347879Y-82874015D01*
X178365381Y-82833569D01*
X178370598Y-82822921D01*
X178388003Y-82791262D01*
X178388004Y-82791259D01*
X178391820Y-82784318D01*
X178396835Y-82764786D01*
X178403233Y-82746100D01*
X178411245Y-82727584D01*
X178412485Y-82719756D01*
X178412486Y-82719752D01*
X178418138Y-82684072D01*
X178420544Y-82672451D01*
X178429528Y-82637458D01*
X178429528Y-82637457D01*
X178431500Y-82629777D01*
X178431500Y-82609612D01*
X178433051Y-82589902D01*
X178434964Y-82577824D01*
X178434964Y-82577823D01*
X178436204Y-82569994D01*
X178432059Y-82526140D01*
X178431500Y-82514287D01*
X178431500Y-79678686D01*
X178451502Y-79610565D01*
X178476929Y-79581814D01*
X178566947Y-79506947D01*
X178693870Y-79354339D01*
X178790856Y-79181158D01*
X178831964Y-79060059D01*
X178852803Y-78998669D01*
X178852803Y-78998668D01*
X178854659Y-78993201D01*
X178855487Y-78987492D01*
X178855488Y-78987487D01*
X178882608Y-78800438D01*
X178883141Y-78796765D01*
X178884627Y-78740000D01*
X178866465Y-78542342D01*
X178858368Y-78513630D01*
X178831433Y-78418128D01*
X178812587Y-78351304D01*
X178724797Y-78173284D01*
X178606035Y-78014243D01*
X178591510Y-78000816D01*
X178464520Y-77883428D01*
X178464518Y-77883426D01*
X178460279Y-77879508D01*
X178349368Y-77809528D01*
X178297290Y-77776669D01*
X178297289Y-77776669D01*
X178292410Y-77773590D01*
X178287050Y-77771452D01*
X178287047Y-77771450D01*
X178175150Y-77726808D01*
X178108051Y-77700038D01*
X178102394Y-77698913D01*
X178102388Y-77698911D01*
X177919041Y-77662442D01*
X177919039Y-77662442D01*
X177913374Y-77661315D01*
X177907599Y-77661239D01*
X177907595Y-77661239D01*
X177808638Y-77659944D01*
X177714901Y-77658717D01*
X177709204Y-77659696D01*
X177709203Y-77659696D01*
X177524975Y-77691352D01*
X177519278Y-77692331D01*
X177333056Y-77761032D01*
X177162472Y-77862518D01*
X177013239Y-77993392D01*
X177009664Y-77997927D01*
X177009663Y-77997928D01*
X176996801Y-78014243D01*
X176890355Y-78149270D01*
X176887666Y-78154381D01*
X176887664Y-78154384D01*
X176840989Y-78243098D01*
X176797935Y-78324931D01*
X176739075Y-78514493D01*
X176715745Y-78711608D01*
X176728727Y-78909673D01*
X176777586Y-79102056D01*
X176860685Y-79282313D01*
X176864018Y-79287029D01*
X176936902Y-79390157D01*
X176975243Y-79444409D01*
X177117422Y-79582913D01*
X177121874Y-79585888D01*
X177162148Y-79644191D01*
X177168500Y-79683694D01*
X177168500Y-82236235D01*
X177148498Y-82304356D01*
X177131595Y-82325330D01*
X174868970Y-84587954D01*
X174860728Y-84595454D01*
X174854268Y-84599554D01*
X174848843Y-84605331D01*
X174807802Y-84649035D01*
X174805047Y-84651877D01*
X174785369Y-84671555D01*
X174782909Y-84674727D01*
X174775209Y-84683743D01*
X174745045Y-84715864D01*
X174735330Y-84733535D01*
X174724484Y-84750047D01*
X174712121Y-84765985D01*
X174694619Y-84806431D01*
X174689402Y-84817079D01*
X174674149Y-84844825D01*
X174668180Y-84855682D01*
X174663165Y-84875214D01*
X174656767Y-84893900D01*
X174648755Y-84912416D01*
X174644053Y-84942105D01*
X174641865Y-84955923D01*
X174639458Y-84967547D01*
X174628500Y-85010223D01*
X174628500Y-85030389D01*
X174626949Y-85050099D01*
X174623796Y-85070007D01*
X174624542Y-85077899D01*
X174627941Y-85113860D01*
X174628500Y-85125717D01*
X174628500Y-85281500D01*
X174608498Y-85349621D01*
X174554842Y-85396114D01*
X174502500Y-85407500D01*
X173599766Y-85407500D01*
X173531645Y-85387498D01*
X173485152Y-85333842D01*
X173475048Y-85263568D01*
X173504542Y-85198988D01*
X173510671Y-85192405D01*
X175651030Y-83052046D01*
X175659272Y-83044546D01*
X175665732Y-83040446D01*
X175712198Y-82990965D01*
X175714953Y-82988123D01*
X175734631Y-82968445D01*
X175737091Y-82965273D01*
X175744795Y-82956253D01*
X175766072Y-82933596D01*
X175774955Y-82924136D01*
X175784670Y-82906465D01*
X175795516Y-82889953D01*
X175807879Y-82874015D01*
X175825381Y-82833569D01*
X175830598Y-82822921D01*
X175848003Y-82791262D01*
X175848004Y-82791259D01*
X175851820Y-82784318D01*
X175856835Y-82764786D01*
X175863233Y-82746100D01*
X175871245Y-82727584D01*
X175872485Y-82719756D01*
X175872486Y-82719752D01*
X175878138Y-82684072D01*
X175880544Y-82672451D01*
X175889528Y-82637458D01*
X175889528Y-82637457D01*
X175891500Y-82629777D01*
X175891500Y-82609612D01*
X175893051Y-82589902D01*
X175894964Y-82577824D01*
X175894964Y-82577823D01*
X175896204Y-82569994D01*
X175892059Y-82526140D01*
X175891500Y-82514287D01*
X175891500Y-79678686D01*
X175911502Y-79610565D01*
X175936929Y-79581814D01*
X176026947Y-79506947D01*
X176153870Y-79354339D01*
X176250856Y-79181158D01*
X176291964Y-79060059D01*
X176312803Y-78998669D01*
X176312803Y-78998668D01*
X176314659Y-78993201D01*
X176315487Y-78987492D01*
X176315488Y-78987487D01*
X176342608Y-78800438D01*
X176343141Y-78796765D01*
X176344627Y-78740000D01*
X176326465Y-78542342D01*
X176318368Y-78513630D01*
X176291433Y-78418128D01*
X176272587Y-78351304D01*
X176184797Y-78173284D01*
X176066035Y-78014243D01*
X176051510Y-78000816D01*
X175924520Y-77883428D01*
X175924518Y-77883426D01*
X175920279Y-77879508D01*
X175809368Y-77809528D01*
X175757290Y-77776669D01*
X175757289Y-77776669D01*
X175752410Y-77773590D01*
X175747050Y-77771452D01*
X175747047Y-77771450D01*
X175635150Y-77726808D01*
X175568051Y-77700038D01*
X175562394Y-77698913D01*
X175562388Y-77698911D01*
X175379041Y-77662442D01*
X175379039Y-77662442D01*
X175373374Y-77661315D01*
X175367599Y-77661239D01*
X175367595Y-77661239D01*
X175268638Y-77659944D01*
X175174901Y-77658717D01*
X175169204Y-77659696D01*
X175169203Y-77659696D01*
X174984975Y-77691352D01*
X174979278Y-77692331D01*
X174793056Y-77761032D01*
X174622472Y-77862518D01*
X174473239Y-77993392D01*
X174469664Y-77997927D01*
X174469663Y-77997928D01*
X174456801Y-78014243D01*
X174350355Y-78149270D01*
X174347666Y-78154381D01*
X174347664Y-78154384D01*
X174300989Y-78243098D01*
X174257935Y-78324931D01*
X174199075Y-78514493D01*
X174175745Y-78711608D01*
X174188727Y-78909673D01*
X174237586Y-79102056D01*
X174320685Y-79282313D01*
X174324018Y-79287029D01*
X174396902Y-79390157D01*
X174435243Y-79444409D01*
X174577422Y-79582913D01*
X174581874Y-79585888D01*
X174622148Y-79644191D01*
X174628500Y-79683694D01*
X174628500Y-82236235D01*
X174608498Y-82304356D01*
X174591595Y-82325330D01*
X172328970Y-84587954D01*
X172320728Y-84595454D01*
X172314268Y-84599554D01*
X172308843Y-84605331D01*
X172267802Y-84649035D01*
X172265047Y-84651877D01*
X172245369Y-84671555D01*
X172242909Y-84674727D01*
X172235209Y-84683743D01*
X172205045Y-84715864D01*
X172195330Y-84733535D01*
X172184484Y-84750047D01*
X172172121Y-84765985D01*
X172154619Y-84806431D01*
X172149402Y-84817079D01*
X172134149Y-84844825D01*
X172128180Y-84855682D01*
X172123165Y-84875214D01*
X172116767Y-84893900D01*
X172108755Y-84912416D01*
X172104053Y-84942105D01*
X172101865Y-84955923D01*
X172099458Y-84967547D01*
X172088500Y-85010223D01*
X172088500Y-85030389D01*
X172086949Y-85050099D01*
X172083796Y-85070007D01*
X172084542Y-85077899D01*
X172087941Y-85113860D01*
X172088500Y-85125717D01*
X172088500Y-85281500D01*
X172068498Y-85349621D01*
X172014842Y-85396114D01*
X171962500Y-85407500D01*
X171059766Y-85407500D01*
X170991645Y-85387498D01*
X170945152Y-85333842D01*
X170935048Y-85263568D01*
X170964542Y-85198988D01*
X170970671Y-85192405D01*
X173111030Y-83052046D01*
X173119272Y-83044546D01*
X173125732Y-83040446D01*
X173172198Y-82990965D01*
X173174953Y-82988123D01*
X173194631Y-82968445D01*
X173197091Y-82965273D01*
X173204795Y-82956253D01*
X173226072Y-82933596D01*
X173234955Y-82924136D01*
X173244670Y-82906465D01*
X173255516Y-82889953D01*
X173267879Y-82874015D01*
X173285381Y-82833569D01*
X173290598Y-82822921D01*
X173308003Y-82791262D01*
X173308004Y-82791259D01*
X173311820Y-82784318D01*
X173316835Y-82764786D01*
X173323233Y-82746100D01*
X173331245Y-82727584D01*
X173332485Y-82719756D01*
X173332486Y-82719752D01*
X173338138Y-82684072D01*
X173340544Y-82672451D01*
X173349528Y-82637458D01*
X173349528Y-82637457D01*
X173351500Y-82629777D01*
X173351500Y-82609612D01*
X173353051Y-82589902D01*
X173354964Y-82577824D01*
X173354964Y-82577823D01*
X173356204Y-82569994D01*
X173352059Y-82526140D01*
X173351500Y-82514287D01*
X173351500Y-79678686D01*
X173371502Y-79610565D01*
X173396929Y-79581814D01*
X173486947Y-79506947D01*
X173613870Y-79354339D01*
X173710856Y-79181158D01*
X173751964Y-79060059D01*
X173772803Y-78998669D01*
X173772803Y-78998668D01*
X173774659Y-78993201D01*
X173775487Y-78987492D01*
X173775488Y-78987487D01*
X173802608Y-78800438D01*
X173803141Y-78796765D01*
X173804627Y-78740000D01*
X173786465Y-78542342D01*
X173778368Y-78513630D01*
X173751433Y-78418128D01*
X173732587Y-78351304D01*
X173644797Y-78173284D01*
X173526035Y-78014243D01*
X173511510Y-78000816D01*
X173384520Y-77883428D01*
X173384518Y-77883426D01*
X173380279Y-77879508D01*
X173269368Y-77809528D01*
X173217290Y-77776669D01*
X173217289Y-77776669D01*
X173212410Y-77773590D01*
X173207050Y-77771452D01*
X173207047Y-77771450D01*
X173095150Y-77726808D01*
X173028051Y-77700038D01*
X173022394Y-77698913D01*
X173022388Y-77698911D01*
X172839041Y-77662442D01*
X172839039Y-77662442D01*
X172833374Y-77661315D01*
X172827599Y-77661239D01*
X172827595Y-77661239D01*
X172728638Y-77659944D01*
X172634901Y-77658717D01*
X172629204Y-77659696D01*
X172629203Y-77659696D01*
X172444975Y-77691352D01*
X172439278Y-77692331D01*
X172253056Y-77761032D01*
X172082472Y-77862518D01*
X171933239Y-77993392D01*
X171929664Y-77997927D01*
X171929663Y-77997928D01*
X171916801Y-78014243D01*
X171810355Y-78149270D01*
X171807666Y-78154381D01*
X171807664Y-78154384D01*
X171760989Y-78243098D01*
X171717935Y-78324931D01*
X171659075Y-78514493D01*
X171635745Y-78711608D01*
X171648727Y-78909673D01*
X171697586Y-79102056D01*
X171780685Y-79282313D01*
X171784018Y-79287029D01*
X171856902Y-79390157D01*
X171895243Y-79444409D01*
X172037422Y-79582913D01*
X172041874Y-79585888D01*
X172082148Y-79644191D01*
X172088500Y-79683694D01*
X172088500Y-82236235D01*
X172068498Y-82304356D01*
X172051595Y-82325330D01*
X170279105Y-84097819D01*
X170216793Y-84131845D01*
X170145977Y-84126780D01*
X170089142Y-84084233D01*
X170064331Y-84017713D01*
X170065314Y-83990644D01*
X170081826Y-83876765D01*
X170083312Y-83820000D01*
X170065150Y-83622342D01*
X170067837Y-83622095D01*
X170074062Y-83562755D01*
X170101500Y-83521576D01*
X170571030Y-83052046D01*
X170579272Y-83044546D01*
X170585732Y-83040446D01*
X170632198Y-82990965D01*
X170634953Y-82988123D01*
X170654631Y-82968445D01*
X170657091Y-82965273D01*
X170664795Y-82956253D01*
X170686072Y-82933596D01*
X170694955Y-82924136D01*
X170704670Y-82906465D01*
X170715516Y-82889953D01*
X170727879Y-82874015D01*
X170745381Y-82833569D01*
X170750598Y-82822921D01*
X170768003Y-82791262D01*
X170768004Y-82791259D01*
X170771820Y-82784318D01*
X170776835Y-82764786D01*
X170783233Y-82746100D01*
X170791245Y-82727584D01*
X170792485Y-82719756D01*
X170792486Y-82719752D01*
X170798138Y-82684072D01*
X170800544Y-82672451D01*
X170809528Y-82637458D01*
X170809528Y-82637457D01*
X170811500Y-82629777D01*
X170811500Y-82609612D01*
X170813051Y-82589902D01*
X170814964Y-82577824D01*
X170814964Y-82577823D01*
X170816204Y-82569994D01*
X170812059Y-82526140D01*
X170811500Y-82514284D01*
X170811500Y-79678686D01*
X170831502Y-79610565D01*
X170856929Y-79581814D01*
X170946947Y-79506947D01*
X171073870Y-79354339D01*
X171170856Y-79181158D01*
X171211964Y-79060059D01*
X171232803Y-78998669D01*
X171232803Y-78998668D01*
X171234659Y-78993201D01*
X171235487Y-78987492D01*
X171235488Y-78987487D01*
X171262608Y-78800438D01*
X171263141Y-78796765D01*
X171264627Y-78740000D01*
X171246465Y-78542342D01*
X171238368Y-78513630D01*
X171211433Y-78418128D01*
X171192587Y-78351304D01*
X171104797Y-78173284D01*
X170986035Y-78014243D01*
X170971510Y-78000816D01*
X170844520Y-77883428D01*
X170844518Y-77883426D01*
X170840279Y-77879508D01*
X170729368Y-77809528D01*
X170677290Y-77776669D01*
X170677289Y-77776669D01*
X170672410Y-77773590D01*
X170667050Y-77771452D01*
X170667047Y-77771450D01*
X170555150Y-77726808D01*
X170488051Y-77700038D01*
X170482394Y-77698913D01*
X170482388Y-77698911D01*
X170299041Y-77662442D01*
X170299039Y-77662442D01*
X170293374Y-77661315D01*
X170287599Y-77661239D01*
X170287595Y-77661239D01*
X170188638Y-77659944D01*
X170094901Y-77658717D01*
X170089204Y-77659696D01*
X170089203Y-77659696D01*
X169904975Y-77691352D01*
X169899278Y-77692331D01*
X169713056Y-77761032D01*
X169542472Y-77862518D01*
X169393239Y-77993392D01*
X169389664Y-77997927D01*
X169389663Y-77997928D01*
X169376801Y-78014243D01*
X169270355Y-78149270D01*
X169267666Y-78154381D01*
X169267664Y-78154384D01*
X169220989Y-78243098D01*
X169177935Y-78324931D01*
X169119075Y-78514493D01*
X169095745Y-78711608D01*
X169108727Y-78909673D01*
X169157586Y-79102056D01*
X169240685Y-79282313D01*
X169244018Y-79287029D01*
X169316902Y-79390157D01*
X169355243Y-79444409D01*
X169497422Y-79582913D01*
X169501874Y-79585888D01*
X169542148Y-79644191D01*
X169548500Y-79683694D01*
X169548500Y-80150566D01*
X169528498Y-80218687D01*
X169474842Y-80265180D01*
X169404568Y-80275284D01*
X169375813Y-80267597D01*
X169306736Y-80240038D01*
X169301079Y-80238913D01*
X169301073Y-80238911D01*
X169117726Y-80202442D01*
X169117724Y-80202442D01*
X169112059Y-80201315D01*
X169106284Y-80201239D01*
X169106280Y-80201239D01*
X169007323Y-80199944D01*
X168913586Y-80198717D01*
X168889896Y-80202788D01*
X168819375Y-80194612D01*
X168779464Y-80167703D01*
X168347242Y-79735481D01*
X168313216Y-79673169D01*
X168318281Y-79602354D01*
X168355768Y-79549512D01*
X168402509Y-79510638D01*
X168406947Y-79506947D01*
X168533870Y-79354339D01*
X168630856Y-79181158D01*
X168671964Y-79060059D01*
X168692803Y-78998669D01*
X168692803Y-78998668D01*
X168694659Y-78993201D01*
X168695487Y-78987492D01*
X168695488Y-78987487D01*
X168722608Y-78800438D01*
X168723141Y-78796765D01*
X168724627Y-78740000D01*
X168706465Y-78542342D01*
X168698368Y-78513630D01*
X168671433Y-78418128D01*
X168652587Y-78351304D01*
X168564797Y-78173284D01*
X168446035Y-78014243D01*
X168431510Y-78000816D01*
X168304520Y-77883428D01*
X168304518Y-77883426D01*
X168300279Y-77879508D01*
X168189368Y-77809528D01*
X168137290Y-77776669D01*
X168137289Y-77776669D01*
X168132410Y-77773590D01*
X168127050Y-77771452D01*
X168127047Y-77771450D01*
X168015150Y-77726808D01*
X167948051Y-77700038D01*
X167942394Y-77698913D01*
X167942388Y-77698911D01*
X167759041Y-77662442D01*
X167759039Y-77662442D01*
X167753374Y-77661315D01*
X167747599Y-77661239D01*
X167747595Y-77661239D01*
X167648638Y-77659944D01*
X167554901Y-77658717D01*
X167549204Y-77659696D01*
X167549203Y-77659696D01*
X167364975Y-77691352D01*
X167359278Y-77692331D01*
X167173056Y-77761032D01*
X167172302Y-77758989D01*
X167111663Y-77768749D01*
X167046597Y-77740343D01*
X167007216Y-77681270D01*
X167001500Y-77643748D01*
X167001500Y-77548490D01*
X167002024Y-77537367D01*
X167003693Y-77529902D01*
X167001562Y-77462082D01*
X167001500Y-77458125D01*
X167001500Y-77430270D01*
X167000996Y-77426280D01*
X167000066Y-77414459D01*
X166998931Y-77378350D01*
X166998682Y-77370426D01*
X166993059Y-77351072D01*
X166989049Y-77331709D01*
X166987515Y-77319565D01*
X166986522Y-77311704D01*
X166983605Y-77304338D01*
X166983604Y-77304332D01*
X166970303Y-77270737D01*
X166966459Y-77259510D01*
X166956381Y-77224825D01*
X166954168Y-77217208D01*
X166943904Y-77199852D01*
X166935212Y-77182110D01*
X166927786Y-77163355D01*
X166901885Y-77127706D01*
X166895378Y-77117798D01*
X166876985Y-77086697D01*
X166876984Y-77086695D01*
X166872949Y-77079873D01*
X166858693Y-77065617D01*
X166845852Y-77050583D01*
X166838662Y-77040687D01*
X166834002Y-77034273D01*
X166800057Y-77006191D01*
X166791278Y-76998202D01*
X165602046Y-75808970D01*
X165594546Y-75800728D01*
X165590446Y-75794268D01*
X165540965Y-75747802D01*
X165538123Y-75745047D01*
X165518445Y-75725369D01*
X165515273Y-75722909D01*
X165506253Y-75715205D01*
X165479914Y-75690471D01*
X165479915Y-75690471D01*
X165474136Y-75685045D01*
X165456465Y-75675330D01*
X165439953Y-75664484D01*
X165424015Y-75652121D01*
X165383569Y-75634619D01*
X165372921Y-75629402D01*
X165341262Y-75611997D01*
X165341259Y-75611996D01*
X165334318Y-75608180D01*
X165314786Y-75603165D01*
X165296100Y-75596767D01*
X165277584Y-75588755D01*
X165234076Y-75581865D01*
X165222453Y-75579458D01*
X165179777Y-75568500D01*
X165159611Y-75568500D01*
X165139901Y-75566949D01*
X165127823Y-75565036D01*
X165127822Y-75565036D01*
X165119993Y-75563796D01*
X165102410Y-75565458D01*
X165076140Y-75567941D01*
X165064283Y-75568500D01*
X160769087Y-75568500D01*
X160700966Y-75548498D01*
X160654473Y-75494842D01*
X160644369Y-75424568D01*
X160664139Y-75372773D01*
X160715576Y-75295354D01*
X160715577Y-75295352D01*
X160719477Y-75289482D01*
X160781737Y-75125581D01*
X160792429Y-75049502D01*
X160805587Y-74955883D01*
X160805588Y-74955875D01*
X160806138Y-74951959D01*
X160806445Y-74930000D01*
X160786901Y-74755764D01*
X160729242Y-74590188D01*
X160725511Y-74584217D01*
X160640064Y-74447473D01*
X160640063Y-74447471D01*
X160636332Y-74441501D01*
X160512789Y-74317094D01*
X160506846Y-74313322D01*
X160506843Y-74313320D01*
X160376494Y-74230598D01*
X160364755Y-74223148D01*
X160330715Y-74211027D01*
X160206220Y-74166696D01*
X160206215Y-74166695D01*
X160199585Y-74164334D01*
X160192597Y-74163501D01*
X160192594Y-74163500D01*
X160183668Y-74162436D01*
X160118395Y-74134508D01*
X160109492Y-74126417D01*
X159055073Y-73071997D01*
X157982046Y-71998970D01*
X157974546Y-71990728D01*
X157970446Y-71984268D01*
X157920965Y-71937802D01*
X157918123Y-71935047D01*
X157898445Y-71915369D01*
X157895273Y-71912909D01*
X157886253Y-71905205D01*
X157859914Y-71880471D01*
X157859915Y-71880471D01*
X157854136Y-71875045D01*
X157836465Y-71865330D01*
X157819953Y-71854484D01*
X157804015Y-71842121D01*
X157763569Y-71824619D01*
X157752921Y-71819402D01*
X157721262Y-71801997D01*
X157721259Y-71801996D01*
X157714318Y-71798180D01*
X157694786Y-71793165D01*
X157676100Y-71786767D01*
X157657584Y-71778755D01*
X157614076Y-71771865D01*
X157602453Y-71769458D01*
X157559777Y-71758500D01*
X157539611Y-71758500D01*
X157519901Y-71756949D01*
X157507823Y-71755036D01*
X157507822Y-71755036D01*
X157499993Y-71753796D01*
X157466635Y-71756949D01*
X157456140Y-71757941D01*
X157444283Y-71758500D01*
X135715316Y-71758500D01*
X135647195Y-71738498D01*
X135600702Y-71684842D01*
X135590598Y-71614568D01*
X135605382Y-71570932D01*
X135608037Y-71566191D01*
X135610856Y-71561158D01*
X135644962Y-71460684D01*
X135672803Y-71378669D01*
X135672803Y-71378668D01*
X135674659Y-71373201D01*
X135675487Y-71367492D01*
X135675488Y-71367487D01*
X135702608Y-71180438D01*
X135703141Y-71176765D01*
X135704627Y-71120000D01*
X135686465Y-70922342D01*
X135632587Y-70731304D01*
X135544797Y-70553284D01*
X135426035Y-70394243D01*
X135412678Y-70381896D01*
X135284520Y-70263428D01*
X135284518Y-70263426D01*
X135280279Y-70259508D01*
X135253352Y-70242518D01*
X135117290Y-70156669D01*
X135117289Y-70156669D01*
X135112410Y-70153590D01*
X135107050Y-70151452D01*
X135107047Y-70151450D01*
X135005317Y-70110864D01*
X134928051Y-70080038D01*
X134922394Y-70078913D01*
X134922388Y-70078911D01*
X134739041Y-70042442D01*
X134739039Y-70042442D01*
X134733374Y-70041315D01*
X134727599Y-70041239D01*
X134727595Y-70041239D01*
X134628638Y-70039944D01*
X134534901Y-70038717D01*
X134511211Y-70042788D01*
X134440690Y-70034612D01*
X134400779Y-70007703D01*
X133852046Y-69458970D01*
X133844546Y-69450728D01*
X133840446Y-69444268D01*
X133824560Y-69429350D01*
X133788594Y-69368137D01*
X133791433Y-69297197D01*
X133832173Y-69239053D01*
X133897881Y-69212165D01*
X133910813Y-69211500D01*
X135576234Y-69211500D01*
X135644355Y-69231502D01*
X135665329Y-69248405D01*
X136657954Y-70241030D01*
X136665454Y-70249272D01*
X136669554Y-70255732D01*
X136675331Y-70261157D01*
X136719035Y-70302198D01*
X136721877Y-70304953D01*
X136741555Y-70324631D01*
X136744727Y-70327091D01*
X136753743Y-70334791D01*
X136785864Y-70364955D01*
X136803535Y-70374670D01*
X136820047Y-70385516D01*
X136835985Y-70397879D01*
X136876431Y-70415381D01*
X136887079Y-70420598D01*
X136918738Y-70438003D01*
X136918741Y-70438004D01*
X136925682Y-70441820D01*
X136945214Y-70446835D01*
X136963900Y-70453233D01*
X136982416Y-70461245D01*
X136990244Y-70462485D01*
X136990248Y-70462486D01*
X137025928Y-70468138D01*
X137037549Y-70470544D01*
X137069247Y-70478682D01*
X137080223Y-70481500D01*
X137100388Y-70481500D01*
X137120098Y-70483051D01*
X137132176Y-70484964D01*
X137132177Y-70484964D01*
X137140006Y-70486204D01*
X137183860Y-70482059D01*
X137195716Y-70481500D01*
X184071501Y-70481500D01*
X184082629Y-70482025D01*
X184090098Y-70483694D01*
X184098021Y-70483445D01*
X184157936Y-70481562D01*
X184161894Y-70481500D01*
X184189730Y-70481500D01*
X184193708Y-70480997D01*
X184205543Y-70480065D01*
X184235230Y-70479133D01*
X184241651Y-70478931D01*
X184249574Y-70478682D01*
X184268928Y-70473059D01*
X184288290Y-70469049D01*
X184308296Y-70466522D01*
X184315662Y-70463605D01*
X184315668Y-70463604D01*
X184349263Y-70450303D01*
X184360490Y-70446459D01*
X184395175Y-70436381D01*
X184402792Y-70434168D01*
X184420148Y-70423904D01*
X184437890Y-70415212D01*
X184456645Y-70407786D01*
X184492294Y-70381885D01*
X184502202Y-70375378D01*
X184533303Y-70356985D01*
X184533305Y-70356984D01*
X184540127Y-70352949D01*
X184554383Y-70338693D01*
X184569417Y-70325852D01*
X184579313Y-70318662D01*
X184585727Y-70314002D01*
X184613809Y-70280057D01*
X184621798Y-70271278D01*
X190280295Y-64612781D01*
X190342607Y-64578755D01*
X190374336Y-64575973D01*
X190556765Y-64583141D01*
X190654983Y-64568900D01*
X190747487Y-64555488D01*
X190747492Y-64555487D01*
X190753201Y-64554659D01*
X190763524Y-64551155D01*
X190877945Y-64512314D01*
X192392046Y-64512314D01*
X192401928Y-64524803D01*
X192457041Y-64561627D01*
X192467146Y-64567114D01*
X192660267Y-64650086D01*
X192671210Y-64653641D01*
X192876209Y-64700028D01*
X192887618Y-64701530D01*
X193097645Y-64709781D01*
X193109129Y-64709179D01*
X193317145Y-64679019D01*
X193328328Y-64676334D01*
X193527362Y-64608771D01*
X193537865Y-64604095D01*
X193680404Y-64524270D01*
X193690266Y-64514194D01*
X193687311Y-64506522D01*
X193052811Y-63872021D01*
X193038868Y-63864408D01*
X193037034Y-63864539D01*
X193030420Y-63868790D01*
X192398239Y-64500972D01*
X192392046Y-64512314D01*
X190877945Y-64512314D01*
X190941158Y-64490856D01*
X191114339Y-64393870D01*
X191266947Y-64266947D01*
X191341468Y-64177345D01*
X191390179Y-64118777D01*
X191393870Y-64114339D01*
X191490856Y-63941158D01*
X191554659Y-63753201D01*
X191555487Y-63747492D01*
X191555488Y-63747487D01*
X191582609Y-63560437D01*
X191582610Y-63560430D01*
X191583141Y-63556765D01*
X191583231Y-63553322D01*
X191602735Y-63503140D01*
X191600588Y-63498734D01*
X191810961Y-63498734D01*
X191832231Y-63538986D01*
X191834485Y-63555841D01*
X191842871Y-63683779D01*
X191844672Y-63695149D01*
X191896409Y-63898863D01*
X191900250Y-63909710D01*
X191988247Y-64100592D01*
X191993996Y-64110549D01*
X192015112Y-64140427D01*
X192025702Y-64148816D01*
X192039001Y-64141788D01*
X192667979Y-63512811D01*
X192674356Y-63501132D01*
X193404408Y-63501132D01*
X193404539Y-63502966D01*
X193408790Y-63509580D01*
X194042611Y-64143400D01*
X194054986Y-64150157D01*
X194061566Y-64145231D01*
X194144095Y-63997865D01*
X194148771Y-63987362D01*
X194216334Y-63788328D01*
X194219019Y-63777145D01*
X194249475Y-63567088D01*
X194250105Y-63559705D01*
X194251572Y-63503704D01*
X194251329Y-63496305D01*
X194231908Y-63284945D01*
X194229811Y-63273630D01*
X194172758Y-63071336D01*
X194168636Y-63060597D01*
X194075671Y-62872083D01*
X194069665Y-62862281D01*
X194066510Y-62858056D01*
X194055251Y-62849606D01*
X194042834Y-62856377D01*
X193412021Y-63487189D01*
X193404408Y-63501132D01*
X192674356Y-63501132D01*
X192675592Y-63498868D01*
X192675461Y-63497034D01*
X192671210Y-63490420D01*
X192035603Y-62854814D01*
X192023228Y-62848057D01*
X192017262Y-62852523D01*
X191923256Y-63031198D01*
X191918851Y-63041832D01*
X191856522Y-63242563D01*
X191854130Y-63253817D01*
X191830583Y-63452762D01*
X191810961Y-63498734D01*
X191600588Y-63498734D01*
X191581225Y-63458994D01*
X191579985Y-63449481D01*
X191566994Y-63308099D01*
X191566465Y-63302342D01*
X191558368Y-63273630D01*
X191549606Y-63242563D01*
X191512587Y-63111304D01*
X191424797Y-62933284D01*
X191306035Y-62774243D01*
X191301799Y-62770327D01*
X191164520Y-62643428D01*
X191164518Y-62643426D01*
X191160279Y-62639508D01*
X190992410Y-62533590D01*
X190987050Y-62531452D01*
X190987047Y-62531450D01*
X190875150Y-62486808D01*
X192390921Y-62486808D01*
X192394407Y-62495196D01*
X193027189Y-63127979D01*
X193041132Y-63135592D01*
X193042966Y-63135461D01*
X193049580Y-63131210D01*
X193681700Y-62499089D01*
X193688457Y-62486714D01*
X193682427Y-62478658D01*
X193594972Y-62423478D01*
X193584721Y-62418254D01*
X193389497Y-62340368D01*
X193378469Y-62337101D01*
X193172322Y-62296096D01*
X193160875Y-62294893D01*
X192950716Y-62292142D01*
X192939236Y-62293045D01*
X192732087Y-62328640D01*
X192720979Y-62331617D01*
X192523782Y-62404366D01*
X192513400Y-62409318D01*
X192400519Y-62476475D01*
X192390921Y-62486808D01*
X190875150Y-62486808D01*
X190808051Y-62460038D01*
X190802394Y-62458913D01*
X190802388Y-62458911D01*
X190619041Y-62422442D01*
X190619039Y-62422442D01*
X190613374Y-62421315D01*
X190607599Y-62421239D01*
X190607595Y-62421239D01*
X190508638Y-62419944D01*
X190414901Y-62418717D01*
X190409204Y-62419696D01*
X190409203Y-62419696D01*
X190219278Y-62452331D01*
X190033056Y-62521032D01*
X189862472Y-62622518D01*
X189858128Y-62626328D01*
X189721096Y-62746502D01*
X189713239Y-62753392D01*
X189709664Y-62757927D01*
X189709663Y-62757928D01*
X189697598Y-62773232D01*
X189590355Y-62909270D01*
X189587666Y-62914381D01*
X189587664Y-62914384D01*
X189567525Y-62952662D01*
X189497935Y-63084931D01*
X189439075Y-63274493D01*
X189415745Y-63471608D01*
X189416123Y-63477374D01*
X189416123Y-63477375D01*
X189425517Y-63620707D01*
X189410013Y-63689990D01*
X189388882Y-63718042D01*
X189222522Y-63884402D01*
X189160210Y-63918428D01*
X189089395Y-63913363D01*
X189032559Y-63870816D01*
X189007748Y-63804296D01*
X189012853Y-63764623D01*
X189011454Y-63764287D01*
X189012803Y-63758668D01*
X189014659Y-63753201D01*
X189015487Y-63747492D01*
X189015488Y-63747487D01*
X189039301Y-63583246D01*
X189043141Y-63556765D01*
X189044627Y-63500000D01*
X189026465Y-63302342D01*
X189018368Y-63273630D01*
X189009606Y-63242563D01*
X188972587Y-63111304D01*
X188884797Y-62933284D01*
X188766035Y-62774243D01*
X188761799Y-62770327D01*
X188624520Y-62643428D01*
X188624518Y-62643426D01*
X188620279Y-62639508D01*
X188452410Y-62533590D01*
X188447050Y-62531452D01*
X188447047Y-62531450D01*
X188335150Y-62486808D01*
X188268051Y-62460038D01*
X188262394Y-62458913D01*
X188262388Y-62458911D01*
X188079041Y-62422442D01*
X188079039Y-62422442D01*
X188073374Y-62421315D01*
X188067599Y-62421239D01*
X188067595Y-62421239D01*
X187968638Y-62419944D01*
X187874901Y-62418717D01*
X187869204Y-62419696D01*
X187869203Y-62419696D01*
X187679278Y-62452331D01*
X187493056Y-62521032D01*
X187322472Y-62622518D01*
X187318128Y-62626328D01*
X187181096Y-62746502D01*
X187173239Y-62753392D01*
X187169664Y-62757927D01*
X187169663Y-62757928D01*
X187157598Y-62773232D01*
X187050355Y-62909270D01*
X187047666Y-62914381D01*
X187047664Y-62914384D01*
X187027525Y-62952662D01*
X186957935Y-63084931D01*
X186899075Y-63274493D01*
X186898396Y-63280230D01*
X186877778Y-63454430D01*
X186857469Y-63502011D01*
X186879296Y-63543322D01*
X186881550Y-63560172D01*
X186888727Y-63669673D01*
X186937586Y-63862056D01*
X187020685Y-64042313D01*
X187024018Y-64047029D01*
X187115315Y-64176211D01*
X187135243Y-64204409D01*
X187139384Y-64208443D01*
X187142786Y-64212426D01*
X187171818Y-64277215D01*
X187161214Y-64347416D01*
X187136071Y-64383353D01*
X183543309Y-67976115D01*
X183480997Y-68010141D01*
X183454214Y-68013020D01*
X181152035Y-68013020D01*
X181083914Y-67993018D01*
X181037421Y-67939362D01*
X181027317Y-67869088D01*
X181056811Y-67804508D01*
X181077974Y-67785084D01*
X181086813Y-67778662D01*
X181093227Y-67774002D01*
X181121309Y-67740057D01*
X181129298Y-67731278D01*
X183271030Y-65589546D01*
X183279272Y-65582046D01*
X183285732Y-65577946D01*
X183332198Y-65528465D01*
X183334953Y-65525623D01*
X183354632Y-65505944D01*
X183357063Y-65502809D01*
X183357068Y-65502804D01*
X183357092Y-65502773D01*
X183364804Y-65493743D01*
X183389528Y-65467415D01*
X183394955Y-65461636D01*
X183404669Y-65443966D01*
X183415523Y-65427443D01*
X183423020Y-65417778D01*
X183427879Y-65411514D01*
X183445375Y-65371083D01*
X183450595Y-65360426D01*
X183468001Y-65328764D01*
X183471820Y-65321818D01*
X183476835Y-65302288D01*
X183483238Y-65283588D01*
X183488098Y-65272357D01*
X183488099Y-65272352D01*
X183491245Y-65265083D01*
X183498137Y-65221566D01*
X183500545Y-65209942D01*
X183509529Y-65174954D01*
X183509529Y-65174953D01*
X183511500Y-65167277D01*
X183511500Y-65147117D01*
X183513051Y-65127406D01*
X183514965Y-65115321D01*
X183516205Y-65107493D01*
X183512059Y-65063632D01*
X183511500Y-65051775D01*
X183511500Y-64512314D01*
X184772046Y-64512314D01*
X184781928Y-64524803D01*
X184837041Y-64561627D01*
X184847146Y-64567114D01*
X185040267Y-64650086D01*
X185051210Y-64653641D01*
X185256209Y-64700028D01*
X185267618Y-64701530D01*
X185477645Y-64709781D01*
X185489129Y-64709179D01*
X185697145Y-64679019D01*
X185708328Y-64676334D01*
X185907362Y-64608771D01*
X185917865Y-64604095D01*
X186060404Y-64524270D01*
X186070266Y-64514194D01*
X186067311Y-64506522D01*
X185432811Y-63872021D01*
X185418868Y-63864408D01*
X185417034Y-63864539D01*
X185410420Y-63868790D01*
X184778239Y-64500972D01*
X184772046Y-64512314D01*
X183511500Y-64512314D01*
X183511500Y-64438686D01*
X183531502Y-64370565D01*
X183556929Y-64341814D01*
X183646947Y-64266947D01*
X183721468Y-64177345D01*
X183770179Y-64118777D01*
X183773870Y-64114339D01*
X183870856Y-63941158D01*
X183934659Y-63753201D01*
X183935487Y-63747492D01*
X183935488Y-63747487D01*
X183962609Y-63560437D01*
X183962610Y-63560430D01*
X183963141Y-63556765D01*
X183963231Y-63553322D01*
X183982735Y-63503140D01*
X183980588Y-63498734D01*
X184190961Y-63498734D01*
X184212231Y-63538986D01*
X184214485Y-63555841D01*
X184222871Y-63683779D01*
X184224672Y-63695149D01*
X184276409Y-63898863D01*
X184280250Y-63909710D01*
X184368247Y-64100592D01*
X184373996Y-64110549D01*
X184395112Y-64140427D01*
X184405702Y-64148816D01*
X184419001Y-64141788D01*
X185047979Y-63512811D01*
X185054356Y-63501132D01*
X185784408Y-63501132D01*
X185784539Y-63502966D01*
X185788790Y-63509580D01*
X186422611Y-64143400D01*
X186434986Y-64150157D01*
X186441566Y-64145231D01*
X186524095Y-63997865D01*
X186528771Y-63987362D01*
X186596334Y-63788328D01*
X186599019Y-63777145D01*
X186629475Y-63567090D01*
X186630276Y-63557702D01*
X186650434Y-63505842D01*
X186628420Y-63460662D01*
X186627180Y-63451149D01*
X186611908Y-63284945D01*
X186609811Y-63273630D01*
X186552758Y-63071336D01*
X186548636Y-63060597D01*
X186455671Y-62872083D01*
X186449665Y-62862281D01*
X186446510Y-62858056D01*
X186435251Y-62849606D01*
X186422834Y-62856377D01*
X185792021Y-63487189D01*
X185784408Y-63501132D01*
X185054356Y-63501132D01*
X185055592Y-63498868D01*
X185055461Y-63497034D01*
X185051210Y-63490420D01*
X184415603Y-62854814D01*
X184403228Y-62848057D01*
X184397262Y-62852523D01*
X184303256Y-63031198D01*
X184298851Y-63041832D01*
X184236522Y-63242563D01*
X184234130Y-63253817D01*
X184210583Y-63452762D01*
X184190961Y-63498734D01*
X183980588Y-63498734D01*
X183961225Y-63458994D01*
X183959985Y-63449481D01*
X183946994Y-63308099D01*
X183946465Y-63302342D01*
X183938368Y-63273630D01*
X183929606Y-63242563D01*
X183892587Y-63111304D01*
X183804797Y-62933284D01*
X183686035Y-62774243D01*
X183681799Y-62770327D01*
X183544520Y-62643428D01*
X183544518Y-62643426D01*
X183540279Y-62639508D01*
X183372410Y-62533590D01*
X183367050Y-62531452D01*
X183367047Y-62531450D01*
X183255150Y-62486808D01*
X184770921Y-62486808D01*
X184774407Y-62495196D01*
X185407189Y-63127979D01*
X185421132Y-63135592D01*
X185422966Y-63135461D01*
X185429580Y-63131210D01*
X186061700Y-62499089D01*
X186068457Y-62486714D01*
X186062427Y-62478658D01*
X185974972Y-62423478D01*
X185964721Y-62418254D01*
X185769497Y-62340368D01*
X185758469Y-62337101D01*
X185552322Y-62296096D01*
X185540875Y-62294893D01*
X185330716Y-62292142D01*
X185319236Y-62293045D01*
X185112087Y-62328640D01*
X185100979Y-62331617D01*
X184903782Y-62404366D01*
X184893400Y-62409318D01*
X184780519Y-62476475D01*
X184770921Y-62486808D01*
X183255150Y-62486808D01*
X183188051Y-62460038D01*
X183182394Y-62458913D01*
X183182388Y-62458911D01*
X182999041Y-62422442D01*
X182999039Y-62422442D01*
X182993374Y-62421315D01*
X182987599Y-62421239D01*
X182987595Y-62421239D01*
X182888638Y-62419944D01*
X182794901Y-62418717D01*
X182789204Y-62419696D01*
X182789203Y-62419696D01*
X182599278Y-62452331D01*
X182413056Y-62521032D01*
X182242472Y-62622518D01*
X182238128Y-62626328D01*
X182101096Y-62746502D01*
X182093239Y-62753392D01*
X182089664Y-62757927D01*
X182089663Y-62757928D01*
X182077598Y-62773232D01*
X181970355Y-62909270D01*
X181967666Y-62914381D01*
X181967664Y-62914384D01*
X181947525Y-62952662D01*
X181877935Y-63084931D01*
X181819075Y-63274493D01*
X181795745Y-63471608D01*
X181808727Y-63669673D01*
X181857586Y-63862056D01*
X181940685Y-64042313D01*
X181944018Y-64047029D01*
X182035315Y-64176211D01*
X182055243Y-64204409D01*
X182059385Y-64208444D01*
X182165799Y-64312107D01*
X182197422Y-64342913D01*
X182201874Y-64345888D01*
X182242148Y-64404191D01*
X182248500Y-64443694D01*
X182248500Y-64773734D01*
X182228498Y-64841855D01*
X182211595Y-64862829D01*
X180432829Y-66641595D01*
X180370517Y-66675621D01*
X180343734Y-66678500D01*
X175819133Y-66678500D01*
X175751012Y-66658498D01*
X175704519Y-66604842D01*
X175694415Y-66534568D01*
X175722056Y-66472176D01*
X175723820Y-66470043D01*
X175731798Y-66461278D01*
X177580295Y-64612781D01*
X177642607Y-64578755D01*
X177674336Y-64575973D01*
X177856765Y-64583141D01*
X177954983Y-64568900D01*
X178047487Y-64555488D01*
X178047492Y-64555487D01*
X178053201Y-64554659D01*
X178063524Y-64551155D01*
X178177945Y-64512314D01*
X178241158Y-64490856D01*
X178414339Y-64393870D01*
X178566947Y-64266947D01*
X178641468Y-64177345D01*
X178690179Y-64118777D01*
X178693870Y-64114339D01*
X178790856Y-63941158D01*
X178824592Y-63841776D01*
X178865428Y-63783701D01*
X178931181Y-63756922D01*
X179000973Y-63769943D01*
X179032999Y-63793183D01*
X179575926Y-64336110D01*
X179575937Y-64336120D01*
X179578054Y-64338237D01*
X179580359Y-64340140D01*
X179580364Y-64340145D01*
X179603007Y-64358843D01*
X179702752Y-64441212D01*
X179892227Y-64544733D01*
X179897936Y-64546561D01*
X179897942Y-64546563D01*
X180092155Y-64608731D01*
X180092157Y-64608731D01*
X180097860Y-64610557D01*
X180172416Y-64619513D01*
X180306282Y-64635594D01*
X180306286Y-64635594D01*
X180312229Y-64636308D01*
X180318205Y-64635885D01*
X180318208Y-64635885D01*
X180402018Y-64629951D01*
X180527601Y-64621059D01*
X180533389Y-64619514D01*
X180533392Y-64619513D01*
X180730414Y-64566904D01*
X180730416Y-64566903D01*
X180736203Y-64565358D01*
X180889977Y-64490856D01*
X180925109Y-64473835D01*
X180925111Y-64473834D01*
X180930510Y-64471218D01*
X180970693Y-64441212D01*
X181098706Y-64345620D01*
X181098709Y-64345618D01*
X181103509Y-64342033D01*
X181248959Y-64182466D01*
X181331793Y-64047029D01*
X181358485Y-64003387D01*
X181358486Y-64003386D01*
X181361612Y-63998274D01*
X181437402Y-63796102D01*
X181456501Y-63683779D01*
X181472589Y-63589164D01*
X181472589Y-63589161D01*
X181473595Y-63583246D01*
X181468885Y-63367386D01*
X181454882Y-63302342D01*
X181424704Y-63162174D01*
X181423442Y-63156312D01*
X181414626Y-63135592D01*
X181341254Y-62963160D01*
X181338905Y-62957639D01*
X181218325Y-62778536D01*
X181214502Y-62774320D01*
X179310190Y-60870007D01*
X179303039Y-60861538D01*
X179302825Y-60861722D01*
X179298902Y-60857177D01*
X179295436Y-60852291D01*
X179227041Y-60786817D01*
X179225077Y-60784894D01*
X179196946Y-60756763D01*
X179194630Y-60754851D01*
X179194625Y-60754846D01*
X179191044Y-60751889D01*
X179184138Y-60745747D01*
X179143804Y-60707135D01*
X179139470Y-60702986D01*
X179134434Y-60699734D01*
X179134431Y-60699732D01*
X179110609Y-60684351D01*
X179098725Y-60675653D01*
X179076876Y-60657610D01*
X179072248Y-60653788D01*
X179017984Y-60624141D01*
X179010047Y-60619419D01*
X178963132Y-60589126D01*
X178958085Y-60585867D01*
X178926229Y-60573028D01*
X178912916Y-60566735D01*
X178888045Y-60553147D01*
X178888042Y-60553146D01*
X178882773Y-60550267D01*
X178823870Y-60531412D01*
X178815191Y-60528278D01*
X178763391Y-60507402D01*
X178763381Y-60507399D01*
X178757825Y-60505160D01*
X178724113Y-60498576D01*
X178709851Y-60494914D01*
X178682856Y-60486273D01*
X178682849Y-60486272D01*
X178677140Y-60484444D01*
X178635847Y-60479483D01*
X178615736Y-60477067D01*
X178606618Y-60475631D01*
X178550368Y-60464647D01*
X178550366Y-60464647D01*
X178545917Y-60463778D01*
X178540233Y-60463500D01*
X178510339Y-60463500D01*
X178495311Y-60462601D01*
X178468718Y-60459406D01*
X178468714Y-60459406D01*
X178462771Y-60458692D01*
X178456796Y-60459115D01*
X178456792Y-60459115D01*
X178399318Y-60463185D01*
X178390418Y-60463500D01*
X166357500Y-60463500D01*
X166289379Y-60443498D01*
X166242886Y-60389842D01*
X166231500Y-60337500D01*
X166231500Y-59432314D01*
X169532046Y-59432314D01*
X169541928Y-59444803D01*
X169597041Y-59481627D01*
X169607146Y-59487114D01*
X169800267Y-59570086D01*
X169811210Y-59573641D01*
X170016209Y-59620028D01*
X170027618Y-59621530D01*
X170237645Y-59629781D01*
X170249129Y-59629179D01*
X170457145Y-59599019D01*
X170468328Y-59596334D01*
X170667362Y-59528771D01*
X170677865Y-59524095D01*
X170820404Y-59444270D01*
X170830266Y-59434194D01*
X170827311Y-59426522D01*
X170192811Y-58792021D01*
X170178868Y-58784408D01*
X170177034Y-58784539D01*
X170170420Y-58788790D01*
X169538239Y-59420972D01*
X169532046Y-59432314D01*
X166231500Y-59432314D01*
X166231500Y-58366054D01*
X166216140Y-58205065D01*
X166212786Y-58193630D01*
X166186874Y-58105304D01*
X166155361Y-57997886D01*
X166146421Y-57980527D01*
X166059247Y-57811268D01*
X166059245Y-57811265D01*
X166056501Y-57805937D01*
X166000648Y-57734833D01*
X165974298Y-57668907D01*
X165987773Y-57599201D01*
X166036795Y-57547846D01*
X166099734Y-57531000D01*
X169084624Y-57531000D01*
X169152745Y-57551002D01*
G37*
%TD.AperFunction*%
%TA.AperFunction,Conductor*%
G36*
X113272745Y-57551002D02*
G01*
X113319238Y-57604658D01*
X113329342Y-57674932D01*
X113303574Y-57735005D01*
X113287390Y-57755535D01*
X113281118Y-57765192D01*
X113183256Y-57951198D01*
X113178851Y-57961832D01*
X113116522Y-58162563D01*
X113114130Y-58173817D01*
X113089425Y-58382547D01*
X113089124Y-58394048D01*
X113102871Y-58603779D01*
X113104672Y-58615149D01*
X113156409Y-58818863D01*
X113160250Y-58829710D01*
X113248247Y-59020592D01*
X113253996Y-59030549D01*
X113275112Y-59060427D01*
X113285701Y-59068815D01*
X113299000Y-59061788D01*
X114210905Y-58149884D01*
X114273217Y-58115859D01*
X114344033Y-58120924D01*
X114389095Y-58149884D01*
X115302609Y-59063398D01*
X115314987Y-59070156D01*
X115321566Y-59065231D01*
X115404095Y-58917865D01*
X115408771Y-58907362D01*
X115449435Y-58787570D01*
X115490272Y-58729494D01*
X115556025Y-58702715D01*
X115625817Y-58715736D01*
X115677490Y-58764423D01*
X115690872Y-58797058D01*
X115696411Y-58818869D01*
X115700250Y-58829710D01*
X115788247Y-59020592D01*
X115793996Y-59030549D01*
X115815112Y-59060427D01*
X115825701Y-59068815D01*
X115839000Y-59061788D01*
X116750905Y-58149884D01*
X116813217Y-58115859D01*
X116884033Y-58120924D01*
X116929095Y-58149884D01*
X117842609Y-59063398D01*
X117854987Y-59070156D01*
X117861566Y-59065231D01*
X117944095Y-58917865D01*
X117948771Y-58907362D01*
X117989435Y-58787570D01*
X118030272Y-58729494D01*
X118096025Y-58702715D01*
X118165817Y-58715736D01*
X118217490Y-58764423D01*
X118230872Y-58797058D01*
X118236411Y-58818869D01*
X118240250Y-58829710D01*
X118328247Y-59020592D01*
X118333996Y-59030549D01*
X118355112Y-59060427D01*
X118365701Y-59068815D01*
X118379000Y-59061788D01*
X119290905Y-58149884D01*
X119353217Y-58115859D01*
X119424033Y-58120924D01*
X119469095Y-58149884D01*
X120382609Y-59063398D01*
X120394987Y-59070156D01*
X120401566Y-59065231D01*
X120484095Y-58917865D01*
X120488771Y-58907362D01*
X120556334Y-58708328D01*
X120559019Y-58697145D01*
X120589475Y-58487088D01*
X120590105Y-58479705D01*
X120591572Y-58423704D01*
X120591329Y-58416305D01*
X120571908Y-58204945D01*
X120569811Y-58193630D01*
X120512758Y-57991336D01*
X120508636Y-57980597D01*
X120415673Y-57792085D01*
X120409663Y-57782278D01*
X120372409Y-57732389D01*
X120347677Y-57665839D01*
X120362851Y-57596483D01*
X120413113Y-57546341D01*
X120473367Y-57531000D01*
X164095795Y-57531000D01*
X164163916Y-57551002D01*
X164210409Y-57604658D01*
X164220513Y-57674932D01*
X164201648Y-57725346D01*
X164090867Y-57896915D01*
X164010160Y-58097175D01*
X163968778Y-58309083D01*
X163968500Y-58314767D01*
X163968500Y-61171298D01*
X163967568Y-61182341D01*
X163967850Y-61182362D01*
X163967411Y-61188336D01*
X163966405Y-61194254D01*
X163966536Y-61200255D01*
X163968470Y-61288893D01*
X163968500Y-61291642D01*
X163968500Y-63553946D01*
X163983860Y-63714935D01*
X163985549Y-63720691D01*
X163985549Y-63720693D01*
X164040073Y-63906551D01*
X164040055Y-63977548D01*
X164001657Y-64037264D01*
X163937069Y-64066742D01*
X163919168Y-64068020D01*
X155180746Y-64068020D01*
X155112625Y-64048018D01*
X155091651Y-64031115D01*
X151026968Y-59966432D01*
X150992942Y-59904120D01*
X150991367Y-59859257D01*
X151006292Y-59756317D01*
X151006825Y-59752643D01*
X151008399Y-59692540D01*
X150989169Y-59483261D01*
X150985704Y-59470973D01*
X150955175Y-59362728D01*
X150932123Y-59280991D01*
X150839171Y-59092503D01*
X150821483Y-59068815D01*
X150716880Y-58928735D01*
X150716879Y-58928734D01*
X150713427Y-58924111D01*
X150678840Y-58892139D01*
X150563341Y-58785373D01*
X150563338Y-58785371D01*
X150559101Y-58781454D01*
X150381362Y-58669309D01*
X150186163Y-58591432D01*
X150180506Y-58590307D01*
X150180500Y-58590305D01*
X149985707Y-58551559D01*
X149985705Y-58551559D01*
X149980040Y-58550432D01*
X149974265Y-58550356D01*
X149974261Y-58550356D01*
X149869001Y-58548978D01*
X149769898Y-58547681D01*
X149764201Y-58548660D01*
X149764200Y-58548660D01*
X149568469Y-58582293D01*
X149562772Y-58583272D01*
X149365601Y-58656012D01*
X149360640Y-58658964D01*
X149360639Y-58658964D01*
X149242090Y-58729494D01*
X149184988Y-58763466D01*
X149026981Y-58902034D01*
X148896872Y-59067077D01*
X148894181Y-59072193D01*
X148894179Y-59072195D01*
X148875450Y-59107793D01*
X148799018Y-59253067D01*
X148736696Y-59453774D01*
X148736017Y-59459509D01*
X148736017Y-59459510D01*
X148735130Y-59467003D01*
X148711995Y-59662478D01*
X148725740Y-59872189D01*
X148777471Y-60075883D01*
X148779890Y-60081130D01*
X148863038Y-60261493D01*
X148863041Y-60261498D01*
X148865457Y-60266739D01*
X148986751Y-60438365D01*
X149137289Y-60585014D01*
X149142085Y-60588219D01*
X149142088Y-60588221D01*
X149235909Y-60650910D01*
X149312031Y-60701773D01*
X149317339Y-60704054D01*
X149317340Y-60704054D01*
X149499822Y-60782454D01*
X149499825Y-60782455D01*
X149505125Y-60784732D01*
X149510754Y-60786006D01*
X149510755Y-60786006D01*
X149704467Y-60829839D01*
X149704473Y-60829840D01*
X149710104Y-60831114D01*
X149715875Y-60831341D01*
X149715877Y-60831341D01*
X149779433Y-60833838D01*
X149920103Y-60839365D01*
X149985802Y-60829839D01*
X150026717Y-60823907D01*
X150097003Y-60833927D01*
X150133892Y-60859508D01*
X154364934Y-65090550D01*
X154372434Y-65098792D01*
X154376534Y-65105252D01*
X154382311Y-65110677D01*
X154426015Y-65151718D01*
X154428857Y-65154473D01*
X154448535Y-65174151D01*
X154451707Y-65176611D01*
X154460728Y-65184316D01*
X154467474Y-65190651D01*
X154503439Y-65251863D01*
X154500600Y-65322803D01*
X154459859Y-65380947D01*
X154394151Y-65407835D01*
X154381220Y-65408500D01*
X139378766Y-65408500D01*
X139310645Y-65388498D01*
X139289671Y-65371595D01*
X138297046Y-64378970D01*
X138289546Y-64370728D01*
X138285446Y-64364268D01*
X138235965Y-64317802D01*
X138233123Y-64315047D01*
X138213445Y-64295369D01*
X138210273Y-64292909D01*
X138201253Y-64285205D01*
X138174914Y-64260471D01*
X138174915Y-64260471D01*
X138169136Y-64255045D01*
X138151465Y-64245330D01*
X138134953Y-64234484D01*
X138119015Y-64222121D01*
X138078569Y-64204619D01*
X138067921Y-64199402D01*
X138036262Y-64181997D01*
X138036259Y-64181996D01*
X138029318Y-64178180D01*
X138009786Y-64173165D01*
X137991100Y-64166767D01*
X137972584Y-64158755D01*
X137929076Y-64151865D01*
X137917453Y-64149458D01*
X137874777Y-64138500D01*
X137854611Y-64138500D01*
X137834901Y-64136949D01*
X137822823Y-64135036D01*
X137822822Y-64135036D01*
X137814993Y-64133796D01*
X137788438Y-64136306D01*
X137771140Y-64137941D01*
X137759283Y-64138500D01*
X125808500Y-64138500D01*
X125797370Y-64137975D01*
X125789902Y-64136306D01*
X125737868Y-64137941D01*
X125722051Y-64138438D01*
X125718094Y-64138500D01*
X125690270Y-64138500D01*
X125686293Y-64139002D01*
X125674468Y-64139933D01*
X125650734Y-64140679D01*
X125638346Y-64141068D01*
X125638345Y-64141068D01*
X125630426Y-64141317D01*
X125611062Y-64146943D01*
X125591704Y-64150952D01*
X125589481Y-64151233D01*
X125579570Y-64152484D01*
X125579567Y-64152485D01*
X125571704Y-64153478D01*
X125564336Y-64156395D01*
X125564329Y-64156397D01*
X125530742Y-64169696D01*
X125519509Y-64173542D01*
X125484818Y-64183620D01*
X125484811Y-64183623D01*
X125477208Y-64185832D01*
X125459854Y-64196095D01*
X125442110Y-64204788D01*
X125423355Y-64212214D01*
X125387706Y-64238115D01*
X125377798Y-64244622D01*
X125346697Y-64263015D01*
X125346695Y-64263016D01*
X125339873Y-64267051D01*
X125325617Y-64281307D01*
X125310583Y-64294148D01*
X125305036Y-64298178D01*
X125294273Y-64305998D01*
X125267602Y-64338237D01*
X125266191Y-64339943D01*
X125258202Y-64348722D01*
X122140755Y-67466169D01*
X122078443Y-67500195D01*
X122038694Y-67502373D01*
X122033374Y-67501315D01*
X122027605Y-67501239D01*
X122027600Y-67501239D01*
X121920783Y-67499841D01*
X121834901Y-67498717D01*
X121829204Y-67499696D01*
X121829203Y-67499696D01*
X121644975Y-67531352D01*
X121639278Y-67532331D01*
X121453056Y-67601032D01*
X121282472Y-67702518D01*
X121133239Y-67833392D01*
X121129664Y-67837927D01*
X121129663Y-67837928D01*
X121116801Y-67854243D01*
X121010355Y-67989270D01*
X121007666Y-67994381D01*
X121007664Y-67994384D01*
X120993022Y-68022214D01*
X120917935Y-68164931D01*
X120859075Y-68354493D01*
X120835745Y-68551608D01*
X120848727Y-68749673D01*
X120874140Y-68849737D01*
X120871522Y-68920684D01*
X120830962Y-68978954D01*
X120765337Y-69006045D01*
X120695483Y-68993356D01*
X120662922Y-68969846D01*
X120490926Y-68797850D01*
X120456900Y-68735538D01*
X120455325Y-68690676D01*
X120462608Y-68640441D01*
X120462608Y-68640438D01*
X120463141Y-68636765D01*
X120464627Y-68580000D01*
X120446465Y-68382342D01*
X120392587Y-68191304D01*
X120304797Y-68013284D01*
X120186035Y-67854243D01*
X120171479Y-67840787D01*
X120051971Y-67730316D01*
X120015526Y-67669388D01*
X120011500Y-67637791D01*
X120011500Y-66978686D01*
X120031502Y-66910565D01*
X120056929Y-66881814D01*
X120146947Y-66806947D01*
X120252738Y-66679748D01*
X120270179Y-66658777D01*
X120273870Y-66654339D01*
X120370856Y-66481158D01*
X120434659Y-66293201D01*
X120435487Y-66287492D01*
X120435488Y-66287487D01*
X120462608Y-66100438D01*
X120463141Y-66096765D01*
X120464627Y-66040000D01*
X120446465Y-65842342D01*
X120392587Y-65651304D01*
X120304797Y-65473284D01*
X120186035Y-65314243D01*
X120171510Y-65300816D01*
X120044520Y-65183428D01*
X120044518Y-65183426D01*
X120040279Y-65179508D01*
X120027337Y-65171342D01*
X119877290Y-65076669D01*
X119877289Y-65076669D01*
X119872410Y-65073590D01*
X119867050Y-65071452D01*
X119867047Y-65071450D01*
X119743214Y-65022046D01*
X119688051Y-65000038D01*
X119682394Y-64998913D01*
X119682388Y-64998911D01*
X119499041Y-64962442D01*
X119499039Y-64962442D01*
X119493374Y-64961315D01*
X119487599Y-64961239D01*
X119487595Y-64961239D01*
X119388638Y-64959944D01*
X119294901Y-64958717D01*
X119289204Y-64959696D01*
X119289203Y-64959696D01*
X119104975Y-64991352D01*
X119099278Y-64992331D01*
X118913056Y-65061032D01*
X118742472Y-65162518D01*
X118593239Y-65293392D01*
X118589664Y-65297927D01*
X118589663Y-65297928D01*
X118579543Y-65310765D01*
X118470355Y-65449270D01*
X118467666Y-65454381D01*
X118467664Y-65454384D01*
X118442189Y-65502804D01*
X118377935Y-65624931D01*
X118319075Y-65814493D01*
X118295745Y-66011608D01*
X118308727Y-66209673D01*
X118357586Y-66402056D01*
X118394052Y-66481158D01*
X118434272Y-66568401D01*
X118440685Y-66582313D01*
X118444018Y-66587029D01*
X118531421Y-66710701D01*
X118555243Y-66744409D01*
X118559385Y-66748444D01*
X118662606Y-66848997D01*
X118697422Y-66882913D01*
X118701874Y-66885888D01*
X118742148Y-66944191D01*
X118748500Y-66983694D01*
X118748500Y-67640141D01*
X118728498Y-67708262D01*
X118705578Y-67734873D01*
X118597580Y-67829585D01*
X118593239Y-67833392D01*
X118589664Y-67837927D01*
X118589663Y-67837928D01*
X118576801Y-67854243D01*
X118470355Y-67989270D01*
X118467666Y-67994381D01*
X118467664Y-67994384D01*
X118453022Y-68022214D01*
X118377935Y-68164931D01*
X118319075Y-68354493D01*
X118295745Y-68551608D01*
X118308727Y-68749673D01*
X118357586Y-68942056D01*
X118440685Y-69122313D01*
X118444018Y-69127029D01*
X118532257Y-69251884D01*
X118555243Y-69284409D01*
X118559385Y-69288444D01*
X118642353Y-69369267D01*
X118697422Y-69422913D01*
X118862461Y-69533189D01*
X118867764Y-69535467D01*
X118867767Y-69535469D01*
X119013205Y-69597954D01*
X119044832Y-69611542D01*
X119103137Y-69624735D01*
X119232791Y-69654073D01*
X119232796Y-69654074D01*
X119238428Y-69655348D01*
X119244199Y-69655575D01*
X119244201Y-69655575D01*
X119303262Y-69657895D01*
X119436765Y-69663141D01*
X119454454Y-69660576D01*
X119490676Y-69655325D01*
X119560962Y-69665346D01*
X119597850Y-69690926D01*
X119767475Y-69860551D01*
X119801501Y-69922863D01*
X119796436Y-69993678D01*
X119753889Y-70050514D01*
X119687369Y-70075325D01*
X119653799Y-70073225D01*
X119499041Y-70042442D01*
X119499039Y-70042442D01*
X119493374Y-70041315D01*
X119487599Y-70041239D01*
X119487595Y-70041239D01*
X119388638Y-70039944D01*
X119294901Y-70038717D01*
X119289204Y-70039696D01*
X119289203Y-70039696D01*
X119104975Y-70071352D01*
X119099278Y-70072331D01*
X118913056Y-70141032D01*
X118742472Y-70242518D01*
X118593239Y-70373392D01*
X118589664Y-70377927D01*
X118589663Y-70377928D01*
X118577766Y-70393020D01*
X118470355Y-70529270D01*
X118467666Y-70534381D01*
X118467664Y-70534384D01*
X118450353Y-70567287D01*
X118377935Y-70704931D01*
X118319075Y-70894493D01*
X118295745Y-71091608D01*
X118308727Y-71289673D01*
X118357586Y-71482056D01*
X118440685Y-71662313D01*
X118444018Y-71667029D01*
X118535315Y-71796211D01*
X118555243Y-71824409D01*
X118559385Y-71828444D01*
X118614885Y-71882509D01*
X118697422Y-71962913D01*
X118701874Y-71965888D01*
X118742148Y-72024191D01*
X118748500Y-72063694D01*
X118748500Y-72311501D01*
X118747975Y-72322629D01*
X118746306Y-72330098D01*
X118746555Y-72338021D01*
X118748438Y-72397936D01*
X118748500Y-72401894D01*
X118748500Y-72429730D01*
X118748995Y-72433646D01*
X118749002Y-72433699D01*
X118749935Y-72445543D01*
X118751318Y-72489574D01*
X118753530Y-72497186D01*
X118756941Y-72508928D01*
X118760951Y-72528290D01*
X118763478Y-72548296D01*
X118766395Y-72555662D01*
X118766396Y-72555668D01*
X118779697Y-72589263D01*
X118783541Y-72600490D01*
X118793619Y-72635175D01*
X118795832Y-72642792D01*
X118799867Y-72649615D01*
X118806095Y-72660146D01*
X118814788Y-72677890D01*
X118822214Y-72696645D01*
X118848115Y-72732294D01*
X118854622Y-72742202D01*
X118877051Y-72780127D01*
X118891307Y-72794383D01*
X118904148Y-72809417D01*
X118915998Y-72825727D01*
X118937529Y-72843539D01*
X118949943Y-72853809D01*
X118958722Y-72861798D01*
X120147954Y-74051030D01*
X120155454Y-74059272D01*
X120159554Y-74065732D01*
X120165331Y-74071157D01*
X120209035Y-74112198D01*
X120211877Y-74114953D01*
X120231555Y-74134631D01*
X120234727Y-74137091D01*
X120243743Y-74144791D01*
X120275864Y-74174955D01*
X120293535Y-74184670D01*
X120310047Y-74195516D01*
X120325985Y-74207879D01*
X120366431Y-74225381D01*
X120377079Y-74230598D01*
X120408738Y-74248003D01*
X120408741Y-74248004D01*
X120415682Y-74251820D01*
X120435214Y-74256835D01*
X120453900Y-74263233D01*
X120472416Y-74271245D01*
X120480244Y-74272485D01*
X120480248Y-74272486D01*
X120515928Y-74278138D01*
X120527549Y-74280544D01*
X120562542Y-74289528D01*
X120570223Y-74291500D01*
X120590388Y-74291500D01*
X120610098Y-74293051D01*
X120622176Y-74294964D01*
X120622177Y-74294964D01*
X120630006Y-74296204D01*
X120665793Y-74292821D01*
X120673860Y-74292059D01*
X120685716Y-74291500D01*
X129226234Y-74291500D01*
X129294355Y-74311502D01*
X129315329Y-74328405D01*
X130307954Y-75321030D01*
X130315454Y-75329272D01*
X130319554Y-75335732D01*
X130325331Y-75341157D01*
X130369035Y-75382198D01*
X130371877Y-75384953D01*
X130391555Y-75404631D01*
X130394727Y-75407091D01*
X130403743Y-75414791D01*
X130435864Y-75444955D01*
X130453535Y-75454670D01*
X130470047Y-75465516D01*
X130485985Y-75477879D01*
X130526431Y-75495381D01*
X130537079Y-75500598D01*
X130568738Y-75518003D01*
X130568741Y-75518004D01*
X130575682Y-75521820D01*
X130595214Y-75526835D01*
X130613900Y-75533233D01*
X130632416Y-75541245D01*
X130640244Y-75542485D01*
X130640248Y-75542486D01*
X130675928Y-75548138D01*
X130687549Y-75550544D01*
X130722542Y-75559528D01*
X130730223Y-75561500D01*
X130750388Y-75561500D01*
X130770098Y-75563051D01*
X130782176Y-75564964D01*
X130782177Y-75564964D01*
X130790006Y-75566204D01*
X130833860Y-75562059D01*
X130845716Y-75561500D01*
X154626234Y-75561500D01*
X154694355Y-75581502D01*
X154715329Y-75598405D01*
X155707954Y-76591030D01*
X155715454Y-76599272D01*
X155719554Y-76605732D01*
X155725331Y-76611157D01*
X155769035Y-76652198D01*
X155771877Y-76654953D01*
X155791555Y-76674631D01*
X155794727Y-76677091D01*
X155803743Y-76684791D01*
X155835864Y-76714955D01*
X155853535Y-76724670D01*
X155870047Y-76735516D01*
X155885985Y-76747879D01*
X155926431Y-76765381D01*
X155937079Y-76770598D01*
X155968738Y-76788003D01*
X155968741Y-76788004D01*
X155975682Y-76791820D01*
X155995214Y-76796835D01*
X156013900Y-76803233D01*
X156032416Y-76811245D01*
X156040244Y-76812485D01*
X156040248Y-76812486D01*
X156075928Y-76818138D01*
X156087549Y-76820544D01*
X156122542Y-76829528D01*
X156130223Y-76831500D01*
X156150388Y-76831500D01*
X156170098Y-76833051D01*
X156182176Y-76834964D01*
X156182177Y-76834964D01*
X156190006Y-76836204D01*
X156233860Y-76832059D01*
X156245716Y-76831500D01*
X164786234Y-76831500D01*
X164854355Y-76851502D01*
X164875329Y-76868405D01*
X165451829Y-77444905D01*
X165485855Y-77507217D01*
X165480790Y-77578032D01*
X165438243Y-77634868D01*
X165371723Y-77659679D01*
X165362734Y-77660000D01*
X164365342Y-77660000D01*
X164360794Y-77660670D01*
X164360787Y-77660670D01*
X164300041Y-77669612D01*
X164300039Y-77669613D01*
X164290356Y-77671038D01*
X164281568Y-77675353D01*
X164281567Y-77675353D01*
X164185697Y-77722423D01*
X164185696Y-77722424D01*
X164176349Y-77727013D01*
X164086620Y-77816899D01*
X164030845Y-77931003D01*
X164029433Y-77940683D01*
X164020665Y-78000787D01*
X164020000Y-78005342D01*
X164020000Y-79474658D01*
X164020670Y-79479206D01*
X164020670Y-79479213D01*
X164029612Y-79539959D01*
X164031038Y-79549644D01*
X164035353Y-79558432D01*
X164035353Y-79558433D01*
X164043202Y-79574419D01*
X164055270Y-79644382D01*
X164027597Y-79709764D01*
X163968969Y-79749805D01*
X163928449Y-79755939D01*
X163829401Y-79754642D01*
X163817921Y-79755545D01*
X163610772Y-79791140D01*
X163599664Y-79794117D01*
X163402467Y-79866866D01*
X163392085Y-79871818D01*
X163279204Y-79938975D01*
X163269606Y-79949308D01*
X163273092Y-79957696D01*
X163905874Y-80590479D01*
X163919817Y-80598092D01*
X163921651Y-80597961D01*
X163928265Y-80593710D01*
X164560385Y-79961589D01*
X164571521Y-79941196D01*
X164583610Y-79885617D01*
X164633812Y-79835414D01*
X164694199Y-79820000D01*
X165612500Y-79820000D01*
X165680621Y-79840002D01*
X165727114Y-79893658D01*
X165738500Y-79946000D01*
X165738500Y-83506234D01*
X165718498Y-83574355D01*
X165701595Y-83595329D01*
X165321196Y-83975728D01*
X165258884Y-84009754D01*
X165188069Y-84004689D01*
X165131233Y-83962142D01*
X165111182Y-83916376D01*
X165110064Y-83916691D01*
X165051443Y-83708836D01*
X165047321Y-83698097D01*
X164954356Y-83509583D01*
X164948350Y-83499781D01*
X164945195Y-83495556D01*
X164933936Y-83487107D01*
X164921518Y-83493878D01*
X163918685Y-84496710D01*
X163276926Y-85138470D01*
X163270731Y-85149815D01*
X163280612Y-85162302D01*
X163302211Y-85176734D01*
X163347739Y-85231211D01*
X163356588Y-85301654D01*
X163325947Y-85365699D01*
X163265545Y-85403010D01*
X163232210Y-85407500D01*
X137917500Y-85407500D01*
X137849379Y-85387498D01*
X137802886Y-85333842D01*
X137791500Y-85281500D01*
X137791500Y-85168499D01*
X137792025Y-85157371D01*
X137793694Y-85149902D01*
X137791562Y-85082064D01*
X137791500Y-85078106D01*
X137791500Y-85050270D01*
X137790997Y-85046292D01*
X137790065Y-85034451D01*
X137789938Y-85030389D01*
X137788682Y-84990426D01*
X137783059Y-84971072D01*
X137779049Y-84951709D01*
X137777515Y-84939565D01*
X137776522Y-84931704D01*
X137773605Y-84924338D01*
X137773604Y-84924332D01*
X137760303Y-84890737D01*
X137756459Y-84879510D01*
X137746381Y-84844825D01*
X137744168Y-84837208D01*
X137733904Y-84819852D01*
X137725212Y-84802110D01*
X137717786Y-84783355D01*
X137691885Y-84747706D01*
X137685378Y-84737798D01*
X137666985Y-84706697D01*
X137666984Y-84706695D01*
X137662949Y-84699873D01*
X137648693Y-84685617D01*
X137635852Y-84670583D01*
X137628662Y-84660687D01*
X137624002Y-84654273D01*
X137590057Y-84626191D01*
X137581278Y-84618202D01*
X137074624Y-84111548D01*
X162707809Y-84111548D01*
X162721556Y-84321279D01*
X162723357Y-84332649D01*
X162775094Y-84536363D01*
X162778935Y-84547210D01*
X162866932Y-84738092D01*
X162872681Y-84748049D01*
X162893797Y-84777927D01*
X162904387Y-84786316D01*
X162917686Y-84779288D01*
X163546664Y-84150311D01*
X163554277Y-84136368D01*
X163554146Y-84134534D01*
X163549895Y-84127920D01*
X162914288Y-83492314D01*
X162901913Y-83485557D01*
X162895947Y-83490023D01*
X162801941Y-83668698D01*
X162797536Y-83679332D01*
X162735207Y-83880062D01*
X162732815Y-83891317D01*
X162708110Y-84100047D01*
X162707809Y-84111548D01*
X137074624Y-84111548D01*
X136087384Y-83124308D01*
X163269606Y-83124308D01*
X163273092Y-83132696D01*
X163905874Y-83765479D01*
X163919817Y-83773092D01*
X163921651Y-83772961D01*
X163928265Y-83768710D01*
X164560385Y-83136589D01*
X164567142Y-83124214D01*
X164561112Y-83116158D01*
X164473657Y-83060978D01*
X164463406Y-83055754D01*
X164268182Y-82977868D01*
X164257154Y-82974601D01*
X164051007Y-82933596D01*
X164039560Y-82932393D01*
X163829401Y-82929642D01*
X163817921Y-82930545D01*
X163610772Y-82966140D01*
X163599664Y-82969117D01*
X163402467Y-83041866D01*
X163392085Y-83046818D01*
X163279204Y-83113975D01*
X163269606Y-83124308D01*
X136087384Y-83124308D01*
X134937890Y-81974814D01*
X163270731Y-81974814D01*
X163280613Y-81987303D01*
X163335726Y-82024127D01*
X163345831Y-82029614D01*
X163538952Y-82112586D01*
X163549895Y-82116141D01*
X163754894Y-82162528D01*
X163766303Y-82164030D01*
X163976330Y-82172281D01*
X163987814Y-82171679D01*
X164195830Y-82141519D01*
X164207013Y-82138834D01*
X164406047Y-82071271D01*
X164416550Y-82066595D01*
X164559089Y-81986770D01*
X164568951Y-81976694D01*
X164565996Y-81969022D01*
X163931496Y-81334521D01*
X163917553Y-81326908D01*
X163915719Y-81327039D01*
X163909105Y-81331290D01*
X163276924Y-81963472D01*
X163270731Y-81974814D01*
X134937890Y-81974814D01*
X133714353Y-80751277D01*
X149165777Y-80751277D01*
X149175074Y-80763293D01*
X149218069Y-80793398D01*
X149227555Y-80798876D01*
X149418993Y-80888145D01*
X149429285Y-80891891D01*
X149633309Y-80946559D01*
X149644104Y-80948462D01*
X149854525Y-80966872D01*
X149865475Y-80966872D01*
X150075896Y-80948462D01*
X150086691Y-80946559D01*
X150124053Y-80936548D01*
X162707809Y-80936548D01*
X162721556Y-81146279D01*
X162723357Y-81157649D01*
X162775094Y-81361363D01*
X162778935Y-81372210D01*
X162866932Y-81563092D01*
X162872681Y-81573049D01*
X162893797Y-81602927D01*
X162904387Y-81611316D01*
X162917686Y-81604288D01*
X163546664Y-80975311D01*
X163553041Y-80963632D01*
X164283093Y-80963632D01*
X164283224Y-80965466D01*
X164287475Y-80972080D01*
X164921296Y-81605900D01*
X164933671Y-81612657D01*
X164940251Y-81607731D01*
X165022780Y-81460365D01*
X165027456Y-81449862D01*
X165095019Y-81250828D01*
X165097704Y-81239645D01*
X165128160Y-81029588D01*
X165128790Y-81022205D01*
X165130257Y-80966204D01*
X165130014Y-80958805D01*
X165110593Y-80747445D01*
X165108496Y-80736130D01*
X165051443Y-80533836D01*
X165047321Y-80523097D01*
X164954356Y-80334583D01*
X164948350Y-80324781D01*
X164945195Y-80320556D01*
X164933936Y-80312106D01*
X164921519Y-80318877D01*
X164290706Y-80949689D01*
X164283093Y-80963632D01*
X163553041Y-80963632D01*
X163554277Y-80961368D01*
X163554146Y-80959534D01*
X163549895Y-80952920D01*
X162914288Y-80317314D01*
X162901913Y-80310557D01*
X162895947Y-80315023D01*
X162801941Y-80493698D01*
X162797536Y-80504332D01*
X162735207Y-80705063D01*
X162732815Y-80716317D01*
X162708110Y-80925047D01*
X162707809Y-80936548D01*
X150124053Y-80936548D01*
X150290715Y-80891891D01*
X150301007Y-80888145D01*
X150492445Y-80798876D01*
X150501931Y-80793398D01*
X150545764Y-80762707D01*
X150554139Y-80752229D01*
X150547071Y-80738781D01*
X149872812Y-80064522D01*
X149858868Y-80056908D01*
X149857035Y-80057039D01*
X149850420Y-80061290D01*
X149172207Y-80739503D01*
X149165777Y-80751277D01*
X133714353Y-80751277D01*
X132748405Y-79785329D01*
X132730377Y-79752314D01*
X133972046Y-79752314D01*
X133981928Y-79764803D01*
X134037041Y-79801627D01*
X134047146Y-79807114D01*
X134240267Y-79890086D01*
X134251210Y-79893641D01*
X134456209Y-79940028D01*
X134467618Y-79941530D01*
X134677645Y-79949781D01*
X134689129Y-79949179D01*
X134897145Y-79919019D01*
X134908328Y-79916334D01*
X135107362Y-79848771D01*
X135117865Y-79844095D01*
X135260404Y-79764270D01*
X135270266Y-79754194D01*
X135267311Y-79746522D01*
X135218764Y-79697975D01*
X148585628Y-79697975D01*
X148604038Y-79908396D01*
X148605941Y-79919191D01*
X148660609Y-80123215D01*
X148664355Y-80133507D01*
X148753623Y-80324941D01*
X148759103Y-80334432D01*
X148789794Y-80378265D01*
X148800271Y-80386640D01*
X148813718Y-80379572D01*
X149487978Y-79705312D01*
X149494356Y-79693632D01*
X150224408Y-79693632D01*
X150224539Y-79695465D01*
X150228790Y-79702080D01*
X150907003Y-80380293D01*
X150918777Y-80386723D01*
X150930793Y-80377426D01*
X150960897Y-80334432D01*
X150966377Y-80324941D01*
X151055645Y-80133507D01*
X151059391Y-80123215D01*
X151114059Y-79919191D01*
X151115962Y-79908396D01*
X151134372Y-79697975D01*
X151134372Y-79687025D01*
X151115962Y-79476604D01*
X151114059Y-79465809D01*
X151059391Y-79261785D01*
X151055645Y-79251493D01*
X150966377Y-79060059D01*
X150960897Y-79050568D01*
X150930206Y-79006735D01*
X150919729Y-78998360D01*
X150906282Y-79005428D01*
X150232022Y-79679688D01*
X150224408Y-79693632D01*
X149494356Y-79693632D01*
X149495592Y-79691368D01*
X149495461Y-79689535D01*
X149491210Y-79682920D01*
X148812997Y-79004707D01*
X148801223Y-78998277D01*
X148789207Y-79007574D01*
X148759103Y-79050568D01*
X148753623Y-79060059D01*
X148664355Y-79251493D01*
X148660609Y-79261785D01*
X148605941Y-79465809D01*
X148604038Y-79476604D01*
X148585628Y-79687025D01*
X148585628Y-79697975D01*
X135218764Y-79697975D01*
X134632811Y-79112021D01*
X134618868Y-79104408D01*
X134617034Y-79104539D01*
X134610420Y-79108790D01*
X133978239Y-79740972D01*
X133972046Y-79752314D01*
X132730377Y-79752314D01*
X132714379Y-79723017D01*
X132711500Y-79696234D01*
X132711500Y-79678686D01*
X132731502Y-79610565D01*
X132756929Y-79581814D01*
X132846947Y-79506947D01*
X132973870Y-79354339D01*
X133070856Y-79181158D01*
X133111964Y-79060059D01*
X133132803Y-78998669D01*
X133132803Y-78998668D01*
X133134659Y-78993201D01*
X133135487Y-78987492D01*
X133135488Y-78987487D01*
X133162609Y-78800437D01*
X133162610Y-78800430D01*
X133163141Y-78796765D01*
X133163231Y-78793322D01*
X133182735Y-78743140D01*
X133180588Y-78738734D01*
X133390961Y-78738734D01*
X133412231Y-78778986D01*
X133414485Y-78795841D01*
X133422871Y-78923779D01*
X133424672Y-78935149D01*
X133476409Y-79138863D01*
X133480250Y-79149710D01*
X133568247Y-79340592D01*
X133573996Y-79350549D01*
X133595112Y-79380427D01*
X133605702Y-79388816D01*
X133619001Y-79381788D01*
X134247979Y-78752811D01*
X134254356Y-78741132D01*
X134984408Y-78741132D01*
X134984539Y-78742966D01*
X134988790Y-78749580D01*
X135622611Y-79383400D01*
X135634986Y-79390157D01*
X135641566Y-79385231D01*
X135724095Y-79237865D01*
X135728771Y-79227362D01*
X135796334Y-79028328D01*
X135799019Y-79017145D01*
X135829475Y-78807088D01*
X135830105Y-78799705D01*
X135831572Y-78743704D01*
X135831329Y-78736305D01*
X135821816Y-78632771D01*
X149165860Y-78632771D01*
X149172928Y-78646218D01*
X149847188Y-79320478D01*
X149861132Y-79328092D01*
X149862965Y-79327961D01*
X149869580Y-79323710D01*
X150547793Y-78645497D01*
X150554223Y-78633723D01*
X150544926Y-78621707D01*
X150501931Y-78591602D01*
X150492445Y-78586124D01*
X150301007Y-78496855D01*
X150290715Y-78493109D01*
X150086691Y-78438441D01*
X150075896Y-78436538D01*
X149865475Y-78418128D01*
X149854525Y-78418128D01*
X149644104Y-78436538D01*
X149633309Y-78438441D01*
X149429285Y-78493109D01*
X149418993Y-78496855D01*
X149227559Y-78586123D01*
X149218068Y-78591603D01*
X149174235Y-78622294D01*
X149165860Y-78632771D01*
X135821816Y-78632771D01*
X135811908Y-78524945D01*
X135809811Y-78513630D01*
X135752758Y-78311336D01*
X135748636Y-78300597D01*
X135655671Y-78112083D01*
X135649665Y-78102281D01*
X135646510Y-78098056D01*
X135635251Y-78089606D01*
X135622834Y-78096377D01*
X134992021Y-78727189D01*
X134984408Y-78741132D01*
X134254356Y-78741132D01*
X134255592Y-78738868D01*
X134255461Y-78737034D01*
X134251210Y-78730420D01*
X133615603Y-78094814D01*
X133603228Y-78088057D01*
X133597262Y-78092523D01*
X133503256Y-78271198D01*
X133498851Y-78281832D01*
X133436522Y-78482563D01*
X133434130Y-78493817D01*
X133410583Y-78692762D01*
X133390961Y-78738734D01*
X133180588Y-78738734D01*
X133161225Y-78698994D01*
X133159985Y-78689481D01*
X133146994Y-78548099D01*
X133146465Y-78542342D01*
X133138368Y-78513630D01*
X133111433Y-78418128D01*
X133092587Y-78351304D01*
X133004797Y-78173284D01*
X132886035Y-78014243D01*
X132871510Y-78000816D01*
X132744520Y-77883428D01*
X132744518Y-77883426D01*
X132740279Y-77879508D01*
X132629368Y-77809528D01*
X132577290Y-77776669D01*
X132577289Y-77776669D01*
X132572410Y-77773590D01*
X132567050Y-77771452D01*
X132567047Y-77771450D01*
X132455150Y-77726808D01*
X133970921Y-77726808D01*
X133974407Y-77735196D01*
X134607189Y-78367979D01*
X134621132Y-78375592D01*
X134622966Y-78375461D01*
X134629580Y-78371210D01*
X135261700Y-77739089D01*
X135268457Y-77726714D01*
X135262427Y-77718658D01*
X135174972Y-77663478D01*
X135164721Y-77658254D01*
X134969497Y-77580368D01*
X134958469Y-77577101D01*
X134752322Y-77536096D01*
X134740875Y-77534893D01*
X134530716Y-77532142D01*
X134519236Y-77533045D01*
X134312087Y-77568640D01*
X134300979Y-77571617D01*
X134103782Y-77644366D01*
X134093400Y-77649318D01*
X133980519Y-77716475D01*
X133970921Y-77726808D01*
X132455150Y-77726808D01*
X132388051Y-77700038D01*
X132382394Y-77698913D01*
X132382388Y-77698911D01*
X132199041Y-77662442D01*
X132199039Y-77662442D01*
X132193374Y-77661315D01*
X132187599Y-77661239D01*
X132187595Y-77661239D01*
X132088638Y-77659944D01*
X131994901Y-77658717D01*
X131989204Y-77659696D01*
X131989203Y-77659696D01*
X131804975Y-77691352D01*
X131799278Y-77692331D01*
X131613056Y-77761032D01*
X131442472Y-77862518D01*
X131293239Y-77993392D01*
X131289664Y-77997927D01*
X131289663Y-77997928D01*
X131276801Y-78014243D01*
X131170355Y-78149270D01*
X131167666Y-78154381D01*
X131167664Y-78154384D01*
X131120989Y-78243098D01*
X131077935Y-78324931D01*
X131019075Y-78514493D01*
X130995745Y-78711608D01*
X131008727Y-78909673D01*
X131057586Y-79102056D01*
X131140685Y-79282313D01*
X131144018Y-79287029D01*
X131216902Y-79390157D01*
X131255243Y-79444409D01*
X131397422Y-79582913D01*
X131401874Y-79585888D01*
X131442148Y-79644191D01*
X131448500Y-79683694D01*
X131448500Y-79931501D01*
X131447975Y-79942629D01*
X131446306Y-79950098D01*
X131446555Y-79958021D01*
X131448438Y-80017936D01*
X131448500Y-80021894D01*
X131448500Y-80049730D01*
X131448995Y-80053646D01*
X131449002Y-80053699D01*
X131449935Y-80065543D01*
X131451318Y-80109574D01*
X131453530Y-80117186D01*
X131456941Y-80128928D01*
X131460951Y-80148290D01*
X131463478Y-80168296D01*
X131466395Y-80175662D01*
X131466396Y-80175668D01*
X131479697Y-80209263D01*
X131483541Y-80220490D01*
X131493619Y-80255175D01*
X131495832Y-80262792D01*
X131503220Y-80275284D01*
X131506095Y-80280146D01*
X131514788Y-80297890D01*
X131522214Y-80316645D01*
X131548115Y-80352294D01*
X131554622Y-80362202D01*
X131567142Y-80383371D01*
X131577051Y-80400127D01*
X131591307Y-80414383D01*
X131604148Y-80429417D01*
X131615998Y-80445727D01*
X131649943Y-80473809D01*
X131658722Y-80481798D01*
X136369329Y-85192405D01*
X136403355Y-85254717D01*
X136398290Y-85325532D01*
X136355743Y-85382368D01*
X136289223Y-85407179D01*
X136280234Y-85407500D01*
X135377500Y-85407500D01*
X135309379Y-85387498D01*
X135262886Y-85333842D01*
X135251500Y-85281500D01*
X135251500Y-85168499D01*
X135252025Y-85157371D01*
X135253694Y-85149902D01*
X135251562Y-85082064D01*
X135251500Y-85078106D01*
X135251500Y-85050270D01*
X135250997Y-85046292D01*
X135250065Y-85034451D01*
X135249938Y-85030389D01*
X135248682Y-84990426D01*
X135243059Y-84971072D01*
X135239049Y-84951709D01*
X135237515Y-84939565D01*
X135236522Y-84931704D01*
X135233605Y-84924338D01*
X135233604Y-84924332D01*
X135220303Y-84890737D01*
X135216459Y-84879510D01*
X135206381Y-84844825D01*
X135204168Y-84837208D01*
X135193904Y-84819852D01*
X135185212Y-84802110D01*
X135177786Y-84783355D01*
X135151885Y-84747706D01*
X135145378Y-84737798D01*
X135126985Y-84706697D01*
X135126984Y-84706695D01*
X135122949Y-84699873D01*
X135108693Y-84685617D01*
X135095852Y-84670583D01*
X135088662Y-84660687D01*
X135084002Y-84654273D01*
X135050057Y-84626191D01*
X135041278Y-84618202D01*
X130208405Y-79785329D01*
X130174379Y-79723017D01*
X130171500Y-79696234D01*
X130171500Y-79678686D01*
X130191502Y-79610565D01*
X130216929Y-79581814D01*
X130306947Y-79506947D01*
X130433870Y-79354339D01*
X130530856Y-79181158D01*
X130571964Y-79060059D01*
X130592803Y-78998669D01*
X130592803Y-78998668D01*
X130594659Y-78993201D01*
X130595487Y-78987492D01*
X130595488Y-78987487D01*
X130622608Y-78800438D01*
X130623141Y-78796765D01*
X130624627Y-78740000D01*
X130606465Y-78542342D01*
X130598368Y-78513630D01*
X130571433Y-78418128D01*
X130552587Y-78351304D01*
X130464797Y-78173284D01*
X130346035Y-78014243D01*
X130331510Y-78000816D01*
X130204520Y-77883428D01*
X130204518Y-77883426D01*
X130200279Y-77879508D01*
X130089368Y-77809528D01*
X130037290Y-77776669D01*
X130037289Y-77776669D01*
X130032410Y-77773590D01*
X130027050Y-77771452D01*
X130027047Y-77771450D01*
X129915150Y-77726808D01*
X129848051Y-77700038D01*
X129842394Y-77698913D01*
X129842388Y-77698911D01*
X129659041Y-77662442D01*
X129659039Y-77662442D01*
X129653374Y-77661315D01*
X129647599Y-77661239D01*
X129647595Y-77661239D01*
X129548638Y-77659944D01*
X129454901Y-77658717D01*
X129449204Y-77659696D01*
X129449203Y-77659696D01*
X129264975Y-77691352D01*
X129259278Y-77692331D01*
X129073056Y-77761032D01*
X128902472Y-77862518D01*
X128753239Y-77993392D01*
X128749664Y-77997927D01*
X128749663Y-77997928D01*
X128736801Y-78014243D01*
X128630355Y-78149270D01*
X128627666Y-78154381D01*
X128627664Y-78154384D01*
X128580989Y-78243098D01*
X128537935Y-78324931D01*
X128479075Y-78514493D01*
X128455745Y-78711608D01*
X128468727Y-78909673D01*
X128517586Y-79102056D01*
X128600685Y-79282313D01*
X128604018Y-79287029D01*
X128676902Y-79390157D01*
X128715243Y-79444409D01*
X128857422Y-79582913D01*
X128861874Y-79585888D01*
X128902148Y-79644191D01*
X128908500Y-79683694D01*
X128908500Y-79931501D01*
X128907975Y-79942629D01*
X128906306Y-79950098D01*
X128906555Y-79958021D01*
X128908438Y-80017936D01*
X128908500Y-80021894D01*
X128908500Y-80049730D01*
X128908995Y-80053646D01*
X128909002Y-80053699D01*
X128909935Y-80065543D01*
X128911318Y-80109574D01*
X128913530Y-80117186D01*
X128916941Y-80128928D01*
X128920951Y-80148290D01*
X128923478Y-80168296D01*
X128926395Y-80175662D01*
X128926396Y-80175668D01*
X128939697Y-80209263D01*
X128943541Y-80220490D01*
X128953619Y-80255175D01*
X128955832Y-80262792D01*
X128963220Y-80275284D01*
X128966095Y-80280146D01*
X128974788Y-80297890D01*
X128982214Y-80316645D01*
X129008115Y-80352294D01*
X129014622Y-80362202D01*
X129027142Y-80383371D01*
X129037051Y-80400127D01*
X129051307Y-80414383D01*
X129064148Y-80429417D01*
X129075998Y-80445727D01*
X129109943Y-80473809D01*
X129118722Y-80481798D01*
X133829329Y-85192405D01*
X133863355Y-85254717D01*
X133858290Y-85325532D01*
X133815743Y-85382368D01*
X133749223Y-85407179D01*
X133740234Y-85407500D01*
X132837500Y-85407500D01*
X132769379Y-85387498D01*
X132722886Y-85333842D01*
X132711500Y-85281500D01*
X132711500Y-85168499D01*
X132712025Y-85157371D01*
X132713694Y-85149902D01*
X132711562Y-85082064D01*
X132711500Y-85078106D01*
X132711500Y-85050270D01*
X132710997Y-85046292D01*
X132710065Y-85034451D01*
X132709938Y-85030389D01*
X132708682Y-84990426D01*
X132703059Y-84971072D01*
X132699049Y-84951709D01*
X132697515Y-84939565D01*
X132696522Y-84931704D01*
X132693605Y-84924338D01*
X132693604Y-84924332D01*
X132680303Y-84890737D01*
X132676459Y-84879510D01*
X132666381Y-84844825D01*
X132664168Y-84837208D01*
X132653904Y-84819852D01*
X132645212Y-84802110D01*
X132637786Y-84783355D01*
X132611885Y-84747706D01*
X132605378Y-84737798D01*
X132586985Y-84706697D01*
X132586984Y-84706695D01*
X132582949Y-84699873D01*
X132568693Y-84685617D01*
X132555852Y-84670583D01*
X132548662Y-84660687D01*
X132544002Y-84654273D01*
X132510057Y-84626191D01*
X132501278Y-84618202D01*
X127668405Y-79785329D01*
X127634379Y-79723017D01*
X127631500Y-79696234D01*
X127631500Y-79678686D01*
X127651502Y-79610565D01*
X127676929Y-79581814D01*
X127766947Y-79506947D01*
X127893870Y-79354339D01*
X127990856Y-79181158D01*
X128031964Y-79060059D01*
X128052803Y-78998669D01*
X128052803Y-78998668D01*
X128054659Y-78993201D01*
X128055487Y-78987492D01*
X128055488Y-78987487D01*
X128082608Y-78800438D01*
X128083141Y-78796765D01*
X128084627Y-78740000D01*
X128066465Y-78542342D01*
X128058368Y-78513630D01*
X128031433Y-78418128D01*
X128012587Y-78351304D01*
X127924797Y-78173284D01*
X127806035Y-78014243D01*
X127791510Y-78000816D01*
X127664520Y-77883428D01*
X127664518Y-77883426D01*
X127660279Y-77879508D01*
X127549368Y-77809528D01*
X127497290Y-77776669D01*
X127497289Y-77776669D01*
X127492410Y-77773590D01*
X127487050Y-77771452D01*
X127487047Y-77771450D01*
X127375150Y-77726808D01*
X127308051Y-77700038D01*
X127302394Y-77698913D01*
X127302388Y-77698911D01*
X127119041Y-77662442D01*
X127119039Y-77662442D01*
X127113374Y-77661315D01*
X127107599Y-77661239D01*
X127107595Y-77661239D01*
X127008638Y-77659944D01*
X126914901Y-77658717D01*
X126909204Y-77659696D01*
X126909203Y-77659696D01*
X126724975Y-77691352D01*
X126719278Y-77692331D01*
X126533056Y-77761032D01*
X126362472Y-77862518D01*
X126213239Y-77993392D01*
X126209664Y-77997927D01*
X126209663Y-77997928D01*
X126196801Y-78014243D01*
X126090355Y-78149270D01*
X126087666Y-78154381D01*
X126087664Y-78154384D01*
X126040989Y-78243098D01*
X125997935Y-78324931D01*
X125939075Y-78514493D01*
X125915745Y-78711608D01*
X125928727Y-78909673D01*
X125977586Y-79102056D01*
X126060685Y-79282313D01*
X126064018Y-79287029D01*
X126136902Y-79390157D01*
X126175243Y-79444409D01*
X126317422Y-79582913D01*
X126321874Y-79585888D01*
X126362148Y-79644191D01*
X126368500Y-79683694D01*
X126368500Y-79931501D01*
X126367975Y-79942629D01*
X126366306Y-79950098D01*
X126366555Y-79958021D01*
X126368438Y-80017936D01*
X126368500Y-80021894D01*
X126368500Y-80049730D01*
X126368995Y-80053646D01*
X126369002Y-80053699D01*
X126369935Y-80065543D01*
X126371318Y-80109574D01*
X126373530Y-80117186D01*
X126376941Y-80128928D01*
X126380951Y-80148290D01*
X126383478Y-80168296D01*
X126386395Y-80175662D01*
X126386396Y-80175668D01*
X126399697Y-80209263D01*
X126403541Y-80220490D01*
X126413619Y-80255175D01*
X126415832Y-80262792D01*
X126423220Y-80275284D01*
X126426095Y-80280146D01*
X126434788Y-80297890D01*
X126442214Y-80316645D01*
X126468115Y-80352294D01*
X126474622Y-80362202D01*
X126487142Y-80383371D01*
X126497051Y-80400127D01*
X126511307Y-80414383D01*
X126524148Y-80429417D01*
X126535998Y-80445727D01*
X126569943Y-80473809D01*
X126578722Y-80481798D01*
X131289329Y-85192405D01*
X131323355Y-85254717D01*
X131318290Y-85325532D01*
X131275743Y-85382368D01*
X131209223Y-85407179D01*
X131200234Y-85407500D01*
X130297500Y-85407500D01*
X130229379Y-85387498D01*
X130182886Y-85333842D01*
X130171500Y-85281500D01*
X130171500Y-85168499D01*
X130172025Y-85157371D01*
X130173694Y-85149902D01*
X130171562Y-85082064D01*
X130171500Y-85078106D01*
X130171500Y-85050270D01*
X130170997Y-85046292D01*
X130170065Y-85034451D01*
X130169938Y-85030389D01*
X130168682Y-84990426D01*
X130163059Y-84971072D01*
X130159049Y-84951709D01*
X130157515Y-84939565D01*
X130156522Y-84931704D01*
X130153605Y-84924338D01*
X130153604Y-84924332D01*
X130140303Y-84890737D01*
X130136459Y-84879510D01*
X130126381Y-84844825D01*
X130124168Y-84837208D01*
X130113904Y-84819852D01*
X130105212Y-84802110D01*
X130097786Y-84783355D01*
X130071885Y-84747706D01*
X130065378Y-84737798D01*
X130046985Y-84706697D01*
X130046984Y-84706695D01*
X130042949Y-84699873D01*
X130028693Y-84685617D01*
X130015852Y-84670583D01*
X130008662Y-84660687D01*
X130004002Y-84654273D01*
X129970057Y-84626191D01*
X129961278Y-84618202D01*
X125128405Y-79785329D01*
X125094379Y-79723017D01*
X125091500Y-79696234D01*
X125091500Y-79678686D01*
X125111502Y-79610565D01*
X125136929Y-79581814D01*
X125226947Y-79506947D01*
X125353870Y-79354339D01*
X125450856Y-79181158D01*
X125491964Y-79060059D01*
X125512803Y-78998669D01*
X125512803Y-78998668D01*
X125514659Y-78993201D01*
X125515487Y-78987492D01*
X125515488Y-78987487D01*
X125542608Y-78800438D01*
X125543141Y-78796765D01*
X125544627Y-78740000D01*
X125526465Y-78542342D01*
X125518368Y-78513630D01*
X125491433Y-78418128D01*
X125472587Y-78351304D01*
X125384797Y-78173284D01*
X125266035Y-78014243D01*
X125251510Y-78000816D01*
X125124520Y-77883428D01*
X125124518Y-77883426D01*
X125120279Y-77879508D01*
X125009368Y-77809528D01*
X124957290Y-77776669D01*
X124957289Y-77776669D01*
X124952410Y-77773590D01*
X124947050Y-77771452D01*
X124947047Y-77771450D01*
X124835150Y-77726808D01*
X124768051Y-77700038D01*
X124762394Y-77698913D01*
X124762388Y-77698911D01*
X124579041Y-77662442D01*
X124579039Y-77662442D01*
X124573374Y-77661315D01*
X124567599Y-77661239D01*
X124567595Y-77661239D01*
X124468638Y-77659944D01*
X124374901Y-77658717D01*
X124369204Y-77659696D01*
X124369203Y-77659696D01*
X124184975Y-77691352D01*
X124179278Y-77692331D01*
X123993056Y-77761032D01*
X123822472Y-77862518D01*
X123673239Y-77993392D01*
X123669664Y-77997927D01*
X123669663Y-77997928D01*
X123656801Y-78014243D01*
X123550355Y-78149270D01*
X123547666Y-78154381D01*
X123547664Y-78154384D01*
X123500989Y-78243098D01*
X123457935Y-78324931D01*
X123399075Y-78514493D01*
X123375745Y-78711608D01*
X123388727Y-78909673D01*
X123437586Y-79102056D01*
X123520685Y-79282313D01*
X123524018Y-79287029D01*
X123596902Y-79390157D01*
X123635243Y-79444409D01*
X123777422Y-79582913D01*
X123781874Y-79585888D01*
X123822148Y-79644191D01*
X123828500Y-79683694D01*
X123828500Y-79931501D01*
X123827975Y-79942629D01*
X123826306Y-79950098D01*
X123826555Y-79958021D01*
X123828438Y-80017936D01*
X123828500Y-80021894D01*
X123828500Y-80049730D01*
X123828995Y-80053646D01*
X123829002Y-80053699D01*
X123829935Y-80065543D01*
X123831318Y-80109574D01*
X123833530Y-80117186D01*
X123836941Y-80128928D01*
X123840951Y-80148290D01*
X123843478Y-80168296D01*
X123846395Y-80175662D01*
X123846396Y-80175668D01*
X123859697Y-80209263D01*
X123863541Y-80220490D01*
X123873619Y-80255175D01*
X123875832Y-80262792D01*
X123883220Y-80275284D01*
X123886095Y-80280146D01*
X123894788Y-80297890D01*
X123902214Y-80316645D01*
X123928115Y-80352294D01*
X123934622Y-80362202D01*
X123947142Y-80383371D01*
X123957051Y-80400127D01*
X123971307Y-80414383D01*
X123984148Y-80429417D01*
X123995998Y-80445727D01*
X124029943Y-80473809D01*
X124038722Y-80481798D01*
X128749329Y-85192405D01*
X128783355Y-85254717D01*
X128778290Y-85325532D01*
X128735743Y-85382368D01*
X128669223Y-85407179D01*
X128660234Y-85407500D01*
X127757500Y-85407500D01*
X127689379Y-85387498D01*
X127642886Y-85333842D01*
X127631500Y-85281500D01*
X127631500Y-85168499D01*
X127632025Y-85157371D01*
X127633694Y-85149902D01*
X127631562Y-85082064D01*
X127631500Y-85078106D01*
X127631500Y-85050270D01*
X127630997Y-85046292D01*
X127630065Y-85034451D01*
X127629938Y-85030389D01*
X127628682Y-84990426D01*
X127623059Y-84971072D01*
X127619049Y-84951709D01*
X127617515Y-84939565D01*
X127616522Y-84931704D01*
X127613605Y-84924338D01*
X127613604Y-84924332D01*
X127600303Y-84890737D01*
X127596459Y-84879510D01*
X127586381Y-84844825D01*
X127584168Y-84837208D01*
X127573904Y-84819852D01*
X127565212Y-84802110D01*
X127557786Y-84783355D01*
X127531885Y-84747706D01*
X127525378Y-84737798D01*
X127506985Y-84706697D01*
X127506984Y-84706695D01*
X127502949Y-84699873D01*
X127488693Y-84685617D01*
X127475852Y-84670583D01*
X127468662Y-84660687D01*
X127464002Y-84654273D01*
X127430057Y-84626191D01*
X127421278Y-84618202D01*
X122588405Y-79785329D01*
X122554379Y-79723017D01*
X122551500Y-79696234D01*
X122551500Y-79678686D01*
X122571502Y-79610565D01*
X122596929Y-79581814D01*
X122686947Y-79506947D01*
X122813870Y-79354339D01*
X122910856Y-79181158D01*
X122951964Y-79060059D01*
X122972803Y-78998669D01*
X122972803Y-78998668D01*
X122974659Y-78993201D01*
X122975487Y-78987492D01*
X122975488Y-78987487D01*
X123002608Y-78800438D01*
X123003141Y-78796765D01*
X123004627Y-78740000D01*
X122986465Y-78542342D01*
X122978368Y-78513630D01*
X122951433Y-78418128D01*
X122932587Y-78351304D01*
X122844797Y-78173284D01*
X122726035Y-78014243D01*
X122711510Y-78000816D01*
X122584520Y-77883428D01*
X122584518Y-77883426D01*
X122580279Y-77879508D01*
X122469368Y-77809528D01*
X122417290Y-77776669D01*
X122417289Y-77776669D01*
X122412410Y-77773590D01*
X122407050Y-77771452D01*
X122407047Y-77771450D01*
X122295150Y-77726808D01*
X122228051Y-77700038D01*
X122222394Y-77698913D01*
X122222388Y-77698911D01*
X122039041Y-77662442D01*
X122039039Y-77662442D01*
X122033374Y-77661315D01*
X122027599Y-77661239D01*
X122027595Y-77661239D01*
X121928638Y-77659944D01*
X121834901Y-77658717D01*
X121829204Y-77659696D01*
X121829203Y-77659696D01*
X121644975Y-77691352D01*
X121639278Y-77692331D01*
X121453056Y-77761032D01*
X121282472Y-77862518D01*
X121133239Y-77993392D01*
X121129664Y-77997927D01*
X121129663Y-77997928D01*
X121116801Y-78014243D01*
X121010355Y-78149270D01*
X121007666Y-78154381D01*
X121007664Y-78154384D01*
X120960989Y-78243098D01*
X120917935Y-78324931D01*
X120859075Y-78514493D01*
X120835745Y-78711608D01*
X120848727Y-78909673D01*
X120897586Y-79102056D01*
X120980685Y-79282313D01*
X120984018Y-79287029D01*
X121056902Y-79390157D01*
X121095243Y-79444409D01*
X121237422Y-79582913D01*
X121241874Y-79585888D01*
X121282148Y-79644191D01*
X121288500Y-79683694D01*
X121288500Y-79931501D01*
X121287975Y-79942629D01*
X121286306Y-79950098D01*
X121286555Y-79958021D01*
X121288438Y-80017936D01*
X121288500Y-80021894D01*
X121288500Y-80049730D01*
X121288995Y-80053646D01*
X121289002Y-80053699D01*
X121289935Y-80065543D01*
X121291318Y-80109574D01*
X121293530Y-80117186D01*
X121296941Y-80128928D01*
X121300951Y-80148290D01*
X121303478Y-80168296D01*
X121306395Y-80175662D01*
X121306396Y-80175668D01*
X121319697Y-80209263D01*
X121323541Y-80220490D01*
X121333619Y-80255175D01*
X121335832Y-80262792D01*
X121343220Y-80275284D01*
X121346095Y-80280146D01*
X121354788Y-80297890D01*
X121362214Y-80316645D01*
X121388115Y-80352294D01*
X121394622Y-80362202D01*
X121407142Y-80383371D01*
X121417051Y-80400127D01*
X121431307Y-80414383D01*
X121444148Y-80429417D01*
X121455998Y-80445727D01*
X121489943Y-80473809D01*
X121498722Y-80481798D01*
X126209329Y-85192405D01*
X126243355Y-85254717D01*
X126238290Y-85325532D01*
X126195743Y-85382368D01*
X126129223Y-85407179D01*
X126120234Y-85407500D01*
X125217500Y-85407500D01*
X125149379Y-85387498D01*
X125102886Y-85333842D01*
X125091500Y-85281500D01*
X125091500Y-85168499D01*
X125092025Y-85157371D01*
X125093694Y-85149902D01*
X125091562Y-85082064D01*
X125091500Y-85078106D01*
X125091500Y-85050270D01*
X125090997Y-85046292D01*
X125090065Y-85034451D01*
X125089938Y-85030389D01*
X125088682Y-84990426D01*
X125083059Y-84971072D01*
X125079049Y-84951709D01*
X125077515Y-84939565D01*
X125076522Y-84931704D01*
X125073605Y-84924338D01*
X125073604Y-84924332D01*
X125060303Y-84890737D01*
X125056459Y-84879510D01*
X125046381Y-84844825D01*
X125044168Y-84837208D01*
X125033904Y-84819852D01*
X125025212Y-84802110D01*
X125017786Y-84783355D01*
X124991885Y-84747706D01*
X124985378Y-84737798D01*
X124966985Y-84706697D01*
X124966984Y-84706695D01*
X124962949Y-84699873D01*
X124948693Y-84685617D01*
X124935852Y-84670583D01*
X124928662Y-84660687D01*
X124924002Y-84654273D01*
X124890057Y-84626191D01*
X124881278Y-84618202D01*
X120048405Y-79785329D01*
X120014379Y-79723017D01*
X120011500Y-79696234D01*
X120011500Y-79678686D01*
X120031502Y-79610565D01*
X120056929Y-79581814D01*
X120146947Y-79506947D01*
X120273870Y-79354339D01*
X120370856Y-79181158D01*
X120411964Y-79060059D01*
X120432803Y-78998669D01*
X120432803Y-78998668D01*
X120434659Y-78993201D01*
X120435487Y-78987492D01*
X120435488Y-78987487D01*
X120462608Y-78800438D01*
X120463141Y-78796765D01*
X120464627Y-78740000D01*
X120446465Y-78542342D01*
X120438368Y-78513630D01*
X120411433Y-78418128D01*
X120392587Y-78351304D01*
X120304797Y-78173284D01*
X120186035Y-78014243D01*
X120171510Y-78000816D01*
X120044520Y-77883428D01*
X120044518Y-77883426D01*
X120040279Y-77879508D01*
X119929368Y-77809528D01*
X119877290Y-77776669D01*
X119877289Y-77776669D01*
X119872410Y-77773590D01*
X119867050Y-77771452D01*
X119867047Y-77771450D01*
X119755150Y-77726808D01*
X119688051Y-77700038D01*
X119682394Y-77698913D01*
X119682388Y-77698911D01*
X119499041Y-77662442D01*
X119499039Y-77662442D01*
X119493374Y-77661315D01*
X119487599Y-77661239D01*
X119487595Y-77661239D01*
X119388638Y-77659944D01*
X119294901Y-77658717D01*
X119289204Y-77659696D01*
X119289203Y-77659696D01*
X119104975Y-77691352D01*
X119099278Y-77692331D01*
X118913056Y-77761032D01*
X118742472Y-77862518D01*
X118593239Y-77993392D01*
X118589664Y-77997927D01*
X118589663Y-77997928D01*
X118576801Y-78014243D01*
X118470355Y-78149270D01*
X118467666Y-78154381D01*
X118467664Y-78154384D01*
X118420989Y-78243098D01*
X118377935Y-78324931D01*
X118319075Y-78514493D01*
X118295745Y-78711608D01*
X118308727Y-78909673D01*
X118357586Y-79102056D01*
X118440685Y-79282313D01*
X118444018Y-79287029D01*
X118516902Y-79390157D01*
X118555243Y-79444409D01*
X118697422Y-79582913D01*
X118701874Y-79585888D01*
X118742148Y-79644191D01*
X118748500Y-79683694D01*
X118748500Y-79931501D01*
X118747975Y-79942629D01*
X118746306Y-79950098D01*
X118746555Y-79958021D01*
X118748438Y-80017936D01*
X118748500Y-80021894D01*
X118748500Y-80049730D01*
X118748995Y-80053646D01*
X118749002Y-80053699D01*
X118749935Y-80065543D01*
X118751318Y-80109574D01*
X118753530Y-80117186D01*
X118756941Y-80128928D01*
X118760951Y-80148290D01*
X118763478Y-80168296D01*
X118766395Y-80175662D01*
X118766396Y-80175668D01*
X118779697Y-80209263D01*
X118783541Y-80220490D01*
X118793619Y-80255175D01*
X118795832Y-80262792D01*
X118803220Y-80275284D01*
X118806095Y-80280146D01*
X118814788Y-80297890D01*
X118822214Y-80316645D01*
X118848115Y-80352294D01*
X118854622Y-80362202D01*
X118867142Y-80383371D01*
X118877051Y-80400127D01*
X118891307Y-80414383D01*
X118904148Y-80429417D01*
X118915998Y-80445727D01*
X118949943Y-80473809D01*
X118958722Y-80481798D01*
X123669329Y-85192405D01*
X123703355Y-85254717D01*
X123698290Y-85325532D01*
X123655743Y-85382368D01*
X123589223Y-85407179D01*
X123580234Y-85407500D01*
X122677500Y-85407500D01*
X122609379Y-85387498D01*
X122562886Y-85333842D01*
X122551500Y-85281500D01*
X122551500Y-85168499D01*
X122552025Y-85157371D01*
X122553694Y-85149902D01*
X122551562Y-85082064D01*
X122551500Y-85078106D01*
X122551500Y-85050270D01*
X122550997Y-85046292D01*
X122550065Y-85034451D01*
X122549938Y-85030389D01*
X122548682Y-84990426D01*
X122543059Y-84971072D01*
X122539049Y-84951709D01*
X122537515Y-84939565D01*
X122536522Y-84931704D01*
X122533605Y-84924338D01*
X122533604Y-84924332D01*
X122520303Y-84890737D01*
X122516459Y-84879510D01*
X122506381Y-84844825D01*
X122504168Y-84837208D01*
X122493904Y-84819852D01*
X122485212Y-84802110D01*
X122477786Y-84783355D01*
X122451885Y-84747706D01*
X122445378Y-84737798D01*
X122426985Y-84706697D01*
X122426984Y-84706695D01*
X122422949Y-84699873D01*
X122408693Y-84685617D01*
X122395852Y-84670583D01*
X122388662Y-84660687D01*
X122384002Y-84654273D01*
X122350057Y-84626191D01*
X122341278Y-84618202D01*
X117508405Y-79785329D01*
X117474379Y-79723017D01*
X117471500Y-79696234D01*
X117471500Y-79678686D01*
X117491502Y-79610565D01*
X117516929Y-79581814D01*
X117606947Y-79506947D01*
X117733870Y-79354339D01*
X117830856Y-79181158D01*
X117871964Y-79060059D01*
X117892803Y-78998669D01*
X117892803Y-78998668D01*
X117894659Y-78993201D01*
X117895487Y-78987492D01*
X117895488Y-78987487D01*
X117922608Y-78800438D01*
X117923141Y-78796765D01*
X117924627Y-78740000D01*
X117906465Y-78542342D01*
X117898368Y-78513630D01*
X117871433Y-78418128D01*
X117852587Y-78351304D01*
X117764797Y-78173284D01*
X117646035Y-78014243D01*
X117631510Y-78000816D01*
X117504520Y-77883428D01*
X117504518Y-77883426D01*
X117500279Y-77879508D01*
X117389368Y-77809528D01*
X117337290Y-77776669D01*
X117337289Y-77776669D01*
X117332410Y-77773590D01*
X117327050Y-77771452D01*
X117327047Y-77771450D01*
X117215150Y-77726808D01*
X117148051Y-77700038D01*
X117142394Y-77698913D01*
X117142388Y-77698911D01*
X116959041Y-77662442D01*
X116959039Y-77662442D01*
X116953374Y-77661315D01*
X116947599Y-77661239D01*
X116947595Y-77661239D01*
X116848638Y-77659944D01*
X116754901Y-77658717D01*
X116749204Y-77659696D01*
X116749203Y-77659696D01*
X116564975Y-77691352D01*
X116559278Y-77692331D01*
X116373056Y-77761032D01*
X116202472Y-77862518D01*
X116053239Y-77993392D01*
X116049664Y-77997927D01*
X116049663Y-77997928D01*
X116036801Y-78014243D01*
X115930355Y-78149270D01*
X115927666Y-78154381D01*
X115927664Y-78154384D01*
X115880989Y-78243098D01*
X115837935Y-78324931D01*
X115779075Y-78514493D01*
X115755745Y-78711608D01*
X115768727Y-78909673D01*
X115817586Y-79102056D01*
X115900685Y-79282313D01*
X115904018Y-79287029D01*
X115976902Y-79390157D01*
X116015243Y-79444409D01*
X116157422Y-79582913D01*
X116161874Y-79585888D01*
X116202148Y-79644191D01*
X116208500Y-79683694D01*
X116208500Y-79931501D01*
X116207975Y-79942629D01*
X116206306Y-79950098D01*
X116206555Y-79958021D01*
X116208438Y-80017936D01*
X116208500Y-80021894D01*
X116208500Y-80049730D01*
X116208995Y-80053646D01*
X116209002Y-80053699D01*
X116209935Y-80065543D01*
X116211318Y-80109574D01*
X116213530Y-80117186D01*
X116216941Y-80128928D01*
X116220951Y-80148290D01*
X116223478Y-80168296D01*
X116226395Y-80175662D01*
X116226396Y-80175668D01*
X116239697Y-80209263D01*
X116243541Y-80220490D01*
X116253619Y-80255175D01*
X116255832Y-80262792D01*
X116263220Y-80275284D01*
X116266095Y-80280146D01*
X116274788Y-80297890D01*
X116282214Y-80316645D01*
X116308115Y-80352294D01*
X116314622Y-80362202D01*
X116327142Y-80383371D01*
X116337051Y-80400127D01*
X116351307Y-80414383D01*
X116364148Y-80429417D01*
X116375998Y-80445727D01*
X116409943Y-80473809D01*
X116418722Y-80481798D01*
X121129329Y-85192405D01*
X121163355Y-85254717D01*
X121158290Y-85325532D01*
X121115743Y-85382368D01*
X121049223Y-85407179D01*
X121040234Y-85407500D01*
X120138903Y-85407500D01*
X120070782Y-85387498D01*
X120024289Y-85333842D01*
X120012965Y-85285458D01*
X120011562Y-85240814D01*
X120011500Y-85236856D01*
X120011500Y-85209020D01*
X120010997Y-85205042D01*
X120010065Y-85193201D01*
X120008931Y-85157099D01*
X120008682Y-85149176D01*
X120003059Y-85129822D01*
X119999049Y-85110459D01*
X119997515Y-85098315D01*
X119996522Y-85090454D01*
X119993605Y-85083088D01*
X119993604Y-85083082D01*
X119980303Y-85049487D01*
X119976459Y-85038260D01*
X119966381Y-85003575D01*
X119964168Y-84995958D01*
X119953904Y-84978602D01*
X119945212Y-84960860D01*
X119937786Y-84942105D01*
X119911885Y-84906456D01*
X119905378Y-84896548D01*
X119886985Y-84865447D01*
X119886984Y-84865445D01*
X119882949Y-84858623D01*
X119868693Y-84844367D01*
X119855852Y-84829333D01*
X119848662Y-84819437D01*
X119844002Y-84813023D01*
X119810057Y-84784941D01*
X119801278Y-84776952D01*
X114968405Y-79944079D01*
X114934379Y-79881767D01*
X114931500Y-79854984D01*
X114931500Y-79678686D01*
X114951502Y-79610565D01*
X114976929Y-79581814D01*
X115066947Y-79506947D01*
X115193870Y-79354339D01*
X115290856Y-79181158D01*
X115331964Y-79060059D01*
X115352803Y-78998669D01*
X115352803Y-78998668D01*
X115354659Y-78993201D01*
X115355487Y-78987492D01*
X115355488Y-78987487D01*
X115382608Y-78800438D01*
X115383141Y-78796765D01*
X115384627Y-78740000D01*
X115366465Y-78542342D01*
X115358368Y-78513630D01*
X115331433Y-78418128D01*
X115312587Y-78351304D01*
X115224797Y-78173284D01*
X115106035Y-78014243D01*
X115091510Y-78000816D01*
X114964520Y-77883428D01*
X114964518Y-77883426D01*
X114960279Y-77879508D01*
X114849368Y-77809528D01*
X114797290Y-77776669D01*
X114797289Y-77776669D01*
X114792410Y-77773590D01*
X114787050Y-77771452D01*
X114787047Y-77771450D01*
X114675150Y-77726808D01*
X114608051Y-77700038D01*
X114602394Y-77698913D01*
X114602388Y-77698911D01*
X114419041Y-77662442D01*
X114419039Y-77662442D01*
X114413374Y-77661315D01*
X114407599Y-77661239D01*
X114407595Y-77661239D01*
X114308638Y-77659944D01*
X114214901Y-77658717D01*
X114209204Y-77659696D01*
X114209203Y-77659696D01*
X114024975Y-77691352D01*
X114019278Y-77692331D01*
X113833056Y-77761032D01*
X113662472Y-77862518D01*
X113513239Y-77993392D01*
X113509664Y-77997927D01*
X113509663Y-77997928D01*
X113496801Y-78014243D01*
X113390355Y-78149270D01*
X113387666Y-78154381D01*
X113387664Y-78154384D01*
X113340989Y-78243098D01*
X113297935Y-78324931D01*
X113239075Y-78514493D01*
X113215745Y-78711608D01*
X113228727Y-78909673D01*
X113277586Y-79102056D01*
X113360685Y-79282313D01*
X113364018Y-79287029D01*
X113436902Y-79390157D01*
X113475243Y-79444409D01*
X113617422Y-79582913D01*
X113621874Y-79585888D01*
X113662148Y-79644191D01*
X113668500Y-79683694D01*
X113668500Y-80090251D01*
X113667975Y-80101379D01*
X113666306Y-80108848D01*
X113666555Y-80116771D01*
X113668438Y-80176686D01*
X113668500Y-80180644D01*
X113668500Y-80208480D01*
X113668995Y-80212396D01*
X113669002Y-80212449D01*
X113669935Y-80224293D01*
X113671318Y-80268324D01*
X113673530Y-80275936D01*
X113676941Y-80287678D01*
X113680951Y-80307040D01*
X113683478Y-80327046D01*
X113686395Y-80334412D01*
X113686396Y-80334418D01*
X113699697Y-80368013D01*
X113703541Y-80379240D01*
X113709610Y-80400127D01*
X113715832Y-80421542D01*
X113719867Y-80428365D01*
X113726095Y-80438896D01*
X113734788Y-80456640D01*
X113742214Y-80475395D01*
X113768115Y-80511044D01*
X113774622Y-80520952D01*
X113797051Y-80558877D01*
X113811307Y-80573133D01*
X113824148Y-80588167D01*
X113835998Y-80604477D01*
X113869943Y-80632559D01*
X113878722Y-80640548D01*
X118430579Y-85192405D01*
X118464605Y-85254717D01*
X118459540Y-85325532D01*
X118416993Y-85382368D01*
X118350473Y-85407179D01*
X118341484Y-85407500D01*
X115057500Y-85407500D01*
X114989379Y-85387498D01*
X114942886Y-85333842D01*
X114931500Y-85281500D01*
X114931500Y-83898490D01*
X114932024Y-83887367D01*
X114933693Y-83879902D01*
X114931562Y-83812082D01*
X114931500Y-83808125D01*
X114931500Y-83780270D01*
X114930996Y-83776280D01*
X114930066Y-83764459D01*
X114928931Y-83728349D01*
X114928682Y-83720426D01*
X114923060Y-83701075D01*
X114919051Y-83681716D01*
X114917516Y-83669569D01*
X114917515Y-83669565D01*
X114916522Y-83661704D01*
X114913606Y-83654339D01*
X114913605Y-83654335D01*
X114900300Y-83620732D01*
X114896454Y-83609499D01*
X114886379Y-83574818D01*
X114886376Y-83574811D01*
X114884167Y-83567208D01*
X114880136Y-83560392D01*
X114880134Y-83560387D01*
X114873907Y-83549858D01*
X114865210Y-83532106D01*
X114860705Y-83520727D01*
X114860705Y-83520726D01*
X114857786Y-83513355D01*
X114852613Y-83506234D01*
X114831891Y-83477714D01*
X114825372Y-83467790D01*
X114806984Y-83436696D01*
X114806980Y-83436691D01*
X114802948Y-83429873D01*
X114788695Y-83415620D01*
X114775854Y-83400586D01*
X114768662Y-83390687D01*
X114764002Y-83384273D01*
X114730039Y-83356177D01*
X114721273Y-83348198D01*
X112428405Y-81055329D01*
X112394379Y-80993017D01*
X112391500Y-80966234D01*
X112391500Y-79943996D01*
X112411502Y-79875875D01*
X112465158Y-79829382D01*
X112499150Y-79819339D01*
X112559959Y-79810388D01*
X112559961Y-79810387D01*
X112569644Y-79808962D01*
X112605943Y-79791140D01*
X112674303Y-79757577D01*
X112674304Y-79757576D01*
X112683651Y-79752987D01*
X112773380Y-79663101D01*
X112782624Y-79644191D01*
X112811177Y-79585776D01*
X112829155Y-79548997D01*
X112834751Y-79510638D01*
X112839340Y-79479184D01*
X112839340Y-79479180D01*
X112840000Y-79474658D01*
X112840000Y-78005342D01*
X112830483Y-77940683D01*
X112830388Y-77940041D01*
X112830387Y-77940039D01*
X112828962Y-77930356D01*
X112824647Y-77921567D01*
X112777577Y-77825697D01*
X112777576Y-77825696D01*
X112772987Y-77816349D01*
X112683101Y-77726620D01*
X112666813Y-77718658D01*
X112578219Y-77675353D01*
X112568997Y-77670845D01*
X112518499Y-77663478D01*
X112499184Y-77660660D01*
X112499180Y-77660660D01*
X112494658Y-77660000D01*
X111025342Y-77660000D01*
X111020794Y-77660670D01*
X111020787Y-77660670D01*
X110960041Y-77669612D01*
X110960039Y-77669613D01*
X110950356Y-77671038D01*
X110941568Y-77675353D01*
X110941567Y-77675353D01*
X110845697Y-77722423D01*
X110845696Y-77722424D01*
X110836349Y-77727013D01*
X110746620Y-77816899D01*
X110690845Y-77931003D01*
X110689433Y-77940683D01*
X110680665Y-78000787D01*
X110680000Y-78005342D01*
X110680000Y-79474658D01*
X110680670Y-79479206D01*
X110680670Y-79479213D01*
X110689612Y-79539959D01*
X110691038Y-79549644D01*
X110695353Y-79558432D01*
X110695353Y-79558433D01*
X110737459Y-79644191D01*
X110747013Y-79663651D01*
X110836899Y-79753380D01*
X110846255Y-79757953D01*
X110846256Y-79757954D01*
X110860268Y-79764803D01*
X110951003Y-79809155D01*
X111020690Y-79819321D01*
X111085209Y-79848947D01*
X111123469Y-79908752D01*
X111128500Y-79944001D01*
X111128500Y-81201501D01*
X111127975Y-81212629D01*
X111126306Y-81220098D01*
X111127478Y-81257374D01*
X111128438Y-81287936D01*
X111128500Y-81291894D01*
X111128500Y-81319730D01*
X111128995Y-81323646D01*
X111129002Y-81323699D01*
X111129935Y-81335543D01*
X111131318Y-81379574D01*
X111133530Y-81387186D01*
X111136941Y-81398928D01*
X111140951Y-81418290D01*
X111143478Y-81438296D01*
X111146395Y-81445662D01*
X111146396Y-81445668D01*
X111159697Y-81479263D01*
X111163541Y-81490490D01*
X111173619Y-81525175D01*
X111175832Y-81532792D01*
X111179867Y-81539615D01*
X111186095Y-81550146D01*
X111194788Y-81567890D01*
X111202214Y-81586645D01*
X111228115Y-81622294D01*
X111234622Y-81632202D01*
X111257051Y-81670127D01*
X111271307Y-81684383D01*
X111284148Y-81699417D01*
X111295998Y-81715727D01*
X111329943Y-81743809D01*
X111338722Y-81751798D01*
X113631595Y-84044671D01*
X113665621Y-84106983D01*
X113668500Y-84133766D01*
X113668500Y-85281500D01*
X113648498Y-85349621D01*
X113594842Y-85396114D01*
X113542500Y-85407500D01*
X109907190Y-85407500D01*
X109839069Y-85387498D01*
X109818095Y-85370595D01*
X109637905Y-85190405D01*
X109603879Y-85128093D01*
X109601000Y-85101310D01*
X109601000Y-71091608D01*
X110675745Y-71091608D01*
X110688727Y-71289673D01*
X110737586Y-71482056D01*
X110820685Y-71662313D01*
X110824018Y-71667029D01*
X110915315Y-71796211D01*
X110935243Y-71824409D01*
X110939385Y-71828444D01*
X110994885Y-71882509D01*
X111077422Y-71962913D01*
X111242461Y-72073189D01*
X111247764Y-72075467D01*
X111247767Y-72075469D01*
X111409901Y-72145127D01*
X111424832Y-72151542D01*
X111467705Y-72161243D01*
X111612791Y-72194073D01*
X111612796Y-72194074D01*
X111618428Y-72195348D01*
X111624199Y-72195575D01*
X111624201Y-72195575D01*
X111683262Y-72197895D01*
X111816765Y-72203141D01*
X111933184Y-72186261D01*
X112007487Y-72175488D01*
X112007492Y-72175487D01*
X112013201Y-72174659D01*
X112026031Y-72170304D01*
X112195690Y-72112712D01*
X112201158Y-72110856D01*
X112374339Y-72013870D01*
X112526947Y-71886947D01*
X112600774Y-71798180D01*
X112650179Y-71738777D01*
X112653870Y-71734339D01*
X112750856Y-71561158D01*
X112784962Y-71460684D01*
X112812803Y-71378669D01*
X112812803Y-71378668D01*
X112814659Y-71373201D01*
X112815487Y-71367492D01*
X112815488Y-71367487D01*
X112842608Y-71180438D01*
X112843141Y-71176765D01*
X112844627Y-71120000D01*
X112842018Y-71091608D01*
X113215745Y-71091608D01*
X113228727Y-71289673D01*
X113277586Y-71482056D01*
X113360685Y-71662313D01*
X113364018Y-71667029D01*
X113455315Y-71796211D01*
X113475243Y-71824409D01*
X113479385Y-71828444D01*
X113534885Y-71882509D01*
X113617422Y-71962913D01*
X113782461Y-72073189D01*
X113787764Y-72075467D01*
X113787767Y-72075469D01*
X113949901Y-72145127D01*
X113964832Y-72151542D01*
X114007705Y-72161243D01*
X114152791Y-72194073D01*
X114152796Y-72194074D01*
X114158428Y-72195348D01*
X114164199Y-72195575D01*
X114164201Y-72195575D01*
X114223262Y-72197895D01*
X114356765Y-72203141D01*
X114473184Y-72186261D01*
X114547487Y-72175488D01*
X114547492Y-72175487D01*
X114553201Y-72174659D01*
X114566031Y-72170304D01*
X114735690Y-72112712D01*
X114741158Y-72110856D01*
X114914339Y-72013870D01*
X115066947Y-71886947D01*
X115140774Y-71798180D01*
X115190179Y-71738777D01*
X115193870Y-71734339D01*
X115290856Y-71561158D01*
X115324962Y-71460684D01*
X115352803Y-71378669D01*
X115352803Y-71378668D01*
X115354659Y-71373201D01*
X115355487Y-71367492D01*
X115355488Y-71367487D01*
X115382608Y-71180438D01*
X115383141Y-71176765D01*
X115384627Y-71120000D01*
X115382018Y-71091608D01*
X115755745Y-71091608D01*
X115768727Y-71289673D01*
X115817586Y-71482056D01*
X115900685Y-71662313D01*
X115904018Y-71667029D01*
X115995315Y-71796211D01*
X116015243Y-71824409D01*
X116019385Y-71828444D01*
X116074885Y-71882509D01*
X116157422Y-71962913D01*
X116322461Y-72073189D01*
X116327764Y-72075467D01*
X116327767Y-72075469D01*
X116489901Y-72145127D01*
X116504832Y-72151542D01*
X116547705Y-72161243D01*
X116692791Y-72194073D01*
X116692796Y-72194074D01*
X116698428Y-72195348D01*
X116704199Y-72195575D01*
X116704201Y-72195575D01*
X116763262Y-72197895D01*
X116896765Y-72203141D01*
X117013184Y-72186261D01*
X117087487Y-72175488D01*
X117087492Y-72175487D01*
X117093201Y-72174659D01*
X117106031Y-72170304D01*
X117275690Y-72112712D01*
X117281158Y-72110856D01*
X117454339Y-72013870D01*
X117606947Y-71886947D01*
X117680774Y-71798180D01*
X117730179Y-71738777D01*
X117733870Y-71734339D01*
X117830856Y-71561158D01*
X117864962Y-71460684D01*
X117892803Y-71378669D01*
X117892803Y-71378668D01*
X117894659Y-71373201D01*
X117895487Y-71367492D01*
X117895488Y-71367487D01*
X117922608Y-71180438D01*
X117923141Y-71176765D01*
X117924627Y-71120000D01*
X117906465Y-70922342D01*
X117852587Y-70731304D01*
X117764797Y-70553284D01*
X117646035Y-70394243D01*
X117630025Y-70379443D01*
X117511971Y-70270316D01*
X117475526Y-70209388D01*
X117471500Y-70177791D01*
X117471500Y-69518686D01*
X117491502Y-69450565D01*
X117516929Y-69421814D01*
X117606947Y-69346947D01*
X117712738Y-69219747D01*
X117730179Y-69198777D01*
X117733870Y-69194339D01*
X117830856Y-69021158D01*
X117877315Y-68884296D01*
X117892803Y-68838669D01*
X117892803Y-68838668D01*
X117894659Y-68833201D01*
X117895487Y-68827492D01*
X117895488Y-68827487D01*
X117922608Y-68640438D01*
X117923141Y-68636765D01*
X117924627Y-68580000D01*
X117906465Y-68382342D01*
X117852587Y-68191304D01*
X117764797Y-68013284D01*
X117646035Y-67854243D01*
X117631479Y-67840787D01*
X117511971Y-67730316D01*
X117475526Y-67669388D01*
X117471500Y-67637791D01*
X117471500Y-66978686D01*
X117491502Y-66910565D01*
X117516929Y-66881814D01*
X117606947Y-66806947D01*
X117712738Y-66679748D01*
X117730179Y-66658777D01*
X117733870Y-66654339D01*
X117830856Y-66481158D01*
X117894659Y-66293201D01*
X117895487Y-66287492D01*
X117895488Y-66287487D01*
X117922608Y-66100438D01*
X117923141Y-66096765D01*
X117924627Y-66040000D01*
X117906465Y-65842342D01*
X117852587Y-65651304D01*
X117764797Y-65473284D01*
X117646035Y-65314243D01*
X117631510Y-65300816D01*
X117504520Y-65183428D01*
X117504518Y-65183426D01*
X117500279Y-65179508D01*
X117487337Y-65171342D01*
X117337290Y-65076669D01*
X117337289Y-65076669D01*
X117332410Y-65073590D01*
X117327050Y-65071452D01*
X117327047Y-65071450D01*
X117203214Y-65022046D01*
X117148051Y-65000038D01*
X117142394Y-64998913D01*
X117142388Y-64998911D01*
X116959041Y-64962442D01*
X116959039Y-64962442D01*
X116953374Y-64961315D01*
X116947599Y-64961239D01*
X116947595Y-64961239D01*
X116848638Y-64959944D01*
X116754901Y-64958717D01*
X116749204Y-64959696D01*
X116749203Y-64959696D01*
X116564975Y-64991352D01*
X116559278Y-64992331D01*
X116373056Y-65061032D01*
X116202472Y-65162518D01*
X116053239Y-65293392D01*
X116049664Y-65297927D01*
X116049663Y-65297928D01*
X116039543Y-65310765D01*
X115930355Y-65449270D01*
X115927666Y-65454381D01*
X115927664Y-65454384D01*
X115902189Y-65502804D01*
X115837935Y-65624931D01*
X115779075Y-65814493D01*
X115755745Y-66011608D01*
X115768727Y-66209673D01*
X115817586Y-66402056D01*
X115854052Y-66481158D01*
X115894272Y-66568401D01*
X115900685Y-66582313D01*
X115904018Y-66587029D01*
X115991421Y-66710701D01*
X116015243Y-66744409D01*
X116019385Y-66748444D01*
X116122606Y-66848997D01*
X116157422Y-66882913D01*
X116161874Y-66885888D01*
X116202148Y-66944191D01*
X116208500Y-66983694D01*
X116208500Y-67640141D01*
X116188498Y-67708262D01*
X116165578Y-67734873D01*
X116057580Y-67829585D01*
X116053239Y-67833392D01*
X116049664Y-67837927D01*
X116049663Y-67837928D01*
X116036801Y-67854243D01*
X115930355Y-67989270D01*
X115927666Y-67994381D01*
X115927664Y-67994384D01*
X115913022Y-68022214D01*
X115837935Y-68164931D01*
X115779075Y-68354493D01*
X115755745Y-68551608D01*
X115768727Y-68749673D01*
X115817586Y-68942056D01*
X115900685Y-69122313D01*
X115904018Y-69127029D01*
X115992257Y-69251884D01*
X116015243Y-69284409D01*
X116019385Y-69288444D01*
X116122606Y-69388997D01*
X116157422Y-69422913D01*
X116161874Y-69425888D01*
X116202148Y-69484191D01*
X116208500Y-69523694D01*
X116208500Y-70180141D01*
X116188498Y-70248262D01*
X116165578Y-70274873D01*
X116058507Y-70368772D01*
X116053239Y-70373392D01*
X116049664Y-70377927D01*
X116049663Y-70377928D01*
X116037766Y-70393020D01*
X115930355Y-70529270D01*
X115927666Y-70534381D01*
X115927664Y-70534384D01*
X115910353Y-70567287D01*
X115837935Y-70704931D01*
X115779075Y-70894493D01*
X115755745Y-71091608D01*
X115382018Y-71091608D01*
X115366465Y-70922342D01*
X115312587Y-70731304D01*
X115224797Y-70553284D01*
X115106035Y-70394243D01*
X115090025Y-70379443D01*
X114971971Y-70270316D01*
X114935526Y-70209388D01*
X114931500Y-70177791D01*
X114931500Y-69518686D01*
X114951502Y-69450565D01*
X114976929Y-69421814D01*
X115066947Y-69346947D01*
X115172738Y-69219747D01*
X115190179Y-69198777D01*
X115193870Y-69194339D01*
X115290856Y-69021158D01*
X115337315Y-68884296D01*
X115352803Y-68838669D01*
X115352803Y-68838668D01*
X115354659Y-68833201D01*
X115355487Y-68827492D01*
X115355488Y-68827487D01*
X115382608Y-68640438D01*
X115383141Y-68636765D01*
X115384627Y-68580000D01*
X115366465Y-68382342D01*
X115312587Y-68191304D01*
X115224797Y-68013284D01*
X115106035Y-67854243D01*
X115091479Y-67840787D01*
X114971971Y-67730316D01*
X114935526Y-67669388D01*
X114931500Y-67637791D01*
X114931500Y-67243996D01*
X114951502Y-67175875D01*
X115005158Y-67129382D01*
X115039150Y-67119339D01*
X115099959Y-67110388D01*
X115099961Y-67110387D01*
X115109644Y-67108962D01*
X115118433Y-67104647D01*
X115214303Y-67057577D01*
X115214304Y-67057576D01*
X115223651Y-67052987D01*
X115313380Y-66963101D01*
X115322624Y-66944191D01*
X115351177Y-66885776D01*
X115369155Y-66848997D01*
X115375274Y-66807051D01*
X115379340Y-66779184D01*
X115379340Y-66779180D01*
X115380000Y-66774658D01*
X115380000Y-65305342D01*
X115378138Y-65292687D01*
X115370388Y-65240041D01*
X115370387Y-65240039D01*
X115368962Y-65230356D01*
X115348271Y-65188213D01*
X115317577Y-65125697D01*
X115317576Y-65125696D01*
X115312987Y-65116349D01*
X115223101Y-65026620D01*
X115108997Y-64970845D01*
X115076216Y-64966063D01*
X115039184Y-64960660D01*
X115039180Y-64960660D01*
X115034658Y-64960000D01*
X113565342Y-64960000D01*
X113560794Y-64960670D01*
X113560787Y-64960670D01*
X113500041Y-64969612D01*
X113500039Y-64969613D01*
X113490356Y-64971038D01*
X113481568Y-64975353D01*
X113481567Y-64975353D01*
X113385697Y-65022423D01*
X113385696Y-65022424D01*
X113376349Y-65027013D01*
X113368992Y-65034383D01*
X113296010Y-65107493D01*
X113286620Y-65116899D01*
X113282047Y-65126255D01*
X113282046Y-65126256D01*
X113266816Y-65157413D01*
X113230845Y-65231003D01*
X113227008Y-65257306D01*
X113220665Y-65300787D01*
X113220000Y-65305342D01*
X113220000Y-66774658D01*
X113220670Y-66779206D01*
X113220670Y-66779213D01*
X113229612Y-66839959D01*
X113231038Y-66849644D01*
X113235353Y-66858432D01*
X113235353Y-66858433D01*
X113277459Y-66944191D01*
X113287013Y-66963651D01*
X113376899Y-67053380D01*
X113491003Y-67109155D01*
X113560690Y-67119321D01*
X113625209Y-67148947D01*
X113663469Y-67208752D01*
X113668500Y-67244001D01*
X113668500Y-67640141D01*
X113648498Y-67708262D01*
X113625578Y-67734873D01*
X113517580Y-67829585D01*
X113513239Y-67833392D01*
X113509664Y-67837927D01*
X113509663Y-67837928D01*
X113496801Y-67854243D01*
X113390355Y-67989270D01*
X113387666Y-67994381D01*
X113387664Y-67994384D01*
X113373022Y-68022214D01*
X113297935Y-68164931D01*
X113239075Y-68354493D01*
X113215745Y-68551608D01*
X113228727Y-68749673D01*
X113277586Y-68942056D01*
X113360685Y-69122313D01*
X113364018Y-69127029D01*
X113452257Y-69251884D01*
X113475243Y-69284409D01*
X113479385Y-69288444D01*
X113582606Y-69388997D01*
X113617422Y-69422913D01*
X113621874Y-69425888D01*
X113662148Y-69484191D01*
X113668500Y-69523694D01*
X113668500Y-70180141D01*
X113648498Y-70248262D01*
X113625578Y-70274873D01*
X113518507Y-70368772D01*
X113513239Y-70373392D01*
X113509664Y-70377927D01*
X113509663Y-70377928D01*
X113497766Y-70393020D01*
X113390355Y-70529270D01*
X113387666Y-70534381D01*
X113387664Y-70534384D01*
X113370353Y-70567287D01*
X113297935Y-70704931D01*
X113239075Y-70894493D01*
X113215745Y-71091608D01*
X112842018Y-71091608D01*
X112826465Y-70922342D01*
X112772587Y-70731304D01*
X112684797Y-70553284D01*
X112566035Y-70394243D01*
X112552678Y-70381896D01*
X112424520Y-70263428D01*
X112424518Y-70263426D01*
X112420279Y-70259508D01*
X112393352Y-70242518D01*
X112257290Y-70156669D01*
X112257289Y-70156669D01*
X112252410Y-70153590D01*
X112247050Y-70151452D01*
X112247047Y-70151450D01*
X112145317Y-70110864D01*
X112068051Y-70080038D01*
X112062394Y-70078913D01*
X112062388Y-70078911D01*
X111879041Y-70042442D01*
X111879039Y-70042442D01*
X111873374Y-70041315D01*
X111867599Y-70041239D01*
X111867595Y-70041239D01*
X111768638Y-70039944D01*
X111674901Y-70038717D01*
X111669204Y-70039696D01*
X111669203Y-70039696D01*
X111484975Y-70071352D01*
X111479278Y-70072331D01*
X111293056Y-70141032D01*
X111122472Y-70242518D01*
X110973239Y-70373392D01*
X110969664Y-70377927D01*
X110969663Y-70377928D01*
X110957766Y-70393020D01*
X110850355Y-70529270D01*
X110847666Y-70534381D01*
X110847664Y-70534384D01*
X110830353Y-70567287D01*
X110757935Y-70704931D01*
X110699075Y-70894493D01*
X110675745Y-71091608D01*
X109601000Y-71091608D01*
X109601000Y-69314658D01*
X110680000Y-69314658D01*
X110680670Y-69319206D01*
X110680670Y-69319213D01*
X110689612Y-69379959D01*
X110691038Y-69389644D01*
X110695353Y-69398432D01*
X110695353Y-69398433D01*
X110737459Y-69484191D01*
X110747013Y-69503651D01*
X110836899Y-69593380D01*
X110951003Y-69649155D01*
X110983784Y-69653937D01*
X111020816Y-69659340D01*
X111020820Y-69659340D01*
X111025342Y-69660000D01*
X112494658Y-69660000D01*
X112499206Y-69659330D01*
X112499213Y-69659330D01*
X112559959Y-69650388D01*
X112559961Y-69650387D01*
X112569644Y-69648962D01*
X112578433Y-69644647D01*
X112674303Y-69597577D01*
X112674304Y-69597576D01*
X112683651Y-69592987D01*
X112773380Y-69503101D01*
X112782624Y-69484191D01*
X112811177Y-69425776D01*
X112829155Y-69388997D01*
X112835274Y-69347051D01*
X112839340Y-69319184D01*
X112839340Y-69319180D01*
X112840000Y-69314658D01*
X112840000Y-67845342D01*
X112838979Y-67838401D01*
X112830388Y-67780041D01*
X112830387Y-67780039D01*
X112828962Y-67770356D01*
X112798475Y-67708262D01*
X112777577Y-67665697D01*
X112777576Y-67665696D01*
X112772987Y-67656349D01*
X112683101Y-67566620D01*
X112568997Y-67510845D01*
X112536216Y-67506063D01*
X112499184Y-67500660D01*
X112499180Y-67500660D01*
X112494658Y-67500000D01*
X111025342Y-67500000D01*
X111020794Y-67500670D01*
X111020787Y-67500670D01*
X110960041Y-67509612D01*
X110960039Y-67509613D01*
X110950356Y-67511038D01*
X110941568Y-67515353D01*
X110941567Y-67515353D01*
X110845697Y-67562423D01*
X110845696Y-67562424D01*
X110836349Y-67567013D01*
X110746620Y-67656899D01*
X110690845Y-67771003D01*
X110689433Y-67780683D01*
X110680665Y-67840787D01*
X110680000Y-67845342D01*
X110680000Y-69314658D01*
X109601000Y-69314658D01*
X109601000Y-59432314D01*
X113652046Y-59432314D01*
X113661928Y-59444803D01*
X113717041Y-59481627D01*
X113727146Y-59487114D01*
X113920267Y-59570086D01*
X113931210Y-59573641D01*
X114136209Y-59620028D01*
X114147618Y-59621530D01*
X114357645Y-59629781D01*
X114369129Y-59629179D01*
X114577145Y-59599019D01*
X114588328Y-59596334D01*
X114787362Y-59528771D01*
X114797865Y-59524095D01*
X114940404Y-59444270D01*
X114950266Y-59434194D01*
X114949542Y-59432314D01*
X116192046Y-59432314D01*
X116201928Y-59444803D01*
X116257041Y-59481627D01*
X116267146Y-59487114D01*
X116460267Y-59570086D01*
X116471210Y-59573641D01*
X116676209Y-59620028D01*
X116687618Y-59621530D01*
X116897645Y-59629781D01*
X116909129Y-59629179D01*
X117117145Y-59599019D01*
X117128328Y-59596334D01*
X117327362Y-59528771D01*
X117337865Y-59524095D01*
X117480404Y-59444270D01*
X117490266Y-59434194D01*
X117489542Y-59432314D01*
X118732046Y-59432314D01*
X118741928Y-59444803D01*
X118797041Y-59481627D01*
X118807146Y-59487114D01*
X119000267Y-59570086D01*
X119011210Y-59573641D01*
X119216209Y-59620028D01*
X119227618Y-59621530D01*
X119437645Y-59629781D01*
X119449129Y-59629179D01*
X119657145Y-59599019D01*
X119668328Y-59596334D01*
X119867362Y-59528771D01*
X119877865Y-59524095D01*
X120020404Y-59444270D01*
X120030266Y-59434194D01*
X120027311Y-59426522D01*
X119392811Y-58792021D01*
X119378868Y-58784408D01*
X119377034Y-58784539D01*
X119370420Y-58788790D01*
X118738239Y-59420972D01*
X118732046Y-59432314D01*
X117489542Y-59432314D01*
X117487311Y-59426522D01*
X116852811Y-58792021D01*
X116838868Y-58784408D01*
X116837034Y-58784539D01*
X116830420Y-58788790D01*
X116198239Y-59420972D01*
X116192046Y-59432314D01*
X114949542Y-59432314D01*
X114947311Y-59426522D01*
X114312811Y-58792021D01*
X114298868Y-58784408D01*
X114297034Y-58784539D01*
X114290420Y-58788790D01*
X113658239Y-59420972D01*
X113652046Y-59432314D01*
X109601000Y-59432314D01*
X109601000Y-57824901D01*
X109602551Y-57805190D01*
X109605749Y-57784999D01*
X109604198Y-57775204D01*
X109604198Y-57774727D01*
X109605749Y-57755016D01*
X109606546Y-57749984D01*
X109641900Y-57680600D01*
X109750600Y-57571900D01*
X109819983Y-57536546D01*
X109825020Y-57535749D01*
X109844727Y-57534198D01*
X109845204Y-57534198D01*
X109854999Y-57535749D01*
X109875191Y-57532551D01*
X109894901Y-57531000D01*
X113204624Y-57531000D01*
X113272745Y-57551002D01*
G37*
%TD.AperFunction*%
%TD*%
M02*
