M48
; DRILL file {KiCad (6.0.2)} date Sat Apr 27 00:41:07 2024
; FORMAT={-:-/ absolute / inch / decimal}
; #@! TF.CreationDate,2024-04-27T00:41:07-07:00
; #@! TF.GenerationSoftware,Kicad,Pcbnew,(6.0.2)
; #@! TF.FileFunction,Plated,1,2,PTH
FMAT,2
INCH
; #@! TA.AperFunction,Plated,PTH,ViaDrill
T1C0.0157
; #@! TA.AperFunction,Plated,PTH,ComponentDrill
T2C0.0320
; #@! TA.AperFunction,Plated,PTH,ComponentDrill
T3C0.0400
%
G90
G05
T1
X4.4Y-3.325
X5.375Y-2.8
X6.2Y-2.95
X6.3Y-2.95
X6.45Y-2.85
X6.45Y-2.9
X6.45Y-2.95
X7.5125Y-3.325
T2
X4.4Y-2.7
X4.4Y-2.8
X4.4Y-3.1
X4.5Y-2.3
X4.5Y-2.6
X4.5Y-2.7
X4.5Y-2.8
X4.5Y-3.1
X4.6Y-2.3
X4.6Y-2.6
X4.6Y-2.7
X4.6Y-2.8
X4.6Y-3.1
X4.7Y-2.3
X4.7Y-2.6
X4.7Y-2.7
X4.7Y-2.8
X4.7Y-3.1
X4.8Y-2.7
X4.8Y-2.8
X4.8Y-3.1
X4.9Y-2.8
X4.9Y-3.1
X5.0Y-2.8
X5.0Y-3.1
X5.1Y-2.8
X5.1Y-3.1
X5.2Y-2.8
X5.2Y-3.1
X5.3Y-2.8
X5.3Y-3.1
X6.4535Y-3.1875
X6.4535Y-3.3125
X6.5Y-2.3
X6.5Y-2.5
X6.5Y-3.1
X6.6Y-2.5
X6.6Y-3.1
X6.6535Y-3.2
X6.6535Y-3.3
X6.7Y-2.3
X6.7Y-2.5
X6.7Y-3.1
X6.8Y-2.5
X6.8Y-3.1
X6.9Y-2.5
X6.9Y-3.1
X7.0Y-2.5
X7.0Y-3.1
X7.1Y-2.5
X7.1Y-3.1
X7.2Y-2.5
X7.2Y-3.1
X7.3Y-2.5
X7.3Y-3.1
X7.4Y-2.5
X7.4Y-3.1
X7.5Y-2.5
X7.5Y-3.1
X7.6Y-2.5
X7.6Y-3.1
T3
X5.9Y-2.3501
X5.9Y-3.1375
X7.0Y-2.3
X7.1Y-2.3
T0
M30
