G04 #@! TF.GenerationSoftware,KiCad,Pcbnew,(5.1.4)-1*
G04 #@! TF.CreationDate,2020-05-29T14:17:48+02:00*
G04 #@! TF.ProjectId,RTC8088,52544338-3038-4382-9e6b-696361645f70,rev?*
G04 #@! TF.SameCoordinates,Original*
G04 #@! TF.FileFunction,Soldermask,Top*
G04 #@! TF.FilePolarity,Negative*
%FSLAX46Y46*%
G04 Gerber Fmt 4.6, Leading zero omitted, Abs format (unit mm)*
G04 Created by KiCad (PCBNEW (5.1.4)-1) date 2020-05-29 14:17:48*
%MOMM*%
%LPD*%
G04 APERTURE LIST*
%ADD10C,0.100000*%
G04 APERTURE END LIST*
D10*
G36*
X186690000Y-106934000D02*
G01*
X105410000Y-107061000D01*
X105537000Y-99314000D01*
X186817000Y-99314000D01*
X186690000Y-106934000D01*
G37*
X186690000Y-106934000D02*
X105410000Y-107061000D01*
X105537000Y-99314000D01*
X186817000Y-99314000D01*
X186690000Y-106934000D01*
G36*
X182550000Y-106731000D02*
G01*
X180670000Y-106731000D01*
X180670000Y-99009000D01*
X182550000Y-99009000D01*
X182550000Y-106731000D01*
X182550000Y-106731000D01*
G37*
G36*
X131750000Y-106731000D02*
G01*
X129870000Y-106731000D01*
X129870000Y-99009000D01*
X131750000Y-99009000D01*
X131750000Y-106731000D01*
X131750000Y-106731000D01*
G37*
G36*
X164770000Y-106731000D02*
G01*
X162890000Y-106731000D01*
X162890000Y-99009000D01*
X164770000Y-99009000D01*
X164770000Y-106731000D01*
X164770000Y-106731000D01*
G37*
G36*
X167310000Y-106731000D02*
G01*
X165430000Y-106731000D01*
X165430000Y-99009000D01*
X167310000Y-99009000D01*
X167310000Y-106731000D01*
X167310000Y-106731000D01*
G37*
G36*
X169850000Y-106731000D02*
G01*
X167970000Y-106731000D01*
X167970000Y-99009000D01*
X169850000Y-99009000D01*
X169850000Y-106731000D01*
X169850000Y-106731000D01*
G37*
G36*
X172390000Y-106731000D02*
G01*
X170510000Y-106731000D01*
X170510000Y-99009000D01*
X172390000Y-99009000D01*
X172390000Y-106731000D01*
X172390000Y-106731000D01*
G37*
G36*
X174930000Y-106731000D02*
G01*
X173050000Y-106731000D01*
X173050000Y-99009000D01*
X174930000Y-99009000D01*
X174930000Y-106731000D01*
X174930000Y-106731000D01*
G37*
G36*
X177470000Y-106731000D02*
G01*
X175590000Y-106731000D01*
X175590000Y-99009000D01*
X177470000Y-99009000D01*
X177470000Y-106731000D01*
X177470000Y-106731000D01*
G37*
G36*
X159690000Y-106731000D02*
G01*
X157810000Y-106731000D01*
X157810000Y-99009000D01*
X159690000Y-99009000D01*
X159690000Y-106731000D01*
X159690000Y-106731000D01*
G37*
G36*
X180010000Y-106731000D02*
G01*
X178130000Y-106731000D01*
X178130000Y-99009000D01*
X180010000Y-99009000D01*
X180010000Y-106731000D01*
X180010000Y-106731000D01*
G37*
G36*
X126670000Y-106731000D02*
G01*
X124790000Y-106731000D01*
X124790000Y-99009000D01*
X126670000Y-99009000D01*
X126670000Y-106731000D01*
X126670000Y-106731000D01*
G37*
G36*
X124130000Y-106731000D02*
G01*
X122250000Y-106731000D01*
X122250000Y-99009000D01*
X124130000Y-99009000D01*
X124130000Y-106731000D01*
X124130000Y-106731000D01*
G37*
G36*
X121590000Y-106731000D02*
G01*
X119710000Y-106731000D01*
X119710000Y-99009000D01*
X121590000Y-99009000D01*
X121590000Y-106731000D01*
X121590000Y-106731000D01*
G37*
G36*
X119050000Y-106731000D02*
G01*
X117170000Y-106731000D01*
X117170000Y-99009000D01*
X119050000Y-99009000D01*
X119050000Y-106731000D01*
X119050000Y-106731000D01*
G37*
G36*
X116510000Y-106731000D02*
G01*
X114630000Y-106731000D01*
X114630000Y-99009000D01*
X116510000Y-99009000D01*
X116510000Y-106731000D01*
X116510000Y-106731000D01*
G37*
G36*
X113970000Y-106731000D02*
G01*
X112090000Y-106731000D01*
X112090000Y-99009000D01*
X113970000Y-99009000D01*
X113970000Y-106731000D01*
X113970000Y-106731000D01*
G37*
G36*
X108890000Y-106731000D02*
G01*
X107010000Y-106731000D01*
X107010000Y-99009000D01*
X108890000Y-99009000D01*
X108890000Y-106731000D01*
X108890000Y-106731000D01*
G37*
G36*
X129210000Y-106731000D02*
G01*
X127330000Y-106731000D01*
X127330000Y-99009000D01*
X129210000Y-99009000D01*
X129210000Y-106731000D01*
X129210000Y-106731000D01*
G37*
G36*
X141721948Y-94498722D02*
G01*
X141869907Y-94560009D01*
X142003061Y-94648979D01*
X142116307Y-94762225D01*
X142205277Y-94895379D01*
X142266564Y-95043338D01*
X142297806Y-95200405D01*
X142297806Y-95360555D01*
X142266564Y-95517622D01*
X142205277Y-95665581D01*
X142116307Y-95798735D01*
X142003061Y-95911981D01*
X141869907Y-96000951D01*
X141721948Y-96062238D01*
X141564881Y-96093480D01*
X141404731Y-96093480D01*
X141247664Y-96062238D01*
X141099705Y-96000951D01*
X140966551Y-95911981D01*
X140853305Y-95798735D01*
X140764335Y-95665581D01*
X140703048Y-95517622D01*
X140671806Y-95360555D01*
X140671806Y-95200405D01*
X140703048Y-95043338D01*
X140764335Y-94895379D01*
X140853305Y-94762225D01*
X140966551Y-94648979D01*
X141099705Y-94560009D01*
X141247664Y-94498722D01*
X141404731Y-94467480D01*
X141564881Y-94467480D01*
X141721948Y-94498722D01*
X141721948Y-94498722D01*
G37*
G36*
X115664425Y-94504599D02*
G01*
X115788621Y-94529302D01*
X115925022Y-94585801D01*
X116047779Y-94667825D01*
X116152175Y-94772221D01*
X116234199Y-94894978D01*
X116290698Y-95031379D01*
X116319500Y-95176181D01*
X116319500Y-95323819D01*
X116290698Y-95468621D01*
X116234199Y-95605022D01*
X116152175Y-95727779D01*
X116047779Y-95832175D01*
X115925022Y-95914199D01*
X115788621Y-95970698D01*
X115664425Y-95995401D01*
X115643820Y-95999500D01*
X115496180Y-95999500D01*
X115475575Y-95995401D01*
X115351379Y-95970698D01*
X115214978Y-95914199D01*
X115092221Y-95832175D01*
X114987825Y-95727779D01*
X114905801Y-95605022D01*
X114849302Y-95468621D01*
X114820500Y-95323819D01*
X114820500Y-95176181D01*
X114849302Y-95031379D01*
X114905801Y-94894978D01*
X114987825Y-94772221D01*
X115092221Y-94667825D01*
X115214978Y-94585801D01*
X115351379Y-94529302D01*
X115475575Y-94504599D01*
X115496180Y-94500500D01*
X115643820Y-94500500D01*
X115664425Y-94504599D01*
X115664425Y-94504599D01*
G37*
G36*
X123284425Y-94504599D02*
G01*
X123408621Y-94529302D01*
X123545022Y-94585801D01*
X123667779Y-94667825D01*
X123772175Y-94772221D01*
X123854199Y-94894978D01*
X123910698Y-95031379D01*
X123939500Y-95176181D01*
X123939500Y-95323819D01*
X123910698Y-95468621D01*
X123854199Y-95605022D01*
X123772175Y-95727779D01*
X123667779Y-95832175D01*
X123545022Y-95914199D01*
X123408621Y-95970698D01*
X123284425Y-95995401D01*
X123263820Y-95999500D01*
X123116180Y-95999500D01*
X123095575Y-95995401D01*
X122971379Y-95970698D01*
X122834978Y-95914199D01*
X122712221Y-95832175D01*
X122607825Y-95727779D01*
X122525801Y-95605022D01*
X122469302Y-95468621D01*
X122440500Y-95323819D01*
X122440500Y-95176181D01*
X122469302Y-95031379D01*
X122525801Y-94894978D01*
X122607825Y-94772221D01*
X122712221Y-94667825D01*
X122834978Y-94585801D01*
X122971379Y-94529302D01*
X123095575Y-94504599D01*
X123116180Y-94500500D01*
X123263820Y-94500500D01*
X123284425Y-94504599D01*
X123284425Y-94504599D01*
G37*
G36*
X120744425Y-94504599D02*
G01*
X120868621Y-94529302D01*
X121005022Y-94585801D01*
X121127779Y-94667825D01*
X121232175Y-94772221D01*
X121314199Y-94894978D01*
X121370698Y-95031379D01*
X121399500Y-95176181D01*
X121399500Y-95323819D01*
X121370698Y-95468621D01*
X121314199Y-95605022D01*
X121232175Y-95727779D01*
X121127779Y-95832175D01*
X121005022Y-95914199D01*
X120868621Y-95970698D01*
X120744425Y-95995401D01*
X120723820Y-95999500D01*
X120576180Y-95999500D01*
X120555575Y-95995401D01*
X120431379Y-95970698D01*
X120294978Y-95914199D01*
X120172221Y-95832175D01*
X120067825Y-95727779D01*
X119985801Y-95605022D01*
X119929302Y-95468621D01*
X119900500Y-95323819D01*
X119900500Y-95176181D01*
X119929302Y-95031379D01*
X119985801Y-94894978D01*
X120067825Y-94772221D01*
X120172221Y-94667825D01*
X120294978Y-94585801D01*
X120431379Y-94529302D01*
X120555575Y-94504599D01*
X120576180Y-94500500D01*
X120723820Y-94500500D01*
X120744425Y-94504599D01*
X120744425Y-94504599D01*
G37*
G36*
X118204425Y-94504599D02*
G01*
X118328621Y-94529302D01*
X118465022Y-94585801D01*
X118587779Y-94667825D01*
X118692175Y-94772221D01*
X118774199Y-94894978D01*
X118830698Y-95031379D01*
X118859500Y-95176181D01*
X118859500Y-95323819D01*
X118830698Y-95468621D01*
X118774199Y-95605022D01*
X118692175Y-95727779D01*
X118587779Y-95832175D01*
X118465022Y-95914199D01*
X118328621Y-95970698D01*
X118204425Y-95995401D01*
X118183820Y-95999500D01*
X118036180Y-95999500D01*
X118015575Y-95995401D01*
X117891379Y-95970698D01*
X117754978Y-95914199D01*
X117632221Y-95832175D01*
X117527825Y-95727779D01*
X117445801Y-95605022D01*
X117389302Y-95468621D01*
X117360500Y-95323819D01*
X117360500Y-95176181D01*
X117389302Y-95031379D01*
X117445801Y-94894978D01*
X117527825Y-94772221D01*
X117632221Y-94667825D01*
X117754978Y-94585801D01*
X117891379Y-94529302D01*
X118015575Y-94504599D01*
X118036180Y-94500500D01*
X118183820Y-94500500D01*
X118204425Y-94504599D01*
X118204425Y-94504599D01*
G37*
G36*
X113124425Y-94504599D02*
G01*
X113248621Y-94529302D01*
X113385022Y-94585801D01*
X113507779Y-94667825D01*
X113612175Y-94772221D01*
X113694199Y-94894978D01*
X113750698Y-95031379D01*
X113779500Y-95176181D01*
X113779500Y-95323819D01*
X113750698Y-95468621D01*
X113694199Y-95605022D01*
X113612175Y-95727779D01*
X113507779Y-95832175D01*
X113385022Y-95914199D01*
X113248621Y-95970698D01*
X113124425Y-95995401D01*
X113103820Y-95999500D01*
X112956180Y-95999500D01*
X112935575Y-95995401D01*
X112811379Y-95970698D01*
X112674978Y-95914199D01*
X112552221Y-95832175D01*
X112447825Y-95727779D01*
X112365801Y-95605022D01*
X112309302Y-95468621D01*
X112280500Y-95323819D01*
X112280500Y-95176181D01*
X112309302Y-95031379D01*
X112365801Y-94894978D01*
X112447825Y-94772221D01*
X112552221Y-94667825D01*
X112674978Y-94585801D01*
X112811379Y-94529302D01*
X112935575Y-94504599D01*
X112956180Y-94500500D01*
X113103820Y-94500500D01*
X113124425Y-94504599D01*
X113124425Y-94504599D01*
G37*
G36*
X108044425Y-94504599D02*
G01*
X108168621Y-94529302D01*
X108305022Y-94585801D01*
X108427779Y-94667825D01*
X108532175Y-94772221D01*
X108614199Y-94894978D01*
X108670698Y-95031379D01*
X108699500Y-95176181D01*
X108699500Y-95323819D01*
X108670698Y-95468621D01*
X108614199Y-95605022D01*
X108532175Y-95727779D01*
X108427779Y-95832175D01*
X108305022Y-95914199D01*
X108168621Y-95970698D01*
X108044425Y-95995401D01*
X108023820Y-95999500D01*
X107876180Y-95999500D01*
X107855575Y-95995401D01*
X107731379Y-95970698D01*
X107594978Y-95914199D01*
X107472221Y-95832175D01*
X107367825Y-95727779D01*
X107285801Y-95605022D01*
X107229302Y-95468621D01*
X107200500Y-95323819D01*
X107200500Y-95176181D01*
X107229302Y-95031379D01*
X107285801Y-94894978D01*
X107367825Y-94772221D01*
X107472221Y-94667825D01*
X107594978Y-94585801D01*
X107731379Y-94529302D01*
X107855575Y-94504599D01*
X107876180Y-94500500D01*
X108023820Y-94500500D01*
X108044425Y-94504599D01*
X108044425Y-94504599D01*
G37*
G36*
X106159500Y-95999500D02*
G01*
X104660500Y-95999500D01*
X104660500Y-94500500D01*
X106159500Y-94500500D01*
X106159500Y-95999500D01*
X106159500Y-95999500D01*
G37*
G36*
X158844425Y-94504599D02*
G01*
X158968621Y-94529302D01*
X159105022Y-94585801D01*
X159227779Y-94667825D01*
X159332175Y-94772221D01*
X159414199Y-94894978D01*
X159470698Y-95031379D01*
X159499500Y-95176181D01*
X159499500Y-95323819D01*
X159470698Y-95468621D01*
X159414199Y-95605022D01*
X159332175Y-95727779D01*
X159227779Y-95832175D01*
X159105022Y-95914199D01*
X158968621Y-95970698D01*
X158844425Y-95995401D01*
X158823820Y-95999500D01*
X158676180Y-95999500D01*
X158655575Y-95995401D01*
X158531379Y-95970698D01*
X158394978Y-95914199D01*
X158272221Y-95832175D01*
X158167825Y-95727779D01*
X158085801Y-95605022D01*
X158029302Y-95468621D01*
X158000500Y-95323819D01*
X158000500Y-95176181D01*
X158029302Y-95031379D01*
X158085801Y-94894978D01*
X158167825Y-94772221D01*
X158272221Y-94667825D01*
X158394978Y-94585801D01*
X158531379Y-94529302D01*
X158655575Y-94504599D01*
X158676180Y-94500500D01*
X158823820Y-94500500D01*
X158844425Y-94504599D01*
X158844425Y-94504599D01*
G37*
G36*
X125824425Y-94504599D02*
G01*
X125948621Y-94529302D01*
X126085022Y-94585801D01*
X126207779Y-94667825D01*
X126312175Y-94772221D01*
X126394199Y-94894978D01*
X126450698Y-95031379D01*
X126479500Y-95176181D01*
X126479500Y-95323819D01*
X126450698Y-95468621D01*
X126394199Y-95605022D01*
X126312175Y-95727779D01*
X126207779Y-95832175D01*
X126085022Y-95914199D01*
X125948621Y-95970698D01*
X125824425Y-95995401D01*
X125803820Y-95999500D01*
X125656180Y-95999500D01*
X125635575Y-95995401D01*
X125511379Y-95970698D01*
X125374978Y-95914199D01*
X125252221Y-95832175D01*
X125147825Y-95727779D01*
X125065801Y-95605022D01*
X125009302Y-95468621D01*
X124980500Y-95323819D01*
X124980500Y-95176181D01*
X125009302Y-95031379D01*
X125065801Y-94894978D01*
X125147825Y-94772221D01*
X125252221Y-94667825D01*
X125374978Y-94585801D01*
X125511379Y-94529302D01*
X125635575Y-94504599D01*
X125656180Y-94500500D01*
X125803820Y-94500500D01*
X125824425Y-94504599D01*
X125824425Y-94504599D01*
G37*
G36*
X128364425Y-94504599D02*
G01*
X128488621Y-94529302D01*
X128625022Y-94585801D01*
X128747779Y-94667825D01*
X128852175Y-94772221D01*
X128934199Y-94894978D01*
X128990698Y-95031379D01*
X129019500Y-95176181D01*
X129019500Y-95323819D01*
X128990698Y-95468621D01*
X128934199Y-95605022D01*
X128852175Y-95727779D01*
X128747779Y-95832175D01*
X128625022Y-95914199D01*
X128488621Y-95970698D01*
X128364425Y-95995401D01*
X128343820Y-95999500D01*
X128196180Y-95999500D01*
X128175575Y-95995401D01*
X128051379Y-95970698D01*
X127914978Y-95914199D01*
X127792221Y-95832175D01*
X127687825Y-95727779D01*
X127605801Y-95605022D01*
X127549302Y-95468621D01*
X127520500Y-95323819D01*
X127520500Y-95176181D01*
X127549302Y-95031379D01*
X127605801Y-94894978D01*
X127687825Y-94772221D01*
X127792221Y-94667825D01*
X127914978Y-94585801D01*
X128051379Y-94529302D01*
X128175575Y-94504599D01*
X128196180Y-94500500D01*
X128343820Y-94500500D01*
X128364425Y-94504599D01*
X128364425Y-94504599D01*
G37*
G36*
X110584425Y-94504599D02*
G01*
X110708621Y-94529302D01*
X110845022Y-94585801D01*
X110967779Y-94667825D01*
X111072175Y-94772221D01*
X111154199Y-94894978D01*
X111210698Y-95031379D01*
X111239500Y-95176181D01*
X111239500Y-95323819D01*
X111210698Y-95468621D01*
X111154199Y-95605022D01*
X111072175Y-95727779D01*
X110967779Y-95832175D01*
X110845022Y-95914199D01*
X110708621Y-95970698D01*
X110584425Y-95995401D01*
X110563820Y-95999500D01*
X110416180Y-95999500D01*
X110395575Y-95995401D01*
X110271379Y-95970698D01*
X110134978Y-95914199D01*
X110012221Y-95832175D01*
X109907825Y-95727779D01*
X109825801Y-95605022D01*
X109769302Y-95468621D01*
X109740500Y-95323819D01*
X109740500Y-95176181D01*
X109769302Y-95031379D01*
X109825801Y-94894978D01*
X109907825Y-94772221D01*
X110012221Y-94667825D01*
X110134978Y-94585801D01*
X110271379Y-94529302D01*
X110395575Y-94504599D01*
X110416180Y-94500500D01*
X110563820Y-94500500D01*
X110584425Y-94504599D01*
X110584425Y-94504599D01*
G37*
G36*
X158844425Y-91964599D02*
G01*
X158968621Y-91989302D01*
X159105022Y-92045801D01*
X159227779Y-92127825D01*
X159332175Y-92232221D01*
X159414199Y-92354978D01*
X159470698Y-92491379D01*
X159499500Y-92636181D01*
X159499500Y-92783819D01*
X159470698Y-92928621D01*
X159414199Y-93065022D01*
X159332175Y-93187779D01*
X159227779Y-93292175D01*
X159105022Y-93374199D01*
X158968621Y-93430698D01*
X158844425Y-93455401D01*
X158823820Y-93459500D01*
X158676180Y-93459500D01*
X158655575Y-93455401D01*
X158531379Y-93430698D01*
X158394978Y-93374199D01*
X158272221Y-93292175D01*
X158167825Y-93187779D01*
X158085801Y-93065022D01*
X158029302Y-92928621D01*
X158000500Y-92783819D01*
X158000500Y-92636181D01*
X158029302Y-92491379D01*
X158085801Y-92354978D01*
X158167825Y-92232221D01*
X158272221Y-92127825D01*
X158394978Y-92045801D01*
X158531379Y-91989302D01*
X158655575Y-91964599D01*
X158676180Y-91960500D01*
X158823820Y-91960500D01*
X158844425Y-91964599D01*
X158844425Y-91964599D01*
G37*
G36*
X128364425Y-86884599D02*
G01*
X128488621Y-86909302D01*
X128625022Y-86965801D01*
X128747779Y-87047825D01*
X128852175Y-87152221D01*
X128934199Y-87274978D01*
X128990698Y-87411379D01*
X129019500Y-87556181D01*
X129019500Y-87703819D01*
X128990698Y-87848621D01*
X128934199Y-87985022D01*
X128852175Y-88107779D01*
X128747779Y-88212175D01*
X128625022Y-88294199D01*
X128488621Y-88350698D01*
X128364425Y-88375401D01*
X128343820Y-88379500D01*
X128196180Y-88379500D01*
X128175575Y-88375401D01*
X128051379Y-88350698D01*
X127914978Y-88294199D01*
X127792221Y-88212175D01*
X127687825Y-88107779D01*
X127605801Y-87985022D01*
X127549302Y-87848621D01*
X127520500Y-87703819D01*
X127520500Y-87556181D01*
X127549302Y-87411379D01*
X127605801Y-87274978D01*
X127687825Y-87152221D01*
X127792221Y-87047825D01*
X127914978Y-86965801D01*
X128051379Y-86909302D01*
X128175575Y-86884599D01*
X128196180Y-86880500D01*
X128343820Y-86880500D01*
X128364425Y-86884599D01*
X128364425Y-86884599D01*
G37*
G36*
X159499500Y-88379500D02*
G01*
X158000500Y-88379500D01*
X158000500Y-86880500D01*
X159499500Y-86880500D01*
X159499500Y-88379500D01*
X159499500Y-88379500D01*
G37*
G36*
X161384425Y-86884599D02*
G01*
X161508621Y-86909302D01*
X161645022Y-86965801D01*
X161767779Y-87047825D01*
X161872175Y-87152221D01*
X161954199Y-87274978D01*
X162010698Y-87411379D01*
X162039500Y-87556181D01*
X162039500Y-87703819D01*
X162010698Y-87848621D01*
X161954199Y-87985022D01*
X161872175Y-88107779D01*
X161767779Y-88212175D01*
X161645022Y-88294199D01*
X161508621Y-88350698D01*
X161384425Y-88375401D01*
X161363820Y-88379500D01*
X161216180Y-88379500D01*
X161195575Y-88375401D01*
X161071379Y-88350698D01*
X160934978Y-88294199D01*
X160812221Y-88212175D01*
X160707825Y-88107779D01*
X160625801Y-87985022D01*
X160569302Y-87848621D01*
X160540500Y-87703819D01*
X160540500Y-87556181D01*
X160569302Y-87411379D01*
X160625801Y-87274978D01*
X160707825Y-87152221D01*
X160812221Y-87047825D01*
X160934978Y-86965801D01*
X161071379Y-86909302D01*
X161195575Y-86884599D01*
X161216180Y-86880500D01*
X161363820Y-86880500D01*
X161384425Y-86884599D01*
X161384425Y-86884599D01*
G37*
G36*
X163924425Y-86884599D02*
G01*
X164048621Y-86909302D01*
X164185022Y-86965801D01*
X164307779Y-87047825D01*
X164412175Y-87152221D01*
X164494199Y-87274978D01*
X164550698Y-87411379D01*
X164579500Y-87556181D01*
X164579500Y-87703819D01*
X164550698Y-87848621D01*
X164494199Y-87985022D01*
X164412175Y-88107779D01*
X164307779Y-88212175D01*
X164185022Y-88294199D01*
X164048621Y-88350698D01*
X163924425Y-88375401D01*
X163903820Y-88379500D01*
X163756180Y-88379500D01*
X163735575Y-88375401D01*
X163611379Y-88350698D01*
X163474978Y-88294199D01*
X163352221Y-88212175D01*
X163247825Y-88107779D01*
X163165801Y-87985022D01*
X163109302Y-87848621D01*
X163080500Y-87703819D01*
X163080500Y-87556181D01*
X163109302Y-87411379D01*
X163165801Y-87274978D01*
X163247825Y-87152221D01*
X163352221Y-87047825D01*
X163474978Y-86965801D01*
X163611379Y-86909302D01*
X163735575Y-86884599D01*
X163756180Y-86880500D01*
X163903820Y-86880500D01*
X163924425Y-86884599D01*
X163924425Y-86884599D01*
G37*
G36*
X169004425Y-86884599D02*
G01*
X169128621Y-86909302D01*
X169265022Y-86965801D01*
X169387779Y-87047825D01*
X169492175Y-87152221D01*
X169574199Y-87274978D01*
X169630698Y-87411379D01*
X169659500Y-87556181D01*
X169659500Y-87703819D01*
X169630698Y-87848621D01*
X169574199Y-87985022D01*
X169492175Y-88107779D01*
X169387779Y-88212175D01*
X169265022Y-88294199D01*
X169128621Y-88350698D01*
X169004425Y-88375401D01*
X168983820Y-88379500D01*
X168836180Y-88379500D01*
X168815575Y-88375401D01*
X168691379Y-88350698D01*
X168554978Y-88294199D01*
X168432221Y-88212175D01*
X168327825Y-88107779D01*
X168245801Y-87985022D01*
X168189302Y-87848621D01*
X168160500Y-87703819D01*
X168160500Y-87556181D01*
X168189302Y-87411379D01*
X168245801Y-87274978D01*
X168327825Y-87152221D01*
X168432221Y-87047825D01*
X168554978Y-86965801D01*
X168691379Y-86909302D01*
X168815575Y-86884599D01*
X168836180Y-86880500D01*
X168983820Y-86880500D01*
X169004425Y-86884599D01*
X169004425Y-86884599D01*
G37*
G36*
X171544425Y-86884599D02*
G01*
X171668621Y-86909302D01*
X171805022Y-86965801D01*
X171927779Y-87047825D01*
X172032175Y-87152221D01*
X172114199Y-87274978D01*
X172170698Y-87411379D01*
X172199500Y-87556181D01*
X172199500Y-87703819D01*
X172170698Y-87848621D01*
X172114199Y-87985022D01*
X172032175Y-88107779D01*
X171927779Y-88212175D01*
X171805022Y-88294199D01*
X171668621Y-88350698D01*
X171544425Y-88375401D01*
X171523820Y-88379500D01*
X171376180Y-88379500D01*
X171355575Y-88375401D01*
X171231379Y-88350698D01*
X171094978Y-88294199D01*
X170972221Y-88212175D01*
X170867825Y-88107779D01*
X170785801Y-87985022D01*
X170729302Y-87848621D01*
X170700500Y-87703819D01*
X170700500Y-87556181D01*
X170729302Y-87411379D01*
X170785801Y-87274978D01*
X170867825Y-87152221D01*
X170972221Y-87047825D01*
X171094978Y-86965801D01*
X171231379Y-86909302D01*
X171355575Y-86884599D01*
X171376180Y-86880500D01*
X171523820Y-86880500D01*
X171544425Y-86884599D01*
X171544425Y-86884599D01*
G37*
G36*
X176624425Y-86884599D02*
G01*
X176748621Y-86909302D01*
X176885022Y-86965801D01*
X177007779Y-87047825D01*
X177112175Y-87152221D01*
X177194199Y-87274978D01*
X177250698Y-87411379D01*
X177279500Y-87556181D01*
X177279500Y-87703819D01*
X177250698Y-87848621D01*
X177194199Y-87985022D01*
X177112175Y-88107779D01*
X177007779Y-88212175D01*
X176885022Y-88294199D01*
X176748621Y-88350698D01*
X176624425Y-88375401D01*
X176603820Y-88379500D01*
X176456180Y-88379500D01*
X176435575Y-88375401D01*
X176311379Y-88350698D01*
X176174978Y-88294199D01*
X176052221Y-88212175D01*
X175947825Y-88107779D01*
X175865801Y-87985022D01*
X175809302Y-87848621D01*
X175780500Y-87703819D01*
X175780500Y-87556181D01*
X175809302Y-87411379D01*
X175865801Y-87274978D01*
X175947825Y-87152221D01*
X176052221Y-87047825D01*
X176174978Y-86965801D01*
X176311379Y-86909302D01*
X176435575Y-86884599D01*
X176456180Y-86880500D01*
X176603820Y-86880500D01*
X176624425Y-86884599D01*
X176624425Y-86884599D01*
G37*
G36*
X179164425Y-86884599D02*
G01*
X179288621Y-86909302D01*
X179425022Y-86965801D01*
X179547779Y-87047825D01*
X179652175Y-87152221D01*
X179734199Y-87274978D01*
X179790698Y-87411379D01*
X179819500Y-87556181D01*
X179819500Y-87703819D01*
X179790698Y-87848621D01*
X179734199Y-87985022D01*
X179652175Y-88107779D01*
X179547779Y-88212175D01*
X179425022Y-88294199D01*
X179288621Y-88350698D01*
X179164425Y-88375401D01*
X179143820Y-88379500D01*
X178996180Y-88379500D01*
X178975575Y-88375401D01*
X178851379Y-88350698D01*
X178714978Y-88294199D01*
X178592221Y-88212175D01*
X178487825Y-88107779D01*
X178405801Y-87985022D01*
X178349302Y-87848621D01*
X178320500Y-87703819D01*
X178320500Y-87556181D01*
X178349302Y-87411379D01*
X178405801Y-87274978D01*
X178487825Y-87152221D01*
X178592221Y-87047825D01*
X178714978Y-86965801D01*
X178851379Y-86909302D01*
X178975575Y-86884599D01*
X178996180Y-86880500D01*
X179143820Y-86880500D01*
X179164425Y-86884599D01*
X179164425Y-86884599D01*
G37*
G36*
X181704425Y-86884599D02*
G01*
X181828621Y-86909302D01*
X181965022Y-86965801D01*
X182087779Y-87047825D01*
X182192175Y-87152221D01*
X182274199Y-87274978D01*
X182330698Y-87411379D01*
X182359500Y-87556181D01*
X182359500Y-87703819D01*
X182330698Y-87848621D01*
X182274199Y-87985022D01*
X182192175Y-88107779D01*
X182087779Y-88212175D01*
X181965022Y-88294199D01*
X181828621Y-88350698D01*
X181704425Y-88375401D01*
X181683820Y-88379500D01*
X181536180Y-88379500D01*
X181515575Y-88375401D01*
X181391379Y-88350698D01*
X181254978Y-88294199D01*
X181132221Y-88212175D01*
X181027825Y-88107779D01*
X180945801Y-87985022D01*
X180889302Y-87848621D01*
X180860500Y-87703819D01*
X180860500Y-87556181D01*
X180889302Y-87411379D01*
X180945801Y-87274978D01*
X181027825Y-87152221D01*
X181132221Y-87047825D01*
X181254978Y-86965801D01*
X181391379Y-86909302D01*
X181515575Y-86884599D01*
X181536180Y-86880500D01*
X181683820Y-86880500D01*
X181704425Y-86884599D01*
X181704425Y-86884599D01*
G37*
G36*
X184244425Y-86884599D02*
G01*
X184368621Y-86909302D01*
X184505022Y-86965801D01*
X184627779Y-87047825D01*
X184732175Y-87152221D01*
X184814199Y-87274978D01*
X184870698Y-87411379D01*
X184899500Y-87556181D01*
X184899500Y-87703819D01*
X184870698Y-87848621D01*
X184814199Y-87985022D01*
X184732175Y-88107779D01*
X184627779Y-88212175D01*
X184505022Y-88294199D01*
X184368621Y-88350698D01*
X184244425Y-88375401D01*
X184223820Y-88379500D01*
X184076180Y-88379500D01*
X184055575Y-88375401D01*
X183931379Y-88350698D01*
X183794978Y-88294199D01*
X183672221Y-88212175D01*
X183567825Y-88107779D01*
X183485801Y-87985022D01*
X183429302Y-87848621D01*
X183400500Y-87703819D01*
X183400500Y-87556181D01*
X183429302Y-87411379D01*
X183485801Y-87274978D01*
X183567825Y-87152221D01*
X183672221Y-87047825D01*
X183794978Y-86965801D01*
X183931379Y-86909302D01*
X184055575Y-86884599D01*
X184076180Y-86880500D01*
X184223820Y-86880500D01*
X184244425Y-86884599D01*
X184244425Y-86884599D01*
G37*
G36*
X186784425Y-86884599D02*
G01*
X186908621Y-86909302D01*
X187045022Y-86965801D01*
X187167779Y-87047825D01*
X187272175Y-87152221D01*
X187354199Y-87274978D01*
X187410698Y-87411379D01*
X187439500Y-87556181D01*
X187439500Y-87703819D01*
X187410698Y-87848621D01*
X187354199Y-87985022D01*
X187272175Y-88107779D01*
X187167779Y-88212175D01*
X187045022Y-88294199D01*
X186908621Y-88350698D01*
X186784425Y-88375401D01*
X186763820Y-88379500D01*
X186616180Y-88379500D01*
X186595575Y-88375401D01*
X186471379Y-88350698D01*
X186334978Y-88294199D01*
X186212221Y-88212175D01*
X186107825Y-88107779D01*
X186025801Y-87985022D01*
X185969302Y-87848621D01*
X185940500Y-87703819D01*
X185940500Y-87556181D01*
X185969302Y-87411379D01*
X186025801Y-87274978D01*
X186107825Y-87152221D01*
X186212221Y-87047825D01*
X186334978Y-86965801D01*
X186471379Y-86909302D01*
X186595575Y-86884599D01*
X186616180Y-86880500D01*
X186763820Y-86880500D01*
X186784425Y-86884599D01*
X186784425Y-86884599D01*
G37*
G36*
X174084425Y-86884599D02*
G01*
X174208621Y-86909302D01*
X174345022Y-86965801D01*
X174467779Y-87047825D01*
X174572175Y-87152221D01*
X174654199Y-87274978D01*
X174710698Y-87411379D01*
X174739500Y-87556181D01*
X174739500Y-87703819D01*
X174710698Y-87848621D01*
X174654199Y-87985022D01*
X174572175Y-88107779D01*
X174467779Y-88212175D01*
X174345022Y-88294199D01*
X174208621Y-88350698D01*
X174084425Y-88375401D01*
X174063820Y-88379500D01*
X173916180Y-88379500D01*
X173895575Y-88375401D01*
X173771379Y-88350698D01*
X173634978Y-88294199D01*
X173512221Y-88212175D01*
X173407825Y-88107779D01*
X173325801Y-87985022D01*
X173269302Y-87848621D01*
X173240500Y-87703819D01*
X173240500Y-87556181D01*
X173269302Y-87411379D01*
X173325801Y-87274978D01*
X173407825Y-87152221D01*
X173512221Y-87047825D01*
X173634978Y-86965801D01*
X173771379Y-86909302D01*
X173895575Y-86884599D01*
X173916180Y-86880500D01*
X174063820Y-86880500D01*
X174084425Y-86884599D01*
X174084425Y-86884599D01*
G37*
G36*
X166464425Y-86884599D02*
G01*
X166588621Y-86909302D01*
X166725022Y-86965801D01*
X166847779Y-87047825D01*
X166952175Y-87152221D01*
X167034199Y-87274978D01*
X167090698Y-87411379D01*
X167119500Y-87556181D01*
X167119500Y-87703819D01*
X167090698Y-87848621D01*
X167034199Y-87985022D01*
X166952175Y-88107779D01*
X166847779Y-88212175D01*
X166725022Y-88294199D01*
X166588621Y-88350698D01*
X166464425Y-88375401D01*
X166443820Y-88379500D01*
X166296180Y-88379500D01*
X166275575Y-88375401D01*
X166151379Y-88350698D01*
X166014978Y-88294199D01*
X165892221Y-88212175D01*
X165787825Y-88107779D01*
X165705801Y-87985022D01*
X165649302Y-87848621D01*
X165620500Y-87703819D01*
X165620500Y-87556181D01*
X165649302Y-87411379D01*
X165705801Y-87274978D01*
X165787825Y-87152221D01*
X165892221Y-87047825D01*
X166014978Y-86965801D01*
X166151379Y-86909302D01*
X166275575Y-86884599D01*
X166296180Y-86880500D01*
X166443820Y-86880500D01*
X166464425Y-86884599D01*
X166464425Y-86884599D01*
G37*
G36*
X105504425Y-86884599D02*
G01*
X105628621Y-86909302D01*
X105765022Y-86965801D01*
X105887779Y-87047825D01*
X105992175Y-87152221D01*
X106074199Y-87274978D01*
X106130698Y-87411379D01*
X106159500Y-87556181D01*
X106159500Y-87703819D01*
X106130698Y-87848621D01*
X106074199Y-87985022D01*
X105992175Y-88107779D01*
X105887779Y-88212175D01*
X105765022Y-88294199D01*
X105628621Y-88350698D01*
X105504425Y-88375401D01*
X105483820Y-88379500D01*
X105336180Y-88379500D01*
X105315575Y-88375401D01*
X105191379Y-88350698D01*
X105054978Y-88294199D01*
X104932221Y-88212175D01*
X104827825Y-88107779D01*
X104745801Y-87985022D01*
X104689302Y-87848621D01*
X104660500Y-87703819D01*
X104660500Y-87556181D01*
X104689302Y-87411379D01*
X104745801Y-87274978D01*
X104827825Y-87152221D01*
X104932221Y-87047825D01*
X105054978Y-86965801D01*
X105191379Y-86909302D01*
X105315575Y-86884599D01*
X105336180Y-86880500D01*
X105483820Y-86880500D01*
X105504425Y-86884599D01*
X105504425Y-86884599D01*
G37*
G36*
X108044425Y-86884599D02*
G01*
X108168621Y-86909302D01*
X108305022Y-86965801D01*
X108427779Y-87047825D01*
X108532175Y-87152221D01*
X108614199Y-87274978D01*
X108670698Y-87411379D01*
X108699500Y-87556181D01*
X108699500Y-87703819D01*
X108670698Y-87848621D01*
X108614199Y-87985022D01*
X108532175Y-88107779D01*
X108427779Y-88212175D01*
X108305022Y-88294199D01*
X108168621Y-88350698D01*
X108044425Y-88375401D01*
X108023820Y-88379500D01*
X107876180Y-88379500D01*
X107855575Y-88375401D01*
X107731379Y-88350698D01*
X107594978Y-88294199D01*
X107472221Y-88212175D01*
X107367825Y-88107779D01*
X107285801Y-87985022D01*
X107229302Y-87848621D01*
X107200500Y-87703819D01*
X107200500Y-87556181D01*
X107229302Y-87411379D01*
X107285801Y-87274978D01*
X107367825Y-87152221D01*
X107472221Y-87047825D01*
X107594978Y-86965801D01*
X107731379Y-86909302D01*
X107855575Y-86884599D01*
X107876180Y-86880500D01*
X108023820Y-86880500D01*
X108044425Y-86884599D01*
X108044425Y-86884599D01*
G37*
G36*
X110584425Y-86884599D02*
G01*
X110708621Y-86909302D01*
X110845022Y-86965801D01*
X110967779Y-87047825D01*
X111072175Y-87152221D01*
X111154199Y-87274978D01*
X111210698Y-87411379D01*
X111239500Y-87556181D01*
X111239500Y-87703819D01*
X111210698Y-87848621D01*
X111154199Y-87985022D01*
X111072175Y-88107779D01*
X110967779Y-88212175D01*
X110845022Y-88294199D01*
X110708621Y-88350698D01*
X110584425Y-88375401D01*
X110563820Y-88379500D01*
X110416180Y-88379500D01*
X110395575Y-88375401D01*
X110271379Y-88350698D01*
X110134978Y-88294199D01*
X110012221Y-88212175D01*
X109907825Y-88107779D01*
X109825801Y-87985022D01*
X109769302Y-87848621D01*
X109740500Y-87703819D01*
X109740500Y-87556181D01*
X109769302Y-87411379D01*
X109825801Y-87274978D01*
X109907825Y-87152221D01*
X110012221Y-87047825D01*
X110134978Y-86965801D01*
X110271379Y-86909302D01*
X110395575Y-86884599D01*
X110416180Y-86880500D01*
X110563820Y-86880500D01*
X110584425Y-86884599D01*
X110584425Y-86884599D01*
G37*
G36*
X113124425Y-86884599D02*
G01*
X113248621Y-86909302D01*
X113385022Y-86965801D01*
X113507779Y-87047825D01*
X113612175Y-87152221D01*
X113694199Y-87274978D01*
X113750698Y-87411379D01*
X113779500Y-87556181D01*
X113779500Y-87703819D01*
X113750698Y-87848621D01*
X113694199Y-87985022D01*
X113612175Y-88107779D01*
X113507779Y-88212175D01*
X113385022Y-88294199D01*
X113248621Y-88350698D01*
X113124425Y-88375401D01*
X113103820Y-88379500D01*
X112956180Y-88379500D01*
X112935575Y-88375401D01*
X112811379Y-88350698D01*
X112674978Y-88294199D01*
X112552221Y-88212175D01*
X112447825Y-88107779D01*
X112365801Y-87985022D01*
X112309302Y-87848621D01*
X112280500Y-87703819D01*
X112280500Y-87556181D01*
X112309302Y-87411379D01*
X112365801Y-87274978D01*
X112447825Y-87152221D01*
X112552221Y-87047825D01*
X112674978Y-86965801D01*
X112811379Y-86909302D01*
X112935575Y-86884599D01*
X112956180Y-86880500D01*
X113103820Y-86880500D01*
X113124425Y-86884599D01*
X113124425Y-86884599D01*
G37*
G36*
X115664425Y-86884599D02*
G01*
X115788621Y-86909302D01*
X115925022Y-86965801D01*
X116047779Y-87047825D01*
X116152175Y-87152221D01*
X116234199Y-87274978D01*
X116290698Y-87411379D01*
X116319500Y-87556181D01*
X116319500Y-87703819D01*
X116290698Y-87848621D01*
X116234199Y-87985022D01*
X116152175Y-88107779D01*
X116047779Y-88212175D01*
X115925022Y-88294199D01*
X115788621Y-88350698D01*
X115664425Y-88375401D01*
X115643820Y-88379500D01*
X115496180Y-88379500D01*
X115475575Y-88375401D01*
X115351379Y-88350698D01*
X115214978Y-88294199D01*
X115092221Y-88212175D01*
X114987825Y-88107779D01*
X114905801Y-87985022D01*
X114849302Y-87848621D01*
X114820500Y-87703819D01*
X114820500Y-87556181D01*
X114849302Y-87411379D01*
X114905801Y-87274978D01*
X114987825Y-87152221D01*
X115092221Y-87047825D01*
X115214978Y-86965801D01*
X115351379Y-86909302D01*
X115475575Y-86884599D01*
X115496180Y-86880500D01*
X115643820Y-86880500D01*
X115664425Y-86884599D01*
X115664425Y-86884599D01*
G37*
G36*
X118204425Y-86884599D02*
G01*
X118328621Y-86909302D01*
X118465022Y-86965801D01*
X118587779Y-87047825D01*
X118692175Y-87152221D01*
X118774199Y-87274978D01*
X118830698Y-87411379D01*
X118859500Y-87556181D01*
X118859500Y-87703819D01*
X118830698Y-87848621D01*
X118774199Y-87985022D01*
X118692175Y-88107779D01*
X118587779Y-88212175D01*
X118465022Y-88294199D01*
X118328621Y-88350698D01*
X118204425Y-88375401D01*
X118183820Y-88379500D01*
X118036180Y-88379500D01*
X118015575Y-88375401D01*
X117891379Y-88350698D01*
X117754978Y-88294199D01*
X117632221Y-88212175D01*
X117527825Y-88107779D01*
X117445801Y-87985022D01*
X117389302Y-87848621D01*
X117360500Y-87703819D01*
X117360500Y-87556181D01*
X117389302Y-87411379D01*
X117445801Y-87274978D01*
X117527825Y-87152221D01*
X117632221Y-87047825D01*
X117754978Y-86965801D01*
X117891379Y-86909302D01*
X118015575Y-86884599D01*
X118036180Y-86880500D01*
X118183820Y-86880500D01*
X118204425Y-86884599D01*
X118204425Y-86884599D01*
G37*
G36*
X120744425Y-86884599D02*
G01*
X120868621Y-86909302D01*
X121005022Y-86965801D01*
X121127779Y-87047825D01*
X121232175Y-87152221D01*
X121314199Y-87274978D01*
X121370698Y-87411379D01*
X121399500Y-87556181D01*
X121399500Y-87703819D01*
X121370698Y-87848621D01*
X121314199Y-87985022D01*
X121232175Y-88107779D01*
X121127779Y-88212175D01*
X121005022Y-88294199D01*
X120868621Y-88350698D01*
X120744425Y-88375401D01*
X120723820Y-88379500D01*
X120576180Y-88379500D01*
X120555575Y-88375401D01*
X120431379Y-88350698D01*
X120294978Y-88294199D01*
X120172221Y-88212175D01*
X120067825Y-88107779D01*
X119985801Y-87985022D01*
X119929302Y-87848621D01*
X119900500Y-87703819D01*
X119900500Y-87556181D01*
X119929302Y-87411379D01*
X119985801Y-87274978D01*
X120067825Y-87152221D01*
X120172221Y-87047825D01*
X120294978Y-86965801D01*
X120431379Y-86909302D01*
X120555575Y-86884599D01*
X120576180Y-86880500D01*
X120723820Y-86880500D01*
X120744425Y-86884599D01*
X120744425Y-86884599D01*
G37*
G36*
X123284425Y-86884599D02*
G01*
X123408621Y-86909302D01*
X123545022Y-86965801D01*
X123667779Y-87047825D01*
X123772175Y-87152221D01*
X123854199Y-87274978D01*
X123910698Y-87411379D01*
X123939500Y-87556181D01*
X123939500Y-87703819D01*
X123910698Y-87848621D01*
X123854199Y-87985022D01*
X123772175Y-88107779D01*
X123667779Y-88212175D01*
X123545022Y-88294199D01*
X123408621Y-88350698D01*
X123284425Y-88375401D01*
X123263820Y-88379500D01*
X123116180Y-88379500D01*
X123095575Y-88375401D01*
X122971379Y-88350698D01*
X122834978Y-88294199D01*
X122712221Y-88212175D01*
X122607825Y-88107779D01*
X122525801Y-87985022D01*
X122469302Y-87848621D01*
X122440500Y-87703819D01*
X122440500Y-87556181D01*
X122469302Y-87411379D01*
X122525801Y-87274978D01*
X122607825Y-87152221D01*
X122712221Y-87047825D01*
X122834978Y-86965801D01*
X122971379Y-86909302D01*
X123095575Y-86884599D01*
X123116180Y-86880500D01*
X123263820Y-86880500D01*
X123284425Y-86884599D01*
X123284425Y-86884599D01*
G37*
G36*
X125824425Y-86884599D02*
G01*
X125948621Y-86909302D01*
X126085022Y-86965801D01*
X126207779Y-87047825D01*
X126312175Y-87152221D01*
X126394199Y-87274978D01*
X126450698Y-87411379D01*
X126479500Y-87556181D01*
X126479500Y-87703819D01*
X126450698Y-87848621D01*
X126394199Y-87985022D01*
X126312175Y-88107779D01*
X126207779Y-88212175D01*
X126085022Y-88294199D01*
X125948621Y-88350698D01*
X125824425Y-88375401D01*
X125803820Y-88379500D01*
X125656180Y-88379500D01*
X125635575Y-88375401D01*
X125511379Y-88350698D01*
X125374978Y-88294199D01*
X125252221Y-88212175D01*
X125147825Y-88107779D01*
X125065801Y-87985022D01*
X125009302Y-87848621D01*
X124980500Y-87703819D01*
X124980500Y-87556181D01*
X125009302Y-87411379D01*
X125065801Y-87274978D01*
X125147825Y-87152221D01*
X125252221Y-87047825D01*
X125374978Y-86965801D01*
X125511379Y-86909302D01*
X125635575Y-86884599D01*
X125656180Y-86880500D01*
X125803820Y-86880500D01*
X125824425Y-86884599D01*
X125824425Y-86884599D01*
G37*
G36*
X122030442Y-80385518D02*
G01*
X122096627Y-80392037D01*
X122266466Y-80443557D01*
X122422991Y-80527222D01*
X122458729Y-80556552D01*
X122560186Y-80639814D01*
X122643448Y-80741271D01*
X122672778Y-80777009D01*
X122756443Y-80933534D01*
X122807963Y-81103373D01*
X122825359Y-81280000D01*
X122807963Y-81456627D01*
X122756443Y-81626466D01*
X122672778Y-81782991D01*
X122643448Y-81818729D01*
X122560186Y-81920186D01*
X122458729Y-82003448D01*
X122422991Y-82032778D01*
X122266466Y-82116443D01*
X122096627Y-82167963D01*
X122030443Y-82174481D01*
X121964260Y-82181000D01*
X121875740Y-82181000D01*
X121809557Y-82174481D01*
X121743373Y-82167963D01*
X121573534Y-82116443D01*
X121417009Y-82032778D01*
X121381271Y-82003448D01*
X121279814Y-81920186D01*
X121196552Y-81818729D01*
X121167222Y-81782991D01*
X121083557Y-81626466D01*
X121032037Y-81456627D01*
X121014641Y-81280000D01*
X121032037Y-81103373D01*
X121083557Y-80933534D01*
X121167222Y-80777009D01*
X121196552Y-80741271D01*
X121279814Y-80639814D01*
X121381271Y-80556552D01*
X121417009Y-80527222D01*
X121573534Y-80443557D01*
X121743373Y-80392037D01*
X121809558Y-80385518D01*
X121875740Y-80379000D01*
X121964260Y-80379000D01*
X122030442Y-80385518D01*
X122030442Y-80385518D01*
G37*
G36*
X119490442Y-80385518D02*
G01*
X119556627Y-80392037D01*
X119726466Y-80443557D01*
X119882991Y-80527222D01*
X119918729Y-80556552D01*
X120020186Y-80639814D01*
X120103448Y-80741271D01*
X120132778Y-80777009D01*
X120216443Y-80933534D01*
X120267963Y-81103373D01*
X120285359Y-81280000D01*
X120267963Y-81456627D01*
X120216443Y-81626466D01*
X120132778Y-81782991D01*
X120103448Y-81818729D01*
X120020186Y-81920186D01*
X119918729Y-82003448D01*
X119882991Y-82032778D01*
X119726466Y-82116443D01*
X119556627Y-82167963D01*
X119490443Y-82174481D01*
X119424260Y-82181000D01*
X119335740Y-82181000D01*
X119269557Y-82174481D01*
X119203373Y-82167963D01*
X119033534Y-82116443D01*
X118877009Y-82032778D01*
X118841271Y-82003448D01*
X118739814Y-81920186D01*
X118656552Y-81818729D01*
X118627222Y-81782991D01*
X118543557Y-81626466D01*
X118492037Y-81456627D01*
X118474641Y-81280000D01*
X118492037Y-81103373D01*
X118543557Y-80933534D01*
X118627222Y-80777009D01*
X118656552Y-80741271D01*
X118739814Y-80639814D01*
X118841271Y-80556552D01*
X118877009Y-80527222D01*
X119033534Y-80443557D01*
X119203373Y-80392037D01*
X119269558Y-80385518D01*
X119335740Y-80379000D01*
X119424260Y-80379000D01*
X119490442Y-80385518D01*
X119490442Y-80385518D01*
G37*
G36*
X116950442Y-80385518D02*
G01*
X117016627Y-80392037D01*
X117186466Y-80443557D01*
X117342991Y-80527222D01*
X117378729Y-80556552D01*
X117480186Y-80639814D01*
X117563448Y-80741271D01*
X117592778Y-80777009D01*
X117676443Y-80933534D01*
X117727963Y-81103373D01*
X117745359Y-81280000D01*
X117727963Y-81456627D01*
X117676443Y-81626466D01*
X117592778Y-81782991D01*
X117563448Y-81818729D01*
X117480186Y-81920186D01*
X117378729Y-82003448D01*
X117342991Y-82032778D01*
X117186466Y-82116443D01*
X117016627Y-82167963D01*
X116950443Y-82174481D01*
X116884260Y-82181000D01*
X116795740Y-82181000D01*
X116729557Y-82174481D01*
X116663373Y-82167963D01*
X116493534Y-82116443D01*
X116337009Y-82032778D01*
X116301271Y-82003448D01*
X116199814Y-81920186D01*
X116116552Y-81818729D01*
X116087222Y-81782991D01*
X116003557Y-81626466D01*
X115952037Y-81456627D01*
X115934641Y-81280000D01*
X115952037Y-81103373D01*
X116003557Y-80933534D01*
X116087222Y-80777009D01*
X116116552Y-80741271D01*
X116199814Y-80639814D01*
X116301271Y-80556552D01*
X116337009Y-80527222D01*
X116493534Y-80443557D01*
X116663373Y-80392037D01*
X116729558Y-80385518D01*
X116795740Y-80379000D01*
X116884260Y-80379000D01*
X116950442Y-80385518D01*
X116950442Y-80385518D01*
G37*
G36*
X114410442Y-80385518D02*
G01*
X114476627Y-80392037D01*
X114646466Y-80443557D01*
X114802991Y-80527222D01*
X114838729Y-80556552D01*
X114940186Y-80639814D01*
X115023448Y-80741271D01*
X115052778Y-80777009D01*
X115136443Y-80933534D01*
X115187963Y-81103373D01*
X115205359Y-81280000D01*
X115187963Y-81456627D01*
X115136443Y-81626466D01*
X115052778Y-81782991D01*
X115023448Y-81818729D01*
X114940186Y-81920186D01*
X114838729Y-82003448D01*
X114802991Y-82032778D01*
X114646466Y-82116443D01*
X114476627Y-82167963D01*
X114410443Y-82174481D01*
X114344260Y-82181000D01*
X114255740Y-82181000D01*
X114189557Y-82174481D01*
X114123373Y-82167963D01*
X113953534Y-82116443D01*
X113797009Y-82032778D01*
X113761271Y-82003448D01*
X113659814Y-81920186D01*
X113576552Y-81818729D01*
X113547222Y-81782991D01*
X113463557Y-81626466D01*
X113412037Y-81456627D01*
X113394641Y-81280000D01*
X113412037Y-81103373D01*
X113463557Y-80933534D01*
X113547222Y-80777009D01*
X113576552Y-80741271D01*
X113659814Y-80639814D01*
X113761271Y-80556552D01*
X113797009Y-80527222D01*
X113953534Y-80443557D01*
X114123373Y-80392037D01*
X114189558Y-80385518D01*
X114255740Y-80379000D01*
X114344260Y-80379000D01*
X114410442Y-80385518D01*
X114410442Y-80385518D01*
G37*
G36*
X111870442Y-80385518D02*
G01*
X111936627Y-80392037D01*
X112106466Y-80443557D01*
X112262991Y-80527222D01*
X112298729Y-80556552D01*
X112400186Y-80639814D01*
X112483448Y-80741271D01*
X112512778Y-80777009D01*
X112596443Y-80933534D01*
X112647963Y-81103373D01*
X112665359Y-81280000D01*
X112647963Y-81456627D01*
X112596443Y-81626466D01*
X112512778Y-81782991D01*
X112483448Y-81818729D01*
X112400186Y-81920186D01*
X112298729Y-82003448D01*
X112262991Y-82032778D01*
X112106466Y-82116443D01*
X111936627Y-82167963D01*
X111870443Y-82174481D01*
X111804260Y-82181000D01*
X111715740Y-82181000D01*
X111649557Y-82174481D01*
X111583373Y-82167963D01*
X111413534Y-82116443D01*
X111257009Y-82032778D01*
X111221271Y-82003448D01*
X111119814Y-81920186D01*
X111036552Y-81818729D01*
X111007222Y-81782991D01*
X110923557Y-81626466D01*
X110872037Y-81456627D01*
X110854641Y-81280000D01*
X110872037Y-81103373D01*
X110923557Y-80933534D01*
X111007222Y-80777009D01*
X111036552Y-80741271D01*
X111119814Y-80639814D01*
X111221271Y-80556552D01*
X111257009Y-80527222D01*
X111413534Y-80443557D01*
X111583373Y-80392037D01*
X111649558Y-80385518D01*
X111715740Y-80379000D01*
X111804260Y-80379000D01*
X111870442Y-80385518D01*
X111870442Y-80385518D01*
G37*
G36*
X109330442Y-80385518D02*
G01*
X109396627Y-80392037D01*
X109566466Y-80443557D01*
X109722991Y-80527222D01*
X109758729Y-80556552D01*
X109860186Y-80639814D01*
X109943448Y-80741271D01*
X109972778Y-80777009D01*
X110056443Y-80933534D01*
X110107963Y-81103373D01*
X110125359Y-81280000D01*
X110107963Y-81456627D01*
X110056443Y-81626466D01*
X109972778Y-81782991D01*
X109943448Y-81818729D01*
X109860186Y-81920186D01*
X109758729Y-82003448D01*
X109722991Y-82032778D01*
X109566466Y-82116443D01*
X109396627Y-82167963D01*
X109330443Y-82174481D01*
X109264260Y-82181000D01*
X109175740Y-82181000D01*
X109109557Y-82174481D01*
X109043373Y-82167963D01*
X108873534Y-82116443D01*
X108717009Y-82032778D01*
X108681271Y-82003448D01*
X108579814Y-81920186D01*
X108496552Y-81818729D01*
X108467222Y-81782991D01*
X108383557Y-81626466D01*
X108332037Y-81456627D01*
X108314641Y-81280000D01*
X108332037Y-81103373D01*
X108383557Y-80933534D01*
X108467222Y-80777009D01*
X108496552Y-80741271D01*
X108579814Y-80639814D01*
X108681271Y-80556552D01*
X108717009Y-80527222D01*
X108873534Y-80443557D01*
X109043373Y-80392037D01*
X109109558Y-80385518D01*
X109175740Y-80379000D01*
X109264260Y-80379000D01*
X109330442Y-80385518D01*
X109330442Y-80385518D01*
G37*
G36*
X109330443Y-77845519D02*
G01*
X109396627Y-77852037D01*
X109566466Y-77903557D01*
X109722991Y-77987222D01*
X109758729Y-78016552D01*
X109860186Y-78099814D01*
X109943448Y-78201271D01*
X109972778Y-78237009D01*
X110056443Y-78393534D01*
X110107963Y-78563373D01*
X110125359Y-78740000D01*
X110107963Y-78916627D01*
X110056443Y-79086466D01*
X109972778Y-79242991D01*
X109943448Y-79278729D01*
X109860186Y-79380186D01*
X109758729Y-79463448D01*
X109722991Y-79492778D01*
X109566466Y-79576443D01*
X109396627Y-79627963D01*
X109330442Y-79634482D01*
X109264260Y-79641000D01*
X109175740Y-79641000D01*
X109109558Y-79634482D01*
X109043373Y-79627963D01*
X108873534Y-79576443D01*
X108717009Y-79492778D01*
X108681271Y-79463448D01*
X108579814Y-79380186D01*
X108496552Y-79278729D01*
X108467222Y-79242991D01*
X108383557Y-79086466D01*
X108332037Y-78916627D01*
X108314641Y-78740000D01*
X108332037Y-78563373D01*
X108383557Y-78393534D01*
X108467222Y-78237009D01*
X108496552Y-78201271D01*
X108579814Y-78099814D01*
X108681271Y-78016552D01*
X108717009Y-77987222D01*
X108873534Y-77903557D01*
X109043373Y-77852037D01*
X109109557Y-77845519D01*
X109175740Y-77839000D01*
X109264260Y-77839000D01*
X109330443Y-77845519D01*
X109330443Y-77845519D01*
G37*
G36*
X122821000Y-79641000D02*
G01*
X121019000Y-79641000D01*
X121019000Y-77839000D01*
X122821000Y-77839000D01*
X122821000Y-79641000D01*
X122821000Y-79641000D01*
G37*
G36*
X119490443Y-77845519D02*
G01*
X119556627Y-77852037D01*
X119726466Y-77903557D01*
X119882991Y-77987222D01*
X119918729Y-78016552D01*
X120020186Y-78099814D01*
X120103448Y-78201271D01*
X120132778Y-78237009D01*
X120216443Y-78393534D01*
X120267963Y-78563373D01*
X120285359Y-78740000D01*
X120267963Y-78916627D01*
X120216443Y-79086466D01*
X120132778Y-79242991D01*
X120103448Y-79278729D01*
X120020186Y-79380186D01*
X119918729Y-79463448D01*
X119882991Y-79492778D01*
X119726466Y-79576443D01*
X119556627Y-79627963D01*
X119490442Y-79634482D01*
X119424260Y-79641000D01*
X119335740Y-79641000D01*
X119269558Y-79634482D01*
X119203373Y-79627963D01*
X119033534Y-79576443D01*
X118877009Y-79492778D01*
X118841271Y-79463448D01*
X118739814Y-79380186D01*
X118656552Y-79278729D01*
X118627222Y-79242991D01*
X118543557Y-79086466D01*
X118492037Y-78916627D01*
X118474641Y-78740000D01*
X118492037Y-78563373D01*
X118543557Y-78393534D01*
X118627222Y-78237009D01*
X118656552Y-78201271D01*
X118739814Y-78099814D01*
X118841271Y-78016552D01*
X118877009Y-77987222D01*
X119033534Y-77903557D01*
X119203373Y-77852037D01*
X119269557Y-77845519D01*
X119335740Y-77839000D01*
X119424260Y-77839000D01*
X119490443Y-77845519D01*
X119490443Y-77845519D01*
G37*
G36*
X114410443Y-77845519D02*
G01*
X114476627Y-77852037D01*
X114646466Y-77903557D01*
X114802991Y-77987222D01*
X114838729Y-78016552D01*
X114940186Y-78099814D01*
X115023448Y-78201271D01*
X115052778Y-78237009D01*
X115136443Y-78393534D01*
X115187963Y-78563373D01*
X115205359Y-78740000D01*
X115187963Y-78916627D01*
X115136443Y-79086466D01*
X115052778Y-79242991D01*
X115023448Y-79278729D01*
X114940186Y-79380186D01*
X114838729Y-79463448D01*
X114802991Y-79492778D01*
X114646466Y-79576443D01*
X114476627Y-79627963D01*
X114410442Y-79634482D01*
X114344260Y-79641000D01*
X114255740Y-79641000D01*
X114189558Y-79634482D01*
X114123373Y-79627963D01*
X113953534Y-79576443D01*
X113797009Y-79492778D01*
X113761271Y-79463448D01*
X113659814Y-79380186D01*
X113576552Y-79278729D01*
X113547222Y-79242991D01*
X113463557Y-79086466D01*
X113412037Y-78916627D01*
X113394641Y-78740000D01*
X113412037Y-78563373D01*
X113463557Y-78393534D01*
X113547222Y-78237009D01*
X113576552Y-78201271D01*
X113659814Y-78099814D01*
X113761271Y-78016552D01*
X113797009Y-77987222D01*
X113953534Y-77903557D01*
X114123373Y-77852037D01*
X114189557Y-77845519D01*
X114255740Y-77839000D01*
X114344260Y-77839000D01*
X114410443Y-77845519D01*
X114410443Y-77845519D01*
G37*
G36*
X111870443Y-77845519D02*
G01*
X111936627Y-77852037D01*
X112106466Y-77903557D01*
X112262991Y-77987222D01*
X112298729Y-78016552D01*
X112400186Y-78099814D01*
X112483448Y-78201271D01*
X112512778Y-78237009D01*
X112596443Y-78393534D01*
X112647963Y-78563373D01*
X112665359Y-78740000D01*
X112647963Y-78916627D01*
X112596443Y-79086466D01*
X112512778Y-79242991D01*
X112483448Y-79278729D01*
X112400186Y-79380186D01*
X112298729Y-79463448D01*
X112262991Y-79492778D01*
X112106466Y-79576443D01*
X111936627Y-79627963D01*
X111870442Y-79634482D01*
X111804260Y-79641000D01*
X111715740Y-79641000D01*
X111649558Y-79634482D01*
X111583373Y-79627963D01*
X111413534Y-79576443D01*
X111257009Y-79492778D01*
X111221271Y-79463448D01*
X111119814Y-79380186D01*
X111036552Y-79278729D01*
X111007222Y-79242991D01*
X110923557Y-79086466D01*
X110872037Y-78916627D01*
X110854641Y-78740000D01*
X110872037Y-78563373D01*
X110923557Y-78393534D01*
X111007222Y-78237009D01*
X111036552Y-78201271D01*
X111119814Y-78099814D01*
X111221271Y-78016552D01*
X111257009Y-77987222D01*
X111413534Y-77903557D01*
X111583373Y-77852037D01*
X111649557Y-77845519D01*
X111715740Y-77839000D01*
X111804260Y-77839000D01*
X111870443Y-77845519D01*
X111870443Y-77845519D01*
G37*
G36*
X116950443Y-77845519D02*
G01*
X117016627Y-77852037D01*
X117186466Y-77903557D01*
X117342991Y-77987222D01*
X117378729Y-78016552D01*
X117480186Y-78099814D01*
X117563448Y-78201271D01*
X117592778Y-78237009D01*
X117676443Y-78393534D01*
X117727963Y-78563373D01*
X117745359Y-78740000D01*
X117727963Y-78916627D01*
X117676443Y-79086466D01*
X117592778Y-79242991D01*
X117563448Y-79278729D01*
X117480186Y-79380186D01*
X117378729Y-79463448D01*
X117342991Y-79492778D01*
X117186466Y-79576443D01*
X117016627Y-79627963D01*
X116950442Y-79634482D01*
X116884260Y-79641000D01*
X116795740Y-79641000D01*
X116729558Y-79634482D01*
X116663373Y-79627963D01*
X116493534Y-79576443D01*
X116337009Y-79492778D01*
X116301271Y-79463448D01*
X116199814Y-79380186D01*
X116116552Y-79278729D01*
X116087222Y-79242991D01*
X116003557Y-79086466D01*
X115952037Y-78916627D01*
X115934641Y-78740000D01*
X115952037Y-78563373D01*
X116003557Y-78393534D01*
X116087222Y-78237009D01*
X116116552Y-78201271D01*
X116199814Y-78099814D01*
X116301271Y-78016552D01*
X116337009Y-77987222D01*
X116493534Y-77903557D01*
X116663373Y-77852037D01*
X116729557Y-77845519D01*
X116795740Y-77839000D01*
X116884260Y-77839000D01*
X116950443Y-77845519D01*
X116950443Y-77845519D01*
G37*
G36*
X141721948Y-74498762D02*
G01*
X141869907Y-74560049D01*
X142003061Y-74649019D01*
X142116307Y-74762265D01*
X142205277Y-74895419D01*
X142266564Y-75043378D01*
X142297806Y-75200445D01*
X142297806Y-75360595D01*
X142266564Y-75517662D01*
X142205277Y-75665621D01*
X142116307Y-75798775D01*
X142003061Y-75912021D01*
X141869907Y-76000991D01*
X141721948Y-76062278D01*
X141564881Y-76093520D01*
X141404731Y-76093520D01*
X141247664Y-76062278D01*
X141099705Y-76000991D01*
X140966551Y-75912021D01*
X140853305Y-75798775D01*
X140764335Y-75665621D01*
X140703048Y-75517662D01*
X140671806Y-75360595D01*
X140671806Y-75200445D01*
X140703048Y-75043378D01*
X140764335Y-74895419D01*
X140853305Y-74762265D01*
X140966551Y-74649019D01*
X141099705Y-74560049D01*
X141247664Y-74498762D01*
X141404731Y-74467520D01*
X141564881Y-74467520D01*
X141721948Y-74498762D01*
X141721948Y-74498762D01*
G37*
G36*
X122086823Y-72821313D02*
G01*
X122247242Y-72869976D01*
X122377366Y-72939529D01*
X122395078Y-72948996D01*
X122524659Y-73055341D01*
X122631004Y-73184922D01*
X122631005Y-73184924D01*
X122710024Y-73332758D01*
X122758687Y-73493177D01*
X122775117Y-73660000D01*
X122758687Y-73826823D01*
X122710024Y-73987242D01*
X122639114Y-74119906D01*
X122631004Y-74135078D01*
X122524659Y-74264659D01*
X122395078Y-74371004D01*
X122395076Y-74371005D01*
X122247242Y-74450024D01*
X122086823Y-74498687D01*
X121961804Y-74511000D01*
X121878196Y-74511000D01*
X121753177Y-74498687D01*
X121592758Y-74450024D01*
X121444924Y-74371005D01*
X121444922Y-74371004D01*
X121315341Y-74264659D01*
X121208996Y-74135078D01*
X121200886Y-74119906D01*
X121129976Y-73987242D01*
X121081313Y-73826823D01*
X121064883Y-73660000D01*
X121081313Y-73493177D01*
X121129976Y-73332758D01*
X121208995Y-73184924D01*
X121208996Y-73184922D01*
X121315341Y-73055341D01*
X121444922Y-72948996D01*
X121462634Y-72939529D01*
X121592758Y-72869976D01*
X121753177Y-72821313D01*
X121878196Y-72809000D01*
X121961804Y-72809000D01*
X122086823Y-72821313D01*
X122086823Y-72821313D01*
G37*
G36*
X130391000Y-74511000D02*
G01*
X128689000Y-74511000D01*
X128689000Y-72809000D01*
X130391000Y-72809000D01*
X130391000Y-74511000D01*
X130391000Y-74511000D01*
G37*
G36*
X114537142Y-72878242D02*
G01*
X114685101Y-72939529D01*
X114818255Y-73028499D01*
X114931501Y-73141745D01*
X115020471Y-73274899D01*
X115081758Y-73422858D01*
X115113000Y-73579925D01*
X115113000Y-73740075D01*
X115081758Y-73897142D01*
X115020471Y-74045101D01*
X114931501Y-74178255D01*
X114818255Y-74291501D01*
X114685101Y-74380471D01*
X114537142Y-74441758D01*
X114380075Y-74473000D01*
X114219925Y-74473000D01*
X114062858Y-74441758D01*
X113914899Y-74380471D01*
X113781745Y-74291501D01*
X113668499Y-74178255D01*
X113579529Y-74045101D01*
X113518242Y-73897142D01*
X113487000Y-73740075D01*
X113487000Y-73579925D01*
X113518242Y-73422858D01*
X113579529Y-73274899D01*
X113668499Y-73141745D01*
X113781745Y-73028499D01*
X113914899Y-72939529D01*
X114062858Y-72878242D01*
X114219925Y-72847000D01*
X114380075Y-72847000D01*
X114537142Y-72878242D01*
X114537142Y-72878242D01*
G37*
G36*
X117077142Y-72878242D02*
G01*
X117225101Y-72939529D01*
X117358255Y-73028499D01*
X117471501Y-73141745D01*
X117560471Y-73274899D01*
X117621758Y-73422858D01*
X117653000Y-73579925D01*
X117653000Y-73740075D01*
X117621758Y-73897142D01*
X117560471Y-74045101D01*
X117471501Y-74178255D01*
X117358255Y-74291501D01*
X117225101Y-74380471D01*
X117077142Y-74441758D01*
X116920075Y-74473000D01*
X116759925Y-74473000D01*
X116602858Y-74441758D01*
X116454899Y-74380471D01*
X116321745Y-74291501D01*
X116208499Y-74178255D01*
X116119529Y-74045101D01*
X116058242Y-73897142D01*
X116027000Y-73740075D01*
X116027000Y-73579925D01*
X116058242Y-73422858D01*
X116119529Y-73274899D01*
X116208499Y-73141745D01*
X116321745Y-73028499D01*
X116454899Y-72939529D01*
X116602858Y-72878242D01*
X116759925Y-72847000D01*
X116920075Y-72847000D01*
X117077142Y-72878242D01*
X117077142Y-72878242D01*
G37*
G36*
X184244425Y-71644599D02*
G01*
X184368621Y-71669302D01*
X184505022Y-71725801D01*
X184627779Y-71807825D01*
X184732175Y-71912221D01*
X184814199Y-72034978D01*
X184870698Y-72171379D01*
X184899500Y-72316181D01*
X184899500Y-72463819D01*
X184870698Y-72608621D01*
X184814199Y-72745022D01*
X184732175Y-72867779D01*
X184627779Y-72972175D01*
X184505022Y-73054199D01*
X184368621Y-73110698D01*
X184244425Y-73135401D01*
X184223820Y-73139500D01*
X184076180Y-73139500D01*
X184055575Y-73135401D01*
X183931379Y-73110698D01*
X183794978Y-73054199D01*
X183672221Y-72972175D01*
X183567825Y-72867779D01*
X183485801Y-72745022D01*
X183429302Y-72608621D01*
X183400500Y-72463819D01*
X183400500Y-72316181D01*
X183429302Y-72171379D01*
X183485801Y-72034978D01*
X183567825Y-71912221D01*
X183672221Y-71807825D01*
X183794978Y-71725801D01*
X183931379Y-71669302D01*
X184055575Y-71644599D01*
X184076180Y-71640500D01*
X184223820Y-71640500D01*
X184244425Y-71644599D01*
X184244425Y-71644599D01*
G37*
G36*
X186784425Y-71644599D02*
G01*
X186908621Y-71669302D01*
X187045022Y-71725801D01*
X187167779Y-71807825D01*
X187272175Y-71912221D01*
X187354199Y-72034978D01*
X187410698Y-72171379D01*
X187439500Y-72316181D01*
X187439500Y-72463819D01*
X187410698Y-72608621D01*
X187354199Y-72745022D01*
X187272175Y-72867779D01*
X187167779Y-72972175D01*
X187045022Y-73054199D01*
X186908621Y-73110698D01*
X186784425Y-73135401D01*
X186763820Y-73139500D01*
X186616180Y-73139500D01*
X186595575Y-73135401D01*
X186471379Y-73110698D01*
X186334978Y-73054199D01*
X186212221Y-72972175D01*
X186107825Y-72867779D01*
X186025801Y-72745022D01*
X185969302Y-72608621D01*
X185940500Y-72463819D01*
X185940500Y-72316181D01*
X185969302Y-72171379D01*
X186025801Y-72034978D01*
X186107825Y-71912221D01*
X186212221Y-71807825D01*
X186334978Y-71725801D01*
X186471379Y-71669302D01*
X186595575Y-71644599D01*
X186616180Y-71640500D01*
X186763820Y-71640500D01*
X186784425Y-71644599D01*
X186784425Y-71644599D01*
G37*
G36*
X179164425Y-71644599D02*
G01*
X179288621Y-71669302D01*
X179425022Y-71725801D01*
X179547779Y-71807825D01*
X179652175Y-71912221D01*
X179734199Y-72034978D01*
X179790698Y-72171379D01*
X179819500Y-72316181D01*
X179819500Y-72463819D01*
X179790698Y-72608621D01*
X179734199Y-72745022D01*
X179652175Y-72867779D01*
X179547779Y-72972175D01*
X179425022Y-73054199D01*
X179288621Y-73110698D01*
X179164425Y-73135401D01*
X179143820Y-73139500D01*
X178996180Y-73139500D01*
X178975575Y-73135401D01*
X178851379Y-73110698D01*
X178714978Y-73054199D01*
X178592221Y-72972175D01*
X178487825Y-72867779D01*
X178405801Y-72745022D01*
X178349302Y-72608621D01*
X178320500Y-72463819D01*
X178320500Y-72316181D01*
X178349302Y-72171379D01*
X178405801Y-72034978D01*
X178487825Y-71912221D01*
X178592221Y-71807825D01*
X178714978Y-71725801D01*
X178851379Y-71669302D01*
X178975575Y-71644599D01*
X178996180Y-71640500D01*
X179143820Y-71640500D01*
X179164425Y-71644599D01*
X179164425Y-71644599D01*
G37*
G36*
X176624425Y-71644599D02*
G01*
X176748621Y-71669302D01*
X176885022Y-71725801D01*
X177007779Y-71807825D01*
X177112175Y-71912221D01*
X177194199Y-72034978D01*
X177250698Y-72171379D01*
X177279500Y-72316181D01*
X177279500Y-72463819D01*
X177250698Y-72608621D01*
X177194199Y-72745022D01*
X177112175Y-72867779D01*
X177007779Y-72972175D01*
X176885022Y-73054199D01*
X176748621Y-73110698D01*
X176624425Y-73135401D01*
X176603820Y-73139500D01*
X176456180Y-73139500D01*
X176435575Y-73135401D01*
X176311379Y-73110698D01*
X176174978Y-73054199D01*
X176052221Y-72972175D01*
X175947825Y-72867779D01*
X175865801Y-72745022D01*
X175809302Y-72608621D01*
X175780500Y-72463819D01*
X175780500Y-72316181D01*
X175809302Y-72171379D01*
X175865801Y-72034978D01*
X175947825Y-71912221D01*
X176052221Y-71807825D01*
X176174978Y-71725801D01*
X176311379Y-71669302D01*
X176435575Y-71644599D01*
X176456180Y-71640500D01*
X176603820Y-71640500D01*
X176624425Y-71644599D01*
X176624425Y-71644599D01*
G37*
G36*
X174084425Y-71644599D02*
G01*
X174208621Y-71669302D01*
X174345022Y-71725801D01*
X174467779Y-71807825D01*
X174572175Y-71912221D01*
X174654199Y-72034978D01*
X174710698Y-72171379D01*
X174739500Y-72316181D01*
X174739500Y-72463819D01*
X174710698Y-72608621D01*
X174654199Y-72745022D01*
X174572175Y-72867779D01*
X174467779Y-72972175D01*
X174345022Y-73054199D01*
X174208621Y-73110698D01*
X174084425Y-73135401D01*
X174063820Y-73139500D01*
X173916180Y-73139500D01*
X173895575Y-73135401D01*
X173771379Y-73110698D01*
X173634978Y-73054199D01*
X173512221Y-72972175D01*
X173407825Y-72867779D01*
X173325801Y-72745022D01*
X173269302Y-72608621D01*
X173240500Y-72463819D01*
X173240500Y-72316181D01*
X173269302Y-72171379D01*
X173325801Y-72034978D01*
X173407825Y-71912221D01*
X173512221Y-71807825D01*
X173634978Y-71725801D01*
X173771379Y-71669302D01*
X173895575Y-71644599D01*
X173916180Y-71640500D01*
X174063820Y-71640500D01*
X174084425Y-71644599D01*
X174084425Y-71644599D01*
G37*
G36*
X171544425Y-71644599D02*
G01*
X171668621Y-71669302D01*
X171805022Y-71725801D01*
X171927779Y-71807825D01*
X172032175Y-71912221D01*
X172114199Y-72034978D01*
X172170698Y-72171379D01*
X172199500Y-72316181D01*
X172199500Y-72463819D01*
X172170698Y-72608621D01*
X172114199Y-72745022D01*
X172032175Y-72867779D01*
X171927779Y-72972175D01*
X171805022Y-73054199D01*
X171668621Y-73110698D01*
X171544425Y-73135401D01*
X171523820Y-73139500D01*
X171376180Y-73139500D01*
X171355575Y-73135401D01*
X171231379Y-73110698D01*
X171094978Y-73054199D01*
X170972221Y-72972175D01*
X170867825Y-72867779D01*
X170785801Y-72745022D01*
X170729302Y-72608621D01*
X170700500Y-72463819D01*
X170700500Y-72316181D01*
X170729302Y-72171379D01*
X170785801Y-72034978D01*
X170867825Y-71912221D01*
X170972221Y-71807825D01*
X171094978Y-71725801D01*
X171231379Y-71669302D01*
X171355575Y-71644599D01*
X171376180Y-71640500D01*
X171523820Y-71640500D01*
X171544425Y-71644599D01*
X171544425Y-71644599D01*
G37*
G36*
X169004425Y-71644599D02*
G01*
X169128621Y-71669302D01*
X169265022Y-71725801D01*
X169387779Y-71807825D01*
X169492175Y-71912221D01*
X169574199Y-72034978D01*
X169630698Y-72171379D01*
X169659500Y-72316181D01*
X169659500Y-72463819D01*
X169630698Y-72608621D01*
X169574199Y-72745022D01*
X169492175Y-72867779D01*
X169387779Y-72972175D01*
X169265022Y-73054199D01*
X169128621Y-73110698D01*
X169004425Y-73135401D01*
X168983820Y-73139500D01*
X168836180Y-73139500D01*
X168815575Y-73135401D01*
X168691379Y-73110698D01*
X168554978Y-73054199D01*
X168432221Y-72972175D01*
X168327825Y-72867779D01*
X168245801Y-72745022D01*
X168189302Y-72608621D01*
X168160500Y-72463819D01*
X168160500Y-72316181D01*
X168189302Y-72171379D01*
X168245801Y-72034978D01*
X168327825Y-71912221D01*
X168432221Y-71807825D01*
X168554978Y-71725801D01*
X168691379Y-71669302D01*
X168815575Y-71644599D01*
X168836180Y-71640500D01*
X168983820Y-71640500D01*
X169004425Y-71644599D01*
X169004425Y-71644599D01*
G37*
G36*
X166464425Y-71644599D02*
G01*
X166588621Y-71669302D01*
X166725022Y-71725801D01*
X166847779Y-71807825D01*
X166952175Y-71912221D01*
X167034199Y-72034978D01*
X167090698Y-72171379D01*
X167119500Y-72316181D01*
X167119500Y-72463819D01*
X167090698Y-72608621D01*
X167034199Y-72745022D01*
X166952175Y-72867779D01*
X166847779Y-72972175D01*
X166725022Y-73054199D01*
X166588621Y-73110698D01*
X166464425Y-73135401D01*
X166443820Y-73139500D01*
X166296180Y-73139500D01*
X166275575Y-73135401D01*
X166151379Y-73110698D01*
X166014978Y-73054199D01*
X165892221Y-72972175D01*
X165787825Y-72867779D01*
X165705801Y-72745022D01*
X165649302Y-72608621D01*
X165620500Y-72463819D01*
X165620500Y-72316181D01*
X165649302Y-72171379D01*
X165705801Y-72034978D01*
X165787825Y-71912221D01*
X165892221Y-71807825D01*
X166014978Y-71725801D01*
X166151379Y-71669302D01*
X166275575Y-71644599D01*
X166296180Y-71640500D01*
X166443820Y-71640500D01*
X166464425Y-71644599D01*
X166464425Y-71644599D01*
G37*
G36*
X163924425Y-71644599D02*
G01*
X164048621Y-71669302D01*
X164185022Y-71725801D01*
X164307779Y-71807825D01*
X164412175Y-71912221D01*
X164494199Y-72034978D01*
X164550698Y-72171379D01*
X164579500Y-72316181D01*
X164579500Y-72463819D01*
X164550698Y-72608621D01*
X164494199Y-72745022D01*
X164412175Y-72867779D01*
X164307779Y-72972175D01*
X164185022Y-73054199D01*
X164048621Y-73110698D01*
X163924425Y-73135401D01*
X163903820Y-73139500D01*
X163756180Y-73139500D01*
X163735575Y-73135401D01*
X163611379Y-73110698D01*
X163474978Y-73054199D01*
X163352221Y-72972175D01*
X163247825Y-72867779D01*
X163165801Y-72745022D01*
X163109302Y-72608621D01*
X163080500Y-72463819D01*
X163080500Y-72316181D01*
X163109302Y-72171379D01*
X163165801Y-72034978D01*
X163247825Y-71912221D01*
X163352221Y-71807825D01*
X163474978Y-71725801D01*
X163611379Y-71669302D01*
X163735575Y-71644599D01*
X163756180Y-71640500D01*
X163903820Y-71640500D01*
X163924425Y-71644599D01*
X163924425Y-71644599D01*
G37*
G36*
X161384425Y-71644599D02*
G01*
X161508621Y-71669302D01*
X161645022Y-71725801D01*
X161767779Y-71807825D01*
X161872175Y-71912221D01*
X161954199Y-72034978D01*
X162010698Y-72171379D01*
X162039500Y-72316181D01*
X162039500Y-72463819D01*
X162010698Y-72608621D01*
X161954199Y-72745022D01*
X161872175Y-72867779D01*
X161767779Y-72972175D01*
X161645022Y-73054199D01*
X161508621Y-73110698D01*
X161384425Y-73135401D01*
X161363820Y-73139500D01*
X161216180Y-73139500D01*
X161195575Y-73135401D01*
X161071379Y-73110698D01*
X160934978Y-73054199D01*
X160812221Y-72972175D01*
X160707825Y-72867779D01*
X160625801Y-72745022D01*
X160569302Y-72608621D01*
X160540500Y-72463819D01*
X160540500Y-72316181D01*
X160569302Y-72171379D01*
X160625801Y-72034978D01*
X160707825Y-71912221D01*
X160812221Y-71807825D01*
X160934978Y-71725801D01*
X161071379Y-71669302D01*
X161195575Y-71644599D01*
X161216180Y-71640500D01*
X161363820Y-71640500D01*
X161384425Y-71644599D01*
X161384425Y-71644599D01*
G37*
G36*
X158844425Y-71644599D02*
G01*
X158968621Y-71669302D01*
X159105022Y-71725801D01*
X159227779Y-71807825D01*
X159332175Y-71912221D01*
X159414199Y-72034978D01*
X159470698Y-72171379D01*
X159499500Y-72316181D01*
X159499500Y-72463819D01*
X159470698Y-72608621D01*
X159414199Y-72745022D01*
X159332175Y-72867779D01*
X159227779Y-72972175D01*
X159105022Y-73054199D01*
X158968621Y-73110698D01*
X158844425Y-73135401D01*
X158823820Y-73139500D01*
X158676180Y-73139500D01*
X158655575Y-73135401D01*
X158531379Y-73110698D01*
X158394978Y-73054199D01*
X158272221Y-72972175D01*
X158167825Y-72867779D01*
X158085801Y-72745022D01*
X158029302Y-72608621D01*
X158000500Y-72463819D01*
X158000500Y-72316181D01*
X158029302Y-72171379D01*
X158085801Y-72034978D01*
X158167825Y-71912221D01*
X158272221Y-71807825D01*
X158394978Y-71725801D01*
X158531379Y-71669302D01*
X158655575Y-71644599D01*
X158676180Y-71640500D01*
X158823820Y-71640500D01*
X158844425Y-71644599D01*
X158844425Y-71644599D01*
G37*
G36*
X181704425Y-71644599D02*
G01*
X181828621Y-71669302D01*
X181965022Y-71725801D01*
X182087779Y-71807825D01*
X182192175Y-71912221D01*
X182274199Y-72034978D01*
X182330698Y-72171379D01*
X182359500Y-72316181D01*
X182359500Y-72463819D01*
X182330698Y-72608621D01*
X182274199Y-72745022D01*
X182192175Y-72867779D01*
X182087779Y-72972175D01*
X181965022Y-73054199D01*
X181828621Y-73110698D01*
X181704425Y-73135401D01*
X181683820Y-73139500D01*
X181536180Y-73139500D01*
X181515575Y-73135401D01*
X181391379Y-73110698D01*
X181254978Y-73054199D01*
X181132221Y-72972175D01*
X181027825Y-72867779D01*
X180945801Y-72745022D01*
X180889302Y-72608621D01*
X180860500Y-72463819D01*
X180860500Y-72316181D01*
X180889302Y-72171379D01*
X180945801Y-72034978D01*
X181027825Y-71912221D01*
X181132221Y-71807825D01*
X181254978Y-71725801D01*
X181391379Y-71669302D01*
X181515575Y-71644599D01*
X181536180Y-71640500D01*
X181683820Y-71640500D01*
X181704425Y-71644599D01*
X181704425Y-71644599D01*
G37*
M02*
