M48
; DRILL file {KiCad (5.1.4)-1} date 29/05/2020 14:17:50
; FORMAT={-:-/ absolute / inch / decimal}
; #@! TF.CreationDate,2020-05-29T14:17:50+02:00
; #@! TF.GenerationSoftware,Kicad,Pcbnew,(5.1.4)-1
FMAT,2
INCH
T1C0.0157
T2C0.0315
T3C0.0320
T4C0.0394
T5C0.0400
%
G90
G05
T1
X4.2Y-3.63
X6.12Y-3.87
X7.38Y-3.735
T2
X4.8Y-2.9
X5.1Y-2.9
T3
X6.25Y-2.85
X6.25Y-3.45
X6.35Y-2.85
X6.35Y-3.45
X6.45Y-2.85
X6.45Y-3.45
X6.55Y-2.85
X6.55Y-3.45
X6.65Y-2.85
X6.65Y-3.45
X6.75Y-2.85
X6.75Y-3.45
X6.85Y-2.85
X6.85Y-3.45
X6.95Y-2.85
X6.95Y-3.45
X7.05Y-2.85
X7.05Y-3.45
X7.15Y-2.85
X7.15Y-3.45
X7.25Y-2.85
X7.25Y-3.45
X7.35Y-2.85
X7.35Y-3.45
X4.15Y-3.45
X4.15Y-3.75
X4.25Y-3.45
X4.25Y-3.75
X4.35Y-3.45
X4.35Y-3.75
X4.45Y-3.45
X4.45Y-3.75
X4.55Y-3.45
X4.55Y-3.75
X4.65Y-3.45
X4.65Y-3.75
X4.75Y-3.45
X4.75Y-3.75
X4.85Y-3.45
X4.85Y-3.75
X4.95Y-3.45
X4.95Y-3.75
X5.05Y-3.45
X5.05Y-3.75
X6.25Y-3.65
X6.25Y-3.75
T4
X4.3Y-3.1
X4.3Y-3.2
X4.4Y-3.1
X4.4Y-3.2
X4.5Y-3.1
X4.5Y-3.2
X4.6Y-3.1
X4.6Y-3.2
X4.7Y-3.1
X4.7Y-3.2
X4.8Y-3.1
X4.8Y-3.2
T5
X5.5703Y-2.9638
X5.5703Y-3.7512
X4.5Y-2.9
X4.6Y-2.9
T0
M30
